<svg width="505" height="233" viewBox="0 0 505 233" fill="none" xmlns="http://www.w3.org/2000/svg">
<path d="M414.224 166.574C414.824 166.574 415.37 166.793 415.753 167.23C416.189 167.613 416.408 168.214 416.408 168.761C416.408 169.307 416.189 169.909 415.753 170.291C415.37 170.729 414.771 170.947 414.224 170.947C413.678 170.947 413.078 170.729 412.695 170.291C412.259 169.909 412.041 169.307 412.041 168.761C412.041 168.159 412.259 167.613 412.695 167.23C413.078 166.793 413.678 166.574 414.224 166.574Z" fill="#13A2D7"/>
<path d="M404.02 150.392C406.312 148.151 409.314 146.948 412.425 147.003C415.919 147.057 419.03 148.697 421.158 151.157C424.161 143.886 431.311 138.748 439.662 138.748C447.795 138.748 454.837 143.668 457.948 150.665C458.384 150.064 458.875 149.463 459.422 148.971C462.097 146.347 465.59 144.925 469.301 145.034C476.779 145.144 482.839 151.431 482.839 159.029V165.207C482.839 165.972 483.439 166.573 484.202 166.573H488.023C489.225 166.573 490.207 167.557 490.207 168.76C490.207 169.963 489.225 170.947 488.023 170.947H484.202C481.038 170.947 478.472 168.378 478.472 165.207V159.029C478.472 153.781 474.323 149.463 469.192 149.408C466.628 149.353 464.225 150.337 462.424 152.141C460.623 153.945 459.585 156.296 459.585 158.865C459.585 160.068 458.603 161.052 457.402 161.052C456.202 161.052 455.218 160.068 455.218 158.865C455.218 150.228 448.178 143.176 439.553 143.176C430.929 143.176 423.888 150.228 423.888 158.865C423.888 160.068 422.906 161.052 421.705 161.052C420.503 161.052 419.521 160.068 419.521 158.865C419.521 154.82 416.246 151.485 412.206 151.431C410.241 151.376 408.385 152.141 406.967 153.563C405.493 154.984 404.675 157.007 404.675 159.084V163.348C404.675 165.152 406.148 166.628 407.949 166.628C409.151 166.628 410.133 167.612 410.133 168.815C410.133 170.017 409.151 171.002 407.949 171.002C403.745 171.002 400.307 167.557 400.307 163.348V159.084C400.418 155.804 401.727 152.688 404.02 150.392Z" fill="#13A2D7"/>
<path d="M494.517 166.574H496.754C497.956 166.574 498.938 167.558 498.938 168.761C498.938 169.963 497.956 170.947 496.754 170.947H494.517C493.316 170.947 492.334 169.963 492.334 168.761C492.334 167.558 493.316 166.574 494.517 166.574Z" fill="#13A2D7"/>
<path d="M502.816 166.574C503.416 166.574 503.962 166.793 504.343 167.23C504.726 167.613 505 168.214 505 168.761C505 169.307 504.781 169.909 504.343 170.291C503.907 170.729 503.361 170.947 502.816 170.947C502.27 170.947 501.67 170.729 501.287 170.291C500.905 169.909 500.633 169.307 500.633 168.761C500.633 168.159 500.852 167.613 501.287 167.23C501.67 166.793 502.27 166.574 502.816 166.574Z" fill="#13A2D7"/>
<path d="M395.612 42.4246H396.705C397.907 42.4246 398.889 43.4085 398.889 44.6112C398.889 45.8139 397.907 46.7979 396.705 46.7979H395.612C394.413 46.7979 393.431 45.8139 393.431 44.6112C393.431 43.4085 394.413 42.4246 395.612 42.4246Z" fill="#13A2D7"/>
<path d="M389.227 25.6968C392.121 25.7515 394.74 27.0089 396.597 29.0315C399.325 22.9089 405.44 18.6448 412.536 18.6448C419.468 18.6448 425.47 22.6901 428.309 28.5943C428.636 28.2116 428.911 27.829 429.291 27.5008C431.639 25.2049 434.696 23.9475 438.026 24.0022C444.575 24.1114 449.979 29.6329 449.979 36.3023V41.605C449.979 42.0971 450.361 42.4797 450.852 42.4797H454.127C455.328 42.4797 456.311 43.4637 456.311 44.6664C456.311 45.8691 455.328 46.853 454.127 46.853H450.852C447.961 46.853 445.613 44.5025 445.613 41.605V36.3023C445.613 31.9837 442.175 28.4302 437.971 28.3755C435.898 28.3208 433.878 29.1409 432.404 30.6169C430.931 32.0929 430.057 34.0609 430.057 36.1384C430.057 37.3409 429.074 38.325 427.873 38.325C426.672 38.325 425.689 37.3409 425.689 36.1384C425.689 28.9223 419.795 23.0181 412.589 23.0181C405.385 23.0181 399.488 28.9223 399.488 36.1384C399.488 37.3409 398.506 38.325 397.307 38.325C396.105 38.325 395.123 37.3409 395.123 36.1384C395.123 32.8582 392.448 30.125 389.173 30.0703C387.536 30.0156 386.063 30.6716 384.861 31.8196C383.66 33.0223 382.95 34.6624 382.95 36.3023V39.9104C382.95 41.277 384.096 42.425 385.461 42.425C386.662 42.425 387.645 43.409 387.645 44.6117C387.645 45.8144 386.662 46.7983 385.461 46.7983C381.695 46.7983 378.584 43.7371 378.584 39.9104V36.3023C378.584 33.4597 379.73 30.6716 381.804 28.7035C383.768 26.6809 386.443 25.6421 389.227 25.6968Z" fill="#13A2D7"/>
<path d="M463.462 42.4246H467.719C468.92 42.4246 469.903 43.4085 469.903 44.6112C469.903 45.8139 468.92 46.7979 467.719 46.7979H463.462C462.26 46.7979 461.278 45.8139 461.278 44.6112C461.278 43.4085 462.26 42.4246 463.462 42.4246Z" fill="#13A2D7"/>
<path d="M478.691 42.4246C479.237 42.4246 479.839 42.6431 480.219 43.0805C480.602 43.5179 480.874 44.0644 480.874 44.6112C480.874 45.1578 480.657 45.7592 480.219 46.1419C479.839 46.5246 479.237 46.7979 478.691 46.7979C478.146 46.7979 477.545 46.5793 477.164 46.1419C476.726 45.7045 476.509 45.1578 476.509 44.6112C476.509 44.0098 476.726 43.4632 477.164 43.0805C477.545 42.6978 478.091 42.4246 478.691 42.4246Z" fill="#13A2D7"/>
<path d="M129.354 92.9921C127.334 92.9374 125.478 93.5935 123.95 94.7963C121.166 86.7601 113.524 80.9653 104.573 80.9653C96.3306 80.9653 89.2345 85.8307 86.0142 92.8829C83.1213 88.2908 78.045 85.2294 72.259 85.2294C65.8727 85.2294 60.3598 88.9468 57.685 94.3042C55.7201 92.0082 52.8272 90.5322 49.5522 90.4228C46.6046 90.3681 43.8208 91.4614 41.6921 93.5935C39.5632 95.7255 38.3078 98.6228 38.3078 101.63C38.3078 106.112 34.6507 109.775 30.175 109.775H27.7186C26.5177 109.775 25.5353 110.759 25.5353 111.962C25.5353 113.164 26.5177 114.148 27.7186 114.148H30.175C37.0524 114.148 42.6745 108.518 42.6745 101.63C42.6745 99.7708 43.4387 97.9668 44.7488 96.7096C46.0588 95.4522 47.6963 94.7963 49.4429 94.7963C53.0455 94.8508 55.9931 97.8574 55.9931 101.466C55.9931 102.668 56.9755 103.652 58.1764 103.652C59.3772 103.652 60.3598 102.668 60.3598 101.466C60.3598 94.9055 65.709 89.548 72.259 89.548C78.809 89.548 84.1583 94.9055 84.1583 101.466C84.1583 102.668 85.1409 103.652 86.3416 103.652C87.5426 103.652 88.525 102.668 88.525 101.466C88.525 92.5547 95.7301 85.3388 104.627 85.3388C113.524 85.3388 120.73 92.5547 120.73 101.466C120.73 102.668 121.712 103.652 122.913 103.652C124.114 103.652 125.096 102.668 125.096 101.466C125.096 100.372 125.533 99.3336 126.352 98.5136C127.17 97.7482 128.208 97.3109 129.299 97.3656C131.483 97.4203 133.284 99.3336 133.284 101.575V105.675C133.284 107.916 131.483 109.775 129.19 109.775H128.044C126.843 109.775 125.86 110.759 125.86 111.962C125.86 113.164 126.843 114.148 128.044 114.148H129.19C133.83 114.148 137.651 110.376 137.651 105.675V101.575C137.596 96.9829 133.884 93.1562 129.354 92.9921Z" fill="#13A2D7"/>
<path d="M5.34003 109.774H3.32045C2.11959 109.774 1.13708 110.758 1.13708 111.961C1.13708 113.164 2.11959 114.147 3.32045 114.147H5.34003C6.54089 114.147 7.52339 113.164 7.52339 111.961C7.52339 110.758 6.54089 109.774 5.34003 109.774Z" fill="#13A2D7"/>
<path d="M20.241 109.774H12.7084C11.5075 109.774 10.525 110.758 10.525 111.961C10.525 113.164 11.5075 114.147 12.7084 114.147H20.241C21.4418 114.147 22.4244 113.164 22.4244 111.961C22.4244 110.758 21.4418 109.774 20.241 109.774Z" fill="#13A2D7"/>
<path d="M121.931 109.774H116.2C114.999 109.774 114.017 110.758 114.017 111.961C114.017 113.164 114.999 114.147 116.2 114.147H121.931C123.132 114.147 124.115 113.164 124.115 111.961C124.115 110.758 123.132 109.774 121.931 109.774Z" fill="#13A2D7"/>
<path d="M266.577 228.95C257.572 228.95 248.675 227.856 240.051 225.615C239.013 225.343 238.413 224.304 238.685 223.319C238.958 222.28 239.995 221.68 240.978 221.952C249.275 224.085 257.899 225.123 266.577 225.123C285.627 225.123 304.132 219.93 320.18 210.036C321.052 209.489 322.253 209.761 322.8 210.636C323.344 211.511 323.072 212.713 322.198 213.26C305.551 223.538 286.337 228.95 266.577 228.95Z" fill="#D2EDFF"/>
<path d="M362.047 80.9662C361.337 80.9662 360.627 80.5289 360.3 79.8729C355.443 69.1581 348.837 59.4273 340.595 50.8445C339.887 50.0791 339.887 48.8764 340.65 48.1657C341.414 47.4551 342.615 47.4551 343.325 48.2204C351.894 57.0766 358.771 67.2447 363.738 78.3422C364.176 79.3261 363.738 80.4195 362.811 80.8568C362.539 80.9115 362.264 80.9662 362.047 80.9662Z" fill="#D2EDFF"/>
<path d="M291.742 22.3629C291.578 22.3629 291.415 22.3629 291.304 22.3084C283.281 20.3403 274.984 19.3563 266.632 19.3563C265.596 19.3563 264.723 18.4816 264.723 17.4429C264.723 16.4042 265.596 15.5295 266.632 15.5295C275.312 15.5295 283.881 16.5682 292.233 18.5909C293.269 18.8642 293.87 19.8482 293.652 20.8869C293.379 21.7616 292.614 22.3629 291.742 22.3629Z" fill="#D2EDFF"/>
<path d="M162.542 135.798C161.559 135.798 160.741 135.087 160.631 134.103C160.195 130.167 159.976 126.176 159.976 122.24C159.976 106.879 163.142 92.1186 169.365 78.2878C169.802 77.3039 170.948 76.9212 171.876 77.3584C172.858 77.7958 173.24 78.9438 172.804 79.8732C166.799 93.1574 163.743 107.425 163.743 122.24C163.743 126.067 163.961 129.894 164.343 133.666C164.452 134.704 163.688 135.634 162.651 135.743C162.705 135.798 162.651 135.798 162.542 135.798Z" fill="#D2EDFF"/>
<path d="M182.957 92.2283C182.738 92.2283 182.52 92.1738 182.302 92.1191C181.319 91.7365 180.828 90.6431 181.21 89.659C185.795 77.6323 192.782 66.808 202.006 57.5694C219.255 40.2944 242.181 30.7825 266.579 30.7825C271.274 30.7825 275.967 31.1104 280.553 31.8211C281.589 31.985 282.299 32.9691 282.135 34.0077C281.971 35.0464 280.989 35.757 279.952 35.5931C275.586 34.9372 271.055 34.609 266.579 34.609C243.217 34.609 221.22 43.7385 204.681 60.3028C195.838 69.1588 189.125 79.4909 184.758 91.0803C184.431 91.7365 183.721 92.2283 182.957 92.2283Z" fill="#D2EDFF"/>
<path d="M240.542 209.872C240.378 209.872 240.159 209.872 239.995 209.763C225.804 205.445 212.648 197.517 202.006 186.912C188.36 173.245 179.517 156.025 176.46 137.055C176.297 136.016 177.006 135.032 178.043 134.868C179.08 134.704 180.063 135.415 180.226 136.454C183.174 154.603 191.635 171.113 204.734 184.233C214.943 194.456 227.497 201.999 241.141 206.154C242.124 206.483 242.726 207.522 242.398 208.505C242.124 209.38 241.36 209.872 240.542 209.872Z" fill="#D2EDFF"/>
<path d="M312.155 201.288C311.5 201.288 310.9 200.96 310.518 200.36C309.971 199.43 310.299 198.283 311.173 197.736C317.45 194.018 323.291 189.481 328.53 184.233C345.069 167.669 354.184 145.638 354.184 122.24C354.184 104.091 348.726 86.7062 338.409 71.946C337.809 71.0715 338.028 69.9235 338.847 69.2675C339.719 68.666 340.867 68.8848 341.522 69.7047C352.328 85.0663 358.005 103.216 358.005 122.185C358.005 146.622 348.507 169.582 331.26 186.857C325.802 192.323 319.742 197.079 313.193 200.961C312.81 201.18 312.483 201.288 312.155 201.288Z" fill="#D2EDFF"/>
<path d="M254.735 162.091C252.005 162.036 249.494 162.856 247.42 164.278C246.438 164.988 245.073 164.77 244.31 163.84L244.254 163.785C243.491 162.856 243.491 161.489 244.31 160.615C247.093 157.554 248.73 153.399 248.458 148.861C247.967 140.935 241.635 134.484 233.72 133.882C224.33 133.172 216.527 140.607 216.527 149.845C216.527 150.556 216.58 151.267 216.635 151.923C216.907 154.109 215.816 156.296 213.796 157.28C210.411 158.92 207.464 161.216 205.117 164.113C214.834 178.382 229.353 189.042 246.328 193.798C247.312 192.267 248.131 190.573 248.73 188.823C249.33 187.183 250.967 186.144 252.77 186.363C253.261 186.418 253.753 186.472 254.297 186.472C261.339 186.472 266.962 180.514 266.47 173.407C266.143 167.175 260.957 162.255 254.735 162.091Z" fill="#D2EDFF"/>
<path d="M327.55 79.763C328.97 81.7857 330.28 83.863 331.481 86.0496C331.481 86.0496 331.481 86.1043 331.534 86.1043C333.008 88.7283 334.318 91.4617 335.411 94.2498C336.557 97.0377 337.539 99.9352 338.303 102.942C335.847 105.511 332.791 107.425 329.351 108.518C333.008 112.509 335.192 117.811 335.192 123.606C335.192 128.69 333.499 133.391 330.607 137.163C333.554 138.804 336.01 141.373 337.431 144.434C334.809 152.798 330.771 160.507 325.64 167.285C324.711 167.449 323.784 167.559 322.857 167.559C313.958 167.559 306.699 160.288 306.699 151.377C306.699 150.885 306.699 150.448 306.754 149.956C306.973 147.386 305.608 144.872 303.26 143.778C295.782 140.17 290.598 132.517 290.598 123.661C290.598 115.625 294.8 108.627 301.132 104.691C303.752 103.051 304.789 99.7711 303.533 96.9285C302.386 94.3043 301.732 91.407 301.732 88.4004V88.3457C301.732 86.3231 300.313 84.6283 298.348 84.191C297.747 84.0816 297.147 83.9177 296.547 83.6989C295.893 83.4803 295.401 82.9337 295.346 82.2229C294.472 73.4216 287.049 66.5335 277.989 66.5335C270.347 66.5335 263.906 71.4536 261.503 78.287C260.631 80.8563 259.538 83.3162 258.12 85.5578L258.01 85.7763C254.735 91.0791 249.715 95.2338 243.71 97.2565C242.781 97.5845 242.126 98.4592 242.126 99.4432C242.126 104.145 240.216 108.354 237.159 111.415C235.632 112.891 234.813 114.969 234.922 117.101C234.922 117.265 234.922 117.374 234.922 117.538C234.922 123.442 229.955 128.143 224.005 127.706C218.983 127.378 214.945 123.387 214.562 118.358C214.507 117.757 214.507 117.101 214.562 116.499C214.781 114.313 214.015 112.181 212.542 110.486C209.922 107.534 208.34 103.598 208.34 99.3338C208.34 96.3271 209.104 93.5392 210.469 91.1338C211.778 88.783 211.832 85.9949 210.632 83.5897C209.431 81.239 208.612 78.7243 208.176 76.0456C208.557 75.5536 208.995 75.0068 209.431 74.5149C209.486 74.4056 209.595 74.3509 209.65 74.2415C209.977 73.8588 210.358 73.4216 210.686 73.0389C210.796 72.9296 210.905 72.8202 211.013 72.7108C211.341 72.3281 211.668 71.9456 212.051 71.5629C212.159 71.4536 212.27 71.3442 212.378 71.2348C212.761 70.8521 213.088 70.4694 213.471 70.0868C213.579 69.9776 213.635 69.9229 213.743 69.8135C214.179 69.3761 214.617 68.9387 215.053 68.5016L215.108 68.4469C216.091 67.5174 217.073 66.5882 218.111 65.7135C218.164 65.6588 218.274 65.6041 218.328 65.5494C218.766 65.1667 219.202 64.8387 219.584 64.4561C219.693 64.3469 219.856 64.2375 219.965 64.1281C220.348 63.8001 220.73 63.5268 221.111 63.1988C221.275 63.0895 221.385 62.9801 221.549 62.8707C221.93 62.5974 222.312 62.2694 222.695 61.9961C222.859 61.8867 222.967 61.7773 223.131 61.6681C223.569 61.34 223.95 61.0667 224.388 60.7934C224.496 60.7387 224.605 60.6293 224.715 60.5746C225.806 59.8095 226.952 59.0986 228.098 58.388C228.153 58.3333 228.207 58.3333 228.262 58.2788C228.753 57.9506 229.3 57.6773 229.791 57.4041C229.955 57.2947 230.118 57.24 230.227 57.1308C230.665 56.912 231.045 56.6387 231.483 56.4199C231.647 56.3107 231.864 56.2013 232.028 56.1466C232.41 55.9281 232.846 55.7093 233.229 55.5454C233.448 55.436 233.612 55.3266 233.831 55.2719C234.267 55.0533 234.649 54.8894 235.085 54.6706C235.249 54.5613 235.468 54.5068 235.632 54.3974C236.068 54.1786 236.559 53.96 237.05 53.7959C237.159 53.7414 237.322 53.6867 237.433 53.632C238.634 53.0853 239.889 52.6479 241.143 52.156C241.307 52.1013 241.471 52.0466 241.635 51.9919C242.073 51.828 242.564 51.664 243 51.4999C243.219 51.4454 243.436 51.336 243.655 51.2813C244.093 51.1719 244.473 51.008 244.911 50.8986C245.128 50.8439 245.402 50.7345 245.619 50.68C246.002 50.5706 246.438 50.4612 246.876 50.3518C247.093 50.2974 247.367 50.2427 247.584 50.1333C248.022 50.0239 248.458 49.9147 248.896 49.8053C249.113 49.7506 249.332 49.6959 249.551 49.6412C250.042 49.532 250.587 49.4226 251.133 49.3132C251.241 49.2585 251.405 49.2585 251.516 49.204C252.171 49.0946 252.825 48.9306 253.48 48.8214C253.644 48.7667 253.808 48.7667 253.972 48.7667C254.463 48.6573 255.009 48.6026 255.5 48.4932C255.717 48.4387 255.992 48.4387 256.209 48.384C256.647 48.3293 257.082 48.2746 257.518 48.2199C257.793 48.1652 258.065 48.1652 258.284 48.1105C258.72 48.056 259.102 48.0013 259.538 48.0013C259.813 48.0013 260.085 47.9466 260.357 47.9466C260.795 47.8919 261.231 47.8919 261.614 47.8372C261.886 47.8372 262.158 47.7825 262.377 47.7825C262.868 47.7825 263.304 47.7278 263.795 47.7278C264.014 47.7278 264.233 47.7278 264.452 47.7278C265.161 47.7278 265.815 47.6733 266.526 47.6733C267.125 47.6733 267.727 47.6733 268.327 47.6733C268.49 47.6733 268.709 47.6733 268.873 47.6733C269.256 47.6733 269.692 47.6733 270.074 47.7278C270.291 47.7278 270.51 47.7278 270.729 47.7825C271.11 47.7825 271.493 47.8372 271.875 47.8372C272.092 47.8372 272.311 47.8919 272.53 47.8919C272.911 47.9466 273.294 47.9466 273.676 48.0013C273.893 48.0013 274.057 48.056 274.276 48.056C274.767 48.1105 275.259 48.1652 275.805 48.2199C275.86 48.2199 275.969 48.2199 276.024 48.2199C276.568 48.2746 277.17 48.384 277.714 48.4387C277.878 48.4932 278.097 48.4932 278.261 48.5479C278.644 48.6026 279.024 48.6573 279.407 48.7667C279.626 48.8214 279.845 48.8214 280.062 48.8759C280.389 48.9306 280.772 48.9852 281.1 49.0946C281.319 49.1493 281.536 49.204 281.754 49.204C282.137 49.2585 282.465 49.3679 282.845 49.4226C283.064 49.4773 283.283 49.532 283.447 49.5865C283.883 49.6959 284.266 49.8053 284.702 49.9147C284.812 49.9692 284.976 49.9692 285.084 50.0239C285.631 50.188 286.175 50.2974 286.666 50.4612C286.83 50.5159 287.049 50.5706 287.213 50.6253C287.596 50.7345 287.923 50.8439 288.25 50.9533C288.467 51.008 288.686 51.1172 288.905 51.1719C289.233 51.2813 289.56 51.3907 289.833 51.4999C290.051 51.5546 290.27 51.664 290.543 51.7187C290.87 51.828 291.142 51.9372 291.47 52.0466C291.689 52.1013 291.908 52.2107 292.125 52.2652C292.452 52.3746 292.78 52.5387 293.107 52.6479C293.271 52.7026 293.49 52.812 293.654 52.8667C294.036 53.0306 294.472 53.1946 294.855 53.3587C294.855 53.3587 308.009 72.9295 308.009 74.7882C308.009 76.7016 312.212 84.683 313.467 85.831C314.724 86.9791 319.799 90.7511 321.711 88.291C323.892 86.0496 327.55 79.763 327.55 79.763Z" fill="#D2EDFF"/>
<path d="M342.668 119.342C342.668 119.124 342.668 118.905 342.613 118.686C342.613 118.413 342.613 118.14 342.56 117.866C342.56 117.648 342.504 117.374 342.504 117.156C342.504 116.937 342.449 116.664 342.449 116.445C342.449 116.172 342.396 115.953 342.396 115.68C342.396 115.461 342.341 115.242 342.341 115.024C342.341 114.75 342.285 114.477 342.232 114.204C342.232 113.985 342.177 113.821 342.177 113.602C342.122 113.329 342.122 113.056 342.068 112.728C342.068 112.564 342.013 112.345 342.013 112.181C341.958 111.908 341.905 111.58 341.905 111.306C341.905 111.142 341.85 110.978 341.85 110.76C341.794 110.432 341.741 110.158 341.686 109.83C341.686 109.666 341.631 109.502 341.631 109.338C341.577 109.01 341.522 108.737 341.467 108.409C341.414 108.245 341.414 108.081 341.358 107.972C341.303 107.644 341.25 107.316 341.139 106.988C341.086 106.824 341.086 106.714 341.031 106.55C340.976 106.222 340.867 105.894 340.812 105.566C340.759 105.457 340.759 105.293 340.703 105.183C340.648 104.855 340.54 104.473 340.484 104.145C340.431 104.035 340.431 103.926 340.376 103.817C340.267 103.489 340.212 103.106 340.104 102.778C340.048 102.669 340.048 102.559 339.993 102.45C339.885 102.068 339.774 101.74 339.721 101.357C339.666 101.248 339.666 101.138 339.611 101.083C339.502 100.701 339.394 100.373 339.283 99.9901C339.283 99.8809 339.23 99.8262 339.23 99.7168C339.119 99.3341 339.011 98.9515 338.902 98.6235C338.902 98.5688 338.847 98.4594 338.847 98.4047C338.739 98.022 338.575 97.6394 338.464 97.2567C338.464 97.2022 338.411 97.0928 338.411 97.0381C338.301 96.6554 338.137 96.2728 337.973 95.8901C337.973 95.8354 337.92 95.7807 337.92 95.726C337.756 95.3433 337.646 94.9606 337.482 94.578C337.482 94.5235 337.429 94.4688 337.429 94.4141C337.265 94.0314 337.101 93.6487 336.938 93.2661C336.938 93.2114 336.882 93.1567 336.882 93.102C336.719 92.7193 336.555 92.3366 336.391 91.8995C336.391 91.8448 336.336 91.8448 336.336 91.7901C336.172 91.4074 336.008 90.97 335.791 90.5874C335.791 90.5327 335.736 90.5327 335.736 90.478C335.573 90.0953 335.354 89.6579 335.19 89.2752C335.19 89.2752 335.19 89.2208 335.137 89.2208C334.918 88.8381 334.754 88.4007 334.535 88.018C334.535 88.018 334.535 87.9633 334.48 87.9633C334.263 87.5807 334.044 87.1433 333.88 86.7606V86.7059C333.661 86.3233 333.444 85.8859 333.225 85.5032C333.225 85.5032 333.225 85.5032 333.225 85.4487C333.006 85.0661 332.789 84.6287 332.515 84.246C332.298 83.8633 332.024 83.426 331.807 83.0433C331.588 82.6606 331.316 82.2233 331.041 81.8406C330.55 81.0205 330.006 80.2552 329.459 79.4351C338.084 63.527 348.945 41.3868 348.89 31.1641C348.781 19.6292 342.341 9.57046 332.842 4.43174C328.477 2.08105 323.51 0.714355 318.268 0.714355C318.215 0.714355 318.105 0.714355 318.051 0.714355C309.863 0.769024 302.221 3.99439 296.49 9.8438C290.76 15.6932 287.594 23.4012 287.702 31.6014C287.757 36.1935 290.05 43.1908 293.324 50.9537C293.269 50.9537 293.216 50.899 293.216 50.899C293.105 50.8443 293.052 50.8443 292.941 50.7896C292.888 50.7896 292.833 50.7349 292.778 50.7349C292.778 50.7349 292.778 50.7349 292.724 50.7349C292.342 50.571 291.959 50.4616 291.632 50.3522C291.468 50.2975 291.359 50.2428 291.196 50.1883C290.813 50.0789 290.485 49.9695 290.105 49.8056C289.941 49.7509 289.831 49.6963 289.667 49.6963C289.012 49.4777 288.357 49.3136 287.702 49.0948C287.538 49.0403 287.375 48.9856 287.211 48.9309C286.883 48.8215 286.611 48.7668 286.284 48.6576C286.065 48.6029 285.846 48.5482 285.629 48.4935C285.355 48.4388 285.027 48.3296 284.755 48.275C284.536 48.2203 284.264 48.1656 284.045 48.1109C283.773 48.0562 283.445 47.947 283.171 47.8923C282.68 47.7829 282.244 47.6735 281.753 47.5643C281.48 47.5096 281.153 47.4549 280.879 47.4002C280.606 47.3455 280.387 47.2908 280.115 47.2361C279.788 47.1816 279.516 47.1269 279.188 47.0722C278.969 47.0175 278.695 47.0175 278.478 46.9628C278.15 46.9082 277.876 46.8535 277.549 46.799C277.332 46.7443 277.113 46.7443 276.949 46.6896C276.349 46.5802 275.695 46.5255 275.093 46.4708C274.929 46.4708 274.712 46.4163 274.548 46.4163C274.221 46.3616 273.838 46.3616 273.511 46.3069C273.347 46.3069 273.128 46.2522 272.964 46.2522C272.582 46.1975 272.254 46.1975 271.873 46.1428C271.763 46.1428 271.599 46.1428 271.491 46.1428C269.962 46.0336 268.433 45.9789 266.906 45.9789C266.851 45.9789 266.743 45.9789 266.687 45.9789C266.632 45.9789 266.632 45.9789 266.579 45.9789C266.088 45.9789 265.596 45.9789 265.05 45.9789C264.886 45.9789 264.723 45.9789 264.614 45.9789C264.45 45.9789 264.34 45.9789 264.176 45.9789H263.959C263.959 45.9789 263.959 45.9789 263.904 45.9789C263.904 45.9789 263.904 45.9789 263.849 45.9789C263.413 45.9789 262.975 46.0336 262.539 46.0336C262.32 46.0336 262.103 46.0336 261.884 46.0881H261.72C261.665 46.0881 261.665 46.0881 261.612 46.0881C261.229 46.0881 260.846 46.1428 260.519 46.1428H260.466C260.191 46.1428 259.919 46.1975 259.647 46.1975C259.592 46.1975 259.592 46.1975 259.536 46.1975C259.209 46.2522 258.882 46.2522 258.554 46.3069C258.499 46.3069 258.446 46.3069 258.39 46.3069C258.118 46.3616 257.844 46.3616 257.572 46.4163C257.516 46.4163 257.463 46.4163 257.463 46.4163C257.189 46.4708 256.917 46.4708 256.645 46.5255C256.534 46.5255 256.37 46.5802 256.262 46.5802L256.043 46.6349C255.879 46.6349 255.715 46.6896 255.552 46.6896C255.498 46.6896 255.443 46.6896 255.388 46.6896C255.279 46.6896 255.171 46.7443 255.007 46.7443C255.007 46.7443 255.007 46.7443 254.952 46.7443C254.625 46.799 254.297 46.8535 253.97 46.9082L253.806 46.9628C253.697 46.9628 253.587 47.0175 253.532 47.0175C252.877 47.1269 252.169 47.2908 251.514 47.4002C251.403 47.4002 251.35 47.4549 251.239 47.4549L251.076 47.5096C250.531 47.6188 249.985 47.7282 249.494 47.8376C249.33 47.8923 249.166 47.8923 249.058 47.947L248.839 48.0015C248.401 48.1109 247.965 48.2203 247.529 48.3296C247.31 48.3841 247.091 48.4388 246.819 48.4935H246.764C246.328 48.6029 245.945 48.7123 245.509 48.8762C245.29 48.9309 245.018 49.0403 244.799 49.0948C244.363 49.2042 243.927 49.3683 243.544 49.4777L243.38 49.5322C243.217 49.5869 243.053 49.6416 242.834 49.6963C242.343 49.8601 241.907 50.0242 241.416 50.1883L241.197 50.2428C241.088 50.2975 240.978 50.2975 240.869 50.3522C239.615 50.7896 238.305 51.3363 237.048 51.8282L236.612 51.9923C236.121 52.2109 235.63 52.4297 235.192 52.6482C235.083 52.7029 234.92 52.7576 234.811 52.8123L234.647 52.867C234.21 53.0856 233.774 53.2497 233.391 53.4683C233.172 53.5777 233.008 53.6869 232.791 53.7416C232.353 53.9604 231.973 54.1789 231.535 54.3977L231.481 54.4522C231.318 54.5616 231.154 54.6163 230.99 54.7257C230.552 54.9443 230.116 55.2176 229.68 55.4363L229.242 55.7096C228.698 55.9829 228.207 56.3109 227.66 56.6391L227.497 56.7483C226.35 57.4589 225.204 58.1698 224.058 58.9896L223.731 59.2084C223.293 59.5364 222.857 59.8096 222.419 60.1376L221.983 60.4656C221.6 60.7391 221.164 61.067 220.782 61.3403C220.618 61.4497 220.509 61.5591 220.346 61.6683C219.963 61.9963 219.527 62.2698 219.144 62.5977L218.764 62.9257C218.326 63.3084 217.89 63.6364 217.452 64.019L217.235 64.1831C216.197 65.0577 215.16 66.0418 214.177 66.971L214.124 67.0257C213.686 67.4631 213.25 67.9005 212.759 68.3378L212.485 68.6111C212.104 68.9938 211.721 69.3765 211.394 69.7591L211.066 70.1418C210.739 70.5245 210.356 70.9072 210.029 71.2898L209.701 71.6725C209.321 72.1099 208.993 72.4925 208.61 72.9299L208.391 73.2032C207.955 73.7497 207.518 74.2418 207.137 74.7339C207.082 74.8433 207.026 74.8978 206.973 75.0072C206.646 75.4445 206.318 75.8272 205.991 76.2646C205.827 76.4832 205.663 76.7019 205.553 76.8658C205.389 77.1391 205.172 77.3579 205.008 77.6312C204.845 77.85 204.681 78.0685 204.517 78.2871C204.353 78.5059 204.19 78.7792 204.026 78.998C203.862 79.2166 203.698 79.4352 203.588 79.6539C203.424 79.9272 203.261 80.146 203.097 80.4193C202.933 80.6379 202.825 80.8566 202.661 81.0752C202.497 81.3485 202.333 81.622 202.17 81.8953C202.059 82.1139 201.895 82.3326 201.787 82.5512C201.515 82.9886 201.241 83.4807 200.968 83.918C200.86 84.0819 200.749 84.3007 200.641 84.4646C200.477 84.7926 200.313 85.066 200.15 85.394C200.041 85.6126 199.931 85.8314 199.767 86.05C199.603 86.3233 199.495 86.5967 199.331 86.87C199.223 87.0886 199.112 87.3621 198.948 87.5807C198.785 87.8539 198.676 88.1274 198.512 88.4554C198.404 88.674 198.293 88.8926 198.185 89.1661C198.021 89.494 197.913 89.7673 197.749 90.0953C197.638 90.3141 197.53 90.5327 197.475 90.7514C197.311 91.1886 197.093 91.5713 196.929 92.0087C196.875 92.1727 196.765 92.3913 196.711 92.5554C196.547 92.9928 196.329 93.4302 196.165 93.8673C196.11 94.0861 196.001 94.3047 195.947 94.4688C195.837 94.7968 195.674 95.1247 195.565 95.4527C195.456 95.6715 195.401 95.8901 195.292 96.1087C195.183 96.4368 195.073 96.7648 194.964 97.0928C194.91 97.3114 194.8 97.5302 194.746 97.8034C194.637 98.1314 194.528 98.4594 194.418 98.8421C194.364 99.0609 194.255 99.2794 194.2 99.498C194.091 99.9354 193.927 100.318 193.818 100.755C193.763 100.92 193.709 101.029 193.709 101.193C193.545 101.74 193.381 102.286 193.272 102.833C193.218 102.997 193.163 103.161 193.163 103.325C193.054 103.707 192.945 104.145 192.89 104.527C192.835 104.746 192.781 104.965 192.726 105.183C192.617 105.566 192.562 105.894 192.508 106.277C192.453 106.496 192.399 106.714 192.344 106.933C192.29 107.316 192.18 107.698 192.126 108.026C192.071 108.245 192.071 108.464 192.017 108.682C191.962 109.12 191.853 109.557 191.798 109.94C191.798 110.104 191.744 110.268 191.744 110.432C191.634 111.033 191.58 111.634 191.471 112.181C191.471 112.29 191.471 112.4 191.416 112.509C191.362 113.001 191.307 113.493 191.252 113.985C191.252 114.204 191.198 114.368 191.198 114.586C191.143 114.969 191.143 115.406 191.089 115.789C191.089 116.008 191.034 116.226 191.034 116.445C190.98 116.828 190.98 117.21 190.98 117.648C190.98 117.866 190.98 118.085 190.925 118.304C190.925 118.741 190.87 119.178 190.87 119.561C190.87 119.725 190.87 119.944 190.87 120.108C190.87 120.709 190.87 121.31 190.87 121.966C190.87 122.568 190.87 123.169 190.87 123.77C190.87 123.934 190.87 124.098 190.87 124.262C190.87 124.7 190.925 125.137 190.925 125.574C190.925 125.738 190.925 125.902 190.925 126.066C190.98 127.214 191.089 128.417 191.198 129.565C191.198 129.729 191.252 129.893 191.252 130.057C191.307 130.495 191.362 130.932 191.416 131.369C191.416 131.533 191.471 131.697 191.471 131.861C191.525 132.408 191.634 132.954 191.689 133.501V133.556C191.798 134.102 191.853 134.704 191.962 135.25C192.017 135.415 192.017 135.578 192.071 135.743C192.126 136.18 192.235 136.563 192.29 137C192.344 137.164 192.344 137.328 192.399 137.492C192.508 137.984 192.617 138.531 192.726 139.023C192.726 139.077 192.726 139.132 192.781 139.132C192.89 139.678 193.054 140.225 193.163 140.772C193.218 140.936 193.272 141.1 193.272 141.264C193.381 141.647 193.49 142.029 193.6 142.412C193.654 142.576 193.709 142.74 193.763 142.959C193.927 143.451 194.036 143.888 194.2 144.38C194.2 144.435 194.255 144.489 194.255 144.599C194.418 145.145 194.582 145.637 194.746 146.184C194.8 146.348 194.855 146.512 194.91 146.731C195.019 147.113 195.183 147.441 195.292 147.824C195.346 147.988 195.401 148.207 195.51 148.371C195.674 148.808 195.837 149.245 196.001 149.683C196.056 149.792 196.056 149.847 196.11 149.956C196.329 150.448 196.493 150.94 196.711 151.432C196.765 151.596 196.875 151.76 196.929 151.979C197.093 152.307 197.202 152.689 197.366 153.017C197.475 153.181 197.53 153.4 197.638 153.564C197.802 153.947 198.021 154.329 198.185 154.767C198.24 154.876 198.293 154.985 198.349 155.095C198.568 155.587 198.84 156.024 199.059 156.516C199.167 156.68 199.223 156.899 199.331 157.063C199.495 157.391 199.658 157.719 199.822 157.992C199.931 158.156 200.041 158.375 200.094 158.539C200.313 158.922 200.477 159.25 200.696 159.632C200.749 159.741 200.86 159.851 200.913 160.015C201.187 160.452 201.46 160.889 201.732 161.381C201.842 161.546 201.951 161.709 202.059 161.928C202.223 162.201 202.442 162.529 202.606 162.803C202.716 162.967 202.825 163.185 202.933 163.35C203.152 163.677 203.371 164.005 203.588 164.333C203.698 164.443 203.752 164.607 203.862 164.716C203.915 164.826 203.971 164.935 204.026 164.99C214.124 179.804 229.134 190.628 246.328 195.439C246.383 195.439 246.436 195.439 246.491 195.494C247.201 195.713 247.91 195.877 248.62 196.041C248.784 196.095 248.947 196.15 249.166 196.15C249.494 196.204 249.821 196.314 250.149 196.369C250.312 196.423 250.531 196.478 250.695 196.478C251.186 196.587 251.731 196.697 252.277 196.806C252.496 196.86 252.768 196.915 252.987 196.97C253.259 197.025 253.532 197.079 253.861 197.134C254.242 197.189 254.625 197.243 255.007 197.298C255.335 197.352 255.607 197.407 255.934 197.461C256.262 197.517 256.589 197.572 256.917 197.625C257.136 197.681 257.353 197.681 257.627 197.736C258.118 197.789 258.609 197.845 259.156 197.9C259.319 197.9 259.428 197.9 259.592 197.953C260.028 198.008 260.466 198.008 260.902 198.064C261.065 198.064 261.284 198.117 261.448 198.117C261.992 198.172 262.539 198.172 263.085 198.228C263.139 198.228 263.194 198.228 263.249 198.228C263.795 198.228 264.287 198.281 264.831 198.281C264.995 198.281 265.159 198.281 265.269 198.281C265.869 198.281 266.415 198.281 267.015 198.281C267.725 198.281 268.433 198.281 269.143 198.228C269.362 198.228 269.581 198.228 269.853 198.228C270.345 198.228 270.836 198.172 271.327 198.172C271.599 198.172 271.873 198.117 272.146 198.117C272.582 198.064 273.02 198.064 273.511 198.008C273.783 198.008 274.057 197.953 274.329 197.953C274.765 197.9 275.203 197.845 275.694 197.789C275.967 197.736 276.186 197.736 276.458 197.681C276.949 197.625 277.44 197.572 277.931 197.461C278.15 197.407 278.314 197.407 278.531 197.352C279.896 197.134 281.317 196.915 282.68 196.587C282.843 196.532 283.062 196.478 283.226 196.478C283.717 196.369 284.208 196.259 284.7 196.15C284.919 196.095 285.138 196.041 285.355 195.986C285.793 195.877 286.284 195.767 286.72 195.658C286.939 195.603 287.156 195.549 287.375 195.494C287.866 195.384 288.302 195.221 288.793 195.111C289.012 195.056 289.176 195.002 289.395 194.947C289.941 194.783 290.485 194.619 291.032 194.455C291.14 194.401 291.251 194.401 291.359 194.346C292.669 193.908 293.979 193.417 295.289 192.87C295.399 192.815 295.508 192.76 295.616 192.706C296.163 192.487 296.654 192.269 297.2 192.05C297.364 191.995 297.528 191.94 297.636 191.831C298.128 191.612 298.619 191.394 299.11 191.175C299.274 191.121 299.384 191.066 299.548 190.956C300.039 190.738 300.583 190.464 301.075 190.191C301.185 190.136 301.294 190.082 301.402 190.027C303.258 189.098 305.115 188.059 306.916 186.966L306.971 186.911C307.515 186.583 308.062 186.2 308.662 185.873C308.717 185.818 308.825 185.763 308.88 185.708C309.372 185.38 309.918 184.998 310.409 184.67C310.465 184.615 310.573 184.56 310.628 184.506C311.173 184.123 311.719 183.74 312.21 183.358L312.266 183.303C314.558 181.608 316.742 179.804 318.815 177.891L318.87 177.836C319.361 177.344 319.852 176.907 320.344 176.415L320.399 176.36C322.908 173.846 325.311 171.222 327.494 168.379C327.603 168.324 327.658 168.215 327.711 168.105C333.117 160.999 337.21 153.127 339.83 144.653C339.83 144.599 339.83 144.544 339.83 144.544C339.993 143.997 340.157 143.505 340.321 142.959C340.376 142.795 340.431 142.631 340.484 142.467C340.595 142.084 340.703 141.701 340.812 141.319C340.867 141.155 340.922 140.991 340.976 140.772C341.086 140.28 341.25 139.733 341.358 139.241C341.358 139.187 341.358 139.187 341.414 139.132C341.522 138.585 341.631 138.039 341.794 137.492C341.85 137.328 341.85 137.164 341.905 136.945C341.958 136.563 342.068 136.125 342.122 135.743C342.177 135.578 342.177 135.415 342.232 135.196C342.341 134.649 342.396 134.102 342.504 133.556V133.501C342.613 132.954 342.668 132.353 342.723 131.806C342.723 131.643 342.777 131.478 342.777 131.26C342.832 130.823 342.887 130.44 342.94 130.002C342.94 129.838 342.996 129.674 342.996 129.456C343.051 128.909 343.104 128.308 343.159 127.761C343.215 127.16 343.215 126.613 343.268 126.012C343.268 125.848 343.268 125.684 343.268 125.465C343.268 125.028 343.323 124.59 343.323 124.153C343.323 123.989 343.323 123.825 343.323 123.606C343.323 123.005 343.323 122.404 343.323 121.857C343.323 121.365 343.323 120.873 343.323 120.381C343.323 120.217 343.323 119.998 343.323 119.834C342.723 119.944 342.668 119.616 342.668 119.342ZM338.902 124.317C338.902 124.536 338.902 124.754 338.902 124.918C338.902 125.41 338.847 125.902 338.847 126.395C338.847 126.613 338.847 126.832 338.792 127.05C338.739 127.542 338.739 128.089 338.683 128.581C338.683 128.745 338.628 128.964 338.628 129.128C338.575 129.784 338.52 130.385 338.411 131.041C338.411 131.096 338.411 131.096 338.411 131.15C338.247 132.572 338.028 134.048 337.756 135.469C337.756 135.524 337.756 135.524 337.756 135.578C337.646 136.235 337.482 136.891 337.374 137.547C337.374 137.601 337.374 137.656 337.318 137.711C337.155 138.421 336.991 139.077 336.827 139.733C335.845 138.531 334.643 137.437 333.389 136.508C335.845 132.626 337.155 128.144 337.155 123.497C337.155 118.358 335.517 113.384 332.515 109.229C334.207 108.464 335.791 107.479 337.21 106.331C337.482 107.589 337.756 108.901 337.973 110.213V110.268C338.192 111.525 338.356 112.837 338.52 114.094C338.52 114.149 338.52 114.204 338.52 114.258C338.575 114.805 338.628 115.406 338.683 115.953C338.683 116.062 338.683 116.117 338.683 116.226C338.739 116.828 338.792 117.429 338.792 118.085C338.792 118.14 338.792 118.194 338.792 118.304C338.847 118.85 338.847 119.397 338.847 119.889C338.847 120.053 338.847 120.217 338.847 120.326C338.847 120.928 338.847 121.529 338.847 122.13C338.956 122.95 338.902 123.661 338.902 124.317ZM335.409 144.544C334.643 146.895 333.771 149.245 332.734 151.487C332.734 151.487 332.734 151.487 332.734 151.541C332.57 151.924 332.351 152.361 332.187 152.744C332.134 152.799 332.134 152.908 332.079 152.963C331.915 153.345 331.696 153.728 331.532 154.111C331.479 154.22 331.424 154.329 331.369 154.384C331.205 154.767 330.988 155.095 330.824 155.477C330.769 155.532 330.769 155.587 330.714 155.696C330.114 156.789 329.512 157.883 328.913 158.976C328.804 159.14 328.694 159.359 328.585 159.523C328.422 159.796 328.258 160.015 328.094 160.288C327.986 160.507 327.822 160.725 327.711 160.944C327.548 161.163 327.439 161.436 327.276 161.655C327.112 161.874 327.003 162.092 326.84 162.366C326.676 162.584 326.565 162.803 326.402 163.022C326.238 163.295 326.074 163.513 325.857 163.787C325.747 163.951 325.583 164.17 325.474 164.333C325.202 164.771 324.875 165.153 324.545 165.591C323.946 165.646 323.399 165.7 322.8 165.7C314.94 165.7 308.553 159.304 308.553 151.432C308.553 150.995 308.553 150.612 308.608 150.175C308.88 146.785 307.079 143.56 304.077 142.084C297.037 138.695 292.505 131.478 292.505 123.661C292.505 116.554 296.108 110.049 302.168 106.277C305.606 104.145 306.971 99.7715 305.334 96.1634C304.241 93.7034 303.694 91.0794 303.694 88.4007V88.346C303.694 85.4487 301.676 82.9339 298.838 82.3326C298.347 82.2232 297.8 82.1139 297.309 81.95C296.271 72.1099 288.03 64.675 278.095 64.675C269.853 64.675 262.539 69.9232 259.811 77.6859C258.882 80.3099 257.844 82.6059 256.589 84.6287L256.481 84.8473C253.423 89.8767 248.675 93.6487 243.161 95.5621C241.416 96.1634 240.27 97.7488 240.27 99.6074C240.27 103.598 238.685 107.37 235.847 110.213C233.937 112.126 232.9 114.696 233.008 117.32C233.008 117.429 233.008 117.538 233.008 117.702C233.008 120.053 232.081 122.185 230.389 123.77C228.698 125.356 226.459 126.121 224.167 126.012C220.127 125.738 216.797 122.458 216.469 118.413C216.416 117.921 216.416 117.429 216.469 116.882C216.744 114.258 215.815 111.525 214.013 109.448C211.613 106.714 210.303 103.216 210.303 99.5527C210.303 96.9834 210.958 94.4688 212.212 92.2821C213.796 89.3846 213.905 85.9406 212.431 82.9886C211.449 81.0205 210.739 78.9433 210.303 76.8111C210.63 76.3738 210.958 75.9913 211.339 75.6086L211.394 75.5539C211.721 75.1713 212.104 74.7339 212.431 74.3512L212.485 74.2965C212.812 73.9138 213.195 73.5312 213.522 73.1485L213.578 73.0938C213.96 72.7111 214.288 72.3285 214.668 71.9458C218.872 67.6272 223.567 63.8005 228.751 60.6297C229.189 60.3564 229.625 60.0831 230.061 59.8643C230.116 59.8096 230.172 59.8096 230.225 59.7549C230.663 59.5364 231.043 59.2631 231.481 59.0443C231.535 58.9896 231.645 58.9351 231.698 58.9351C232.081 58.7163 232.517 58.4977 232.9 58.2789C233.008 58.2243 233.119 58.1698 233.172 58.1151C233.555 57.8963 233.937 57.7324 234.373 57.5136C234.484 57.4589 234.592 57.4044 234.701 57.3497C235.083 57.1856 235.466 56.967 235.847 56.803C235.957 56.7483 236.066 56.6936 236.23 56.6391C236.612 56.475 236.993 56.2564 237.376 56.0923C237.484 56.0376 237.648 55.9829 237.758 55.9282C238.139 55.7643 238.522 55.6002 238.904 55.4363C239.013 55.3817 239.177 55.327 239.287 55.2723C239.668 55.1084 240.051 54.9443 240.487 54.7802C240.597 54.7257 240.761 54.671 240.869 54.6163C241.252 54.4522 241.688 54.2883 242.071 54.1789C242.179 54.1242 242.343 54.0695 242.451 54.0695C242.889 53.9057 243.27 53.7963 243.708 53.6324C243.816 53.5777 243.927 53.5777 244.035 53.523C244.471 53.3589 244.909 53.2497 245.345 53.0856C245.4 53.0856 245.509 53.0309 245.564 53.0309C246.055 52.867 246.491 52.7576 246.982 52.5936C249.657 51.8282 252.386 51.2269 255.224 50.7896C255.279 50.7896 255.279 50.7896 255.335 50.7896C255.388 50.7896 255.498 50.7896 255.552 50.7349C255.99 50.6802 256.37 50.6255 256.808 50.571C257.025 50.5163 257.299 50.5163 257.516 50.4616C257.899 50.4069 258.227 50.3522 258.609 50.3522C258.937 50.2975 259.209 50.2975 259.536 50.2428C259.864 50.1883 260.191 50.1883 260.519 50.1336C260.902 50.0789 261.229 50.0789 261.612 50.0789C261.884 50.0789 262.211 50.0242 262.484 50.0242C262.922 50.0242 263.358 49.9695 263.795 49.9695C264.012 49.9695 264.231 49.9695 264.504 49.9695C264.667 49.9695 264.778 49.9695 264.942 49.9695C265.433 49.9695 265.924 49.9695 266.468 49.9695C266.524 49.9695 266.632 49.9695 266.687 49.9695H266.743C267.234 49.9695 267.778 49.9695 268.269 49.9695H268.816C269.199 49.9695 269.581 49.9695 269.962 50.0242C270.181 50.0242 270.4 50.0242 270.617 50.0789C271 50.0789 271.327 50.1336 271.71 50.1336C271.927 50.1336 272.146 50.1883 272.365 50.1883C272.745 50.2428 273.128 50.2428 273.511 50.2975L274.11 50.3522C274.602 50.4069 275.093 50.4616 275.584 50.5163H275.803C276.349 50.571 276.894 50.6802 277.44 50.7349L277.987 50.8443C278.367 50.899 278.75 50.9537 279.133 51.0082C279.297 51.0629 279.516 51.0629 279.679 51.1176H279.733C280.06 51.1722 280.443 51.2269 280.77 51.3363C280.989 51.3908 281.206 51.4455 281.425 51.4455C281.753 51.5002 282.135 51.6096 282.463 51.6643L282.626 51.719C282.79 51.7735 282.899 51.7735 283.062 51.8282C283.498 51.9376 283.881 52.047 284.319 52.1562L284.7 52.2656H284.755C285.246 52.375 285.793 52.5389 286.284 52.7029C286.392 52.7576 286.501 52.7576 286.611 52.8123L286.828 52.867C287.156 52.9762 287.538 53.0856 287.866 53.195C288.085 53.2497 288.248 53.3042 288.465 53.3589H288.521C288.848 53.4683 289.122 53.5777 289.45 53.6324C289.667 53.6869 289.831 53.7416 290.05 53.851C290.105 53.851 290.213 53.9057 290.268 53.9057C290.541 54.015 290.813 54.0695 291.032 54.1789L291.14 54.2336C291.251 54.2883 291.359 54.2883 291.468 54.343C291.632 54.3977 291.851 54.5069 292.014 54.5616C292.233 54.6163 292.45 54.7257 292.614 54.7802L292.833 54.8896C292.888 54.8896 292.888 54.8896 292.941 54.9443C293.216 55.0537 293.433 55.1629 293.652 55.2176C293.815 55.2723 293.979 55.327 294.143 55.4363C294.198 55.4363 294.251 55.491 294.306 55.491C294.744 55.6549 295.125 55.8737 295.563 56.0376C300.584 66.9163 307.079 78.5059 311.828 86.6512C313.248 89.1114 315.812 90.5874 318.651 90.5874H318.706C320.671 90.5874 322.472 89.8767 323.837 88.674C324.492 88.0727 325.092 87.3621 325.53 86.5967C326.129 85.5579 326.729 84.4646 327.384 83.3166C328.203 84.574 328.968 85.8859 329.731 87.198L329.787 87.2527C331.205 89.822 332.462 92.446 333.553 95.1794C334.535 97.5849 335.409 100.045 336.119 102.559C333.988 104.527 331.479 106.058 328.749 106.933C328.149 107.151 327.658 107.644 327.494 108.245C327.331 108.846 327.494 109.557 327.93 110.049C331.369 113.821 333.28 118.741 333.28 123.825C333.28 128.362 331.807 132.626 329.077 136.235C328.749 136.672 328.585 137.219 328.749 137.765C328.858 138.312 329.185 138.749 329.676 139.023C332.134 140.116 334.099 142.139 335.409 144.544ZM321.49 169.363C319.852 171.276 318.051 173.135 316.25 174.884L316.195 174.939C315.759 175.322 315.321 175.759 314.885 176.142C314.83 176.196 314.777 176.251 314.722 176.306C314.339 176.688 313.903 177.016 313.52 177.344C313.412 177.399 313.356 177.508 313.248 177.563C312.865 177.891 312.483 178.219 312.047 178.547C311.938 178.602 311.883 178.711 311.774 178.766C311.392 179.094 310.956 179.367 310.573 179.695C310.465 179.75 310.354 179.859 310.301 179.914C309.863 180.242 309.48 180.515 309.044 180.843C308.936 180.898 308.88 180.952 308.772 181.007C308.334 181.335 307.843 181.663 307.407 181.991C307.352 182.046 307.298 182.046 307.243 182.1C305.661 183.194 304.077 184.178 302.385 185.162C301.84 185.49 301.294 185.763 300.802 186.036C300.694 186.091 300.584 186.146 300.475 186.2C300.039 186.419 299.601 186.692 299.165 186.911C299.001 186.966 298.891 187.075 298.727 187.13C298.347 187.349 297.909 187.512 297.528 187.731C297.364 187.786 297.2 187.895 297.037 187.95C296.654 188.114 296.271 188.332 295.835 188.497C295.672 188.551 295.453 188.66 295.289 188.715C294.908 188.879 294.525 189.043 294.143 189.207C293.979 189.262 293.76 189.371 293.596 189.426C293.216 189.59 292.778 189.754 292.397 189.918C292.233 189.973 292.014 190.082 291.851 190.136C291.415 190.3 291.032 190.464 290.596 190.574C290.432 190.628 290.268 190.683 290.105 190.738C289.614 190.902 289.12 191.066 288.684 191.23C288.576 191.284 288.465 191.284 288.357 191.339C287.156 191.722 285.956 192.05 284.7 192.378C284.536 192.432 284.372 192.432 284.264 192.487C283.826 192.597 283.335 192.706 282.899 192.815C282.68 192.87 282.463 192.925 282.244 192.979C281.861 193.088 281.425 193.143 281.042 193.252C280.825 193.307 280.551 193.362 280.334 193.417C279.951 193.471 279.569 193.58 279.188 193.635C278.914 193.69 278.695 193.745 278.423 193.745C278.04 193.799 277.659 193.854 277.332 193.908C277.058 193.963 276.785 193.963 276.513 194.018C276.13 194.073 275.748 194.127 275.42 194.182C275.148 194.236 274.876 194.236 274.602 194.291C274.221 194.346 273.838 194.346 273.456 194.401C273.183 194.401 272.909 194.455 272.637 194.455C272.254 194.51 271.873 194.51 271.436 194.565C271.163 194.565 270.944 194.619 270.672 194.619C270.236 194.619 269.798 194.674 269.362 194.674C269.143 194.674 268.926 194.674 268.707 194.674C268.052 194.674 267.398 194.728 266.743 194.728C266.032 194.728 265.378 194.728 264.667 194.674C264.45 194.674 264.287 194.674 264.068 194.674C263.576 194.674 263.085 194.619 262.594 194.619C262.375 194.619 262.156 194.619 261.939 194.565C261.448 194.51 260.957 194.51 260.41 194.455C260.247 194.455 260.028 194.401 259.864 194.401C259.264 194.346 258.663 194.291 258.118 194.236C258.063 194.236 257.954 194.236 257.899 194.182C255.061 193.854 252.222 193.307 249.494 192.651C249.985 191.612 250.476 190.628 250.859 189.535C251.131 188.715 251.95 188.223 252.824 188.332C253.423 188.387 253.97 188.442 254.569 188.442C258.446 188.442 262.211 186.802 264.886 183.959C267.561 181.062 268.926 177.29 268.652 173.299C268.161 166.138 262.156 160.398 254.952 160.179C251.894 160.124 249.002 160.999 246.491 162.694C246.328 162.803 246.055 162.803 245.945 162.639L245.892 162.584C245.728 162.42 245.728 162.092 245.892 161.928C249.166 158.32 250.804 153.673 250.531 148.808C249.985 139.897 242.942 132.681 234.046 132.025C229.025 131.643 224.222 133.337 220.509 136.726C216.852 140.116 214.779 144.872 214.779 149.847C214.779 150.612 214.832 151.432 214.943 152.197C215.106 153.619 214.396 154.985 213.195 155.587C210.411 156.953 207.792 158.812 205.608 160.999C205.553 160.944 205.5 160.835 205.444 160.78C205.117 160.233 204.789 159.741 204.462 159.195C204.353 159.031 204.243 158.867 204.19 158.703C204.026 158.429 203.915 158.211 203.752 157.937C203.643 157.773 203.535 157.609 203.48 157.391C203.261 156.953 202.988 156.516 202.769 156.079C202.661 155.915 202.55 155.696 202.442 155.532C202.333 155.259 202.17 155.04 202.059 154.767C201.951 154.548 201.842 154.384 201.787 154.165C201.678 153.892 201.515 153.673 201.404 153.4C201.241 153.017 201.024 152.635 200.86 152.252C200.749 152.033 200.641 151.76 200.532 151.541C200.422 151.323 200.313 151.104 200.258 150.831C200.15 150.612 200.041 150.339 199.931 150.12C199.822 149.847 199.714 149.573 199.603 149.355C199.495 149.027 199.331 148.699 199.223 148.371C199.112 148.097 199.004 147.769 198.895 147.496C198.785 147.277 198.731 147.059 198.621 146.84C198.512 146.567 198.404 146.293 198.349 146.02C198.293 145.801 198.185 145.583 198.13 145.364C197.966 144.927 197.857 144.489 197.694 143.997C197.638 143.779 197.583 143.615 197.53 143.396C197.42 143.068 197.366 142.74 197.257 142.467C197.202 142.248 197.147 142.084 197.093 141.865C196.984 141.483 196.875 141.1 196.765 140.717C196.711 140.553 196.656 140.389 196.656 140.225C196.547 139.788 196.438 139.351 196.329 138.913C196.274 138.749 196.22 138.531 196.22 138.367C196.11 137.984 196.056 137.656 196.001 137.273C195.947 137.109 195.947 136.945 195.892 136.781C195.783 136.289 195.674 135.797 195.619 135.25C195.619 135.087 195.565 134.977 195.565 134.813C195.51 134.43 195.401 133.993 195.346 133.611C195.346 133.447 195.292 133.282 195.292 133.119C195.237 132.626 195.128 132.08 195.073 131.588V131.533C195.019 130.986 194.964 130.44 194.91 129.948C194.91 129.784 194.855 129.62 194.855 129.51C194.8 129.073 194.8 128.636 194.746 128.198C194.746 128.089 194.746 127.98 194.691 127.816C194.637 127.269 194.637 126.722 194.582 126.176C194.582 126.066 194.582 125.957 194.582 125.848C194.582 125.41 194.528 124.918 194.528 124.481C194.528 124.317 194.528 124.208 194.528 124.044C194.528 123.497 194.528 122.95 194.528 122.349C194.528 121.802 194.528 121.201 194.528 120.654C194.528 120.49 194.528 120.326 194.528 120.162C194.528 119.725 194.582 119.342 194.582 118.905C194.582 118.741 194.582 118.577 194.582 118.358C194.582 117.921 194.637 117.484 194.691 117.046C194.691 116.937 194.691 116.828 194.691 116.664C194.746 116.117 194.8 115.57 194.855 115.024C194.855 114.914 194.91 114.75 194.91 114.641C194.964 114.204 195.019 113.821 195.073 113.384C195.073 113.22 195.128 113.001 195.128 112.837C195.183 112.454 195.237 112.072 195.292 111.689C195.292 111.525 195.346 111.361 195.346 111.142C195.456 110.596 195.51 110.104 195.619 109.557C195.619 109.502 195.674 109.393 195.674 109.338C195.783 108.901 195.837 108.409 195.947 107.972C196.001 107.753 196.001 107.589 196.056 107.37C196.11 107.042 196.22 106.714 196.274 106.331C196.329 106.113 196.383 105.894 196.438 105.73C196.547 105.348 196.602 105.02 196.711 104.637C196.765 104.473 196.82 104.309 196.82 104.145C196.929 103.653 197.093 103.161 197.202 102.669C197.257 102.45 197.311 102.231 197.366 102.068C197.475 101.74 197.53 101.466 197.638 101.138C197.694 100.92 197.802 100.701 197.857 100.427C197.966 100.154 198.021 99.8809 198.13 99.6074C198.185 99.3888 198.293 99.17 198.349 98.8968C198.457 98.5688 198.568 98.1861 198.731 97.8581C198.84 97.5302 198.948 97.2022 199.112 96.874C199.223 96.6007 199.331 96.3275 199.439 96.0542C199.55 95.7807 199.658 95.5621 199.767 95.2888C199.877 95.07 199.931 94.7968 200.041 94.578C200.15 94.3047 200.258 94.0861 200.369 93.8126C200.477 93.594 200.586 93.3755 200.641 93.1567C200.86 92.6648 201.077 92.2274 201.296 91.7354C201.404 91.5168 201.459 91.3527 201.568 91.1341C201.678 90.8606 201.842 90.5874 201.951 90.3141C202.059 90.15 202.114 89.9314 202.223 89.7673C202.387 89.494 202.497 89.2208 202.661 88.9473C202.769 88.7834 202.825 88.6193 202.933 88.4007C203.097 88.1274 203.207 87.8539 203.371 87.5807C203.424 87.4713 203.48 87.4166 203.535 87.3074C203.862 86.7059 204.19 86.1047 204.57 85.5579C204.681 85.394 204.734 85.2846 204.845 85.1205C205.008 84.8473 205.172 84.574 205.336 84.3007C205.444 84.1366 205.499 84.0272 205.608 83.8633C205.772 83.5899 205.991 83.3166 206.154 83.0433C206.208 82.9339 206.318 82.8245 206.371 82.6606C206.754 82.0594 207.19 81.4032 207.628 80.802C207.628 80.7473 207.681 80.7473 207.681 80.6926C208.119 82.0592 208.666 83.426 209.321 84.6834C210.248 86.4874 210.192 88.6193 209.21 90.4233C207.681 93.2114 206.863 96.3821 206.863 99.5527C206.863 104.09 208.502 108.518 211.502 111.908C212.648 113.22 213.195 114.86 213.031 116.445C212.978 117.156 212.978 117.921 213.031 118.632C213.522 124.536 218.326 129.347 224.275 129.729C227.66 129.948 230.88 128.8 233.391 126.504C235.847 124.208 237.212 120.982 237.212 117.648C237.212 117.484 237.212 117.32 237.212 117.101C237.157 115.516 237.758 113.985 238.904 112.837C242.451 109.284 244.418 104.527 244.418 99.498C244.418 99.3341 244.527 99.1701 244.745 99.1156C251.076 96.9287 256.534 92.5554 260.028 86.8153L260.138 86.5967C261.501 84.3552 262.703 81.8406 263.685 78.9433C265.869 72.7111 271.763 68.5017 278.367 68.5017C286.392 68.5017 292.997 74.5151 293.815 82.4965C293.979 83.918 294.961 85.1752 296.382 85.5579C297.037 85.7767 297.692 85.9406 298.347 86.05C299.437 86.2686 300.203 87.2527 300.203 88.346V88.4007C300.203 91.626 300.858 94.7968 302.168 97.6941C303.039 99.6074 302.276 101.958 300.475 103.051C293.324 107.534 289.012 115.188 289.012 123.661C289.012 132.9 294.417 141.483 302.767 145.528C304.405 146.293 305.334 147.988 305.17 149.847C305.115 150.393 305.115 150.885 305.115 151.432C304.787 160.835 312.155 168.652 321.49 169.363ZM245.617 191.558C245.181 191.394 244.69 191.284 244.254 191.121C244.199 191.121 244.144 191.066 244.091 191.066C243.653 190.902 243.217 190.793 242.779 190.628C242.725 190.628 242.67 190.574 242.615 190.574C240.323 189.754 238.031 188.824 235.847 187.786C235.794 187.786 235.738 187.731 235.738 187.731C235.356 187.567 234.975 187.349 234.537 187.13C234.484 187.075 234.373 187.075 234.32 187.02C233.937 186.802 233.555 186.638 233.172 186.419C233.119 186.364 233.008 186.364 232.955 186.31C231.262 185.435 229.625 184.451 228.041 183.467C227.988 183.412 227.933 183.412 227.933 183.412C227.605 183.194 227.278 182.975 226.95 182.756C226.842 182.702 226.731 182.592 226.623 182.538C226.295 182.319 226.023 182.1 225.696 181.882C225.585 181.772 225.421 181.718 225.313 181.608C224.985 181.39 224.713 181.171 224.386 180.952C224.275 180.843 224.167 180.788 224.058 180.679C223.731 180.46 223.457 180.242 223.129 180.023C223.076 179.968 223.021 179.914 222.965 179.914C222.255 179.367 221.492 178.766 220.782 178.219C220.509 178 220.237 177.782 219.963 177.563C219.799 177.454 219.691 177.344 219.527 177.18C219.255 176.962 219.036 176.743 218.817 176.524C218.653 176.36 218.489 176.251 218.326 176.087C218.109 175.868 217.835 175.65 217.616 175.431C217.452 175.267 217.288 175.103 217.124 174.994C216.907 174.775 216.688 174.556 216.469 174.338C216.306 174.174 216.142 174.01 215.978 173.846C215.761 173.627 215.542 173.408 215.323 173.19C215.16 173.026 214.996 172.862 214.832 172.698C214.451 172.315 214.069 171.932 213.686 171.495C213.522 171.331 213.359 171.112 213.142 170.948C212.978 170.73 212.759 170.511 212.595 170.347C212.431 170.128 212.268 169.964 212.104 169.746C211.94 169.527 211.721 169.308 211.558 169.09C211.394 168.871 211.23 168.707 211.066 168.488C210.903 168.27 210.739 168.051 210.52 167.832C210.356 167.614 210.192 167.395 210.029 167.231C209.865 167.012 209.701 166.794 209.538 166.575C209.374 166.356 209.21 166.138 208.993 165.919C208.829 165.7 208.666 165.536 208.555 165.318C208.228 164.935 207.955 164.498 207.681 164.115C209.701 161.983 212.104 160.179 214.779 158.922C217.507 157.609 219.091 154.657 218.653 151.596C218.6 150.995 218.545 150.393 218.545 149.737C218.545 145.856 220.182 142.084 223.021 139.405C225.913 136.726 229.68 135.415 233.665 135.688C240.65 136.235 246.219 141.865 246.6 148.863C246.819 152.689 245.509 156.352 242.942 159.195C241.469 160.78 241.469 163.24 242.834 164.88L242.889 164.935C244.308 166.629 246.71 166.957 248.511 165.7C250.312 164.443 252.441 163.787 254.68 163.842C259.919 164.005 264.287 168.16 264.667 173.408C264.886 176.306 263.904 179.094 261.939 181.171C259.974 183.303 257.299 184.451 254.406 184.451C253.97 184.451 253.534 184.451 253.151 184.396C250.476 184.068 248.02 185.599 247.091 188.059C246.71 189.371 246.219 190.464 245.617 191.558ZM291.523 31.492C291.468 24.3306 294.198 17.5519 299.218 12.4678C302.057 9.57046 305.387 7.43843 309.099 6.07174C311.991 4.9784 314.994 4.43174 318.16 4.43174C318.215 4.43174 318.268 4.43174 318.379 4.43174C333.061 4.43174 345.069 16.3492 345.179 31.1094C345.235 39.1455 336.882 58.6069 322.308 84.5193C321.598 85.7767 320.288 86.542 318.87 86.5967C318.815 86.5967 318.76 86.5967 318.76 86.5967C318.76 86.5967 318.76 86.5967 318.706 86.5967C317.233 86.5967 315.868 85.8314 315.157 84.5193C300.203 58.8257 291.578 39.4735 291.523 31.492Z" fill="#13A2D7"/>
<path d="M306.093 31.3825C306.038 25.0956 310.733 19.9023 316.791 19.1369C316.246 19.0823 315.755 19.0276 315.209 19.0276C308.441 19.0823 302.982 24.6037 303.036 31.3825C303.091 38.1612 308.604 43.6278 315.373 43.5731C315.864 43.5731 316.355 43.5186 316.846 43.4639C310.841 42.6985 306.148 37.6144 306.093 31.3825Z" fill="#D2EDFF"/>
<path d="M318.977 4.43115C318.923 4.43115 318.868 4.43115 318.76 4.43115C318.322 4.43115 317.886 4.43115 317.45 4.48583C331.422 5.25115 342.666 16.8953 342.777 31.1088C342.83 39.1449 334.48 58.6063 319.906 84.5187C319.631 85.0108 319.251 85.4481 318.868 85.7761C319.087 86.1041 319.304 86.3774 319.523 86.6507C320.941 86.5962 322.253 85.8308 322.961 84.5734C337.535 58.661 345.888 39.1449 345.832 31.1635C345.669 16.3486 333.661 4.43115 318.977 4.43115Z" fill="#D2EDFF"/>
<path d="M330.601 31.1647C330.546 24.3859 325.035 18.9191 318.266 18.9738C317.775 18.9738 317.284 19.0285 316.793 19.0831C322.796 19.8486 327.491 24.9325 327.546 31.1647C327.599 37.4513 322.906 42.6446 316.846 43.41C317.393 43.4647 317.884 43.5194 318.43 43.5194C325.198 43.4647 330.657 37.9434 330.601 31.1647Z" fill="#D2EDFF"/>
<path d="M319.904 84.5199C334.478 58.6077 342.83 39.0914 342.775 31.11C342.666 16.8965 331.475 5.25241 317.448 4.48706C314.773 4.65107 312.208 5.14307 309.752 6.07241C300.801 10.9925 294.741 20.5592 294.851 31.4926C294.959 43.0275 310.352 71.1265 318.758 85.504C318.813 85.5587 318.868 85.6679 318.921 85.7226C319.249 85.3946 319.632 85.0119 319.904 84.5199ZM318.43 43.5196C317.886 43.5196 317.339 43.4649 316.848 43.4102C316.357 43.4649 315.866 43.5196 315.375 43.5196C308.606 43.5741 303.093 38.1075 303.038 31.3287C302.984 24.55 308.443 19.0286 315.211 18.9739C315.755 18.9739 316.302 19.0286 316.793 19.0832C317.284 19.0286 317.775 18.9739 318.266 18.9739C325.035 18.9192 330.548 24.3859 330.603 31.1647C330.657 37.9434 325.198 43.4649 318.43 43.5196Z" fill="#D2EDFF"/>
<path d="M318.322 45.432C314.556 45.432 311.062 44.0105 308.387 41.3318C305.712 38.653 304.184 35.1545 304.184 31.3278C304.184 27.501 305.604 23.9476 308.277 21.2689C310.952 18.5902 314.445 17.0596 318.266 17.0596C318.322 17.0596 318.322 17.0596 318.375 17.0596C322.143 17.0596 325.636 18.4809 328.309 21.1597C330.984 23.8384 332.513 27.3369 332.513 31.1637C332.568 34.9357 331.095 38.4892 328.42 41.2226C325.745 43.9013 322.251 45.432 318.43 45.432C318.43 45.432 318.375 45.432 318.322 45.432ZM318.322 20.9409H318.266C312.589 20.9956 307.949 25.6424 308.005 31.3825C308.005 34.1704 309.097 36.7399 311.062 38.7077C313.027 40.6758 315.647 41.7144 318.375 41.7144C321.16 41.7144 323.725 40.6211 325.69 38.653C327.654 36.6852 328.692 34.0612 328.692 31.3278C328.692 28.5397 327.601 25.9703 325.636 24.0023C323.669 21.9795 321.105 20.9409 318.322 20.9409Z" fill="#13A2D7"/>
<path d="M171.164 24.0571C170.127 24.0571 169.254 23.1823 169.254 22.1437V11.3196C169.254 10.2809 170.127 9.40625 171.164 9.40625C172.201 9.40625 173.075 10.2809 173.075 11.3196V22.1437C173.075 23.1823 172.201 24.0571 171.164 24.0571Z" fill="#13A2D7"/>
<path d="M176.569 18.6446H165.761C164.724 18.6446 163.851 17.7699 163.851 16.7312C163.851 15.6925 164.724 14.8179 165.761 14.8179H176.569C177.606 14.8179 178.479 15.6925 178.479 16.7312C178.479 17.7699 177.606 18.6446 176.569 18.6446Z" fill="#13A2D7"/>
<path d="M199 34.1697C194.306 34.1697 190.485 30.343 190.485 25.6415C190.485 20.9403 194.306 17.1135 199 17.1135C203.694 17.1135 207.516 20.9403 207.516 25.6415C207.516 30.343 203.694 34.1697 199 34.1697ZM199 20.8856C196.38 20.8856 194.251 23.0175 194.251 25.6415C194.251 28.2656 196.38 30.3977 199 30.3977C201.619 30.3977 203.75 28.2656 203.75 25.6415C203.75 23.0175 201.619 20.8856 199 20.8856Z" fill="#13A2D7"/>
<path d="M361.446 195.713C360.408 195.713 359.536 194.838 359.536 193.8V182.976C359.536 181.937 360.408 181.062 361.446 181.062C362.484 181.062 363.355 181.937 363.355 182.976V193.8C363.355 194.893 362.484 195.713 361.446 195.713Z" fill="#13A2D7"/>
<path d="M366.851 190.301H356.043C355.005 190.301 354.133 189.426 354.133 188.387C354.133 187.349 355.005 186.474 356.043 186.474H366.851C367.887 186.474 368.76 187.349 368.76 188.387C368.76 189.481 367.887 190.301 366.851 190.301Z" fill="#13A2D7"/>
<path d="M350.586 220.26C345.891 220.26 342.07 216.433 342.07 211.732C342.07 207.03 345.891 203.204 350.586 203.204C355.279 203.204 359.1 207.03 359.1 211.732C359.1 216.433 355.279 220.26 350.586 220.26ZM350.586 206.975C347.967 206.975 345.838 209.108 345.838 211.732C345.838 214.356 347.967 216.487 350.586 216.487C353.206 216.487 355.335 214.356 355.335 211.732C355.335 209.108 353.206 206.975 350.586 206.975Z" fill="#13A2D7"/>
<path d="M237.752 174.353C242.37 150.616 226.901 127.626 203.199 123.002C179.5 118.378 156.544 133.872 151.928 157.608C147.311 181.344 162.781 204.335 186.481 208.96C210.181 213.582 233.136 198.09 237.752 174.353Z" fill="white"/>
<path d="M104.3 226.6C105.992 229.114 108.612 230.808 111.614 231.41C114.616 232.013 117.728 231.355 120.239 229.606L160.74 201.944C161.504 201.452 162.159 200.961 162.705 200.414L163.742 199.486L164.779 200.414C170.783 205.553 178.043 209.106 185.794 210.636C197.802 212.988 209.975 210.472 220.127 203.64C230.28 196.806 237.157 186.365 239.504 174.392C244.363 149.574 228.096 125.411 203.316 120.545C178.534 115.734 154.408 131.971 149.55 156.844C148.076 164.443 148.568 172.425 150.969 179.75L151.461 181.171L150.041 181.718C149.277 182.046 148.513 182.429 147.749 182.921L107.248 210.583C102.062 214.245 100.752 221.407 104.3 226.6ZM155.009 157.883C157.083 147.332 163.142 138.148 172.039 132.135C180.99 126.121 191.744 123.934 202.278 125.957C224.111 130.221 238.413 151.487 234.154 173.299C232.081 183.85 226.023 193.034 217.124 199.047C210.356 203.585 202.606 205.99 194.636 205.99C192.071 205.99 189.451 205.717 186.885 205.226C177.988 203.476 170.128 198.883 164.124 191.995L164.015 191.886C163.633 191.339 163.196 190.847 162.814 190.355L162.377 189.809C155.554 180.679 152.88 169.035 155.009 157.883ZM110.414 215.229L150.915 187.567C151.297 187.294 151.679 187.075 152.006 186.911L153.044 186.474L153.808 187.294C154.353 187.895 155.063 188.879 155.773 190.027C156.1 190.519 156.428 191.066 156.755 191.558C156.974 191.886 157.192 192.214 157.465 192.487L157.519 192.542C158.011 193.198 158.447 193.799 158.938 194.401L159.976 195.658L158.72 196.642C158.393 196.915 158.065 197.134 157.683 197.407L117.182 225.068C116.199 225.726 115.053 226.053 113.852 226.053C113.47 226.053 113.088 225.998 112.706 225.943C111.123 225.67 109.759 224.74 108.885 223.485C106.975 220.805 107.684 217.087 110.414 215.229Z" fill="#13A2D7"/>
<path d="M175.97 177.452C175.751 177.452 175.533 177.343 175.369 177.179C175.206 177.015 175.097 176.796 175.097 176.578V172.641H164.944C164.725 172.641 164.507 172.532 164.343 172.368C164.18 172.204 164.071 171.985 164.071 171.767V169.471C164.071 169.143 164.125 168.924 164.289 168.651C164.453 168.432 164.616 168.159 164.78 167.94L174.769 155.421C175.206 154.875 175.642 154.601 176.134 154.601H178.59C178.808 154.601 179.026 154.711 179.19 154.875C179.354 155.039 179.463 155.257 179.463 155.476V168.541H182.247C182.465 168.541 182.684 168.651 182.847 168.815C183.011 168.979 183.12 169.197 183.12 169.416V171.712C183.12 171.931 183.011 172.15 182.847 172.313C182.684 172.478 182.465 172.587 182.247 172.587H179.463V176.523C179.463 176.741 179.354 176.96 179.19 177.124C179.026 177.288 178.808 177.398 178.59 177.398H175.97V177.452ZM175.097 168.487V161.489L169.529 168.487H175.097Z" fill="#13A2D7"/>
<path d="M203.698 163.075C203.698 163.513 203.754 163.95 203.754 164.442C203.754 164.934 203.754 165.481 203.754 165.973C203.754 166.519 203.754 167.011 203.754 167.503C203.754 167.995 203.754 168.487 203.698 168.87C203.645 170.127 203.426 171.33 203.154 172.369C202.825 173.462 202.333 174.392 201.625 175.157C200.915 175.977 200.041 176.578 198.95 177.016C197.859 177.453 196.494 177.671 194.911 177.671C193.273 177.671 191.963 177.453 190.872 177.016C189.78 176.578 188.907 175.922 188.197 175.157C187.488 174.337 186.996 173.407 186.669 172.369C186.341 171.275 186.178 170.127 186.123 168.87C186.068 168.05 186.068 167.121 186.068 166.027C186.068 164.989 186.068 164.005 186.123 163.185C186.178 161.927 186.396 160.725 186.669 159.631C186.996 158.538 187.488 157.554 188.197 156.789C188.907 155.969 189.78 155.367 190.872 154.875C191.963 154.383 193.328 154.165 194.911 154.165C196.494 154.165 197.859 154.383 198.95 154.821C200.041 155.258 200.97 155.914 201.625 156.679C202.333 157.499 202.825 158.429 203.154 159.467C203.426 160.615 203.59 161.818 203.698 163.075ZM190.49 168.706C190.599 170.292 190.981 171.494 191.636 172.369C192.291 173.243 193.382 173.681 194.911 173.681C196.439 173.681 197.53 173.243 198.187 172.369C198.842 171.494 199.222 170.292 199.333 168.706C199.386 167.886 199.386 166.957 199.386 165.973C199.386 164.989 199.386 164.059 199.333 163.239C199.222 161.654 198.842 160.451 198.187 159.577C197.53 158.702 196.439 158.265 194.911 158.265C193.382 158.265 192.291 158.702 191.636 159.577C190.981 160.451 190.599 161.654 190.49 163.239C190.435 164.059 190.435 164.989 190.435 165.973C190.435 166.957 190.49 167.886 190.49 168.706Z" fill="#13A2D7"/>
<path d="M218.381 177.452C218.162 177.452 217.945 177.343 217.781 177.179C217.617 177.015 217.507 176.796 217.507 176.578V172.641H207.356C207.137 172.641 206.918 172.532 206.754 172.368C206.59 172.204 206.482 171.985 206.482 171.767V169.471C206.482 169.143 206.537 168.924 206.701 168.651C206.865 168.432 207.028 168.159 207.192 167.94L217.18 155.421C217.617 154.875 218.053 154.601 218.545 154.601H221.001C221.22 154.601 221.438 154.711 221.602 154.875C221.766 155.039 221.874 155.257 221.874 155.476V168.541H224.658C224.877 168.541 225.094 168.651 225.258 168.815C225.421 168.979 225.532 169.197 225.532 169.416V171.712C225.532 171.931 225.421 172.15 225.258 172.313C225.094 172.478 224.877 172.587 224.658 172.587H221.874V176.523C221.874 176.741 221.766 176.96 221.602 177.124C221.438 177.288 221.22 177.398 221.001 177.398H218.381V177.452ZM217.507 168.487V161.489L211.94 168.487H217.507Z" fill="#13A2D7"/>
</svg>
