<svg width="12" height="17" viewBox="0 0 12 17" fill="none" xmlns="http://www.w3.org/2000/svg">
<path d="M10.5 5.5H9V2C9 1.17156 8.32844 0.5 7.5 0.5H4.5C3.67156 0.5 3 1.17156 3 2V5.5H1.5C0.671562 5.5 0 6.17156 0 7V14C0 14.8284 0.671562 15.5 1.5 15.5H2V16C2 16.2762 2.22375 16.5 2.5 16.5H3.5C3.77625 16.5 4 16.2762 4 16V15.5H8V16C8 16.2762 8.22375 16.5 8.5 16.5H9.5C9.77625 16.5 10 16.2762 10 16V15.5H10.5C11.3284 15.5 12 14.8284 12 14V7C12 6.17156 11.3284 5.5 10.5 5.5ZM4 2C4 1.72438 4.22437 1.5 4.5 1.5H7.5C7.77563 1.5 8 1.72438 8 2V5.5H4V2ZM11 14C11 14.2756 10.7756 14.5 10.5 14.5H1.5C1.22438 14.5 1 14.2756 1 14V7C1 6.72437 1.22438 6.5 1.5 6.5H10.5C10.7756 6.5 11 6.72437 11 7V14ZM8.75 11.5H3.25C3.11188 11.5 3 11.6119 3 11.75V12.25C3 12.3881 3.11188 12.5 3.25 12.5H8.75C8.88813 12.5 9 12.3881 9 12.25V11.75C9 11.6119 8.88813 11.5 8.75 11.5ZM8.75 8.5H3.25C3.11188 8.5 3 8.61187 3 8.75V9.25C3 9.38813 3.11188 9.5 3.25 9.5H8.75C8.88813 9.5 9 9.38813 9 9.25V8.75C9 8.61187 8.88813 8.5 8.75 8.5Z" fill="#59595B"/>
</svg>
