<svg width="135" height="37" viewBox="0 0 135 37" fill="none" xmlns="http://www.w3.org/2000/svg">
<path d="M21.8144 17.129C21.1312 18.0013 21.2405 20.7024 21.9793 21.528C22.0754 21.6354 22.1693 21.7467 22.2608 21.862C23.2891 23.1565 23.8033 24.6398 23.8033 26.3119C23.8033 27.8222 23.4244 29.1571 22.6667 30.3168C21.9361 31.4495 20.8673 32.3394 19.4601 32.9867C18.053 33.6339 16.3888 33.9576 14.4676 33.9576H3.59282C2.8512 33.9576 2.25 33.3564 2.25 32.6147V7.064C2.25 6.32237 2.8512 5.72117 3.59283 5.72117H13.9399C15.8612 5.72117 17.5118 6.03131 18.8919 6.6516C20.299 7.27188 21.3543 8.13488 22.0579 9.24061C22.7885 10.3463 23.1538 11.6004 23.1538 13.0028C23.1538 14.6479 22.7073 16.0233 21.8144 17.129ZM7.93259 16.0289C7.93259 16.7705 8.5338 17.3717 9.27542 17.3717H13.1281C14.4811 17.3717 15.5229 17.0751 16.2535 16.4817C16.9842 15.8615 17.3495 14.985 17.3495 13.8523C17.3495 12.7196 16.9842 11.8431 16.2535 11.2228C15.5229 10.6025 14.4811 10.2924 13.1281 10.2924H9.27542C8.5338 10.2924 7.93259 10.8936 7.93259 11.6352V16.0289ZM13.6558 29.3459C15.0358 29.3459 16.1047 29.0223 16.8624 28.375C17.6471 27.7278 18.0395 26.8108 18.0395 25.6242C18.0395 24.4106 17.6336 23.4667 16.8218 22.7925C16.01 22.0913 14.9141 21.7407 13.534 21.7407H9.27542C8.5338 21.7407 7.93259 22.3419 7.93259 23.0835V28.0031C7.93259 28.7447 8.5338 29.3459 9.27542 29.3459H13.6558Z" fill="#13A2D7"/>
<path d="M33.6495 8.87653C32.6483 8.87653 31.8094 8.56639 31.1329 7.9461C30.4835 7.29885 30.1588 6.50327 30.1588 5.55936C30.1588 4.61545 30.4835 3.83335 31.1329 3.21307C31.8094 2.56581 32.6483 2.24219 33.6495 2.24219C34.6507 2.24219 35.476 2.56581 36.1255 3.21307C36.802 3.83335 37.1402 4.61545 37.1402 5.55936C37.1402 6.50327 36.802 7.29885 36.1255 7.9461C35.476 8.56639 34.6507 8.87653 33.6495 8.87653ZM35.1074 11.5464C35.849 11.5464 36.4502 12.1476 36.4502 12.8893V32.6147C36.4502 33.3564 35.849 33.9576 35.1074 33.9576H32.1104C31.3688 33.9576 30.7676 33.3564 30.7676 32.6147V12.8893C30.7676 12.1476 31.3688 11.5464 32.1104 11.5464H35.1074Z" fill="#13A2D7"/>
<path d="M56.9611 11.2228C59.6401 11.2228 61.8049 12.0723 63.4555 13.7714C65.1062 15.4434 65.9315 17.7897 65.9315 20.8102V32.6147C65.9315 33.3564 65.3303 33.9576 64.5887 33.9576H61.5917C60.8501 33.9576 60.2489 33.3564 60.2489 32.6147V21.5789C60.2489 19.7989 59.8024 18.437 58.9095 17.4931C58.0165 16.5222 56.7988 16.0368 55.2564 16.0368C53.6869 16.0368 52.4421 16.5222 51.5221 17.4931C50.6291 18.437 50.1826 19.7989 50.1826 21.5789V32.6147C50.1826 33.3564 49.5814 33.9576 48.8398 33.9576H45.8428C45.1012 33.9576 44.5 33.3564 44.5 32.6147V12.8893C44.5 12.1476 45.1012 11.5464 45.8428 11.5464H49.4681C49.8627 11.5464 50.1826 11.8663 50.1826 12.2609C50.1826 12.9406 51.1193 13.2971 51.6669 12.8945C52.0947 12.58 52.5606 12.3059 53.0645 12.0723C54.2551 11.506 55.554 11.2228 56.9611 11.2228Z" fill="#13A2D7"/>
<path d="M108.192 8.87653C107.19 8.87653 106.352 8.56639 105.675 7.9461C105.026 7.29885 104.701 6.50327 104.701 5.55936C104.701 4.61545 105.026 3.83335 105.675 3.21307C106.352 2.56581 107.19 2.24219 108.192 2.24219C109.193 2.24219 110.018 2.56581 110.668 3.21307C111.344 3.83335 111.682 4.61545 111.682 5.55936C111.682 6.50327 111.344 7.29885 110.668 7.9461C110.018 8.56639 109.193 8.87653 108.192 8.87653ZM109.649 11.5464C110.391 11.5464 110.992 12.1476 110.992 12.8893V32.6147C110.992 33.3564 110.391 33.9576 109.649 33.9576H106.653C105.911 33.9576 105.31 33.3564 105.31 32.6147V12.8893C105.31 12.1476 105.911 11.5464 106.653 11.5464H109.649Z" fill="#13A2D7"/>
<path d="M124.725 12.3142C124.725 13.0882 125.891 13.4751 126.488 12.9824C126.824 12.7053 127.183 12.4559 127.566 12.2342C128.394 11.7651 129.301 11.4592 130.287 11.3165C131.02 11.2102 131.625 11.824 131.625 12.5656V15.8266C131.625 16.5682 131.024 17.1695 130.282 17.1695H130.123C128.337 17.1695 126.984 17.5875 126.064 18.4235C125.171 19.2595 124.725 20.7159 124.725 22.7925V32.6147C124.725 33.3564 124.124 33.9576 123.382 33.9576H120.385C119.643 33.9576 119.042 33.3564 119.042 32.6147V12.8893C119.042 12.1476 119.643 11.5464 120.385 11.5464H123.957C124.381 11.5464 124.725 11.8902 124.725 12.3142Z" fill="#13A2D7"/>
<path d="M21.8144 17.129C21.1312 18.0013 21.2405 20.7024 21.9793 21.528C22.0754 21.6354 22.1693 21.7467 22.2608 21.862C23.2891 23.1565 23.8033 24.6398 23.8033 26.3119C23.8033 27.8222 23.4244 29.1571 22.6667 30.3168C21.9361 31.4495 20.8673 32.3394 19.4601 32.9867C18.053 33.6339 16.3888 33.9576 14.4676 33.9576H3.59282C2.8512 33.9576 2.25 33.3564 2.25 32.6147V7.064C2.25 6.32237 2.8512 5.72117 3.59283 5.72117H13.9399C15.8612 5.72117 17.5118 6.03131 18.8919 6.6516C20.299 7.27188 21.3543 8.13488 22.0579 9.24061C22.7885 10.3463 23.1538 11.6004 23.1538 13.0028C23.1538 14.6479 22.7073 16.0233 21.8144 17.129V17.129ZM7.93259 16.0289C7.93259 16.7705 8.5338 17.3717 9.27542 17.3717H13.1281C14.4811 17.3717 15.5229 17.0751 16.2535 16.4817C16.9842 15.8615 17.3495 14.985 17.3495 13.8523C17.3495 12.7196 16.9842 11.8431 16.2535 11.2228C15.5229 10.6025 14.4811 10.2924 13.1281 10.2924H9.27542C8.5338 10.2924 7.93259 10.8936 7.93259 11.6352V16.0289ZM13.6558 29.3459C15.0358 29.3459 16.1047 29.0223 16.8624 28.375C17.6471 27.7278 18.0395 26.8108 18.0395 25.6242C18.0395 24.4106 17.6336 23.4667 16.8218 22.7925C16.01 22.0913 14.9141 21.7407 13.534 21.7407H9.27542C8.5338 21.7407 7.93259 22.3419 7.93259 23.0835V28.0031C7.93259 28.7447 8.5338 29.3459 9.27542 29.3459H13.6558Z" fill="#13A2D7"/>
<path d="M33.6495 8.87653C32.6483 8.87653 31.8094 8.56639 31.1329 7.9461C30.4835 7.29885 30.1588 6.50327 30.1588 5.55936C30.1588 4.61545 30.4835 3.83335 31.1329 3.21307C31.8094 2.56581 32.6483 2.24219 33.6495 2.24219C34.6507 2.24219 35.476 2.56581 36.1255 3.21307C36.802 3.83335 37.1402 4.61545 37.1402 5.55936C37.1402 6.50327 36.802 7.29885 36.1255 7.9461C35.476 8.56639 34.6507 8.87653 33.6495 8.87653ZM35.1074 11.5464C35.849 11.5464 36.4502 12.1476 36.4502 12.8893V32.6147C36.4502 33.3564 35.849 33.9576 35.1074 33.9576H32.1104C31.3688 33.9576 30.7676 33.3564 30.7676 32.6147V12.8893C30.7676 12.1476 31.3688 11.5464 32.1104 11.5464H35.1074Z" fill="#13A2D7"/>
<path d="M56.9611 11.2228C59.6401 11.2228 61.8049 12.0723 63.4555 13.7714C65.1062 15.4434 65.9315 17.7897 65.9315 20.8102V32.6147C65.9315 33.3564 65.3303 33.9576 64.5887 33.9576H61.5917C60.8501 33.9576 60.2489 33.3564 60.2489 32.6147V21.5789C60.2489 19.7989 59.8024 18.437 58.9095 17.4931C58.0165 16.5222 56.7988 16.0368 55.2564 16.0368C53.6869 16.0368 52.4421 16.5222 51.5221 17.4931C50.6291 18.437 50.1826 19.7989 50.1826 21.5789V32.6147C50.1826 33.3564 49.5814 33.9576 48.8398 33.9576H45.8428C45.1012 33.9576 44.5 33.3564 44.5 32.6147V12.8893C44.5 12.1476 45.1012 11.5464 45.8428 11.5464H49.4681C49.8627 11.5464 50.1826 11.8663 50.1826 12.2609V12.2609C50.1826 12.9406 51.1193 13.2971 51.6669 12.8945C52.0947 12.58 52.5606 12.3059 53.0645 12.0723C54.2551 11.506 55.554 11.2228 56.9611 11.2228Z" fill="#13A2D7"/>
<path d="M108.192 8.87653C107.19 8.87653 106.352 8.56639 105.675 7.9461C105.026 7.29885 104.701 6.50327 104.701 5.55936C104.701 4.61545 105.026 3.83335 105.675 3.21307C106.352 2.56581 107.19 2.24219 108.192 2.24219C109.193 2.24219 110.018 2.56581 110.668 3.21307C111.344 3.83335 111.682 4.61545 111.682 5.55936C111.682 6.50327 111.344 7.29885 110.668 7.9461C110.018 8.56639 109.193 8.87653 108.192 8.87653ZM109.649 11.5464C110.391 11.5464 110.992 12.1476 110.992 12.8893V32.6147C110.992 33.3564 110.391 33.9576 109.649 33.9576H106.653C105.911 33.9576 105.31 33.3564 105.31 32.6147V12.8893C105.31 12.1476 105.911 11.5464 106.653 11.5464H109.649Z" fill="#13A2D7"/>
<path d="M124.725 12.3142C124.725 13.0882 125.891 13.4751 126.488 12.9824C126.824 12.7053 127.183 12.4559 127.566 12.2342C128.394 11.7651 129.301 11.4592 130.287 11.3165C131.02 11.2102 131.625 11.824 131.625 12.5656V15.8266C131.625 16.5682 131.024 17.1695 130.282 17.1695H130.123C128.337 17.1695 126.984 17.5875 126.064 18.4235C125.171 19.2595 124.725 20.7159 124.725 22.7925V32.6147C124.725 33.3564 124.124 33.9576 123.382 33.9576H120.385C119.643 33.9576 119.042 33.3564 119.042 32.6147V12.8893C119.042 12.1476 119.643 11.5464 120.385 11.5464H123.957C124.381 11.5464 124.725 11.8902 124.725 12.3142V12.3142Z" fill="#13A2D7"/>
<path d="M84.3408 6.38662C84.7987 5.56654 85.9762 5.55948 86.444 6.374L101.403 32.4226C101.974 33.4165 100.97 34.5725 99.9057 34.1463L85.837 28.5106C85.5447 28.3935 85.2183 28.3951 84.9272 28.5151L71.3226 34.1196C70.264 34.5557 69.2489 33.4125 69.8071 32.4129L84.3408 6.38662Z" fill="#13A2D7"/>
<path d="M79.123 26.6659C79.123 27.0587 79.4964 27.3441 79.8754 27.2411L83.7128 26.1983C84.1398 26.0823 84.5603 26.4038 84.5603 26.8462V29.0153C84.5603 29.2515 84.4362 29.4703 84.2335 29.5916L82.5537 30.5962C82.4493 30.6587 82.3854 30.7713 82.3854 30.893C82.3854 31.084 82.5402 31.2388 82.7312 31.2388H85.104H86.7352H88.5643C88.7553 31.2388 88.9101 31.084 88.9101 30.893C88.9101 30.7713 88.8462 30.6587 88.7418 30.5962L87.062 29.5916C86.8593 29.4703 86.7352 29.2515 86.7352 29.0153V26.8462C86.7352 26.4038 87.1557 26.0823 87.5827 26.1983L91.42 27.2411C91.7991 27.3441 92.1724 27.0587 92.1724 26.6659C92.1724 26.4748 92.0809 26.2954 91.9262 26.1832L87.0125 22.6214C86.8383 22.4951 86.7352 22.2929 86.7352 22.0777V18.2333C86.7352 17.6345 86.2486 17.1495 85.6477 17.1495C85.0469 17.1495 84.5603 17.6345 84.5603 18.2333V22.0777C84.5603 22.2929 84.4572 22.4951 84.2829 22.6214L79.3693 26.1832C79.2146 26.2954 79.123 26.4748 79.123 26.6659Z" fill="white"/>
</svg>
