<svg width="412" height="106" viewBox="0 0 412 106" fill="none" xmlns="http://www.w3.org/2000/svg">
<path d="M62.2577 47.5328C60.0805 50.3224 60.4296 58.9397 62.7846 61.5809C63.0897 61.9231 63.3877 62.2778 63.6785 62.6452C66.9507 66.7785 68.5868 71.5145 68.5868 76.8533C68.5868 81.6755 67.3812 85.938 64.9701 89.6407C62.6452 93.2573 59.2438 96.099 54.7661 98.1656C50.2884 100.232 44.9926 101.266 38.8787 101.266H5.827C2.60883 101.266 0 98.6568 0 95.4386V16.9352C0 13.717 2.60884 11.1082 5.82701 11.1082H37.1996C43.3134 11.1082 48.5662 12.0985 52.9578 14.079C57.4355 16.0596 60.7938 18.8151 63.0327 22.3456C65.3576 25.8761 66.5201 29.8802 66.5201 34.358C66.5201 39.6107 65.0993 44.0023 62.2577 47.5328ZM18.0831 42.4808C18.0831 45.699 20.692 48.3078 23.9101 48.3078H34.6163C38.9218 48.3078 42.237 47.3606 44.562 45.4662C46.887 43.4856 48.0495 40.6871 48.0495 37.0704C48.0495 33.4538 46.887 30.6552 44.562 28.6747C42.237 26.6942 38.9218 25.7039 34.6163 25.7039H23.9102C20.692 25.7039 18.0831 28.3127 18.0831 31.5309V42.4808ZM36.2954 86.5407C40.6871 86.5407 44.0884 85.5074 46.4995 83.4408C48.9967 81.3741 50.2453 78.4464 50.2453 74.6575C50.2453 70.7826 48.9536 67.7687 46.3703 65.616C43.787 63.3771 40.2996 62.2577 35.9079 62.2577H23.9101C20.692 62.2577 18.0831 64.8665 18.0831 68.0847V80.7137C18.0831 83.9319 20.692 86.5407 23.9101 86.5407H36.2954Z" fill="#13A2D7"/>
<path d="M99.9194 21.1831C96.7334 21.1831 94.0639 20.1928 91.9112 18.2123C89.8445 16.1457 88.8112 13.6054 88.8112 10.5916C88.8112 7.5777 89.8445 5.0805 91.9112 3.09997C94.0639 1.03332 96.7334 0 99.9194 0C103.106 0 105.732 1.03332 107.799 3.09997C109.951 5.0805 111.028 7.5777 111.028 10.5916C111.028 13.6054 109.951 16.1457 107.799 18.2123C105.732 20.1928 103.106 21.1831 99.9194 21.1831ZM103.005 29.708C106.223 29.708 108.832 32.3169 108.832 35.535V95.4386C108.832 98.6568 106.223 101.266 103.005 101.266H96.5757C93.3575 101.266 90.7487 98.6568 90.7487 95.4386V35.535C90.7487 32.3169 93.3575 29.708 96.5757 29.708H103.005Z" fill="#13A2D7"/>
<path d="M174.102 28.6747C182.627 28.6747 189.515 31.3872 194.768 36.8121C200.021 42.1509 202.647 49.6425 202.647 59.2869V95.4386C202.647 98.6568 200.038 101.266 196.82 101.266H190.391C187.173 101.266 184.564 98.6568 184.564 95.4386V61.741C184.564 56.0577 183.143 51.7092 180.302 48.6953C177.46 45.5953 173.585 44.0454 168.677 44.0454C163.682 44.0454 159.721 45.5953 156.794 48.6953C153.952 51.7092 152.531 56.0577 152.531 61.741V95.4386C152.531 98.6567 149.922 101.266 146.704 101.266H140.275C137.057 101.266 134.448 98.6568 134.448 95.4386V35.535C134.448 32.3169 137.057 29.708 140.275 29.708H150.254C151.512 29.708 152.531 30.7274 152.531 31.9848C152.531 34.1526 155.522 35.2887 157.267 34.0029C158.625 33.0026 160.103 32.1307 161.702 31.3872C165.491 29.5788 169.624 28.6747 174.102 28.6747Z" fill="#13A2D7"/>
<path d="M337.127 21.1831C333.941 21.1831 331.272 20.1928 329.119 18.2123C327.052 16.1457 326.019 13.6054 326.019 10.5916C326.019 7.5777 327.052 5.0805 329.119 3.09997C331.272 1.03332 333.941 0 337.127 0C340.313 0 342.94 1.03332 345.006 3.09997C347.159 5.0805 348.235 7.5777 348.235 10.5916C348.235 13.6054 347.159 16.1457 345.006 18.2123C342.94 20.1928 340.313 21.1831 337.127 21.1831ZM340.213 29.708C343.431 29.708 346.04 32.3169 346.04 35.535V95.4386C346.04 98.6568 343.431 101.266 340.213 101.266H333.783C330.565 101.266 327.956 98.6568 327.956 95.4386V35.535C327.956 32.3169 330.565 29.708 333.783 29.708H340.213Z" fill="#13A2D7"/>
<path d="M389.739 32.1539C389.739 34.6217 393.463 35.8541 395.365 34.2815C396.43 33.4013 397.568 32.6087 398.78 31.9038C400.982 30.6531 403.357 29.7657 405.907 29.2416C409.06 28.5938 411.697 31.2835 411.697 34.5017V42.8829C411.697 45.5223 409.557 47.662 406.918 47.662C401.235 47.662 396.929 48.9967 394.001 51.6661C391.16 54.3355 389.739 58.9855 389.739 65.616V95.4386C389.739 98.6568 387.13 101.266 383.912 101.266H377.483C374.265 101.266 371.656 98.6568 371.656 95.4386V35.535C371.656 32.3169 374.265 29.708 377.483 29.708H387.293C388.644 29.708 389.739 30.8031 389.739 32.1539Z" fill="#13A2D7"/>
<path d="M260.022 15.4026C262.007 11.8352 267.128 11.8045 269.156 15.3479L313.542 92.8998C316.012 97.2158 311.649 102.225 307.035 100.371L266.524 84.0879C265.252 83.5768 263.831 83.5837 262.565 84.1072L223.5 100.254C218.91 102.152 214.499 97.1978 216.915 92.8575L260.022 15.4026Z" fill="#13A2D7"/>
<path d="M244.625 77.9815C244.625 79.2363 245.818 80.1476 247.029 79.8175L258.248 76.7587C260.101 76.2534 261.928 77.6486 261.928 79.5696V85.0517C261.928 86.075 261.391 87.0233 260.513 87.5499L255.543 90.5325C255.21 90.7322 255.007 91.0918 255.007 91.4798C255.007 92.09 255.501 92.5846 256.111 92.5846H263.658H268.849H274.665C275.275 92.5846 275.77 92.09 275.77 91.4798C275.77 91.0918 275.566 90.7322 275.233 90.5325L270.263 87.5499C269.385 87.0233 268.849 86.075 268.849 85.0517V79.5696C268.849 77.6486 270.675 76.2534 272.528 76.7587L283.747 79.8175C284.958 80.1476 286.151 79.2363 286.151 77.9815C286.151 77.3727 285.86 76.8006 285.367 76.4425L270.048 65.3003C269.295 64.752 268.849 63.8762 268.849 62.9441V51.0589C268.849 49.147 267.3 47.5984 265.388 47.5984C263.476 47.5984 261.928 49.147 261.928 51.0589V62.9441C261.928 63.8762 261.482 64.752 260.728 65.3003L245.409 76.4425C244.917 76.8006 244.625 77.3727 244.625 77.9815Z" fill="white"/>
</svg>
