<svg width="39" height="31" viewBox="0 0 39 31" fill="none" xmlns="http://www.w3.org/2000/svg">
<path d="M19.2271 0L39 31L19.2271 23.8685L0 31L19.2271 0Z" fill="#13A2D7"/>
<g clip-path="url(#clip0_400_611)">
<path d="M12.2574 22.2211C12.2574 22.6092 12.6212 22.8947 12.9982 22.8024L16.0395 22.0584C17.1964 21.7753 18.3127 22.6514 18.3127 23.8425V23.8425C18.3127 24.5182 17.9417 25.1393 17.3468 25.4596L16.0695 26.1474C15.9593 26.2068 15.8906 26.3218 15.8906 26.4469V26.4469C15.8906 26.6348 16.0429 26.7871 16.2308 26.7871H18.9182H20.7348H22.8167C23.0046 26.7871 23.1569 26.6348 23.1569 26.4469V26.4469C23.1569 26.3218 23.0881 26.2068 22.978 26.1474L21.7007 25.4596C21.1058 25.1393 20.7348 24.5182 20.7348 23.8425V23.8425C20.7348 22.6514 21.851 21.7753 23.008 22.0584L26.0492 22.8024C26.4263 22.8947 26.79 22.6092 26.79 22.2211V22.2211C26.79 22.0189 26.6879 21.8303 26.5186 21.7198L22.0559 18.8072C21.2317 18.2693 20.7348 17.3516 20.7348 16.3674V13.7467C20.7348 13.1463 20.1928 12.66 19.5237 12.66C18.8546 12.66 18.3127 13.1463 18.3127 13.7467V16.3674C18.3127 17.3516 17.8158 18.2693 16.9916 18.8072L12.5288 21.7198C12.3595 21.8303 12.2574 22.0189 12.2574 22.2211V22.2211Z" fill="white"/>
</g>
<defs>
<clipPath id="clip0_400_611">
<rect width="16.3005" height="18.1657" fill="white" transform="translate(10.4409 27.8738) rotate(-90)"/>
</clipPath>
</defs>
</svg>
