<svg width="112" height="99" viewBox="0 0 112 99" fill="none" xmlns="http://www.w3.org/2000/svg">
<path d="M50.4214 8.11886C52.4068 4.55146 57.5273 4.52078 59.5554 8.06412L103.942 85.616C106.412 89.9321 102.049 94.9417 97.4345 93.087L56.9234 76.8041C55.6519 76.293 54.2308 76.3 52.9643 76.8235L13.9001 92.9706C9.30964 94.8681 4.89882 89.914 7.31439 85.5737L50.4214 8.11886Z" fill="#13A2D7"/>
<path d="M35.025 70.6977C35.025 71.9525 36.2181 72.8639 37.4287 72.5338L48.6475 69.4749C50.5008 68.9696 52.3274 70.3648 52.3274 72.2858V77.7679C52.3274 78.7912 51.7905 79.7395 50.9131 80.2661L45.9428 83.2488C45.61 83.4484 45.4065 83.808 45.4065 84.1961V84.1961C45.4065 84.8062 45.9011 85.3008 46.5112 85.3008H54.0576H59.2484H65.0645C65.6747 85.3008 66.1693 84.8062 66.1693 84.1961V84.1961C66.1693 83.808 65.9657 83.4484 65.633 83.2488L60.6627 80.2661C59.7852 79.7395 59.2484 78.7912 59.2484 77.7679V72.2858C59.2484 70.3648 61.0749 68.9696 62.9283 69.4749L74.147 72.5338C75.3576 72.8639 76.5507 71.9525 76.5507 70.6977V70.6977C76.5507 70.0889 76.2594 69.5168 75.7671 69.1587L60.4481 58.0166C59.6943 57.4683 59.2484 56.5925 59.2484 55.6604V43.7751C59.2484 41.8632 57.6998 40.3147 55.7879 40.3147C53.876 40.3147 52.3274 41.8632 52.3274 43.7751V55.6604C52.3274 56.5925 51.8814 57.4683 51.1276 58.0166L35.8087 69.1587C35.3163 69.5168 35.025 70.0889 35.025 70.6977V70.6977Z" fill="white"/>
</svg>
