<svg width="99" height="28" viewBox="0 0 99 28" fill="none" xmlns="http://www.w3.org/2000/svg">
<path d="M15.9972 12.6039C15.4954 13.2467 15.5759 15.2326 16.1186 15.8412C16.1889 15.9201 16.2576 16.0018 16.3246 16.0865C17.0787 17.039 17.4557 18.1304 17.4557 19.3607C17.4557 20.472 17.1779 21.4543 16.6222 22.3076C16.0865 23.141 15.3026 23.7959 14.2707 24.2721C13.2388 24.7484 12.0184 24.9865 10.6095 24.9865H2.99279C2.25117 24.9865 1.64996 24.3853 1.64996 23.6437V5.55269C1.64996 4.81107 2.25117 4.20987 2.99279 4.20987H10.2226C11.6315 4.20987 12.842 4.43807 13.854 4.89448C14.8859 5.3509 15.6598 5.9859 16.1758 6.79951C16.7115 7.61311 16.9794 8.53585 16.9794 9.56774C16.9794 10.7782 16.652 11.7903 15.9972 12.6039ZM5.8172 11.4396C5.8172 12.1813 6.4184 12.7825 7.16002 12.7825H9.62724C10.6194 12.7825 11.3834 12.5642 11.9192 12.1276C12.455 11.6712 12.7229 11.0263 12.7229 10.1928C12.7229 9.35938 12.455 8.71445 11.9192 8.25804C11.3834 7.80163 10.6194 7.57342 9.62724 7.57342H7.16002C6.4184 7.57342 5.8172 8.17462 5.8172 8.91625V11.4396ZM10.0142 21.5932C11.0262 21.5932 11.8101 21.3551 12.3657 20.8788C12.9412 20.4026 13.2289 19.7279 13.2289 18.8547C13.2289 17.9617 12.9313 17.2672 12.3359 16.7711C11.7406 16.2552 10.9369 15.9972 9.9249 15.9972H7.16002C6.4184 15.9972 5.8172 16.5984 5.8172 17.34V20.2504C5.8172 20.992 6.4184 21.5932 7.16002 21.5932H10.0142Z" fill="#13A2D7"/>
<path d="M24.6763 6.53161C23.942 6.53161 23.3269 6.30341 22.8308 5.847C22.3545 5.37074 22.1164 4.78534 22.1164 4.0908C22.1164 3.39626 22.3545 2.82079 22.8308 2.36438C23.3269 1.88812 23.942 1.64999 24.6763 1.64999C25.4105 1.64999 26.0157 1.88812 26.492 2.36438C26.9881 2.82079 27.2361 3.39626 27.2361 4.0908C27.2361 4.78534 26.9881 5.37074 26.492 5.847C26.0157 6.30341 25.4105 6.53161 24.6763 6.53161ZM25.3873 8.49617C26.1289 8.49617 26.7301 9.09737 26.7301 9.83899V23.6437C26.7301 24.3853 26.1289 24.9865 25.3873 24.9865H23.9057C23.1641 24.9865 22.5629 24.3853 22.5629 23.6437V9.83899C22.5629 9.09737 23.1641 8.49617 23.9057 8.49617H25.3873Z" fill="#13A2D7"/>
<path d="M41.7715 8.25804C43.736 8.25804 45.3235 8.88312 46.534 10.1333C47.7445 11.3636 48.3497 13.09 48.3497 15.3126V23.6437C48.3497 24.3853 47.7485 24.9865 47.0069 24.9865H45.5253C44.7837 24.9865 44.1825 24.3853 44.1825 23.6437V15.8781C44.1825 14.5684 43.8551 13.5663 43.2002 12.8718C42.5454 12.1574 41.6524 11.8002 40.5213 11.8002C39.3703 11.8002 38.4575 12.1574 37.7828 12.8718C37.128 13.5663 36.8005 14.5684 36.8005 15.8781V23.6437C36.8005 24.3853 36.1993 24.9865 35.4577 24.9865H33.9761C33.2345 24.9865 32.6333 24.3853 32.6333 23.6437V9.83899C32.6333 9.09737 33.2345 8.49617 33.9761 8.49617H36.2759C36.5656 8.49617 36.8005 8.73107 36.8005 9.02084C36.8005 9.52041 37.4898 9.78222 37.892 9.48591C38.2049 9.25539 38.5455 9.05446 38.9139 8.88312C39.7871 8.4664 40.7396 8.25804 41.7715 8.25804Z" fill="#13A2D7"/>
<path d="M79.3405 6.53161C78.6062 6.53161 77.9911 6.30341 77.495 5.847C77.0187 5.37074 76.7806 4.78534 76.7806 4.0908C76.7806 3.39626 77.0187 2.82079 77.495 2.36438C77.9911 1.88812 78.6062 1.64999 79.3405 1.64999C80.0747 1.64999 80.6799 1.88812 81.1562 2.36438C81.6523 2.82079 81.9003 3.39626 81.9003 4.0908C81.9003 4.78534 81.6523 5.37074 81.1562 5.847C80.6799 6.30341 80.0747 6.53161 79.3405 6.53161ZM80.0515 8.49617C80.7931 8.49617 81.3943 9.09737 81.3943 9.83899V23.6437C81.3943 24.3853 80.7931 24.9865 80.0515 24.9865H78.5699C77.8283 24.9865 77.2271 24.3853 77.2271 23.6437V9.83899C77.2271 9.09737 77.8283 8.49617 78.5699 8.49617H80.0515Z" fill="#13A2D7"/>
<path d="M91.4648 9.05981C91.4648 9.62853 92.323 9.91252 92.7613 9.55013C93.0066 9.34727 93.269 9.16462 93.5484 9.00219C94.0556 8.71396 94.6031 8.50946 95.1908 8.38869C95.9172 8.2394 96.525 8.85924 96.525 9.60086V11.5323C96.525 12.1405 96.0319 12.6336 95.4236 12.6336C94.1139 12.6336 93.1217 12.9412 92.447 13.5564C91.7922 14.1715 91.4648 15.2431 91.4648 16.7711V23.6437C91.4648 24.3853 90.8635 24.9865 90.1219 24.9865H88.6403C87.8987 24.9865 87.2975 24.3853 87.2975 23.6437V9.83899C87.2975 9.09737 87.8987 8.49617 88.6403 8.49617H90.9011C91.2124 8.49617 91.4648 8.74852 91.4648 9.05981Z" fill="#13A2D7"/>
<path d="M61.5716 5.19952C62.0292 4.37742 63.2092 4.37034 63.6765 5.1869L73.9053 23.0586C74.4746 24.0533 73.4691 25.2077 72.4057 24.7803L63.07 21.0279C62.777 20.9102 62.4495 20.9118 62.1576 21.0324L53.1554 24.7535C52.0975 25.1908 51.081 24.0491 51.6377 23.0489L61.5716 5.19952Z" fill="#13A2D7"/>
<path d="M58.0236 19.6207C58.0236 19.9099 58.2985 20.1199 58.5775 20.0438L61.1628 19.3389C61.5899 19.2225 62.0109 19.544 62.0109 19.9867V21.25C62.0109 21.4859 61.8871 21.7044 61.6849 21.8257L60.5395 22.5131C60.4629 22.5591 60.4159 22.642 60.4159 22.7314C60.4159 22.872 60.5299 22.986 60.6705 22.986H62.4096H63.6058H64.9461C65.0867 22.986 65.2007 22.872 65.2007 22.7314C65.2007 22.642 65.1538 22.5591 65.0771 22.5131L63.9317 21.8257C63.7295 21.7044 63.6058 21.4859 63.6058 21.25V19.9867C63.6058 19.544 64.0267 19.2225 64.4538 19.3389L67.0392 20.0438C67.3182 20.1199 67.5931 19.9099 67.5931 19.6207C67.5931 19.4804 67.526 19.3486 67.4125 19.2661L63.8823 16.6984C63.7086 16.572 63.6058 16.3702 63.6058 16.1554V13.4165C63.6058 12.9759 63.2489 12.619 62.8083 12.619C62.3677 12.619 62.0109 12.9759 62.0109 13.4165V16.1554C62.0109 16.3702 61.9081 16.572 61.7344 16.6984L58.2042 19.2661C58.0907 19.3486 58.0236 19.4804 58.0236 19.6207Z" fill="white"/>
</svg>
