<svg width="13" height="13" viewBox="0 0 13 13" fill="none" xmlns="http://www.w3.org/2000/svg">
<path d="M9.20825 5.41672V9.75005H8.12492V5.41672H4.87492V9.75005H3.79159V5.41672C3.36061 5.41672 2.94728 5.58792 2.64254 5.89267C2.33779 6.19741 2.16659 6.61074 2.16659 7.04172V8.12505C2.16659 8.55603 2.33779 8.96935 2.64254 9.2741C2.94728 9.57885 3.36061 9.75005 3.79159 9.75005H9.20825C9.63923 9.75005 10.0526 9.57885 10.3573 9.2741C10.662 8.96935 10.8333 8.55603 10.8333 8.12505V7.04172C10.8333 6.61074 10.662 6.19741 10.3573 5.89267C10.0526 5.58792 9.63923 5.41672 9.20825 5.41672V5.41672ZM4.967 4.33338H8.03284C7.92018 4.01696 7.71237 3.74315 7.43791 3.54952C7.16345 3.3559 6.8358 3.25196 6.49992 3.25196C6.16404 3.25196 5.83639 3.3559 5.56193 3.54952C5.28747 3.74315 5.07966 4.01696 4.967 4.33338V4.33338ZM3.84575 4.33338C3.97114 3.72204 4.30373 3.17272 4.78732 2.77824C5.27091 2.38377 5.87585 2.16833 6.49992 2.16833C7.12399 2.16833 7.72893 2.38377 8.21252 2.77824C8.69611 3.17272 9.0287 3.72204 9.15409 4.33338H9.20825C9.92655 4.33338 10.6154 4.61872 11.1233 5.12664C11.6312 5.63455 11.9166 6.32342 11.9166 7.04172V8.12505C11.9166 8.84334 11.6312 9.53222 11.1233 10.0401C10.6154 10.548 9.92655 10.8334 9.20825 10.8334H3.79159C3.07329 10.8334 2.38442 10.548 1.8765 10.0401C1.36859 9.53222 1.08325 8.84334 1.08325 8.12505L1.08325 7.04172C1.08325 6.32342 1.36859 5.63455 1.8765 5.12664C2.38442 4.61872 3.07329 4.33338 3.79159 4.33338H3.84575Z" fill="#545454"/>
</svg>
