<svg width="150" height="120" viewBox="0 0 150 120" fill="none" xmlns="http://www.w3.org/2000/svg">
<g clip-path="url(#clip0_21_335)">
<path d="M62.9754 3.4636L58.3335 2.79675C58.3335 2.79675 50.3953 9.59669 46.7006 15.7345C46.7006 15.7345 47.3898 23.8823 47.3898 29.4847C47.3898 29.4847 47.4179 60.5024 78.1673 88.3832C106.216 113.818 126.73 104.261 130.664 100.072L133.593 88.3832L113.873 73.0081C113.873 73.0081 106.277 70.7164 97.2181 83.2598C97.2181 83.2598 67.2282 64.9309 65.7746 41.3564C65.7746 41.3564 78.1673 34.9509 77.0985 30.546C76.0334 26.1411 71.7669 4.32768 71.7669 4.32768L62.9754 3.4636Z" fill="#D2EDFF"/>
<path d="M59.7962 0.941816C43.5261 7.07962 41.5239 24.8309 41.4489 25.5869C41.4348 25.7231 41.4348 25.8547 41.4536 25.9814C42.5554 34.7396 44.1309 44.8504 47.4459 53.4254C60.6683 87.6038 86.5085 101.105 89.4105 102.532L89.5002 102.584C94.4042 105.74 99.3656 107.853 104.246 108.877C119.555 112.085 129.725 103.721 131.095 101.94C132.525 100.081 134.288 94.1827 135.464 89.2802C135.624 88.6183 135.38 87.9279 134.841 87.5141L112.724 70.4676C112.189 70.0543 111.462 69.9932 110.867 70.3126C105.268 73.2899 100.101 78.0287 97.5226 80.5877L97.0349 81.0716L96.4485 80.7098C75.5178 67.8988 69.3098 48.5791 67.9032 42.9672L67.7391 42.3192L68.3205 41.9858C75.5691 37.8391 78.7575 32.4855 78.8894 32.2601C79.1005 31.8938 79.1706 31.4665 79.0862 31.0532L73.6283 4.19152C73.4923 3.51998 72.9718 2.98932 72.3201 2.85313C72.2967 2.84843 72.2685 2.84373 72.245 2.83904L60.6965 0.861983C60.3917 0.800934 60.0823 0.833806 59.7962 0.941816ZM60.5792 4.3324L70.4915 6.02769L75.5743 31.0485L75.349 31.3631C74.2143 32.9316 70.9369 36.8904 65.0336 39.8302C64.3584 40.1683 63.9833 40.8915 64.1006 41.6382C64.2694 42.7371 68.5925 68.7535 96.4907 84.7297C97.1894 85.1337 98.057 84.9972 98.6058 84.4055C98.6615 84.3445 104.466 78.1033 111.008 74.1869L111.519 73.8816L131.854 89.5575L131.709 90.1206C130.93 93.1259 129.36 98.55 128.408 99.79L128.371 99.8322C128.291 99.9219 119.377 108.52 104.954 105.501C100.443 104.557 95.8251 102.57 91.2346 99.5977C91.1736 99.5601 91.108 99.5224 91.0424 99.4892C90.7658 99.3581 63.7817 86.0962 50.6577 52.1763C47.4928 44.0004 45.9783 34.2935 44.9092 25.8781L44.8952 25.7607L44.9139 25.6433C45.2937 23.0088 47.821 9.59202 60.3495 4.43102L60.5792 4.3324Z" fill="url(#paint0_linear_21_335)"/>
<path d="M68.7846 30.1C64.4193 23.5442 63.2189 10.9211 63.172 10.3858C63.1298 9.92552 62.9142 9.50763 62.5625 9.21177C62.3421 9.02861 62.0843 8.90182 61.8123 8.84544C61.6482 8.81258 61.4794 8.80316 61.3059 8.81725C60.3588 8.90182 59.6602 9.73768 59.7398 10.6863C59.7914 11.2546 61.0199 24.6572 65.9197 32.016C66.4261 32.7768 67.5373 33.0022 68.3063 32.4903C69.0987 31.9596 69.3144 30.889 68.7846 30.1Z" fill="url(#paint1_linear_21_335)"/>
<path d="M106.548 84.6964C106.736 84.9504 111.307 91.0597 122.57 97.0801C122.716 97.1555 122.87 97.212 123.029 97.2444C123.77 97.3997 124.539 97.0379 124.9 96.3663C125.116 95.9577 125.163 95.4934 125.027 95.0517C124.891 94.61 124.596 94.2489 124.192 94.0326C113.741 88.4487 109.357 82.6959 109.315 82.6401C108.752 81.8841 107.678 81.7243 106.914 82.2829C106.155 82.8512 105.99 83.9314 106.548 84.6964Z" fill="url(#paint2_linear_21_335)"/>
<path d="M29.23 115.372H28.2313C25.4227 115.372 23.1486 113.094 23.1486 110.281V73.4636C23.1486 70.6506 25.4227 68.373 28.2313 68.373H29.23C33.0467 68.373 36.1366 71.4725 36.1366 75.2904V108.455C36.1413 112.272 33.0467 115.372 29.23 115.372Z" fill="#D2EDFF"/>
<path d="M38.1668 75.6472C38.1668 75.6472 47.0193 76.7789 50.7375 70.6693C53.5086 66.1235 52.0035 56.6703 52.0035 56.6703C52.0035 56.6703 56.3969 50.1709 60.5559 54.4303C64.7149 58.6896 62.3001 73.9519 62.9331 74.4873C63.5662 75.0227 91.6613 73.9332 93.6121 75.9572C95.5628 77.9767 93.7198 83.6963 93.6121 84.8043C93.5043 85.9131 92.3932 91.6704 92.2334 92.4453C92.0744 93.2201 90.3347 96.7983 90.3347 97.3433C90.3347 97.8882 88.5761 102.397 88.8249 103.021C89.0683 103.641 85.2663 109.774 85.2663 109.774C85.2663 109.774 87.1651 113.282 85.8987 113.981C84.6332 114.681 81.3038 116.616 80.8304 116.428C80.357 116.24 52.1629 116.442 52.1629 116.442C52.1629 116.442 48.1821 113.85 48.2009 113.286C48.2993 110.422 43.6058 108.154 43.6058 108.154L38.1621 106.848V75.6472H38.1668Z" fill="white"/>
<path d="M30.6883 104.486C30.6883 105.905 30.7726 107.332 30.6602 108.741C30.5804 109.774 29.5254 110.511 28.5361 110.408C27.6077 110.314 26.8294 109.826 26.7027 108.905C26.2901 105.942 26.3745 102.955 26.6418 99.9821C26.7309 98.9585 27.7906 98.2447 28.7752 98.3058C29.7786 98.3713 30.6461 99.1228 30.7164 100.217C30.8055 101.635 30.7398 103.058 30.7398 104.481C30.7211 104.486 30.7023 104.486 30.6883 104.486Z" fill="url(#paint3_linear_21_335)"/>
<path d="M97.0017 78.0091C96.0595 75.8023 93.9874 74.2901 91.4645 73.9661C90.6489 73.8628 89.7813 73.8722 88.9469 73.8863C88.6605 73.8909 88.3695 73.8957 88.0884 73.8957C85.7909 73.8909 83.4934 73.8909 81.1959 73.8909C76.6756 73.8909 72.0059 73.8909 67.4108 73.8628C65.3524 73.8534 64.8461 73.365 64.8226 71.3786C64.7898 68.8332 64.7898 66.2457 64.7944 63.7474C64.7944 62.409 64.7944 61.0659 64.7898 59.7276C64.7898 59.4364 64.7944 59.1452 64.7944 58.8541C64.8039 58.0182 64.8132 57.1588 64.7148 56.3416C64.3678 53.4818 62.15 51.1337 59.3273 50.6265C56.3311 50.0911 53.3303 51.6221 52.0315 54.3599C51.4829 55.5104 51.2297 56.8066 51.2438 58.3234L51.2578 59.3143C51.286 61.404 51.3141 63.5596 51.2062 65.6869C51.0187 69.3451 48.5993 72.4915 45.1858 73.5199C43.1602 74.1305 41.1487 74.1539 39.3717 73.5857C38.3542 73.2617 38.0353 72.3365 37.754 71.5194C37.6275 71.1531 37.5055 70.8056 37.3367 70.5333C36.7694 69.6316 36.1411 68.8521 35.4565 68.1946V115.339C36.4412 114.404 37.2617 113.216 37.8994 111.765C38.5465 110.3 39.4092 109.661 40.7783 109.661C40.8299 109.661 40.8815 109.661 40.933 109.666C41.3363 109.68 41.7348 109.68 42.1381 109.685C42.7336 109.689 43.3478 109.694 43.962 109.731C45.1061 109.807 45.9454 110.455 46.3205 111.559C46.4331 111.883 46.4987 112.211 46.5643 112.526C46.6159 112.78 46.6628 113.019 46.7332 113.244C47.699 116.461 49.3448 117.785 52.416 117.809C59.5618 117.87 66.8341 117.856 73.8626 117.842C76.4743 117.837 79.0861 117.832 81.6979 117.832C81.9271 117.832 82.1803 117.813 82.4856 117.767C85.472 117.339 87.7982 114.841 88.0085 111.826C88.0695 110.986 88.0228 110.14 87.8728 109.388C87.615 108.074 87.924 107.102 88.8761 106.238C91.1125 104.218 91.8534 101.767 91.0846 98.9541C90.7891 97.8694 91.0756 96.949 91.9567 96.1508C94.1743 94.145 94.8874 91.7593 94.1276 88.8528C93.8276 87.7116 94.114 86.7626 94.9718 86.0254C95.4685 85.6033 95.8205 85.237 96.0874 84.8752C97.6115 82.7993 97.9537 80.2357 97.0017 78.0091ZM91.3612 83.9691C90.4236 84.1335 89.4625 84.1335 88.5339 84.1335H88.2806C85.3409 84.1425 82.4012 84.1425 79.466 84.1425C77.3796 84.1425 75.2927 84.1425 73.2062 84.147H72.8217C71.973 84.147 71.0916 84.147 70.2428 84.2224C69.441 84.2978 68.7706 84.9362 68.7096 85.6734C68.644 86.495 69.4176 87.2985 70.3648 87.392C71.1525 87.4674 71.973 87.4674 72.7655 87.4629H73.3234C74.9598 87.4674 76.5964 87.4629 78.2374 87.4629C80.6193 87.4629 83.0012 87.4629 85.3831 87.4719H85.5987C86.5409 87.4764 87.5117 87.4764 88.4683 87.6317C89.7949 87.848 90.8223 89.0872 90.9158 90.5812C91.0047 92.0036 90.2969 93.2345 89.0215 93.8684C88.0605 94.347 87.0851 94.338 86.1429 94.338H85.8474C83.92 94.3425 81.9934 94.3425 80.066 94.3425C77.6886 94.3425 75.3068 94.3425 72.9296 94.347H72.8639C71.912 94.3515 70.9274 94.3515 69.9896 94.4789C69.3004 94.5724 68.8738 95.0284 68.78 95.7603C68.7283 96.1644 68.7706 96.7749 69.7412 97.3523C70.2898 97.6817 70.9321 97.6719 71.612 97.6629C71.7386 97.6629 71.8699 97.6629 71.9965 97.6576C73.4875 97.6629 74.9833 97.6629 76.4743 97.6629C78.4251 97.6629 80.3803 97.6628 82.3356 97.6764C83.3622 97.6817 84.4077 97.6907 85.4208 97.8882C86.9306 98.1837 88.1163 99.7757 87.9572 101.302C87.8117 102.683 86.6818 103.932 85.3831 104.143C84.3188 104.317 83.2311 104.345 82.307 104.35C80.4595 104.359 78.6075 104.359 76.76 104.359C74.3456 104.359 71.8465 104.359 69.3895 104.378C68.2595 104.387 67.3405 104.505 66.5715 104.73C65.7556 104.97 65.69 105.792 65.7228 106.257C65.7651 106.834 66.051 107.247 66.595 107.524C67.2936 107.876 68.072 107.872 68.8972 107.863C69.0378 107.863 69.1785 107.863 69.3238 107.863C70.5945 107.867 71.8652 107.867 73.1359 107.863C75.1661 107.863 77.2009 107.858 79.2316 107.876C80.1595 107.886 81.2524 107.919 82.3122 108.125C83.6668 108.388 84.6519 109.661 84.6519 111.15C84.6519 112.441 83.7467 114.005 82.3959 114.273C81.3504 114.479 80.2537 114.503 79.3062 114.507C76.2632 114.526 73.2203 114.522 70.1725 114.517L66.3042 114.512C65.193 114.512 64.0864 114.517 62.9752 114.517C61.7139 114.522 60.4386 114.522 59.1538 114.522C57.4002 114.522 55.6372 114.517 53.8882 114.498C50.9484 114.465 50.7561 114.164 49.8793 111.427C49.8277 111.272 49.7809 111.112 49.734 110.957C49.6168 110.563 49.5042 110.192 49.3542 109.835C48.5055 107.844 47.0472 106.693 44.8904 106.318C44.2949 106.214 43.7698 106.168 43.2727 106.172C41.1487 106.196 40.0094 106.177 39.367 105.538C38.7668 104.941 38.7668 104.007 38.7762 102.317V101.607C38.7668 95.9156 38.7668 90.2284 38.7715 84.5367V81.5593C38.7715 80.7664 38.7715 79.9493 38.8278 79.1412C38.9074 78.0423 39.578 77.3428 40.6189 77.2772C41.3598 77.2297 42.0912 77.183 42.8179 77.2108C45.7625 77.3194 48.9041 75.976 51.2062 73.628C53.5554 71.2283 54.751 68.1429 54.5775 64.9355C54.5025 63.5267 54.5259 62.0991 54.5447 60.7184C54.5541 60.1032 54.5635 59.4833 54.5681 58.8682C54.5728 57.9196 54.5728 56.7408 55.2058 55.6842C55.8951 54.5243 56.8563 53.9326 58.066 53.9185C58.0753 53.9185 58.0848 53.9185 58.0941 53.9185C59.4258 53.9185 60.8417 54.9516 61.1888 56.1867C61.3669 56.816 61.456 57.5579 61.4607 58.4455C61.4701 60.2535 61.4701 62.0568 61.4701 63.8648C61.4701 66.1894 61.4654 68.5891 61.4889 70.9513C61.5029 72.2333 61.32 73.5294 59.9322 74.3465C59.8384 74.4028 59.7164 74.6094 59.6227 74.7551L59.5758 74.8349C59.3038 75.281 59.2804 75.8587 59.5148 76.3425C59.7164 76.7601 60.0681 77.033 60.4808 77.0887C61.3903 77.2108 62.3516 77.2063 63.28 77.2018H63.852C71.8886 77.2108 79.9303 77.2018 87.9663 77.2161H88.0839C89.2047 77.2161 90.3625 77.2206 91.4833 77.4317C92.9833 77.7136 94.1743 79.2023 94.1321 80.7566C94.0997 82.2686 92.8522 83.7106 91.3612 83.9691Z" fill="url(#paint4_linear_21_335)"/>
<path d="M21.1558 55.4729C13.363 56.9615 12.0313 58.6662 10.8685 68.6407C10.8357 68.9365 10.4981 68.9365 10.4653 68.6407C9.30248 58.6662 7.97087 56.9615 0.178028 55.4729C-0.0564129 55.4306 -0.0564129 54.9985 0.178028 54.9563C7.97087 53.4676 9.30248 51.763 10.4653 41.7884C10.4981 41.4926 10.8357 41.4926 10.8685 41.7884C12.0313 51.763 13.363 53.4676 21.1558 54.9563C21.3902 54.9985 21.3902 55.4259 21.1558 55.4729Z" fill="#D2EDFF"/>
<path d="M93.9822 19.6324C89.8892 20.412 89.1905 21.3089 88.5807 26.5451C88.5626 26.7 88.3884 26.7 88.3704 26.5451C87.7606 21.3089 87.0618 20.412 82.9681 19.6324C82.8467 19.609 82.8467 19.3835 82.9681 19.3601C87.0618 18.5805 87.7606 17.6835 88.3704 12.4474C88.3884 12.2924 88.5626 12.2924 88.5807 12.4474C89.1905 17.6835 89.8892 18.5805 93.9822 19.3601C94.1043 19.3835 94.1043 19.609 93.9822 19.6324Z" fill="#D2EDFF"/>
<path d="M149.882 82.9124C144.561 83.9315 143.651 85.096 142.854 91.9056C142.831 92.1068 142.601 92.1068 142.578 91.9056C141.785 85.0915 140.876 83.9262 135.549 82.9124C135.39 82.8837 135.39 82.5882 135.549 82.5603C140.87 81.5412 141.78 80.3767 142.578 73.567C142.601 73.365 142.831 73.365 142.854 73.567C143.646 80.3812 144.556 81.5458 149.882 82.5603C150.042 82.5882 150.042 82.8792 149.882 82.9124Z" fill="#D2EDFF"/>
<path d="M34.7253 117.762H24.7709C22.8719 117.762 21.3293 116.217 21.3293 114.315V69.8335C21.3293 67.9316 22.8719 66.3866 24.7709 66.3866H34.7253C36.6242 66.3866 38.1669 67.9316 38.1669 69.8335V114.315C38.1669 116.217 36.6242 117.762 34.7253 117.762Z" fill="#D2EDFF"/>
<path d="M34.7254 119.171H20.9964C18.3239 119.171 16.1482 116.992 16.1482 114.315V69.8337C16.1482 67.1569 18.3239 64.9779 20.9964 64.9779H34.7254C37.3979 64.9779 39.5736 67.1569 39.5736 69.8337V114.315C39.5736 116.992 37.3979 119.171 34.7254 119.171ZM20.9964 67.7956C19.8758 67.7956 18.9615 68.7113 18.9615 69.8337V114.315C18.9615 115.437 19.8758 116.353 20.9964 116.353H34.7254C35.846 116.353 36.7603 115.437 36.7603 114.315V69.8337C36.7603 68.7113 35.846 67.7956 34.7254 67.7956H20.9964Z" fill="url(#paint5_linear_21_335)"/>
<path d="M27.4481 113.521C26.6697 113.521 26.0414 112.892 26.0414 112.113V103.143C26.0414 102.363 26.6697 101.734 27.4481 101.734C28.2264 101.734 28.8547 102.363 28.8547 103.143V112.113C28.8547 112.892 28.2217 113.521 27.4481 113.521Z" fill="url(#paint6_linear_21_335)"/>
</g>
<defs>
<linearGradient id="paint0_linear_21_335" x1="41.4388" y1="0.831543" x2="159.483" y2="43.8962" gradientUnits="userSpaceOnUse">
<stop stop-color="#16A7DD"/>
<stop offset="0.453013" stop-color="#3492B5"/>
<stop offset="1" stop-color="#8BBCCE"/>
</linearGradient>
<linearGradient id="paint1_linear_21_335" x1="59.7336" y1="8.81091" x2="72.6655" y2="10.9381" gradientUnits="userSpaceOnUse">
<stop stop-color="#16A7DD"/>
<stop offset="0.453013" stop-color="#3492B5"/>
<stop offset="1" stop-color="#8BBCCE"/>
</linearGradient>
<linearGradient id="paint2_linear_21_335" x1="106.217" y1="81.9496" x2="127.361" y2="92.9366" gradientUnits="userSpaceOnUse">
<stop stop-color="#16A7DD"/>
<stop offset="0.453013" stop-color="#3492B5"/>
<stop offset="1" stop-color="#8BBCCE"/>
</linearGradient>
<linearGradient id="paint3_linear_21_335" x1="26.4172" y1="98.3021" x2="32.458" y2="99.2162" gradientUnits="userSpaceOnUse">
<stop stop-color="#16A7DD"/>
<stop offset="0.453013" stop-color="#3492B5"/>
<stop offset="1" stop-color="#8BBCCE"/>
</linearGradient>
<linearGradient id="paint4_linear_21_335" x1="35.4565" y1="50.5205" x2="112.123" y2="80.3345" gradientUnits="userSpaceOnUse">
<stop stop-color="#16A7DD"/>
<stop offset="0.453013" stop-color="#3492B5"/>
<stop offset="1" stop-color="#8BBCCE"/>
</linearGradient>
<linearGradient id="paint5_linear_21_335" x1="16.1482" y1="64.9779" x2="48.3831" y2="70.8554" gradientUnits="userSpaceOnUse">
<stop stop-color="#16A7DD"/>
<stop offset="0.453013" stop-color="#3492B5"/>
<stop offset="1" stop-color="#8BBCCE"/>
</linearGradient>
<linearGradient id="paint6_linear_21_335" x1="26.0414" y1="101.734" x2="30.0012" y2="102.133" gradientUnits="userSpaceOnUse">
<stop stop-color="#16A7DD"/>
<stop offset="0.453013" stop-color="#3492B5"/>
<stop offset="1" stop-color="#8BBCCE"/>
</linearGradient>
<clipPath id="clip0_21_335">
<rect width="150" height="118.342" fill="white" transform="translate(0 0.829102)"/>
</clipPath>
</defs>
</svg>
