<svg width="13" height="13" viewBox="0 0 13 13" fill="none" xmlns="http://www.w3.org/2000/svg">
<g clip-path="url(#clip0_343_618)">
<path d="M8.37967 6.1171C8.32937 6.06677 8.26966 6.02684 8.20394 5.99959C8.13822 5.97234 8.06777 5.9583 7.99663 5.95828C7.92548 5.95825 7.85502 5.97224 7.78928 5.99944C7.72354 6.02665 7.6638 6.06653 7.61348 6.11682C7.56315 6.16712 7.52322 6.22683 7.49597 6.29255C7.46872 6.35827 7.45468 6.42872 7.45466 6.49986C7.45463 6.57101 7.46862 6.64146 7.49583 6.70721C7.52303 6.77295 7.56292 6.83269 7.61321 6.88301C7.71477 6.98465 7.85256 7.04178 7.99624 7.04183C8.13993 7.04188 8.27776 6.98485 8.37939 6.88328C8.48103 6.78172 8.53816 6.64393 8.53821 6.50025C8.53826 6.35656 8.48123 6.21873 8.37967 6.1171V6.1171ZM8.76262 4.96822C8.81259 4.91649 8.87236 4.87522 8.93845 4.84683C9.00453 4.81844 9.07561 4.8035 9.14753 4.80288C9.21945 4.80225 9.29078 4.81596 9.35735 4.84319C9.42392 4.87043 9.4844 4.91065 9.53525 4.96151C9.58611 5.01237 9.62633 5.07284 9.65357 5.13941C9.6808 5.20598 9.69451 5.27731 9.69388 5.34923C9.69326 5.42115 9.67832 5.49223 9.64993 5.55831C9.62154 5.6244 9.58027 5.68417 9.52854 5.73414C9.42638 5.83281 9.28955 5.8874 9.14753 5.88617C9.00551 5.88494 8.86965 5.82797 8.76922 5.72754C8.66879 5.62711 8.61183 5.49125 8.61059 5.34923C8.60936 5.20721 8.66395 5.07038 8.76262 4.96822V4.96822ZM10.6774 6.1171C10.6274 6.06536 10.5677 6.0241 10.5016 5.99571C10.4355 5.96732 10.3644 5.95238 10.2925 5.95175C10.2206 5.95113 10.1493 5.96483 10.0827 5.99207C10.0161 6.0193 9.95564 6.05952 9.90478 6.11038C9.85393 6.16124 9.81371 6.22172 9.78647 6.28829C9.75923 6.35486 9.74553 6.42618 9.74615 6.4981C9.74678 6.57003 9.76172 6.6411 9.79011 6.70719C9.8185 6.77328 9.85976 6.83305 9.9115 6.88301C10.0137 6.98168 10.1505 7.03628 10.2925 7.03504C10.4345 7.03381 10.5704 6.97684 10.6708 6.87641C10.7712 6.77598 10.8282 6.64013 10.8294 6.4981C10.8307 6.35608 10.7761 6.21926 10.6774 6.1171ZM8.76262 7.26597C8.81295 7.21568 8.87269 7.17579 8.93843 7.14859C9.00417 7.12139 9.07463 7.1074 9.14577 7.10742C9.21692 7.10745 9.28737 7.12149 9.35309 7.14874C9.41881 7.17599 9.47852 7.21592 9.52881 7.26624C9.5791 7.31657 9.61899 7.37631 9.64619 7.44205C9.6734 7.50779 9.68738 7.57824 9.68736 7.64939C9.68733 7.72054 9.67329 7.79098 9.64604 7.85671C9.61879 7.92243 9.57887 7.98214 9.52854 8.03243C9.4269 8.134 9.28908 8.19103 9.14539 8.19098C9.0017 8.19093 8.86392 8.1338 8.76235 8.03216C8.66079 7.93052 8.60375 7.7927 8.60381 7.64901C8.60386 7.50532 8.66098 7.36754 8.76262 7.26597V7.26597ZM3.25008 7.04172H2.16675V5.95839H3.25008V4.87505H4.33341V5.95839H5.41675V7.04172H4.33341V8.12505H3.25008V7.04172Z" fill="#545454"/>
<path fill-rule="evenodd" clip-rule="evenodd" d="M3.79167 2.70837C2.78605 2.70837 1.82163 3.10785 1.11055 3.81893C0.399478 4.53 0 5.49443 0 6.50004C0 7.50565 0.399478 8.47008 1.11055 9.18115C1.82163 9.89223 2.78605 10.2917 3.79167 10.2917H9.20833C9.70626 10.2917 10.1993 10.1936 10.6593 10.0031C11.1194 9.81254 11.5374 9.53324 11.8894 9.18115C12.2415 8.82907 12.5208 8.41108 12.7114 7.95105C12.9019 7.49102 13 6.99797 13 6.50004C13 6.00211 12.9019 5.50906 12.7114 5.04903C12.5208 4.58901 12.2415 4.17102 11.8894 3.81893C11.5374 3.46684 11.1194 3.18755 10.6593 2.997C10.1993 2.80645 9.70626 2.70837 9.20833 2.70837H3.79167ZM9.20833 3.79171H3.79167C3.07337 3.79171 2.3845 4.07705 1.87659 4.58496C1.36867 5.09287 1.08333 5.78175 1.08333 6.50004C1.08333 7.21834 1.36867 7.90721 1.87659 8.41512C2.3845 8.92303 3.07337 9.20837 3.79167 9.20837H9.20833C9.92663 9.20837 10.6155 8.92303 11.1234 8.41512C11.6313 7.90721 11.9167 7.21834 11.9167 6.50004C11.9167 5.78175 11.6313 5.09287 11.1234 4.58496C10.6155 4.07705 9.92663 3.79171 9.20833 3.79171V3.79171Z" fill="#545454"/>
</g>
<defs>
<clipPath id="clip0_343_618">
<rect width="13" height="13" fill="white"/>
</clipPath>
</defs>
</svg>
