<svg width="150" height="150" viewBox="0 0 150 150" fill="none" xmlns="http://www.w3.org/2000/svg">
<g clip-path="url(#clip0_1_205)">
<path d="M14.2169 54.7024L29.5706 58.6455L17.4744 102.396L1.80618 98.0111L14.2169 54.7024Z" fill="#D2EDFF"/>
<path d="M66.3163 14.3105C66.3163 14.3105 66.3163 14.3156 66.3163 14.3206C66.4837 14.3003 66.6512 14.2799 66.8186 14.2596C66.6461 14.2749 66.4786 14.2952 66.3163 14.3105Z" fill="#86C3EE"/>
<path d="M133.414 19.4171C132.668 19.2647 131.049 18.6549 130.313 18.4821C128.497 18.0603 126.599 17.4302 124.894 16.7139C114.594 12.3641 107.394 8.73601 99.337 2.70947C89.24 8.70044 76.2001 14.3459 64.0227 15.54C63.8553 15.5603 63.6879 15.5806 63.5204 15.601C63.4798 15.8144 62.3179 21.7901 62.1403 24.9355C60.8718 47.9035 74.962 67.6142 94.4759 76.9589C95.0602 77.2384 94.5268 78.2496 95.1204 78.5087C116.005 71.6336 132.409 53.5793 133.697 30.271C133.875 27.085 133.414 19.4171 133.414 19.4171Z" fill="#D2EDFF"/>
<path d="M127.98 22.7964C118.42 20.1896 108.221 16.4802 101.24 10.1233C100.636 9.57453 99.7028 9.59994 98.987 9.99629C90.326 14.8185 79.2395 19.529 69.4672 21.0636C68.5539 21.2058 68.6909 21.9884 68.559 22.903C68.3763 24.1429 68.2241 25.337 68.1784 26.2009C67.6153 36.3535 70.9132 44.7328 76.3424 53.2796C81.1829 60.9017 87.9261 66.9333 95.9481 70.846C96.45 71.09 97.0333 71.1255 97.5611 70.9375C105.969 67.9344 113.331 62.6853 118.983 55.6476C125.32 47.7511 128.583 38.5639 129.142 28.4113C129.187 27.5576 129.187 26.3686 129.156 25.1287C129.136 24.1937 128.882 23.0403 127.98 22.7964Z" fill="white"/>
<path d="M115.99 58.3153C115.806 58.3051 115.63 58.234 115.482 58.107C115.137 57.8021 115.106 57.2736 115.411 56.9281C115.939 56.3335 116.461 55.7187 116.958 55.0988C123.103 47.4411 126.64 38.193 127.182 28.3503C127.233 27.456 127.228 26.0485 127.172 24.2497C117.121 21.6276 107.394 17.029 98.9713 10.911C97.9065 11.5208 96.8148 12.1102 95.7241 12.6691C95.313 12.8774 94.8111 12.7148 94.6028 12.3084C94.3944 11.8968 94.5574 11.3937 94.963 11.1854C96.1907 10.5553 97.4185 9.88961 98.6111 9.19854C98.9009 9.03085 99.2556 9.05117 99.5194 9.24935C108.039 15.5248 117.953 20.2048 128.187 22.7912C128.547 22.8827 128.801 23.1978 128.817 23.5687C128.893 25.7435 128.903 27.3848 128.846 28.4418C128.283 38.635 124.62 48.2185 118.257 56.1456C117.74 56.7859 117.202 57.426 116.659 58.041C116.481 58.234 116.233 58.3306 115.99 58.3153Z" fill="url(#paint0_linear_1_205)" stroke="url(#paint1_linear_1_205)" stroke-width="1.85185" stroke-miterlimit="10"/>
<path d="M95.3537 72.3043C95.2472 72.2992 95.1407 72.2739 95.0444 72.2281C86.5558 68.2748 79.3915 61.979 74.3328 54.0113C68.8174 45.3323 66.2043 35.2915 66.7777 24.9813C66.8386 23.9041 67.0517 22.2526 67.4068 20.0625C67.4678 19.6966 67.7569 19.412 68.1223 19.3613C73.871 18.5686 79.5741 17.1559 85.0692 15.1641C85.5055 15.0065 85.9926 15.2301 86.1499 15.6721C86.3071 16.1091 86.0839 16.5969 85.6425 16.7545C80.2337 18.7159 74.627 20.1235 68.9696 20.9517C68.6855 22.7556 68.5079 24.1733 68.4571 25.0778C67.9092 35.0323 70.4309 44.7276 75.7534 53.1068C80.5787 60.7035 87.3829 66.7301 95.4454 70.5563C97.8759 69.7178 100.24 68.6813 102.493 67.4668C102.904 67.2432 103.417 67.4008 103.634 67.8073C103.857 68.2189 103.701 68.7321 103.294 68.9506C100.864 70.2616 98.2972 71.3795 95.6685 72.2637C95.5667 72.2941 95.4602 72.3094 95.3537 72.3043Z" fill="url(#paint2_linear_1_205)" stroke="url(#paint3_linear_1_205)" stroke-width="1.85185" stroke-miterlimit="10"/>
<path d="M87.515 56.4046C87.4033 56.5062 87.2562 56.5723 87.099 56.5621C86.7793 56.5469 86.5357 56.2674 86.5459 55.9371L86.688 52.5173C86.7031 52.187 86.9721 51.9279 87.2918 51.9431C87.6114 51.9584 87.855 52.2379 87.8448 52.5681L87.7028 55.988C87.6977 56.1506 87.6267 56.2979 87.515 56.4046Z" fill="#D2EDFF"/>
<path d="M85.2419 51.6026L82.299 54.1587C82.0555 54.372 81.6901 54.3415 81.4871 54.0875C81.2842 53.8334 81.3146 53.4523 81.5582 53.2388L84.501 50.6829C84.7446 50.4695 85.1099 50.5001 85.3129 50.7541C85.5209 51.0081 85.4854 51.3892 85.2419 51.6026Z" fill="#D2EDFF"/>
<path d="M109.719 27.715C109.439 27.7556 109.181 27.5524 109.14 27.2678L108.673 23.7616C108.637 23.4771 108.831 23.2129 109.115 23.1773C109.394 23.1367 109.652 23.3399 109.693 23.6244L110.159 27.1306C110.195 27.4152 109.997 27.6743 109.719 27.715Z" fill="#D2EDFF"/>
<path d="M112.621 28.2535C112.494 28.2841 112.352 28.2637 112.235 28.1875C111.997 28.0351 111.92 27.7149 112.068 27.471L113.889 24.4831C114.036 24.2392 114.356 24.163 114.594 24.3154C114.833 24.4679 114.909 24.788 114.762 25.0319L112.941 28.0198C112.865 28.1417 112.748 28.2179 112.621 28.2535Z" fill="#D2EDFF"/>
<path d="M93.6241 45.0122L88.0732 42.8425C87.4542 42.5986 86.7945 42.6341 86.2314 42.8882L93.1065 45.5763L93.6241 45.0122Z" fill="#D2EDFF"/>
<path d="M94.8667 46.2672L95.3843 45.7031L93.6241 45.012L93.1065 45.576L94.8667 46.2672Z" fill="#D2EDFF"/>
<path d="M110.703 31.6226L111.241 31.0383C111.454 30.8046 111.707 30.6216 111.981 30.4946C111.286 30.0626 110.423 30.0271 109.698 30.3675C109.825 30.4488 109.946 30.5352 110.063 30.6419C110.368 30.9163 110.581 31.2568 110.703 31.6226Z" fill="white"/>
<path d="M94.213 51.1607L94.6537 51.3334C94.8926 51.4249 95.1407 51.4808 95.3898 51.496C95.7704 51.5164 96.1454 51.4453 96.4907 51.2928L94.9231 50.678C94.7148 50.8812 94.4759 51.0438 94.213 51.1607Z" fill="#D2EDFF"/>
<path d="M86.2259 42.8882L85.7896 42.7154C85.1706 42.4715 84.5109 42.5071 83.9478 42.7612L85.5155 43.376C85.7236 43.1728 85.9671 43.0051 86.2259 42.8882Z" fill="#D2EDFF"/>
<path d="M94.9278 50.673L86.3326 47.3142C85.0997 46.8314 84.4908 45.4442 84.9729 44.2095C85.0997 43.8843 85.2874 43.6047 85.5208 43.3761L83.953 42.7612C83.3948 43.0102 82.9331 43.4675 82.6946 44.0773C82.2126 45.3122 82.8215 46.6994 84.0544 47.1821L94.2176 51.1507C94.4759 51.0439 94.7148 50.8813 94.9278 50.673Z" fill="white"/>
<path d="M85.5156 43.3758L92.5887 46.1402L93.1065 45.5761L86.2311 42.8881C85.9672 43.0049 85.7237 43.1726 85.5156 43.3758Z" fill="#D2EDFF"/>
<path d="M110.662 30.2304C109.312 30.3676 108.389 31.2924 107.679 32.3747C107.161 32.4866 106.684 32.8219 106.435 33.452C105.964 34.636 105.365 36.4602 104.309 37.263C103.736 37.695 103.096 37.8423 102.589 38.3911C102.316 38.6858 102.112 39.0822 101.884 39.4379C101.559 39.6157 101.244 39.819 100.935 40.0629C100.514 40.3881 100.336 40.9014 100.362 41.4145C99.9963 41.755 99.6315 42.0904 99.2657 42.4257C98.8907 42.629 98.5704 42.9288 98.3268 43.3556C98.1898 43.5995 98.1139 43.8485 98.0889 44.0925C97.338 44.8903 96.5315 45.5915 95.5417 46.186C95.3435 46.308 95.1565 46.4452 94.9889 46.5925C94.9481 46.5772 94.9028 46.5671 94.862 46.5569C91.6652 45.8202 88.5447 44.7378 85.6222 43.2439C84.7799 42.8119 83.755 42.8881 83.1918 43.7418C82.7148 44.4634 82.8417 45.7439 83.6891 46.1758C86.4137 47.5681 89.2348 48.686 92.1777 49.4889C92.5329 50.0072 93.1213 50.3579 93.8167 50.2358C94.0398 50.3324 94.2528 50.4798 94.4657 50.5865C94.9278 50.8101 95.3694 50.9371 95.887 50.9727C97.1046 51.054 97.7898 49.997 97.6778 49.0011C97.8194 48.9198 97.9667 48.8385 98.1093 48.747C98.6574 48.3862 99.175 47.9899 99.6565 47.5427C100.55 46.7042 101.321 45.7439 102.092 44.7937C102.194 44.6667 102.269 44.5294 102.32 44.3872C103.198 43.5742 104.071 42.751 104.923 41.9075C105.309 41.5264 105.471 41.0436 105.461 40.571C105.74 40.4237 106.065 40.3119 106.304 40.1443C106.897 39.7326 107.399 39.1838 107.831 38.5639C108.019 38.5842 108.217 38.5741 108.434 38.5283C109.642 38.2641 110.55 37.0903 111.26 36.1503C112.012 35.1593 112.803 33.8432 113.031 32.6034C113.29 31.1196 112.088 30.083 110.662 30.2304Z" fill="#D2EDFF"/>
<path d="M95.3435 52.3701C94.9991 52.3497 94.6593 52.2786 94.3343 52.1515L83.7296 48.0102C82.0502 47.3547 81.213 45.4492 81.8675 43.7673C82.522 42.0853 84.4247 41.2469 86.1042 41.9024L94.6231 45.2307L108.307 30.3168C108.901 29.6714 109.708 29.2954 110.581 29.2599C111.458 29.2243 112.291 29.5291 112.935 30.1237C114.265 31.3483 114.351 33.4266 113.128 34.7579L97.9269 51.3233C97.2667 52.0398 96.3231 52.4209 95.3435 52.3701ZM85.0082 43.4369C84.3689 43.4014 83.755 43.7723 83.5114 44.4024C83.207 45.1799 83.5926 46.064 84.374 46.3689L94.9787 50.5102C95.1306 50.5662 95.288 50.6017 95.4454 50.6119C95.9019 50.6373 96.338 50.4594 96.6481 50.124L111.849 33.5587C112.418 32.9439 112.377 31.9784 111.758 31.4143C111.458 31.14 111.073 30.9976 110.667 31.0129C110.261 31.0282 109.891 31.206 109.617 31.5007L95.5167 46.8618C95.2731 47.1312 94.887 47.2175 94.5519 47.0854L85.475 43.5386C85.3178 43.4776 85.1605 43.4471 85.0082 43.4369Z" fill="url(#paint4_linear_1_205)"/>
<path d="M95.1361 78.7678C95.0343 78.7627 94.938 78.7373 94.8463 78.7018C84.3335 74.2657 75.5201 66.8011 69.3705 57.1159C63.084 47.2174 60.1056 35.7792 60.755 24.0259C60.9326 20.7993 62.0996 14.8134 62.1504 14.5593C62.2265 14.1782 62.541 13.8936 62.9267 13.8581C75.6418 12.6894 88.0781 8.44637 98.8907 1.57632C99.2056 1.37815 99.6157 1.39847 99.9056 1.63222C109.926 9.68115 121.865 15.286 134.423 17.8368C134.808 17.913 135.098 18.2433 135.123 18.6397C135.139 18.8988 135.519 24.9659 135.342 28.1572C134.692 39.9053 130.47 50.9522 123.133 60.0937C115.954 69.0421 106.375 75.4852 95.4352 78.7322C95.3333 78.7627 95.2324 78.7729 95.1361 78.7678ZM63.7385 15.5349C63.429 17.1813 62.6324 21.6122 62.4954 24.1225C61.2421 46.8312 74.3835 68.0258 95.2324 76.969C116.939 70.3886 132.338 50.7744 133.596 28.0657C133.733 25.5809 133.51 21.1041 133.419 19.4171C121.033 16.79 109.262 11.2615 99.3019 3.3853C88.5651 10.0877 76.2964 14.2798 63.7385 15.5349Z" fill="url(#paint5_linear_1_205)" stroke="url(#paint6_linear_1_205)" stroke-width="1.38889" stroke-miterlimit="10"/>
<path d="M105.131 57.7411L120.597 54.7024C120.597 54.7024 133.951 97.325 132.952 97.325C131.952 97.325 117.68 102.396 117.68 102.396L105.131 57.7411Z" fill="#D2EDFF"/>
<path d="M106.075 61.3741C106.075 61.3741 94.6435 63.0154 90.2649 61.3741C85.8861 59.7328 72.3895 56.623 67.4272 56.4706C62.4649 56.3181 54.2503 56.1606 50.4448 60.119C50.4448 60.119 34.736 61.1302 30.3724 61.2826C26.0089 61.4351 19.1844 99.3426 19.1844 99.3426L30.3724 106.101C30.3724 106.101 30.5856 109.805 29.5758 111.177C28.5661 112.549 30.5399 119.769 34.8121 118.433C39.0894 117.097 38.2066 127.569 45.8732 126.04C45.8732 126.04 47.9586 124.714 48.0347 127.951C48.1108 131.188 52.2511 134.567 56.4879 132.585C56.4879 132.585 56.5691 140.817 63.5457 137.712C63.5457 137.712 67.1126 133.286 67.2699 133.519C67.4272 133.754 72.902 140.018 76.7023 136.467C80.5027 132.915 77.6664 130.181 77.6664 130.181C77.6664 130.181 81.9132 131.487 85.1909 128.885C88.4687 126.289 86.8958 123.266 86.8958 123.266C86.8958 123.266 94.3445 127.457 95.7398 124.043C97.1352 120.623 95.8158 114.8 95.8158 114.8C95.8158 114.8 101.97 118.139 105.136 115.033C108.303 111.929 106.081 105.09 106.081 105.09L116.37 99.7287L106.075 61.3741Z" fill="white"/>
<path d="M30.8847 109.48C30.1896 109.48 29.5401 109.028 29.327 108.321C27.5359 102.396 18.2355 101.624 18.1391 101.618C17.6519 101.583 17.2055 101.33 16.9264 100.928C16.6473 100.527 16.5611 100.023 16.698 99.5509C23.0506 77.152 27.4954 61.0693 27.5359 60.9118C27.7693 60.0632 28.6369 59.555 29.4893 59.7635C37.0039 61.5927 50.7846 57.8426 50.9216 57.802C51.7892 57.5632 52.6822 58.0713 52.9207 58.9402C53.1592 59.8091 52.6517 60.7035 51.7842 60.9423C51.2209 61.0999 38.6934 64.5095 30.2707 63.2289C29.0784 67.5227 25.339 80.9732 20.336 98.6462C23.7508 99.2814 30.5955 101.293 32.4373 107.381C32.6961 108.24 32.2141 109.15 31.3515 109.414C31.1992 109.459 31.042 109.48 30.8847 109.48Z" fill="url(#paint7_linear_1_205)"/>
<path d="M43.0827 127.768C41.5655 127.768 40.1854 127.244 38.9879 126.207C35.903 123.55 35.7965 119.485 38.709 115.603C40.9769 112.584 42.7376 111.091 43.1334 110.77C43.5951 110.339 45.7667 108.458 48.6081 108.458C49.9324 108.458 51.1856 108.87 52.3222 109.678C54.0423 110.903 55.0165 112.549 55.1331 114.449C55.326 117.635 53.1087 121.355 48.5472 125.511C47.3498 126.599 45.2847 127.768 43.0827 127.768ZM48.6081 111.716C46.8931 111.716 45.3506 113.148 45.3354 113.164C45.2898 113.209 45.2391 113.255 45.1832 113.296C45.173 113.305 43.5292 114.596 41.3017 117.564C40.2209 119.007 38.7546 121.72 41.1038 123.743C41.7025 124.261 42.352 124.516 43.0776 124.516C44.4425 124.516 45.7819 123.626 46.3553 123.103C51.3329 118.57 51.9518 115.862 51.8808 114.653C51.825 113.748 51.3531 112.991 50.4398 112.341C49.8563 111.918 49.2576 111.716 48.6081 111.716Z" fill="url(#paint8_linear_1_205)"/>
<path d="M52.8803 135.106C51.4748 135.106 50.0998 134.602 48.8009 133.611C45.7464 131.289 45.6044 127.183 48.4457 123.393C50.6072 120.517 52.2867 119.094 52.657 118.799C53.0529 118.438 54.7982 116.98 57.1526 116.98C58.5631 116.98 59.8721 117.494 61.0493 118.509C62.6831 119.922 63.5203 121.583 63.5457 123.458C63.5812 126.299 61.7343 129.379 57.8933 132.88C56.2444 134.379 54.6055 135.106 52.8803 135.106ZM57.1526 120.243C55.9044 120.243 54.8439 121.213 54.8338 121.223C54.7931 121.258 54.7424 121.305 54.7019 121.335C54.6917 121.344 53.1442 122.559 51.0435 125.354C50.384 126.233 48.4204 129.236 50.7645 131.019C52.4338 132.29 53.8849 132.122 55.7014 130.476C59.522 126.995 60.3085 124.765 60.2882 123.509C60.2781 122.595 59.8265 121.771 58.9182 120.984C58.3449 120.481 57.7665 120.243 57.1526 120.243Z" fill="url(#paint9_linear_1_205)"/>
<path d="M33.2647 119.963C31.8441 119.963 30.5299 119.459 29.368 118.464C26.4555 115.979 26.3439 112.173 29.0838 108.524C31.2047 105.699 32.8537 104.317 33.1937 104.043C33.5641 103.718 35.1928 102.402 37.5015 102.402C38.8257 102.402 40.0992 102.833 41.2815 103.681C42.8899 104.831 43.7981 106.391 43.9047 108.194C44.0721 111.055 42.1999 114.292 38.3285 117.813C37.6232 118.458 35.7053 119.963 33.2647 119.963ZM37.5015 105.654C36.2837 105.654 35.3501 106.477 35.34 106.487C35.3095 106.518 35.2639 106.553 35.2283 106.583C35.2181 106.589 33.7163 107.772 31.6817 110.481C30.7075 111.777 29.3933 114.21 31.4736 115.984C32.0419 116.472 32.6305 116.706 33.2647 116.706C34.3303 116.706 35.4516 116.03 36.1417 115.4C40.216 111.69 40.7183 109.408 40.6574 108.382C40.6117 107.574 40.1956 106.904 39.389 106.33C38.7648 105.872 38.1407 105.654 37.5015 105.654Z" fill="url(#paint10_linear_1_205)"/>
<path d="M61.0288 139.73C59.943 139.73 58.8825 139.344 57.888 138.582C55.3409 136.635 54.9908 133.474 56.9849 130.324C58.4766 127.961 59.6741 126.767 59.9835 126.472C60.3387 126.096 61.8 124.699 63.9107 124.699C64.9407 124.699 65.9302 125.029 66.8587 125.684C68.2743 126.681 69.1065 128.012 69.2637 129.536C69.5022 131.844 68.2388 134.44 65.3974 137.479C64.8799 138.032 63.2918 139.73 61.0288 139.73ZM63.9107 127.956C63.0634 127.956 62.3632 128.693 62.3531 128.703C62.3125 128.748 62.2668 128.794 62.2211 128.835C62.2161 128.84 61.1354 129.846 59.7298 132.062C58.6491 133.774 58.6897 135.09 59.8567 135.984C60.2829 136.309 60.6634 136.468 61.0237 136.468C61.8761 136.468 62.7336 135.547 63.0178 135.247C65.8084 132.265 66.0976 130.598 66.0215 129.867C65.986 129.501 65.8338 128.946 64.9814 128.347C64.616 128.083 64.2608 127.956 63.9107 127.956Z" fill="url(#paint11_linear_1_205)"/>
<path d="M73.3331 139.185C73.3027 139.185 73.2722 139.185 73.2469 139.185C69.5226 139.125 66.7878 135.451 66.4884 135.034C65.9657 134.303 66.1332 133.286 66.8639 132.763C67.5945 132.24 68.6093 132.407 69.1319 133.139C69.69 133.911 71.5218 135.908 73.3027 135.933C74.2261 135.918 75.1495 135.38 76.0477 134.206C78.341 131.203 71.7145 125.948 67.7569 122.808C67.1581 122.336 66.6051 121.893 66.113 121.487C65.4178 120.918 65.3163 119.892 65.8846 119.195C66.4529 118.499 67.4778 118.397 68.173 118.967C68.6499 119.358 69.1928 119.79 69.7763 120.253C74.9923 124.389 82.872 130.633 78.6303 136.182C76.7377 138.652 74.7233 139.185 73.3331 139.185Z" fill="url(#paint12_linear_1_205)"/>
<path d="M81.411 132.976C79.2647 132.976 77.2504 132.092 75.784 130.415C75.1904 129.739 75.2614 128.707 75.9362 128.118C76.611 127.524 77.641 127.595 78.2296 128.27C79.6807 129.928 81.756 129.928 83.2122 129.379C84.6228 128.845 86.2718 127.468 86.2718 125.333C86.2058 123.53 79.1937 116.848 73.4246 112.523C72.7042 111.985 72.562 110.964 73.0999 110.242C73.6378 109.52 74.6576 109.378 75.3781 109.917C75.9565 110.349 89.5242 120.593 89.5242 125.333C89.5242 128.459 87.4946 131.243 84.3589 132.428C83.3745 132.793 82.3801 132.976 81.411 132.976Z" fill="url(#paint13_linear_1_205)"/>
<path d="M90.9093 126.756C89.1843 126.756 87.52 126.106 86.1755 124.8C85.531 124.175 85.5158 123.143 86.1399 122.498C86.764 121.853 87.794 121.838 88.4384 122.463C90.3767 124.348 92.8278 123.368 94.3389 121.96C95.938 120.466 96.937 118.047 95.638 116.503C92.5229 112.798 80.1578 103.382 80.036 103.285C79.3206 102.742 79.1785 101.72 79.7214 101.004C80.2643 100.288 81.2842 100.145 81.9996 100.689C82.5222 101.085 94.7806 110.42 98.1241 114.404C100.743 117.524 99.3167 121.767 96.5565 124.343C94.837 125.949 92.837 126.756 90.9093 126.756Z" fill="url(#paint14_linear_1_205)"/>
<path d="M101.001 118.438C100.25 118.438 99.5194 118.306 98.85 118.031C96.7185 117.147 93.9278 114.683 93.6185 114.408C92.9491 113.809 92.8935 112.782 93.487 112.112C94.0852 111.441 95.1102 111.381 95.7852 111.98C96.5157 112.635 98.7176 114.455 100.093 115.023C101.519 115.613 103.878 114.602 105.136 112.849C105.923 111.751 106.881 109.495 104.452 106.69C103.863 106.009 103.934 104.982 104.614 104.394C105.294 103.804 106.319 103.875 106.907 104.556C109.713 107.793 110.043 111.604 107.78 114.755C106.12 117.051 103.442 118.438 101.001 118.438Z" fill="url(#paint15_linear_1_205)"/>
<path d="M116.919 104.007C116.197 104.007 115.544 103.524 115.345 102.798L103.427 57.9747C103.198 57.1058 103.711 56.2115 104.579 55.9829L120.389 51.7653C120.805 51.6535 121.251 51.7144 121.621 51.9279C121.997 52.1464 122.266 52.5021 122.378 52.9188L134.296 97.7417C134.408 98.1583 134.347 98.6056 134.134 98.9769C133.916 99.3528 133.56 99.6222 133.144 99.7333L117.334 103.951C117.197 103.987 117.056 104.007 116.919 104.007ZM106.994 58.7116L118.075 100.384L130.74 97.0046L119.658 55.3273L106.994 58.7116Z" fill="url(#paint16_linear_1_205)"/>
<path d="M17.3731 104.032C17.2259 104.032 17.0788 104.012 16.9317 103.971L1.18729 99.5204C0.324724 99.2759 -0.177592 98.3768 0.0659554 97.5083L12.6543 52.868C12.8979 52.0041 13.7959 51.4959 14.6636 51.745L30.408 56.1963C30.824 56.3131 31.1741 56.5926 31.3872 56.9686C31.6003 57.3446 31.651 57.7919 31.5343 58.2085L18.946 102.848C18.7329 103.565 18.0783 104.032 17.3731 104.032ZM3.63291 96.8268L16.2467 100.394L27.9521 58.8893L15.3384 55.3222L3.63291 96.8268Z" fill="url(#paint17_linear_1_205)"/>
<path d="M105.68 107.243C105.309 107.243 104.944 107.117 104.639 106.868L68.3201 76.5929C67.4778 75.9323 66.4935 75.597 65.3518 75.597C61.5971 75.597 57.188 79.159 54.5495 81.283C54.0421 81.6895 53.6006 82.0503 53.2252 82.3298C51.084 83.9457 46.4668 86.3543 42.5091 86.3543C39.3125 86.3543 37.6686 84.8196 36.8517 83.529C32.5287 76.7148 46.8574 60.2816 52.2205 56.8059C54.4074 55.3883 57.3249 54.6971 61.1355 54.6971C66.5087 54.6971 72.8714 56.0335 79.6146 57.4462C86.3579 58.8588 93.3343 60.3273 99.1491 60.3222C101.594 60.3222 103.64 60.0733 105.4 59.5549C105.821 59.433 106.273 59.4838 106.654 59.6972C107.034 59.9107 107.313 60.2714 107.425 60.6983L117.613 99.1342C117.816 99.9008 117.435 100.709 116.71 101.034C114.605 101.99 108.724 104.876 106.806 106.767C106.506 107.086 106.095 107.243 105.68 107.243ZM65.3569 72.3448C67.2242 72.3448 68.9087 72.9241 70.3649 74.0623L105.674 103.493C108.119 101.634 112.082 99.6471 114.132 98.6666L104.7 63.0916C103.046 63.427 101.214 63.5896 99.1546 63.5896C93 63.5896 85.8555 62.0906 78.9499 60.6424C72.3792 59.2653 66.1738 57.9594 61.1405 57.9594C57.9743 57.9594 55.6353 58.4777 53.9914 59.5448C47.9737 63.4422 37.2271 78.0512 39.5967 81.7911C39.8047 82.1164 40.4288 83.1021 42.5091 83.1021C45.4773 83.1021 49.4198 81.1306 51.2667 79.7332C51.6168 79.469 52.0329 79.1336 52.5098 78.7474C55.4831 76.3541 60.4556 72.3448 65.3569 72.3448Z" fill="url(#paint18_linear_1_205)"/>
<path d="M132.581 131.822C122.54 133.738 120.825 135.939 119.329 148.784C119.282 149.17 118.851 149.17 118.806 148.784C117.309 135.933 115.594 133.738 105.553 131.822C105.254 131.767 105.254 131.213 105.553 131.157C115.594 129.242 117.309 127.041 118.806 114.195C118.851 113.809 119.282 113.809 119.329 114.195C120.825 127.046 122.54 129.242 132.581 131.157C132.886 131.213 132.886 131.767 132.581 131.822Z" fill="#D2EDFF"/>
<path d="M51.7131 40.5862C45.4874 41.7753 44.4219 43.1371 43.4934 51.1047C43.4681 51.3436 43.1991 51.3436 43.1687 51.1047C42.2401 43.1371 41.1746 41.7753 34.9489 40.5862C34.7612 40.5507 34.7612 40.2102 34.9489 40.1746C41.1746 38.9857 42.2401 37.6238 43.1687 29.6562C43.1941 29.4173 43.463 29.4173 43.4934 29.6562C44.4219 37.6238 45.4874 38.9857 51.7131 40.1746C51.9008 40.2102 51.9008 40.5507 51.7131 40.5862Z" fill="#D2EDFF"/>
<path d="M149.883 10.4586C144.545 11.48 143.632 12.6487 142.835 19.4831C142.81 19.6865 142.581 19.6865 142.556 19.4831C141.76 12.6487 140.846 11.48 135.509 10.4586C135.352 10.4281 135.352 10.1334 135.509 10.1029C140.846 9.08154 141.76 7.91283 142.556 1.07835C142.581 0.875089 142.81 0.875089 142.835 1.07835C143.632 7.91283 144.545 9.08154 149.883 10.1029C150.041 10.1334 150.041 10.4281 149.883 10.4586Z" fill="#D2EDFF"/>
</g>
<defs>
<linearGradient id="paint0_linear_1_205" x1="94.512" y1="9.08545" x2="139.48" y2="22.3278" gradientUnits="userSpaceOnUse">
<stop stop-color="#16A7DD"/>
<stop offset="0.453013" stop-color="#3492B5"/>
<stop offset="1" stop-color="#8BBCCE"/>
</linearGradient>
<linearGradient id="paint1_linear_1_205" x1="94.512" y1="9.08545" x2="139.48" y2="22.3278" gradientUnits="userSpaceOnUse">
<stop stop-color="#16A7DD"/>
<stop offset="0.453013" stop-color="#3492B5"/>
<stop offset="1" stop-color="#8BBCCE"/>
</linearGradient>
<linearGradient id="paint2_linear_1_205" x1="66.7001" y1="15.1136" x2="115.702" y2="28.4989" gradientUnits="userSpaceOnUse">
<stop stop-color="#16A7DD"/>
<stop offset="0.453013" stop-color="#3492B5"/>
<stop offset="1" stop-color="#8BBCCE"/>
</linearGradient>
<linearGradient id="paint3_linear_1_205" x1="66.7001" y1="15.1136" x2="115.702" y2="28.4989" gradientUnits="userSpaceOnUse">
<stop stop-color="#16A7DD"/>
<stop offset="0.453013" stop-color="#3492B5"/>
<stop offset="1" stop-color="#8BBCCE"/>
</linearGradient>
<linearGradient id="paint4_linear_1_205" x1="81.6447" y1="29.2571" x2="115.754" y2="49.3889" gradientUnits="userSpaceOnUse">
<stop stop-color="#16A7DD"/>
<stop offset="0.453013" stop-color="#3492B5"/>
<stop offset="1" stop-color="#8BBCCE"/>
</linearGradient>
<linearGradient id="paint5_linear_1_205" x1="60.6676" y1="1.44104" x2="151.772" y2="38.5745" gradientUnits="userSpaceOnUse">
<stop stop-color="#16A7DD"/>
<stop offset="0.453013" stop-color="#3492B5"/>
<stop offset="1" stop-color="#8BBCCE"/>
</linearGradient>
<linearGradient id="paint6_linear_1_205" x1="60.6676" y1="1.44104" x2="151.772" y2="38.5745" gradientUnits="userSpaceOnUse">
<stop stop-color="#16A7DD"/>
<stop offset="0.453013" stop-color="#3492B5"/>
<stop offset="1" stop-color="#8BBCCE"/>
</linearGradient>
<linearGradient id="paint7_linear_1_205" x1="16.6341" y1="57.743" x2="64.1391" y2="71.8201" gradientUnits="userSpaceOnUse">
<stop stop-color="#16A7DD"/>
<stop offset="0.453013" stop-color="#3492B5"/>
<stop offset="1" stop-color="#8BBCCE"/>
</linearGradient>
<linearGradient id="paint8_linear_1_205" x1="36.5971" y1="108.458" x2="59.2496" y2="117.636" gradientUnits="userSpaceOnUse">
<stop stop-color="#16A7DD"/>
<stop offset="0.453013" stop-color="#3492B5"/>
<stop offset="1" stop-color="#8BBCCE"/>
</linearGradient>
<linearGradient id="paint9_linear_1_205" x1="46.4084" y1="116.98" x2="67.4313" y2="125.364" gradientUnits="userSpaceOnUse">
<stop stop-color="#16A7DD"/>
<stop offset="0.453013" stop-color="#3492B5"/>
<stop offset="1" stop-color="#8BBCCE"/>
</linearGradient>
<linearGradient id="paint10_linear_1_205" x1="27.1037" y1="102.402" x2="47.6552" y2="110.701" gradientUnits="userSpaceOnUse">
<stop stop-color="#16A7DD"/>
<stop offset="0.453013" stop-color="#3492B5"/>
<stop offset="1" stop-color="#8BBCCE"/>
</linearGradient>
<linearGradient id="paint11_linear_1_205" x1="55.7011" y1="124.699" x2="72.5708" y2="131.133" gradientUnits="userSpaceOnUse">
<stop stop-color="#16A7DD"/>
<stop offset="0.453013" stop-color="#3492B5"/>
<stop offset="1" stop-color="#8BBCCE"/>
</linearGradient>
<linearGradient id="paint12_linear_1_205" x1="65.5169" y1="118.598" x2="84.2658" y2="124.1" gradientUnits="userSpaceOnUse">
<stop stop-color="#16A7DD"/>
<stop offset="0.453013" stop-color="#3492B5"/>
<stop offset="1" stop-color="#8BBCCE"/>
</linearGradient>
<linearGradient id="paint13_linear_1_205" x1="72.7742" y1="109.59" x2="94.5975" y2="116.184" gradientUnits="userSpaceOnUse">
<stop stop-color="#16A7DD"/>
<stop offset="0.453013" stop-color="#3492B5"/>
<stop offset="1" stop-color="#8BBCCE"/>
</linearGradient>
<linearGradient id="paint14_linear_1_205" x1="79.3914" y1="100.359" x2="105.314" y2="108.691" gradientUnits="userSpaceOnUse">
<stop stop-color="#16A7DD"/>
<stop offset="0.453013" stop-color="#3492B5"/>
<stop offset="1" stop-color="#8BBCCE"/>
</linearGradient>
<linearGradient id="paint15_linear_1_205" x1="93.0766" y1="103.994" x2="111.893" y2="112.893" gradientUnits="userSpaceOnUse">
<stop stop-color="#16A7DD"/>
<stop offset="0.453013" stop-color="#3492B5"/>
<stop offset="1" stop-color="#8BBCCE"/>
</linearGradient>
<linearGradient id="paint16_linear_1_205" x1="103.372" y1="51.7103" x2="144.83" y2="62.0693" gradientUnits="userSpaceOnUse">
<stop stop-color="#16A7DD"/>
<stop offset="0.453013" stop-color="#3492B5"/>
<stop offset="1" stop-color="#8BBCCE"/>
</linearGradient>
<linearGradient id="paint17_linear_1_205" x1="0.0045166" y1="51.6816" x2="42.1879" y2="62.4191" gradientUnits="userSpaceOnUse">
<stop stop-color="#16A7DD"/>
<stop offset="0.453013" stop-color="#3492B5"/>
<stop offset="1" stop-color="#8BBCCE"/>
</linearGradient>
<linearGradient id="paint18_linear_1_205" x1="36.0505" y1="54.6971" x2="117.242" y2="107.892" gradientUnits="userSpaceOnUse">
<stop stop-color="#16A7DD"/>
<stop offset="0.453013" stop-color="#3492B5"/>
<stop offset="1" stop-color="#8BBCCE"/>
</linearGradient>
<clipPath id="clip0_1_205">
<rect width="150" height="148.148" fill="white" transform="translate(0 0.925903)"/>
</clipPath>
</defs>
</svg>
