<svg width="151" height="150" viewBox="0 0 151 150" fill="none" xmlns="http://www.w3.org/2000/svg">
<g clip-path="url(#clip0_1_149)">
<path d="M94.674 32.4058L83.3502 33.4898L83.8225 38.5403L95.1463 37.4561L94.674 32.4058Z" fill="#D2EDFF"/>
<path d="M92.173 38.62L83.9031 39.4117L85.3091 54.4448L93.579 53.6531L92.173 38.62Z" fill="#D2EDFF"/>
<path d="M51.0323 36.5836L41.3709 37.5086L41.8432 42.559L51.5047 41.6341L51.0323 36.5836Z" fill="#D2EDFF"/>
<path d="M51.1208 42.5507L44.4899 43.1854L45.896 58.2186L52.5269 57.5838L51.1208 42.5507Z" fill="#D2EDFF"/>
<path d="M78.7269 1.69983L51.4331 4.31285L56.4288 57.7272L83.7226 55.1142L78.7269 1.69983Z" fill="#D2EDFF"/>
<path d="M94.4287 30.8475L83.5837 31.8868L80.7131 1.19584C80.6473 0.47448 80.0094 -0.057048 79.2965 0.00939298L48.333 2.97076C47.62 3.03721 47.0946 3.68263 47.1603 4.40399L50.031 35.095L39.1861 36.1343C38.4731 36.2008 37.9477 36.8462 38.0134 37.5675L38.4778 42.5268C38.5434 43.2482 39.1814 43.7798 39.8944 43.7133L40.8278 43.6232L42.3054 59.4409C42.3711 60.1622 43.009 60.6937 43.722 60.6273L94.5131 55.7629C95.2262 55.6964 95.7515 55.051 95.6858 54.3296L94.2082 38.5119L95.1416 38.4218C95.8547 38.3553 96.3801 37.7099 96.3144 36.9885L95.8499 32.0292C95.7797 31.3079 95.1416 30.7763 94.4287 30.8475ZM52.0949 57.1818L44.496 57.908L43.206 44.0978L50.805 43.3716L52.0949 57.1818ZM50.5799 40.9655L40.1102 41.9669L39.7443 38.0421L50.214 37.0408L50.5799 40.9655ZM49.8716 5.46704L78.2457 2.74771L78.4943 5.38636L50.1201 8.10568L49.8716 5.46704ZM71.6693 55.3073L66.078 55.8435L65.168 46.1004C65.0648 45.0137 65.1117 43.9364 65.6323 43.0916C66.0498 42.413 66.5236 41.834 67.5603 41.7343C68.6719 41.6299 69.3661 42.0808 69.8963 42.7309C70.4779 43.4428 70.6562 44.5059 70.7499 45.4977L71.6693 55.3073ZM83.0631 54.2158L74.1038 55.0747L73.0531 43.8509C72.781 40.9323 70.2105 38.7824 67.3304 39.0625C64.4456 39.3377 62.3207 41.9384 62.5975 44.8523L63.6482 56.0761L54.6889 56.9351L50.3641 10.7253L78.7382 8.00602L83.0631 54.2158ZM92.7119 53.295L85.6524 53.9689L84.3624 40.1587L91.422 39.4848L92.7119 53.295ZM94.6023 36.7513L84.1326 37.7526L83.7667 33.8279L94.2364 32.8265L94.6023 36.7513Z" fill="url(#paint0_linear_1_149)"/>
<path d="M58.3429 14.1105L54.7799 14.4515L55.3981 21.061L58.961 20.7199L58.3429 14.1105Z" fill="url(#paint1_linear_1_149)"/>
<path d="M66.7155 13.3086L63.1525 13.6497L63.7707 20.2592L67.3336 19.918L66.7155 13.3086Z" fill="url(#paint2_linear_1_149)"/>
<path d="M75.0831 12.5073L71.5202 12.8485L72.1383 19.4579L75.7012 19.1168L75.0831 12.5073Z" fill="url(#paint3_linear_1_149)"/>
<path d="M59.4818 26.3259L55.9189 26.6671L56.537 33.2765L60.0999 32.9354L59.4818 26.3259Z" fill="url(#paint4_linear_1_149)"/>
<path d="M67.8544 25.5242L64.2914 25.8653L64.9096 32.4747L68.4725 32.1337L67.8544 25.5242Z" fill="url(#paint5_linear_1_149)"/>
<path d="M76.227 24.7223L72.664 25.0634L73.2823 31.6729L76.8451 31.3318L76.227 24.7223Z" fill="url(#paint6_linear_1_149)"/>
<path d="M96.9897 13.3688C92.7821 14.261 92.0832 15.1389 91.6141 20.1837C91.6001 20.3356 91.4171 20.3403 91.3937 20.1932C90.5963 15.1911 89.8457 14.3606 85.5912 13.7485C85.4646 13.7295 85.4552 13.5159 85.5819 13.4874C89.7894 12.5952 90.4883 11.7173 90.9574 6.67247C90.9715 6.52061 91.1544 6.51586 91.1779 6.66298C91.9753 11.665 92.7258 12.4955 96.9803 13.1078C97.107 13.1267 97.1163 13.3403 96.9897 13.3688Z" fill="#D2EDFF"/>
<path d="M112.783 26.1683C105.55 27.8768 104.368 29.5378 103.66 39.0104C103.636 39.2952 103.327 39.3046 103.28 39.0246C101.812 29.6422 100.498 28.0856 93.1526 26.9799C92.9321 26.9466 92.918 26.5432 93.1338 26.491C100.367 24.7825 101.549 23.1215 102.257 13.6489C102.281 13.3642 102.59 13.3547 102.637 13.6347C104.105 23.0171 105.419 24.5737 112.764 25.6795C112.98 25.708 112.999 26.1161 112.783 26.1683Z" fill="#D2EDFF"/>
<path d="M40.213 29.8224C35.1424 31.3173 34.3683 32.5417 34.2277 39.2902C34.223 39.4896 34.0025 39.5133 33.9603 39.314C32.5624 32.7126 31.5727 31.659 26.3144 31.1607C26.1596 31.1465 26.1314 30.857 26.2816 30.8143C31.3522 29.3194 32.1262 28.095 32.2669 21.3417C32.2716 21.1424 32.4921 21.1186 32.5343 21.318C33.9321 27.9194 34.9218 28.9729 40.1802 29.4712C40.3397 29.4902 40.3678 29.775 40.213 29.8224Z" fill="#D2EDFF"/>
<path d="M67.077 125.137C65.2616 125.09 63.5777 125.64 62.2033 126.613C61.5466 127.078 60.6507 126.954 60.1347 126.333L60.1159 126.309C59.5953 125.687 59.614 124.772 60.1582 124.173C62.0204 122.105 63.0992 119.304 62.921 116.248C62.6067 110.895 58.3757 106.538 53.0893 106.135C46.8225 105.66 41.5923 110.662 41.5923 116.903C41.5923 117.378 41.6251 117.847 41.6814 118.308C41.8737 119.798 41.1373 121.26 39.7957 121.91C37.5442 123.002 35.5647 124.582 33.9933 126.513C40.4853 136.128 50.1904 143.342 61.5466 146.564C62.1987 145.515 62.7427 144.39 63.1602 143.204C63.5542 142.079 64.6753 141.41 65.8433 141.558C66.1763 141.6 66.5141 141.619 66.8565 141.619C71.5519 141.619 75.3139 137.604 74.9856 132.782C74.6947 128.587 71.2376 125.246 67.077 125.137Z" fill="#D2EDFF"/>
<path d="M115.696 69.559C116.639 70.9258 117.512 72.34 118.318 73.797C118.328 73.8112 118.332 73.8254 118.342 73.8397C119.317 75.6052 120.185 77.4418 120.945 79.3304C121.71 81.2286 122.362 83.1841 122.892 85.1914C121.269 86.9192 119.224 88.2338 116.92 88.9689C119.35 91.6508 120.833 95.2241 120.833 99.1493C120.833 102.59 119.688 105.765 117.769 108.298C119.759 109.404 121.363 111.127 122.338 113.211C120.598 118.844 117.906 124.045 114.449 128.63C113.839 128.739 113.215 128.796 112.572 128.796C106.61 128.796 101.774 123.908 101.774 117.871C101.774 117.548 101.788 117.225 101.816 116.912C101.967 115.162 101.057 113.495 99.4946 112.736C94.4895 110.307 91.0372 105.134 91.0372 99.1446C91.0372 93.7296 93.861 88.9885 98.0967 86.3309C99.851 85.2299 100.555 83.0035 99.7197 81.0959C98.9504 79.3304 98.5189 77.38 98.5189 75.3251V75.3014C98.5189 73.9441 97.5854 72.7766 96.272 72.4966C95.8686 72.4112 95.4699 72.3068 95.0806 72.1834C95.0758 72.1834 95.0758 72.1834 95.0712 72.1834C94.6302 72.0458 94.3066 71.6708 94.2597 71.2058C93.6687 65.2593 88.7106 60.6227 82.6783 60.6227C77.5842 60.6227 73.2546 63.9352 71.6739 68.5434C71.0875 70.2614 70.3558 71.9224 69.413 73.4695L69.3285 73.6072C67.1473 77.2044 63.7747 79.9807 59.7688 81.3762C59.1356 81.5946 58.7041 82.1875 58.7041 82.8613V82.8707C58.7041 86.027 57.4328 88.8841 55.3876 90.948C54.3792 91.9642 53.8163 93.359 53.8773 94.7922C53.882 94.8919 53.882 94.9917 53.882 95.0914C53.882 99.059 50.5703 102.244 46.5926 101.973C43.2528 101.745 40.5416 99.0401 40.2695 95.6655C40.2366 95.243 40.2413 94.8252 40.2789 94.4223C40.4196 92.9459 39.9083 91.4938 38.942 90.3786C37.2065 88.3713 36.151 85.7466 36.151 82.866C36.151 80.854 36.667 78.9652 37.5724 77.3231C38.4401 75.7475 38.487 73.8586 37.6896 72.2451C36.9062 70.66 36.3387 68.9468 36.0338 67.1386C36.3011 66.7922 36.5779 66.4552 36.8546 66.1135C36.9062 66.0519 36.9578 65.9902 37.0094 65.9285C37.2393 65.6532 37.4738 65.378 37.7084 65.1074C37.7787 65.0268 37.8444 64.9508 37.9148 64.8749C38.1399 64.6186 38.3697 64.3624 38.5996 64.1108C38.67 64.0302 38.745 63.9542 38.8154 63.8783C39.0546 63.622 39.2985 63.3658 39.5425 63.1142C39.6034 63.0525 39.6644 62.9861 39.7254 62.9244C40.0115 62.6302 40.307 62.3407 40.5978 62.0511C40.6166 62.0322 40.6353 62.0132 40.6541 61.999C41.3015 61.3725 41.9675 60.7603 42.6477 60.1671C42.6946 60.1244 42.7415 60.0864 42.7931 60.0437C43.0745 59.8017 43.3607 59.5596 43.6468 59.3223C43.7312 59.2559 43.811 59.1847 43.8954 59.1183C44.1534 58.9094 44.4114 58.7006 44.6741 58.4966C44.7679 58.4207 44.8664 58.3494 44.9602 58.2735C45.2182 58.0742 45.4809 57.8796 45.7389 57.685C45.8327 57.6139 45.9265 57.5474 46.0203 57.4762C46.3017 57.2722 46.5832 57.0729 46.8694 56.8735C46.9444 56.8213 47.0195 56.7691 47.0945 56.7169C47.8309 56.2091 48.5768 55.7251 49.3413 55.2552C49.3742 55.2362 49.407 55.2173 49.4399 55.1935C49.7776 54.9894 50.12 54.7854 50.4625 54.5861C50.5609 54.5291 50.6641 54.4721 50.7626 54.4152C51.0441 54.2586 51.3256 54.0972 51.6069 53.9454C51.7289 53.879 51.8509 53.8172 51.9728 53.7508C52.2402 53.6084 52.5123 53.4708 52.7796 53.3331C52.9063 53.2667 53.0376 53.2051 53.1643 53.1386C53.441 53.0009 53.7178 52.8681 53.9945 52.7399C54.1165 52.683 54.2385 52.626 54.3604 52.5691C54.67 52.4267 54.9796 52.2891 55.2939 52.1514C55.383 52.1135 55.4721 52.0708 55.5659 52.0328C56.3821 51.6816 57.2077 51.3542 58.0426 51.0457C58.1552 51.003 58.2678 50.965 58.3803 50.9223C58.6806 50.8131 58.9854 50.7088 59.2857 50.6043C59.4311 50.5569 59.5765 50.5094 59.7219 50.4619C59.9987 50.3718 60.2754 50.2816 60.5522 50.1962C60.707 50.1487 60.8664 50.1013 61.0212 50.0538C61.2933 49.9731 61.5701 49.8972 61.8421 49.8165C62.0016 49.7738 62.1564 49.7311 62.3158 49.6884C62.602 49.6124 62.8928 49.5413 63.179 49.47C63.3244 49.4321 63.4698 49.3989 63.6152 49.361C63.9623 49.2802 64.3094 49.2043 64.6565 49.1284C64.7457 49.1094 64.8348 49.0904 64.924 49.0714C65.3648 48.9813 65.8058 48.8958 66.2514 48.8152C66.3546 48.7962 66.4578 48.7819 66.5657 48.7629C66.9034 48.706 67.2411 48.6491 67.5836 48.5968C67.743 48.5731 67.9025 48.5494 68.062 48.5304C68.3528 48.4877 68.639 48.4497 68.9298 48.4165C69.1034 48.3928 69.2816 48.3738 69.4551 48.3548C69.7319 48.3216 70.0134 48.2931 70.2948 48.2694C70.473 48.2504 70.656 48.2362 70.8343 48.2219C71.1204 48.1982 71.4018 48.1793 71.6879 48.1603C71.8615 48.1508 72.0351 48.1365 72.2086 48.127C72.5182 48.108 72.8278 48.0985 73.1421 48.0843C73.2921 48.0796 73.4376 48.0701 73.5877 48.0653C74.0474 48.0511 74.5118 48.0464 74.9762 48.0464C75.3749 48.0464 75.7689 48.0511 76.1629 48.0606C76.2896 48.0653 76.4162 48.0701 76.5428 48.0748C76.8102 48.0843 77.0823 48.0938 77.3496 48.108C77.4951 48.1128 77.6451 48.1223 77.7906 48.1318C78.0438 48.146 78.2925 48.1603 78.5411 48.1793C78.6865 48.1887 78.8366 48.1982 78.982 48.2125C79.24 48.2314 79.5027 48.2551 79.7607 48.2836C79.892 48.2979 80.0234 48.3074 80.1547 48.3216C80.4924 48.3548 80.8302 48.3975 81.1632 48.4402C81.2101 48.445 81.2617 48.4497 81.3086 48.4592C81.6885 48.5067 82.0685 48.5636 82.4484 48.6206C82.5704 48.6396 82.6924 48.6586 82.8143 48.6776C83.0723 48.7203 83.335 48.7629 83.593 48.8057C83.7384 48.8294 83.8838 48.8579 84.0245 48.8864C84.259 48.929 84.4983 48.9765 84.7328 49.024C84.8829 49.0525 85.0284 49.0857 85.1738 49.1141C85.413 49.1664 85.6475 49.2186 85.8867 49.2707C86.0228 49.304 86.1635 49.3325 86.2995 49.3657C86.581 49.4321 86.8624 49.5033 87.1439 49.5745C87.233 49.5982 87.3174 49.6172 87.4065 49.6409C87.7677 49.7359 88.1242 49.8355 88.4807 49.9352C88.6074 49.9731 88.7294 50.0111 88.8559 50.0443C89.0952 50.1155 89.3297 50.1867 89.5642 50.2579C89.7144 50.3053 89.8598 50.3528 90.0099 50.4003C90.2209 50.4667 90.432 50.5379 90.6431 50.6091C90.7979 50.6613 90.948 50.7135 91.1028 50.7657C91.3092 50.8369 91.5157 50.9128 91.722 50.9887C91.8721 51.041 92.0222 51.0979 92.1676 51.1501C92.3928 51.2355 92.618 51.3209 92.8384 51.4064C92.9651 51.4538 93.0917 51.5013 93.2184 51.5535C93.4904 51.6626 93.7578 51.7718 94.0251 51.8857C94.0251 51.8857 102.835 65.079 102.835 66.3651C102.835 67.6511 105.63 73.0471 106.475 73.8207C107.324 74.5896 110.71 77.138 111.977 75.4817C113.261 73.8207 115.696 69.559 115.696 69.559Z" fill="#D2EDFF"/>
<path d="M124.731 84.7312C124.745 84.461 124.674 84.209 124.533 83.9953C118.449 62.1887 98.608 46.167 75.1403 46.167C46.8459 46.167 23.8238 69.4545 23.8238 98.0812C23.8238 126.708 46.8459 150 75.1403 150C103.435 150 126.457 126.712 126.457 98.0812C126.457 93.4681 125.851 88.9932 124.731 84.7312ZM114.115 68.1495C113.979 68.3108 113.867 68.5007 113.787 68.7095C113.121 70.5081 111.93 72.7007 110.269 73.7495C109.997 73.9251 109.645 74.1386 109.307 74.077C108.9 74.0057 108.553 73.5692 108.271 73.2939C107.507 72.5488 106.784 71.7515 106.132 70.902C104.828 69.1983 103.753 67.2762 102.999 65.264C102.581 64.1488 102.201 63.0145 101.699 61.9373C101.188 60.8409 100.517 59.8396 99.8323 58.8477C98.7581 57.2958 97.5431 55.668 97.0694 53.8219C103.782 57.2342 109.612 62.1555 114.115 68.1495ZM62.2737 141.814C61.4011 142.867 61.0212 144.134 60.796 145.444C50.181 142.146 41.095 135.293 34.8986 126.262C34.9971 126.171 35.0862 126.067 35.1706 125.934C35.6772 125.109 36.728 124.657 37.7224 124.211C38.8247 123.723 39.9177 123.248 40.8417 122.441C43.2997 120.296 42.1645 116.856 43.492 114.174C44.0877 112.969 44.9508 111.863 46.0578 111.099C47.39 110.178 48.9708 109.647 50.4999 109.167C52.1792 108.64 53.6427 108.764 55.2939 109.367C56.551 109.822 57.8128 110.482 58.8259 111.374C59.8016 112.233 60.5662 113.267 60.8711 114.558C61.2651 116.224 60.7679 117.966 60.2191 119.532C59.689 121.046 58.8119 122.55 58.5586 124.145C58.2631 126.039 59.3091 127.751 61.2698 127.937C61.9218 127.999 62.5879 127.88 63.1977 127.633C63.9623 127.325 64.6143 126.789 65.3742 126.494C66.7486 125.962 68.4091 127.116 69.549 127.776C70.9093 128.559 71.716 129.493 72.2086 131.003C72.7527 132.654 73.2499 134.429 73.1045 136.185C72.9966 137.476 72.3915 138.938 71.1813 139.535C69.8773 140.181 68.2449 139.882 66.8424 139.939C65.1537 140.01 63.4135 140.437 62.2737 141.814ZM75.1403 147.613C71.1813 147.613 67.3349 147.134 63.6433 146.232C63.7934 145.14 64.0655 143.902 65.0271 143.347C66.1153 142.711 67.6163 142.952 68.8172 142.938C70.4308 142.924 72.0538 142.687 73.3719 141.676C74.6477 140.698 75.5155 139.227 75.8721 137.656C76.3036 135.734 76.0409 133.746 75.5531 131.867C75.1075 130.153 74.568 128.378 73.4001 127.016C72.2977 125.739 70.6419 124.875 69.1361 124.183C67.2692 123.324 65.4398 123.082 63.5683 124.059C62.996 124.359 62.4144 124.866 61.7577 124.956C61.4668 124.995 61.4434 125.07 61.4575 124.729C61.4809 123.96 62.0063 123.101 62.2877 122.398C62.6489 121.502 63.0101 120.6 63.3009 119.679C63.8779 117.852 64.1687 115.925 63.7934 114.022C63.4839 112.451 62.6442 111.013 61.5606 109.865C60.463 108.697 59.0793 107.782 57.6345 107.117C56.0022 106.363 54.2244 105.745 52.4044 105.789C50.5562 105.831 48.7174 106.553 47.0241 107.25C45.4574 107.896 44.0127 108.735 42.8306 109.979C41.5781 111.298 40.6353 112.935 40.1428 114.696C39.8989 115.574 39.7957 116.486 39.7394 117.397C39.6878 118.227 39.7112 119.162 39.2047 119.869C38.9608 120.211 38.5245 120.505 38.0414 120.775C37.4034 121.132 36.728 121.402 36.0619 121.701C34.9877 122.185 33.9886 122.768 33.2146 123.632C28.7584 116.168 26.1879 107.425 26.1879 98.0906C26.1879 87.7069 29.3635 78.0634 34.7813 70.0905C36.3527 71.7041 36.4794 74.4661 36.1839 76.559C35.9493 78.22 35.4849 79.8433 35.119 81.476C34.7344 83.2029 34.3357 85.0681 34.9267 86.7959C35.4333 88.2809 36.4324 89.5579 37.1548 90.9338C37.8866 92.3341 38.4917 93.7909 38.9701 95.3003C39.7441 97.7584 40.321 100.587 42.3662 102.338C44.8664 104.479 48.2155 103.994 50.9127 102.523C53.5958 101.062 55.9787 98.7079 56.1428 95.4754C56.1991 94.3226 55.7958 92.7613 56.5275 91.76C56.9074 91.2425 57.4469 90.8482 57.8691 90.3645C58.4085 89.7425 58.7931 89.0781 59.0933 88.3092C59.9846 86.027 59.5061 83.0608 61.8233 81.6134C63.1836 80.7637 64.6706 80.199 65.9605 79.2213C67.3537 78.1631 68.5357 76.9197 69.5959 75.5196C71.8005 72.601 73.2311 69.2173 74.84 65.9474C75.7031 64.6993 77.3215 64.3196 78.7099 63.9969C80.422 63.5935 82.2045 62.9053 83.9823 62.9671C85.5631 63.024 86.9985 63.9542 88.2743 64.8227C89.5689 65.7054 90.7557 66.5027 91.3748 68.0119C91.9894 69.502 92.2521 71.4335 93.5185 72.5393C94.1002 73.0471 94.8085 73.2275 95.4698 73.5929C96.0703 73.9251 96.6191 74.3712 97.0225 74.9312C97.3367 75.3725 97.576 75.8803 97.6229 76.4309C97.6979 77.3041 97.243 78.1393 97.257 79.0171C97.2711 79.8809 97.5666 80.6686 97.9372 81.4375C98.2046 81.988 98.608 82.5527 98.6877 83.1794C98.9035 84.8592 97.1538 86.1833 95.9999 87.0472C94.6396 88.0626 93.2512 89.0875 92.3458 90.5498C92.1347 90.7202 91.9612 90.9621 91.8627 91.2943C90.8542 94.7639 89.9208 98.3993 90.2069 102.049C90.4789 105.565 91.7876 108.716 94.3019 111.189C95.5825 112.451 96.985 113.59 98.3781 114.72C99.5977 115.712 100.236 116.689 100.545 118.241C100.845 119.741 100.874 121.283 101.164 122.788C101.46 124.297 102.074 125.744 102.98 126.983C104.954 129.674 108.004 131.288 111.259 131.482C102.304 141.386 89.4282 147.613 75.1403 147.613ZM113.768 128.478C110.959 128.596 107.155 127.586 105.48 125.369C103.744 123.072 103.946 120.244 103.43 117.548C103.149 116.077 102.567 114.691 101.563 113.576C100.451 112.342 98.9832 111.388 97.7402 110.292C96.6332 109.31 95.5027 108.298 94.7194 107.022C93.9454 105.759 93.4904 104.341 93.2652 102.874C92.7398 99.4336 93.6076 95.9647 94.5552 92.671C94.5692 92.6427 94.588 92.6231 94.6021 92.5948C95.4089 90.9621 97.0131 90.0323 98.3875 88.9453C99.8604 87.783 101.216 86.3019 101.558 84.3755C101.718 83.4645 101.671 82.548 101.333 81.6794C101.024 80.8775 100.414 80.1087 100.245 79.259C100.095 78.4763 100.559 77.5461 100.587 76.7441C100.616 75.7807 100.344 74.8125 99.9072 73.963C99.0817 72.359 97.637 71.2627 96.0281 70.5603C95.3807 70.2755 95.2072 69.9196 94.9586 69.2552C94.6021 68.306 94.3206 67.3332 93.9032 66.4077C93.0776 64.5711 91.5859 63.4749 89.9817 62.3691C88.3165 61.2206 86.5341 60.2335 84.503 60.0057C82.2514 59.7542 79.9576 60.6179 77.7952 61.1305C75.9049 61.5813 74.0614 62.2884 72.7855 63.7548C72.6214 63.8782 72.4712 64.0491 72.3587 64.2817C72.3352 64.3244 72.3164 64.3671 72.2977 64.4097C72.2648 64.462 72.2227 64.5094 72.1898 64.5616C72.096 64.7135 72.0444 64.8606 72.0069 65.0078C70.7216 67.6607 69.5255 70.3705 67.8837 72.824C66.3124 75.1732 64.3563 76.9482 61.8515 78.2057C60.6225 78.8231 59.3842 79.4922 58.507 80.5885C57.6298 81.6888 57.2217 83.0231 56.9685 84.3943C56.7526 85.5668 56.6494 86.8909 56.0068 87.9252C55.6972 88.4231 55.2235 88.8032 54.8201 89.221C54.2619 89.7951 53.8115 90.4265 53.5254 91.1804C53 92.5618 53.2487 94.0422 53.183 95.4802C53.1267 96.7571 52.3575 97.7207 51.4428 98.5367C49.7963 100.003 46.8036 101.735 44.6553 100.345C42.7602 99.1202 42.3943 96.2349 41.7471 94.2511C41.2498 92.7181 40.626 91.2189 39.8989 89.7857C39.2563 88.5134 38.29 87.3323 37.7834 86.0035C37.1877 84.4414 37.9288 82.4529 38.2946 80.9152C38.7262 79.1121 39.1531 77.2946 39.2516 75.439C39.4064 72.5488 38.5714 69.6824 36.5075 67.6986C45.4715 56.062 59.4545 48.5636 75.1356 48.5636C81.7824 48.5636 88.1242 49.9209 93.9079 52.3603C93.9172 55.108 95.3057 57.5189 96.8208 59.7114C97.5807 60.8125 98.3641 61.904 98.9692 63.0999C99.5648 64.2817 99.9307 65.5677 100.428 66.7921C101.441 69.2742 102.797 71.5475 104.504 73.6071C105.334 74.6085 106.249 75.6478 107.309 76.4072C108.501 77.2567 109.95 77.2471 111.24 76.6397C112.596 76.0037 113.609 74.8078 114.486 73.6213C115.11 72.7813 115.617 71.8797 116.053 70.94C118.618 74.8837 120.645 79.2118 122.02 83.8249C121.987 83.8626 121.954 83.9011 121.921 83.9435C120.56 85.9744 117.305 85.3768 115.654 87.0519C115.147 87.5647 114.965 88.343 115.161 89.0357C115.368 89.7668 115.954 90.1885 116.48 90.6731C117.3 91.4278 117.882 92.4197 118.244 93.4775C118.68 94.7498 118.867 96.0786 118.984 97.4121C119.102 98.7645 119.294 100.198 119.12 101.555C118.815 103.952 116.104 106.196 116.944 108.707C117.22 109.533 117.897 110.036 118.675 110.321C119.153 110.501 119.43 110.505 119.655 110.995C119.909 111.54 119.956 112.191 120.073 112.774C120.218 113.5 120.448 114.212 120.846 114.834C120.926 114.957 121.011 115.052 121.105 115.142C119.346 119.978 116.855 124.473 113.768 128.478ZM122.577 110.344C122.564 110.302 122.554 110.259 122.54 110.221C122.08 108.916 121.269 108.038 119.97 107.582C119.923 107.568 119.876 107.554 119.829 107.54C119.866 107.44 119.89 107.345 119.843 107.445C120.115 106.904 120.354 106.344 120.641 105.803C121.226 104.683 121.794 103.539 121.996 102.276C122.207 100.924 122.118 99.5804 122.015 98.2234C121.911 96.8184 121.785 95.4048 121.48 94.0281C121.208 92.7943 120.767 91.5699 120.12 90.483C119.814 89.9757 119.458 89.4864 119.064 89.0404C118.975 88.9406 118.872 88.8503 118.778 88.7553C118.938 88.7035 119.097 88.6516 119.261 88.599C119.927 88.3901 120.598 88.2001 121.241 87.9346C121.827 87.6927 122.371 87.4076 122.869 87.066C123.666 90.611 124.093 94.299 124.093 98.0859C124.098 102.314 123.568 106.419 122.577 110.344Z" fill="url(#paint7_linear_1_149)"/>
<path d="M88.199 87.3605C88.152 87.3794 83.663 92.4432 83.663 92.4432L88.5414 94.0139L92.0266 89.2775C92.0313 89.2775 89.6109 86.7817 88.199 87.3605Z" fill="white"/>
<path d="M112.46 111.792C112.446 111.844 108.055 116.988 108.055 116.988L105.897 112.29L110.096 108.189C110.091 108.195 112.844 110.306 112.46 111.792Z" fill="white"/>
<path d="M115.799 125.089C115.785 125.142 111.395 130.286 111.395 130.286L109.237 125.588L113.435 121.487C113.43 121.487 116.184 123.599 115.799 125.089Z" fill="white"/>
<path d="M67.2877 89.8422L64.6609 89.572C64.6609 89.572 56.9025 93.4351 57.0197 94.2558C57.137 95.082 84.9624 107.397 84.9624 107.397C84.9624 107.397 70.9559 123.442 69.5955 123.504C68.2353 123.566 59.6372 123.333 58.6287 124.396C57.6201 125.46 53.6565 126.466 54.5993 127.581C55.5375 128.691 65.5146 132.16 65.5146 132.16C65.5146 132.16 67.0203 134.144 67.1423 134.41C67.2643 134.676 70.6181 140.855 70.6181 140.855L72.8462 145.904C72.8462 145.904 74.2159 147.214 74.8914 145.003C75.5669 142.791 77.8512 140.997 77.795 139.574C77.7387 138.15 77.2274 135.763 77.3399 134.657C77.4526 133.551 76.8615 131.463 77.0679 130.926C77.2743 130.39 92.0313 115.337 92.5238 115.389C93.0211 115.441 105.784 145.315 107.665 144.547C109.547 143.779 112.065 136.736 112.065 136.736L104.654 104.018C104.654 104.018 114.626 95.1102 115.903 90.9338C117.178 86.7574 120.1 81.6228 115.232 82.1827C110.363 82.7427 102.988 87.3126 102.6 87.6786C102.21 88.0437 95.8308 95.1432 95.8308 95.1432L80.9987 92.6427L67.2877 89.8422Z" fill="white"/>
<path d="M67.0627 135.354L71.4251 145.985C71.6972 146.697 72.3585 147.176 73.1091 147.224H73.2826C73.9815 147.224 74.6242 146.853 74.9807 146.246L77.0399 142.834C77.9359 141.353 78.3861 139.645 78.3439 137.907L77.9875 131.62C77.9827 131.325 78.1 131.045 78.3064 130.842L92.843 116.661L105.09 143.849C105.569 144.903 106.601 145.586 107.745 145.601H107.807C108.955 145.61 110.002 144.946 110.499 143.897L112.365 140.058C112.872 139.013 113.004 137.823 112.746 136.688L111.535 131.193L115.991 126.58C117.132 125.398 117.113 123.509 115.95 122.351L115.157 121.558C113.989 120.405 112.117 120.424 110.972 121.606L109.692 122.982L108.52 117.81L112.872 113.386C114.003 112.205 113.984 110.321 112.83 109.158L112.004 108.356C110.832 107.212 108.965 107.231 107.821 108.403L106.742 109.552L105.56 104.288L112.698 97.2699C114.524 95.1432 115.987 92.7181 117.019 90.1037C118.107 87.4217 119.046 83.8531 117.286 82.0924C113.979 78.8277 104.476 84.8309 102.384 86.9953L95.6293 94.427L90.4038 93.3165L91.5155 92.1722C92.0736 91.6076 92.3832 90.8435 92.3739 90.0463C92.3644 89.2492 92.0408 88.4898 91.4732 87.9393L90.6665 87.1469C89.5078 85.9987 87.6503 86.0223 86.5152 87.1893L82.2091 91.6838L77.0681 90.611L78.3486 89.2822C79.4885 88.101 79.4697 86.2115 78.3064 85.0539L77.5043 84.2615C76.3363 83.1079 74.4694 83.1275 73.3248 84.3039L68.8686 88.9359L63.404 87.8018C62.2782 87.5647 61.1055 87.7209 60.083 88.2573L56.3304 90.2364C55.2844 90.7586 54.637 91.8495 54.6698 93.0314C54.7074 94.2039 55.425 95.2429 56.4992 95.6796L83.6444 107.497L69.9335 122.503C69.7505 122.735 69.4644 122.863 69.1736 122.84L62.9537 122.64C61.1993 122.598 59.4731 123.086 57.9909 124.036L54.6558 126.214C53.7364 126.826 53.4784 128.079 54.0835 129.009C54.3039 129.351 54.623 129.612 54.9935 129.769L65.6602 133.959L67.0627 135.354ZM87.8379 88.6366C88.0209 88.4662 88.2554 88.3712 88.504 88.3618C88.7667 88.3571 89.02 88.4474 89.217 88.6225L89.991 89.4251C90.188 89.5908 90.3006 89.8374 90.2865 90.099C90.3053 90.3597 90.1974 90.6157 90.005 90.7869L87.9974 92.8563L84.47 92.1534L87.8379 88.6366ZM74.6664 85.6995C74.8493 85.5236 75.0885 85.4238 75.3419 85.4238C75.5952 85.4144 75.8391 85.5094 76.022 85.6853L76.8288 86.4872C77.2041 86.8524 77.2181 87.4555 76.857 87.8348C76.8522 87.8395 76.8476 87.8442 76.8429 87.849L74.6524 90.1131L71.1249 89.3772L74.6664 85.6995ZM57.231 93.8953C56.8839 93.739 56.6494 93.3974 56.6306 93.0126C56.5883 92.6042 56.8135 92.2202 57.1841 92.0537L60.8992 90.0369C61.5324 89.7377 62.2407 89.6482 62.9302 89.7856L93.9734 96.1877L88.443 102.2L68.6247 93.7194C68.1087 93.5058 67.5224 93.7531 67.302 94.2699C67.0862 94.7686 67.316 95.3521 67.8086 95.5704C67.8132 95.5704 67.8132 95.5704 67.8179 95.5751L87.0171 103.805L85.0704 105.945L57.231 93.8953ZM76.9554 129.346C76.3128 129.953 75.9704 130.813 76.0126 131.695L76.341 137.922C76.3879 139.312 76.0361 140.689 75.3184 141.875L73.2358 145.287L68.5778 133.769L72.4571 129.759C72.8464 129.379 72.8558 128.753 72.4805 128.364C72.4664 128.35 72.4571 128.34 72.443 128.326C72.0537 127.946 71.4345 127.955 71.0545 128.34L67.1847 132.341L55.7018 127.856L59.0369 125.702C60.1205 124.99 61.3776 124.605 62.6675 124.586L62.9114 124.582L69.1313 124.791C70.0085 124.828 70.8528 124.468 71.4438 123.813L103.753 88.423C106.123 85.9791 114.115 81.8411 115.841 83.5257C116.409 84.0809 116.517 85.9037 115.138 89.3058C114.209 91.6791 112.91 93.8859 111.292 95.8461L76.9554 129.346ZM112.431 123.091C112.61 122.911 112.854 122.802 113.107 122.793C113.36 122.797 113.599 122.902 113.777 123.077L114.585 123.879C114.964 124.249 114.974 124.857 114.608 125.237C114.603 125.241 114.598 125.246 114.598 125.246L111.038 128.914L110.236 125.365L112.431 123.091ZM109.228 109.813C109.58 109.429 110.166 109.409 110.546 109.761C110.56 109.77 110.569 109.784 110.583 109.798L111.385 110.591C111.765 110.951 111.789 111.55 111.432 111.938C111.423 111.948 111.409 111.963 111.399 111.972L108.022 115.46L107.22 111.91L109.228 109.813ZM110.813 137.205C110.959 137.893 110.869 138.605 110.56 139.237L108.693 143.076C108.52 143.437 108.154 143.665 107.759 143.645C107.37 143.645 107.018 143.398 106.873 143.033L94.3533 115.128L96.4266 113.139L104.968 132.355C105.128 132.706 105.47 132.938 105.855 132.944C105.991 132.944 106.123 132.91 106.24 132.849C106.737 132.621 106.962 132.037 106.756 131.525L97.9605 111.635L103.848 105.912L110.813 137.205Z" fill="url(#paint8_linear_1_149)"/>
<path d="M105.977 89.1164C105.432 89.1211 104.997 89.5719 105.001 90.1224C105.006 90.673 105.451 91.1143 105.996 91.1096C107.436 91.0955 108.622 92.2484 108.66 93.7052C108.674 94.2557 109.129 94.6876 109.673 94.6735C110.227 94.6641 110.668 94.2086 110.663 93.6486C110.574 91.1002 108.496 89.0921 105.977 89.1164Z" fill="url(#paint9_linear_1_149)"/>
</g>
<defs>
<linearGradient id="paint0_linear_1_149" x1="38.0079" y1="0.00378418" x2="109.2" y2="28.8857" gradientUnits="userSpaceOnUse">
<stop stop-color="#16A7DD"/>
<stop offset="0.453013" stop-color="#3492B5"/>
<stop offset="1" stop-color="#8BBCCE"/>
</linearGradient>
<linearGradient id="paint1_linear_1_149" x1="54.7799" y1="14.1105" x2="60.3651" y2="15.5276" gradientUnits="userSpaceOnUse">
<stop stop-color="#16A7DD"/>
<stop offset="0.453013" stop-color="#3492B5"/>
<stop offset="1" stop-color="#8BBCCE"/>
</linearGradient>
<linearGradient id="paint2_linear_1_149" x1="63.1525" y1="13.3086" x2="68.7376" y2="14.7258" gradientUnits="userSpaceOnUse">
<stop stop-color="#16A7DD"/>
<stop offset="0.453013" stop-color="#3492B5"/>
<stop offset="1" stop-color="#8BBCCE"/>
</linearGradient>
<linearGradient id="paint3_linear_1_149" x1="71.5202" y1="12.5073" x2="77.1053" y2="13.9245" gradientUnits="userSpaceOnUse">
<stop stop-color="#16A7DD"/>
<stop offset="0.453013" stop-color="#3492B5"/>
<stop offset="1" stop-color="#8BBCCE"/>
</linearGradient>
<linearGradient id="paint4_linear_1_149" x1="55.9189" y1="26.3259" x2="61.504" y2="27.7431" gradientUnits="userSpaceOnUse">
<stop stop-color="#16A7DD"/>
<stop offset="0.453013" stop-color="#3492B5"/>
<stop offset="1" stop-color="#8BBCCE"/>
</linearGradient>
<linearGradient id="paint5_linear_1_149" x1="64.2914" y1="25.5242" x2="69.8766" y2="26.9413" gradientUnits="userSpaceOnUse">
<stop stop-color="#16A7DD"/>
<stop offset="0.453013" stop-color="#3492B5"/>
<stop offset="1" stop-color="#8BBCCE"/>
</linearGradient>
<linearGradient id="paint6_linear_1_149" x1="72.664" y1="24.7223" x2="78.2491" y2="26.1394" gradientUnits="userSpaceOnUse">
<stop stop-color="#16A7DD"/>
<stop offset="0.453013" stop-color="#3492B5"/>
<stop offset="1" stop-color="#8BBCCE"/>
</linearGradient>
<linearGradient id="paint7_linear_1_149" x1="23.8238" y1="46.167" x2="148.138" y2="97.9983" gradientUnits="userSpaceOnUse">
<stop stop-color="#16A7DD"/>
<stop offset="0.453013" stop-color="#3492B5"/>
<stop offset="1" stop-color="#8BBCCE"/>
</linearGradient>
<linearGradient id="paint8_linear_1_149" x1="53.7561" y1="81.1401" x2="132.18" y2="113.432" gradientUnits="userSpaceOnUse">
<stop stop-color="#16A7DD"/>
<stop offset="0.453013" stop-color="#3492B5"/>
<stop offset="1" stop-color="#8BBCCE"/>
</linearGradient>
<linearGradient id="paint9_linear_1_149" x1="105.001" y1="89.1162" x2="111.796" y2="92.0361" gradientUnits="userSpaceOnUse">
<stop stop-color="#16A7DD"/>
<stop offset="0.453013" stop-color="#3492B5"/>
<stop offset="1" stop-color="#8BBCCE"/>
</linearGradient>
<clipPath id="clip0_1_149">
<rect width="103.665" height="150" fill="white" transform="translate(23.8238)"/>
</clipPath>
</defs>
</svg>
