<svg width="151" height="150" viewBox="0 0 151 150" fill="none" xmlns="http://www.w3.org/2000/svg">
<g clip-path="url(#clip0_1_248)">
<path d="M63.6317 18.4636L58.9897 17.7968C58.9897 17.7968 51.0516 24.5967 47.3568 30.7345C47.3568 30.7345 48.0461 38.8823 48.0461 44.4847C48.0461 44.4847 48.0742 75.5024 78.8236 103.383C106.872 128.818 127.386 119.261 131.32 115.072L134.25 103.383L114.529 88.0081C114.529 88.0081 106.933 85.7164 97.8743 98.2598C97.8743 98.2598 67.8844 79.9309 66.4309 56.3564C66.4309 56.3564 78.8236 49.9509 77.7547 45.546C76.6897 41.1411 72.4232 19.3277 72.4232 19.3277L63.6317 18.4636Z" fill="#D2EDFF"/>
<path d="M60.4525 15.9418C44.1823 22.0796 42.1802 39.8309 42.1052 40.5869C42.0911 40.7231 42.0911 40.8547 42.1098 40.9814C43.2117 49.7396 44.7872 59.8504 48.1022 68.4254C61.3246 102.604 87.1648 116.105 90.0668 117.532L90.1565 117.584C95.0605 120.74 100.022 122.853 104.902 123.877C120.212 127.085 130.381 118.721 131.751 116.94C133.181 115.081 134.944 109.183 136.121 104.28C136.28 103.618 136.036 102.928 135.497 102.514L113.38 85.4676C112.846 85.0543 112.118 84.9932 111.523 85.3126C105.925 88.2899 100.758 93.0287 98.1789 95.5877L97.6912 96.0716L97.1047 95.7098C76.1741 82.8988 69.9661 63.579 68.5595 57.9672L68.3953 57.3192L68.9768 56.9858C76.2253 52.8391 79.4138 47.4855 79.5457 47.2601C79.7568 46.8938 79.8269 46.4665 79.7424 46.0532L74.2845 19.1915C74.1486 18.52 73.6281 17.9893 72.9764 17.8531C72.9529 17.8484 72.9247 17.8437 72.9013 17.839L61.3527 15.862C61.048 15.8009 60.7386 15.8338 60.4525 15.9418ZM61.2355 19.3324L71.1477 21.0277L76.2306 46.0485L76.0053 46.3631C74.8706 47.9316 71.5931 51.8904 65.6899 54.8302C65.0147 55.1684 64.6396 55.8915 64.7568 56.6382C64.9257 57.7371 69.2488 83.7535 97.147 99.7297C97.8457 100.134 98.7133 99.9972 99.262 99.4055C99.3178 99.3445 105.123 93.1033 111.664 89.1869L112.175 88.8816L132.51 104.558L132.365 105.121C131.587 108.126 130.016 113.55 129.064 114.79L129.027 114.832C128.947 114.922 120.034 123.52 105.61 120.501C101.1 119.557 96.4814 117.57 91.8909 114.598C91.8299 114.56 91.7643 114.522 91.6987 114.489C91.4221 114.358 64.438 101.096 51.314 67.1763C48.149 59.0004 46.6346 49.2935 45.5655 40.8781L45.5515 40.7607L45.5702 40.6433C45.95 38.0088 48.4773 24.592 61.0058 19.431L61.2355 19.3324Z" fill="url(#paint0_linear_1_248)"/>
<path d="M69.4408 45.1C65.0755 38.5442 63.8751 25.9211 63.8283 25.3858C63.7861 24.9255 63.5704 24.5076 63.2187 24.2118C62.9984 24.0286 62.7405 23.9018 62.4685 23.8454C62.3044 23.8126 62.1356 23.8032 61.9621 23.8173C61.015 23.9018 60.3164 24.7377 60.3961 25.6863C60.4476 26.2546 61.6761 39.6572 66.5759 47.016C67.0823 47.7768 68.1936 48.0022 68.9626 47.4903C69.7549 46.9596 69.9707 45.889 69.4408 45.1Z" fill="url(#paint1_linear_1_248)"/>
<path d="M107.204 99.6964C107.392 99.9504 111.964 106.06 123.227 112.08C123.372 112.155 123.527 112.212 123.686 112.244C124.427 112.4 125.195 112.038 125.556 111.366C125.772 110.958 125.82 110.493 125.683 110.052C125.547 109.61 125.252 109.249 124.849 109.033C114.397 103.449 110.013 97.6959 109.971 97.6401C109.409 96.8841 108.334 96.7243 107.57 97.2829C106.811 97.8512 106.647 98.9314 107.204 99.6964Z" fill="url(#paint2_linear_1_248)"/>
<path d="M29.8862 130.372H28.8875C26.0789 130.372 23.8048 128.094 23.8048 125.281V88.4636C23.8048 85.6506 26.0789 83.373 28.8875 83.373H29.8862C33.7029 83.373 36.7928 86.4725 36.7928 90.2904V123.455C36.7976 127.272 33.7029 130.372 29.8862 130.372Z" fill="#D2EDFF"/>
<path d="M38.823 90.6472C38.823 90.6472 47.6755 91.7789 51.3938 85.6693C54.1649 81.1235 52.6597 71.6703 52.6597 71.6703C52.6597 71.6703 57.0532 65.1709 61.2122 69.4303C65.3711 73.6896 62.9564 88.9519 63.5894 89.4873C64.2224 90.0227 92.3176 88.9332 94.2683 90.9572C96.2191 92.9767 94.3761 98.6963 94.2683 99.8043C94.1605 100.913 93.0495 106.67 92.8897 107.445C92.7306 108.22 90.9909 111.798 90.9909 112.343C90.9909 112.888 89.2324 117.397 89.4811 118.021C89.7246 118.641 85.9226 124.774 85.9226 124.774C85.9226 124.774 87.8213 128.282 86.555 128.981C85.2894 129.681 81.96 131.616 81.4866 131.428C81.0133 131.24 52.8192 131.442 52.8192 131.442C52.8192 131.442 48.8384 128.85 48.8571 128.286C48.9556 125.422 44.2621 123.154 44.2621 123.154L38.8184 121.848V90.6472H38.823Z" fill="white"/>
<path d="M31.3445 119.486C31.3445 120.905 31.4289 122.332 31.3164 123.741C31.2367 124.774 30.1817 125.511 29.1924 125.408C28.2639 125.314 27.4856 124.826 27.359 123.905C26.9463 120.942 27.0308 117.955 27.2981 114.982C27.3872 113.959 28.4468 113.245 29.4314 113.306C30.4349 113.371 31.3023 114.123 31.3726 115.217C31.4617 116.635 31.3961 118.058 31.3961 119.481C31.3773 119.486 31.3585 119.486 31.3445 119.486Z" fill="url(#paint3_linear_1_248)"/>
<path d="M97.658 93.0091C96.7158 90.8023 94.6437 89.2901 92.1208 88.9661C91.3052 88.8628 90.4376 88.8722 89.6032 88.8863C89.3168 88.8909 89.0258 88.8957 88.7447 88.8957C86.4472 88.8909 84.1497 88.8909 81.8522 88.8909C77.3319 88.8909 72.6622 88.8909 68.0671 88.8628C66.0088 88.8534 65.5024 88.365 65.4789 86.3786C65.4461 83.8332 65.4461 81.2457 65.4507 78.7474C65.4507 77.409 65.4507 76.0659 65.4461 74.7276C65.4461 74.4364 65.4507 74.1452 65.4507 73.8541C65.4602 73.0182 65.4695 72.1588 65.3711 71.3416C65.0241 68.4818 62.8063 66.1337 59.9836 65.6265C56.9874 65.0911 53.9866 66.6221 52.6878 69.3599C52.1392 70.5104 51.886 71.8066 51.9001 73.3234L51.9141 74.3143C51.9423 76.404 51.9704 78.5596 51.8626 80.6869C51.675 84.3451 49.2556 87.4915 45.8421 88.5199C43.8165 89.1305 41.805 89.1539 40.028 88.5857C39.0105 88.2617 38.6916 87.3365 38.4103 86.5194C38.2838 86.1531 38.1618 85.8056 37.9931 85.5333C37.4257 84.6316 36.7974 83.8521 36.1129 83.1946V130.339C37.0975 129.404 37.9181 128.216 38.5557 126.765C39.2028 125.3 40.0655 124.661 41.4346 124.661C41.4862 124.661 41.5378 124.661 41.5894 124.666C41.9926 124.68 42.3911 124.68 42.7944 124.685C43.3899 124.689 44.0041 124.694 44.6183 124.731C45.7625 124.807 46.6017 125.455 46.9768 126.559C47.0894 126.883 47.155 127.211 47.2206 127.526C47.2722 127.78 47.3191 128.019 47.3895 128.244C48.3553 131.461 50.0011 132.785 53.0723 132.809C60.2181 132.87 67.4904 132.856 74.519 132.842C77.1306 132.837 79.7424 132.832 82.3542 132.832C82.5834 132.832 82.8366 132.813 83.1419 132.767C86.1284 132.339 88.4545 129.841 88.6648 126.826C88.7258 125.986 88.6791 125.14 88.5291 124.388C88.2713 123.074 88.5804 122.102 89.5324 121.238C91.7688 119.218 92.5098 116.767 91.7409 113.954C91.4454 112.869 91.7319 111.949 92.613 111.151C94.8306 109.145 95.5437 106.759 94.7839 103.853C94.4839 102.712 94.7703 101.763 95.6281 101.025C96.1248 100.603 96.4768 100.237 96.7437 99.8752C98.2678 97.7993 98.61 95.2357 97.658 93.0091ZM92.0176 98.9691C91.0799 99.1335 90.1188 99.1335 89.1902 99.1335H88.9369C85.9972 99.1425 83.0575 99.1425 80.1223 99.1425C78.0359 99.1425 75.949 99.1425 73.8625 99.147H73.478C72.6293 99.147 71.7479 99.147 70.8991 99.2224C70.0974 99.2978 69.4269 99.9362 69.3659 100.673C69.3003 101.495 70.0739 102.299 71.0211 102.392C71.8088 102.467 72.6293 102.467 73.4218 102.463H73.9797C75.6161 102.467 77.2527 102.463 78.8937 102.463C81.2756 102.463 83.6575 102.463 86.0394 102.472H86.255C87.1972 102.476 88.168 102.476 89.1246 102.632C90.4512 102.848 91.4786 104.087 91.5721 105.581C91.661 107.004 90.9532 108.234 89.6778 108.868C88.7168 109.347 87.7414 109.338 86.7992 109.338H86.5037C84.5763 109.343 82.6497 109.342 80.7223 109.342C78.3449 109.342 75.9631 109.343 73.5859 109.347H73.5202C72.5684 109.352 71.5837 109.352 70.6459 109.479C69.9567 109.572 69.5301 110.028 69.4363 110.76C69.3847 111.164 69.4269 111.775 70.3975 112.352C70.9461 112.682 71.5885 112.672 72.2683 112.663C72.3949 112.663 72.5262 112.663 72.6528 112.658C74.1438 112.663 75.6396 112.663 77.1306 112.663C79.0814 112.663 81.0366 112.663 82.9919 112.676C84.0186 112.682 85.064 112.691 86.0771 112.888C87.5869 113.184 88.7726 114.776 88.6135 116.302C88.4681 117.683 87.3382 118.932 86.0394 119.143C84.9751 119.317 83.8874 119.345 82.9633 119.35C81.1158 119.359 79.2638 119.359 77.4163 119.359C75.0019 119.359 72.5028 119.359 70.0458 119.378C68.9158 119.387 67.9968 119.505 67.2278 119.73C66.4119 119.97 66.3463 120.792 66.3792 121.257C66.4214 121.834 66.7074 122.247 67.2513 122.524C67.9499 122.876 68.7283 122.872 69.5535 122.863C69.6942 122.863 69.8348 122.863 69.9801 122.863C71.2508 122.867 72.5215 122.867 73.7922 122.863C75.8224 122.863 77.8572 122.858 79.8879 122.876C80.8158 122.886 81.9088 122.919 82.9686 123.125C84.3231 123.388 85.3083 124.661 85.3083 126.15C85.3083 127.441 84.403 129.005 83.0522 129.273C82.0067 129.479 80.91 129.503 79.9625 129.507C76.9196 129.526 73.8766 129.522 70.8288 129.517L66.9605 129.512C65.8493 129.512 64.7427 129.517 63.6315 129.517C62.3702 129.522 61.0949 129.522 59.8101 129.522C58.0565 129.522 56.2935 129.517 54.5445 129.498C51.6047 129.465 51.4124 129.164 50.5356 126.427C50.4841 126.272 50.4372 126.112 50.3903 125.957C50.2731 125.563 50.1605 125.192 50.0105 124.835C49.1618 122.844 47.7036 121.693 45.5467 121.318C44.9512 121.214 44.4261 121.168 43.9291 121.172C41.805 121.196 40.6657 121.177 40.0233 120.538C39.4231 119.941 39.4231 119.007 39.4325 117.317V116.607C39.4231 110.916 39.4231 105.228 39.4279 99.5367V96.5593C39.4279 95.7664 39.4279 94.9493 39.4841 94.1412C39.5638 93.0422 40.2343 92.3428 41.2752 92.2772C42.0161 92.2297 42.7475 92.183 43.4742 92.2108C46.4188 92.3194 49.5604 90.976 51.8626 88.628C54.2117 86.2283 55.4073 83.1429 55.2339 79.9355C55.1588 78.5267 55.1822 77.0991 55.201 75.7184C55.2104 75.1032 55.2198 74.4833 55.2244 73.8682C55.2291 72.9196 55.2291 71.7408 55.8621 70.6842C56.5514 69.5243 57.5126 68.9326 58.7223 68.9185C58.7316 68.9185 58.7411 68.9185 58.7504 68.9185C60.0821 68.9185 61.4981 69.9516 61.8451 71.1867C62.0232 71.816 62.1123 72.5579 62.1171 73.4455C62.1264 75.2535 62.1264 77.0568 62.1264 78.8648C62.1264 81.1894 62.1217 83.5891 62.1452 85.9513C62.1592 87.2333 61.9763 88.5294 60.5885 89.3465C60.4947 89.4028 60.3728 89.6094 60.279 89.7551L60.2321 89.8349C59.9601 90.281 59.9367 90.8587 60.1711 91.3425C60.3727 91.7601 60.7245 92.033 61.1371 92.0887C62.0466 92.2108 63.0079 92.2063 63.9363 92.2018H64.5083C72.5449 92.2108 80.5866 92.2018 88.6226 92.2161H88.7402C89.861 92.2161 91.0188 92.2206 92.1397 92.4317C93.6397 92.7136 94.8306 94.2023 94.7884 95.7566C94.756 97.2686 93.5085 98.7106 92.0176 98.9691Z" fill="url(#paint4_linear_1_248)"/>
<path d="M21.8121 70.4729C14.0192 71.9615 12.6876 73.6662 11.5248 83.6407C11.492 83.9365 11.1544 83.9365 11.1216 83.6407C9.95874 73.6662 8.62713 71.9615 0.834293 70.4729C0.599852 70.4306 0.599852 69.9985 0.834293 69.9563C8.62713 68.4676 9.95874 66.763 11.1216 56.7884C11.1544 56.4926 11.492 56.4926 11.5248 56.7884C12.6876 66.763 14.0192 68.4676 21.8121 69.9563C22.0465 69.9985 22.0465 70.4259 21.8121 70.4729Z" fill="#D2EDFF"/>
<path d="M94.6384 34.6324C90.5454 35.412 89.8467 36.3089 89.2369 41.5451C89.2188 41.7 89.0447 41.7 89.0266 41.5451C88.4168 36.3089 87.7181 35.412 83.6243 34.6324C83.503 34.609 83.503 34.3835 83.6243 34.3601C87.7181 33.5805 88.4168 32.6835 89.0266 27.4474C89.0447 27.2924 89.2188 27.2924 89.2369 27.4474C89.8467 32.6835 90.5454 33.5805 94.6384 34.3601C94.7605 34.3835 94.7605 34.609 94.6384 34.6324Z" fill="#D2EDFF"/>
<path d="M150.539 97.9124C145.217 98.9315 144.307 100.096 143.511 106.906C143.487 107.107 143.257 107.107 143.234 106.906C142.441 100.092 141.532 98.9262 136.205 97.9124C136.046 97.8837 136.046 97.5882 136.205 97.5603C141.527 96.5412 142.436 95.3767 143.234 88.567C143.257 88.365 143.487 88.365 143.511 88.567C144.303 95.3812 145.213 96.5458 150.539 97.5603C150.698 97.5882 150.698 97.8792 150.539 97.9124Z" fill="#D2EDFF"/>
<path d="M35.3815 132.762H25.4271C23.5282 132.762 21.9856 131.217 21.9856 129.315V84.8335C21.9856 82.9316 23.5282 81.3866 25.4271 81.3866H35.3815C37.2805 81.3866 38.8231 82.9316 38.8231 84.8335V129.315C38.8231 131.217 37.2805 132.762 35.3815 132.762Z" fill="#D2EDFF"/>
<path d="M35.3816 134.171H21.6527C18.9802 134.171 16.8045 131.992 16.8045 129.315V84.8337C16.8045 82.1569 18.9802 79.9779 21.6527 79.9779H35.3816C38.0542 79.9779 40.2299 82.1569 40.2299 84.8337V129.315C40.2299 131.992 38.0542 134.171 35.3816 134.171ZM21.6527 82.7956C20.5321 82.7956 19.6178 83.7113 19.6178 84.8337V129.315C19.6178 130.437 20.5321 131.353 21.6527 131.353H35.3816C36.5023 131.353 37.4166 130.437 37.4166 129.315V84.8337C37.4166 83.7113 36.5023 82.7956 35.3816 82.7956H21.6527Z" fill="url(#paint5_linear_1_248)"/>
<path d="M28.1044 128.521C27.326 128.521 26.6977 127.892 26.6977 127.113V118.143C26.6977 117.363 27.326 116.734 28.1044 116.734C28.8827 116.734 29.511 117.363 29.511 118.143V127.113C29.511 127.892 28.878 128.521 28.1044 128.521Z" fill="url(#paint6_linear_1_248)"/>
</g>
<defs>
<linearGradient id="paint0_linear_1_248" x1="42.0951" y1="15.8315" x2="160.14" y2="58.8962" gradientUnits="userSpaceOnUse">
<stop stop-color="#16A7DD"/>
<stop offset="0.453013" stop-color="#3492B5"/>
<stop offset="1" stop-color="#8BBCCE"/>
</linearGradient>
<linearGradient id="paint1_linear_1_248" x1="60.3899" y1="23.8109" x2="73.3217" y2="25.9381" gradientUnits="userSpaceOnUse">
<stop stop-color="#16A7DD"/>
<stop offset="0.453013" stop-color="#3492B5"/>
<stop offset="1" stop-color="#8BBCCE"/>
</linearGradient>
<linearGradient id="paint2_linear_1_248" x1="106.874" y1="96.9496" x2="128.017" y2="107.937" gradientUnits="userSpaceOnUse">
<stop stop-color="#16A7DD"/>
<stop offset="0.453013" stop-color="#3492B5"/>
<stop offset="1" stop-color="#8BBCCE"/>
</linearGradient>
<linearGradient id="paint3_linear_1_248" x1="27.0735" y1="113.302" x2="33.1142" y2="114.216" gradientUnits="userSpaceOnUse">
<stop stop-color="#16A7DD"/>
<stop offset="0.453013" stop-color="#3492B5"/>
<stop offset="1" stop-color="#8BBCCE"/>
</linearGradient>
<linearGradient id="paint4_linear_1_248" x1="36.1129" y1="65.5205" x2="112.779" y2="95.3345" gradientUnits="userSpaceOnUse">
<stop stop-color="#16A7DD"/>
<stop offset="0.453013" stop-color="#3492B5"/>
<stop offset="1" stop-color="#8BBCCE"/>
</linearGradient>
<linearGradient id="paint5_linear_1_248" x1="16.8045" y1="79.9779" x2="49.0394" y2="85.8554" gradientUnits="userSpaceOnUse">
<stop stop-color="#16A7DD"/>
<stop offset="0.453013" stop-color="#3492B5"/>
<stop offset="1" stop-color="#8BBCCE"/>
</linearGradient>
<linearGradient id="paint6_linear_1_248" x1="26.6977" y1="116.734" x2="30.6575" y2="117.133" gradientUnits="userSpaceOnUse">
<stop stop-color="#16A7DD"/>
<stop offset="0.453013" stop-color="#3492B5"/>
<stop offset="1" stop-color="#8BBCCE"/>
</linearGradient>
<clipPath id="clip0_1_248">
<rect width="150" height="118.342" fill="white" transform="translate(0.65625 15.8291)"/>
</clipPath>
</defs>
</svg>
