<svg width="151" height="150" viewBox="0 0 151 150" fill="none" xmlns="http://www.w3.org/2000/svg">
<g clip-path="url(#clip0_1_193)">
<path d="M126.336 122.597H39.3488V51.2362C39.3488 51.1604 39.4067 51.102 39.4817 51.102H126.336V122.597Z" fill="#D2EDFF"/>
<path d="M86.2928 47.8656C92.6556 47.8656 97.8139 42.5603 97.8139 36.0159C97.8139 29.4714 92.6556 24.1661 86.2928 24.1661C79.93 24.1661 74.7719 29.4714 74.7719 36.0159C74.7719 42.5603 79.93 47.8656 86.2928 47.8656Z" fill="#D2EDFF"/>
<path d="M113.192 26.5046C119.555 26.5046 124.713 21.1993 124.713 14.6548C124.713 8.11038 119.555 2.80505 113.192 2.80505C106.83 2.80505 101.672 8.11038 101.672 14.6548C101.672 21.1993 106.83 26.5046 113.192 26.5046Z" fill="#D2EDFF"/>
<path d="M144.03 34.6745C136.471 36.1324 135.177 37.8003 134.051 47.5506C134.017 47.8422 133.693 47.8422 133.659 47.5506C132.532 37.7944 131.238 36.1266 123.68 34.6745C123.454 34.6337 123.454 34.2138 123.68 34.1672C131.238 32.7093 132.532 31.0414 133.659 21.291C133.693 20.9995 134.017 20.9995 134.051 21.291C135.177 31.0473 136.471 32.7151 144.03 34.1672C144.255 34.208 144.255 34.6278 144.03 34.6745Z" fill="#D2EDFF"/>
<path d="M22.2322 96.4895C16.9886 97.4983 16.0935 98.6526 15.3081 105.424C15.285 105.627 15.0598 105.627 15.0367 105.424C14.2513 98.6588 13.3562 97.4983 8.11258 96.4895C7.95666 96.4605 7.95666 96.1684 8.11258 96.1395C13.3562 95.1307 14.2513 93.9763 15.0367 87.2055C15.0598 87.0014 15.285 87.0014 15.3081 87.2055C16.0935 93.9702 16.9886 95.1307 22.2322 96.1395C22.3881 96.1684 22.3881 96.4605 22.2322 96.4895Z" fill="#D2EDFF"/>
<path d="M92.7263 12.8761C89.4865 13.5002 88.9322 14.2175 88.4471 18.3987C88.4297 18.5211 88.2912 18.5211 88.2796 18.3987C87.7945 14.2175 87.2401 13.5002 84.0004 12.8761C83.9022 12.8587 83.9022 12.6779 84.0004 12.6604C87.2401 12.0364 87.7945 11.3191 88.2796 7.13788C88.2969 7.01541 88.4355 7.01541 88.4471 7.13788C88.9322 11.3191 89.4865 12.0364 92.7263 12.6604C92.8244 12.6779 92.8244 12.8587 92.7263 12.8761Z" fill="#D2EDFF"/>
<path d="M135.298 98.9447H103.363C96.5666 98.9447 91.057 93.3807 91.057 86.5174C91.057 79.6536 96.5666 74.0903 103.363 74.0903H135.298V98.9447Z" fill="white"/>
<path d="M98.5069 86.7565C98.5069 84.6104 100.303 82.8026 102.422 82.8026C104.547 82.8026 106.338 84.6162 106.338 86.7565C106.338 88.9026 104.541 90.7105 102.422 90.7105C100.297 90.7105 98.5069 88.9026 98.5069 86.7565Z" fill="url(#paint0_linear_1_193)"/>
<path d="M135.818 72.1309L128.392 72.1251V50.6882C128.392 49.7202 127.612 48.9387 126.66 48.9387H119.464V39.095C119.464 37.5204 118.898 36.0451 117.91 35.0479C116.923 34.0507 115.462 33.4792 113.909 33.4792H96.156C96.428 33.7532 96.6648 34.074 96.8551 34.4705C97.2709 35.3569 97.2481 36.2083 96.9534 36.984H113.909C114.381 36.984 114.988 37.0423 115.445 37.5088C115.82 37.8879 115.999 38.4127 115.999 39.1008V48.9446H39.9148C38.2748 48.9446 36.7617 48.3089 35.653 47.1542C34.5384 45.9996 33.9494 44.4484 33.9956 42.7864C34.0822 39.5907 36.7964 36.984 40.0477 36.984H71.3822C71.0587 36.0859 71.0183 35.0012 71.2782 33.8816C71.3129 33.7416 71.3533 33.6075 71.4052 33.485H39.9148C34.9022 33.485 30.6981 37.5847 30.5307 42.6289V122.516C30.5307 122.703 30.5307 123.192 30.8021 123.67C31.0388 124.084 31.5586 124.586 32.6905 124.586H126.66C127.618 124.586 128.392 123.799 128.392 122.837V101.4H135.588C136.448 101.4 137.32 100.519 137.32 99.65V73.8746C137.325 73.0465 136.627 72.2475 135.818 72.1309ZM124.927 121.075H33.9956V50.6707L36.0283 51.5979C37.2295 52.1461 38.5751 52.4376 39.9206 52.4376H124.927V72.1251H103.698C99.7657 72.1251 96.0867 73.6938 93.3324 76.5396C90.5837 79.3854 89.1168 83.1351 89.2092 87.1064C89.394 94.9789 96.0122 101.388 103.964 101.388H124.921V121.075H124.927ZM133.855 97.8886H103.698C100.695 97.8886 97.9008 96.7342 95.8385 94.6351C93.7772 92.536 92.651 89.7018 92.6741 86.6632C92.7203 80.5751 97.756 75.624 103.895 75.624H133.855V97.8886Z" fill="url(#paint1_linear_1_193)"/>
<path d="M29.7622 118.067L18.7495 114.422C17.5194 114.013 16.2374 114.154 15.1691 114.707L28.8208 119.226L29.7622 118.067Z" fill="#2E1513"/>
<path d="M32.3209 120.382L33.2679 119.221L29.7625 118.066L28.8213 119.221L32.3209 120.382Z" fill="#2E1513"/>
<path d="M61.5184 89.9693L62.4944 88.7684C62.8871 88.2842 63.3606 87.9053 63.8746 87.6196C62.4771 86.8497 60.7966 86.8731 59.428 87.6196C59.682 87.7597 59.9303 87.9228 60.1671 88.1211C60.7793 88.6342 61.2354 89.2754 61.5184 89.9693Z" fill="white"/>
<path d="M31.5758 130.039L32.4478 130.33C32.9271 130.488 33.4122 130.563 33.8973 130.563C34.6365 130.563 35.3641 130.376 36.0167 130.039L32.8982 129.006C32.5229 129.438 32.0724 129.782 31.5758 130.039Z" fill="#2E1513"/>
<path d="M15.1694 114.707L14.3031 114.422C13.0731 114.013 11.7911 114.154 10.7227 114.707L13.8412 115.739C14.2223 115.314 14.6727 114.964 15.1694 114.707Z" fill="#2E1513"/>
<path d="M32.9039 129.006L15.845 123.361C13.4022 122.551 12.0682 119.891 12.8709 117.425C13.0788 116.777 13.4195 116.211 13.8468 115.739L10.7284 114.707C9.67736 115.255 8.82268 116.2 8.42999 117.425C7.62728 119.891 8.96128 122.551 11.4041 123.361L31.5757 130.039C32.0723 129.782 32.5228 129.438 32.9039 129.006Z" fill="white"/>
<path d="M13.8409 115.739L27.8738 120.382L28.8152 119.221L15.1633 114.702C14.6725 114.964 14.222 115.314 13.8409 115.739Z" fill="#2E1513"/>
<path d="M61.2816 87.2522C58.6714 87.6662 56.9793 89.5851 55.7204 91.7719C54.7214 92.0456 53.832 92.757 53.4162 94.0167C52.6308 96.3904 51.6665 100.024 49.6915 101.715C48.6288 102.625 47.4046 102.986 46.4633 104.111C45.9608 104.718 45.6086 105.517 45.2044 106.239C44.5865 106.619 43.9974 107.062 43.4257 107.563C42.6403 108.252 42.3515 109.272 42.4555 110.269C41.7856 110.975 41.11 111.669 40.4343 112.363C39.7298 112.806 39.1408 113.43 38.7134 114.288C38.4708 114.777 38.3495 115.273 38.3322 115.757C36.9636 117.402 35.4679 118.865 33.6084 120.131C33.233 120.387 32.8865 120.679 32.5747 120.988C32.4938 120.965 32.4072 120.947 32.3206 120.93C26.0317 119.833 19.8526 118.049 14.0085 115.442C12.3222 114.689 10.3472 114.946 9.34235 116.678C8.49345 118.142 8.87459 120.632 10.5666 121.39C16.0123 123.816 21.614 125.705 27.412 126.96C28.1627 127.933 29.335 128.557 30.6748 128.248C31.1194 128.411 31.5467 128.686 31.9799 128.867C32.8981 129.257 33.7758 129.455 34.7807 129.467C37.1542 129.496 38.3727 127.35 38.0435 125.408C38.3149 125.233 38.5921 125.058 38.852 124.866C39.8799 124.102 40.8443 123.274 41.7279 122.341C43.3737 120.609 44.7712 118.632 46.1629 116.69C46.3478 116.433 46.4748 116.154 46.5615 115.868C48.1784 114.176 49.7838 112.468 51.3546 110.73C52.0649 109.943 52.3306 108.975 52.2555 108.06C52.781 107.739 53.3989 107.482 53.8436 107.132C54.9581 106.257 55.8706 105.126 56.6444 103.867C57.0082 103.889 57.4009 103.849 57.8109 103.732C60.1266 103.085 61.7609 100.688 63.0487 98.764C64.4001 96.7342 65.8033 94.0754 66.1094 91.6202C66.4848 88.7158 64.042 86.8148 61.2816 87.2522Z" fill="#D2EDFF"/>
<path d="M33.8973 132.283C33.2217 132.283 32.5576 132.179 31.9166 131.963L10.8729 125C7.53504 123.898 5.71017 120.254 6.80162 116.882C7.89308 113.511 11.4966 111.669 14.8403 112.771L31.7491 118.364L56.737 87.6662C57.8169 86.3366 59.3473 85.5144 61.0393 85.3511C62.7371 85.1819 64.3887 85.6952 65.7054 86.7856C68.4195 89.0368 68.8123 93.1009 66.5831 95.836L38.8233 129.939C37.6048 131.432 35.8146 132.283 33.8973 132.283ZM12.8595 115.909C11.6179 115.909 10.4629 116.708 10.0529 117.961C9.54469 119.525 10.3936 121.21 11.9355 121.717L32.9792 128.68C33.2794 128.779 33.5855 128.825 33.8973 128.825C34.7809 128.825 35.6125 128.429 36.1784 127.735L63.9267 93.6377C64.9604 92.3667 64.7756 90.4886 63.5225 89.4447C62.9161 88.9377 62.1423 88.7044 61.3627 88.7798C60.5773 88.8561 59.8728 89.2403 59.3703 89.8526L33.6432 121.466C33.1928 122.014 32.4594 122.23 31.7895 122.009L13.7719 116.048C13.4716 115.961 13.1598 115.909 12.8595 115.909Z" fill="url(#paint2_linear_1_193)"/>
<path d="M111.31 29.3096C103.305 29.3096 96.7972 22.7374 96.7972 14.6547C96.7972 6.57219 103.305 0 111.31 0C119.314 0 125.822 6.57219 125.822 14.6547C125.822 22.7315 119.308 29.3096 111.31 29.3096ZM111.31 2.80499C104.836 2.80499 99.5753 8.12339 99.5753 14.6547C99.5753 21.192 104.842 26.5046 111.31 26.5046C117.783 26.5046 123.044 21.1861 123.044 14.6547C123.044 8.11756 117.777 2.80499 111.31 2.80499Z" fill="url(#paint3_linear_1_193)"/>
<path d="M83.9252 50.6705C75.9211 50.6705 69.4129 44.0983 69.4129 36.0158C69.4129 27.9332 75.9211 21.3611 83.9252 21.3611C91.9291 21.3611 98.4376 27.9332 98.4376 36.0158C98.4376 44.0925 91.9291 50.6705 83.9252 50.6705ZM83.9252 24.1661C77.4515 24.1661 72.1906 29.4844 72.1906 36.0158C72.1906 42.553 77.4573 47.8655 83.9252 47.8655C90.393 47.8655 95.6595 42.5472 95.6595 36.0158C95.6595 29.4786 90.393 24.1661 83.9252 24.1661Z" fill="url(#paint4_linear_1_193)"/>
<path d="M29.9304 149.621C29.6244 149.883 29.2144 150.029 28.787 149.994C27.9208 149.925 27.274 149.154 27.3491 148.28L28.2153 138.815C28.2846 137.94 29.0469 137.287 29.9131 137.363C30.7794 137.433 31.4261 138.203 31.351 139.077L30.4848 148.542C30.4444 148.974 30.2365 149.359 29.9304 149.621Z" fill="#D2EDFF"/>
<path d="M22.9542 137.432L16.3593 145.382C15.7933 146.052 14.8058 146.128 14.1417 145.562C13.4776 144.996 13.4025 143.993 13.9627 143.323L20.5576 135.375C21.1236 134.704 22.111 134.628 22.7752 135.194C23.4393 135.765 23.5144 136.768 22.9542 137.432Z" fill="#D2EDFF"/>
</g>
<defs>
<linearGradient id="paint0_linear_1_193" x1="98.5069" y1="82.8026" x2="107.987" y2="86.7623" gradientUnits="userSpaceOnUse">
<stop stop-color="#16A7DD"/>
<stop offset="0.453013" stop-color="#3492B5"/>
<stop offset="1" stop-color="#8BBCCE"/>
</linearGradient>
<linearGradient id="paint1_linear_1_193" x1="30.5307" y1="33.4792" x2="152.54" y2="93.8031" gradientUnits="userSpaceOnUse">
<stop stop-color="#16A7DD"/>
<stop offset="0.453013" stop-color="#3492B5"/>
<stop offset="1" stop-color="#8BBCCE"/>
</linearGradient>
<linearGradient id="paint2_linear_1_193" x1="6.48538" y1="85.3194" x2="73.5096" y2="122.368" gradientUnits="userSpaceOnUse">
<stop stop-color="#16A7DD"/>
<stop offset="0.453013" stop-color="#3492B5"/>
<stop offset="1" stop-color="#8BBCCE"/>
</linearGradient>
<linearGradient id="paint3_linear_1_193" x1="96.7972" y1="0" x2="131.934" y2="14.677" gradientUnits="userSpaceOnUse">
<stop stop-color="#16A7DD"/>
<stop offset="0.453013" stop-color="#3492B5"/>
<stop offset="1" stop-color="#8BBCCE"/>
</linearGradient>
<linearGradient id="paint4_linear_1_193" x1="69.4129" y1="21.3611" x2="104.55" y2="36.0382" gradientUnits="userSpaceOnUse">
<stop stop-color="#16A7DD"/>
<stop offset="0.453013" stop-color="#3492B5"/>
<stop offset="1" stop-color="#8BBCCE"/>
</linearGradient>
<clipPath id="clip0_1_193">
<rect width="137.719" height="150" fill="white" transform="translate(6.4841)"/>
</clipPath>
</defs>
</svg>
