<svg width="150" height="150" viewBox="0 0 150 150" fill="none" xmlns="http://www.w3.org/2000/svg">
<g clip-path="url(#clip0_1_83)">
<path d="M50.3161 101.565V74.3656C50.3161 64.8801 42.6298 57.1852 33.1421 57.1852C31.7751 57.1852 30.6688 58.2919 30.6688 59.6593V81.7824V127.894V133.092C30.6688 133.092 46.1225 142.797 48.7407 143.69C51.3587 144.582 81.8375 151.02 87.0216 147.555C92.2057 144.09 102.331 125.409 102.777 123.177C103.222 120.941 62.5667 120.767 58.5933 121.602C54.6255 122.43 53.8784 123.027 54.6255 120.205C55.367 117.383 56.8324 113.182 55.1816 109.88C52.9922 105.482 50.3161 101.565 50.3161 101.565Z" fill="white"/>
<path d="M107.086 54.711C102.98 54.711 99.2143 51.9586 98.1137 47.8098C96.8049 42.8614 99.7594 37.7681 104.706 36.4585L131.055 29.4647C133.453 28.8273 135.949 29.1634 138.093 30.4092C140.235 31.6549 141.765 33.6598 142.401 36.0587C143.039 38.4576 142.703 40.955 141.458 43.0989C140.212 45.2429 138.208 46.7726 135.81 47.41L109.461 54.4038C108.674 54.6066 107.874 54.711 107.086 54.711ZM133.435 32.3097C132.92 32.3097 132.393 32.3735 131.865 32.5125L105.517 39.5064C102.255 40.3698 100.304 43.7305 101.167 46.9986C102.03 50.2608 105.389 52.2135 108.656 51.3502L135.005 44.3563C136.587 43.9392 137.907 42.9251 138.729 41.5112C139.551 40.0974 139.772 38.446 139.355 36.8641C138.625 34.1234 136.14 32.3097 133.435 32.3097Z" fill="url(#paint0_linear_1_83)"/>
<path d="M52.6967 113.321V12.5565C52.6967 7.98467 56.4038 4.27625 60.9739 4.27625H58.5932C54.0231 4.27625 50.3161 7.98467 50.3161 12.5565V113.321C50.3161 117.893 54.0231 121.602 58.5932 121.602H60.9739C56.4038 121.602 52.6967 117.893 52.6967 113.321Z" fill="white"/>
<path d="M109.67 81.7128C109.328 81.7823 108.98 81.8576 108.627 81.933C107.138 82.269 105.545 82.0315 105.875 80.0788C105.904 79.9165 105.986 79.7717 106.089 79.6499C105.58 79.3371 105.198 78.8677 105.007 78.1782C104.81 77.4423 104.978 76.608 105.406 75.9648C105.001 75.31 105.325 74.1221 106.362 74.0063C107.781 73.844 109.194 73.9482 110.619 73.9309C111.459 73.9194 112.281 73.7281 113.11 73.6238V67.87C112.519 67.9626 111.916 68.009 111.338 68.0785C110.046 68.235 108.204 68.5248 106.965 68.0206C106.287 67.7483 105.8 67.1804 105.464 66.4793C105.429 66.4619 105.4 66.4503 105.366 66.4329C104.746 66.12 104.653 65.3262 104.966 64.7815C104.804 63.7212 104.862 62.626 105.076 61.8379C105.238 61.2411 105.499 60.7892 105.835 60.4415C105.058 59.7636 105.273 58.1991 106.501 58.3555C107.318 58.4598 108.169 58.2744 108.986 58.2281C109.704 58.1874 110.405 58.1179 111.111 57.9905C111.743 57.8746 112.426 57.7182 113.104 57.6949V12.5565C113.104 7.98467 109.42 4.27625 104.873 4.27625H61.2577C56.7108 4.27625 53.0269 7.98467 53.0269 12.5565V113.321C53.0269 117.893 56.7108 121.602 61.2577 121.602H104.89C109.437 121.602 113.121 117.893 113.121 113.321V81.4578C112.01 81.7765 110.84 81.7708 109.67 81.7128Z" fill="#D2EDFF"/>
<path d="M111.54 73.8557C112.449 73.7398 113.348 73.5196 114.257 73.5659C114.419 73.5718 114.564 73.6123 114.697 73.6761V67.4529C113.712 67.8642 112.594 67.9396 111.54 68.0555V73.8557Z" fill="url(#paint1_linear_1_83)"/>
<path d="M113.944 81.1508C113.174 81.5043 112.363 81.6608 111.54 81.7187V113.321C111.54 117.018 108.534 120.026 104.839 120.026H58.5933C54.8978 120.026 51.8917 117.018 51.8917 113.321V12.5565C51.8917 8.85976 54.8978 5.85242 58.5933 5.85242H104.839C108.534 5.85242 111.54 8.85976 111.54 12.5565V57.9152C112.514 57.7299 113.579 57.5386 114.506 57.8978C114.57 57.921 114.633 57.95 114.697 57.9789V12.5565C114.697 7.1214 110.277 2.69446 104.839 2.69446H58.5933C53.1602 2.69446 48.7349 7.1156 48.7349 12.5565V113.321C48.7349 118.756 53.1544 123.183 58.5933 123.183H104.839C110.271 123.183 114.697 118.762 114.697 113.321V80.693C114.471 80.8727 114.222 81.0234 113.944 81.1508Z" fill="url(#paint2_linear_1_83)"/>
<path d="M106.281 106.559H57.1568C56.2879 106.559 55.5871 105.812 55.5871 104.891V19.4057C55.5871 18.4845 56.2879 17.7369 57.1568 17.7369H106.281C107.15 17.7369 107.851 18.4845 107.851 19.4057V104.891C107.851 105.812 107.15 106.559 106.281 106.559Z" fill="white"/>
<path d="M106.935 68.0207C106.692 67.9222 106.467 67.7831 106.269 67.6151V74.0121C106.287 74.0063 106.31 74.0063 106.328 74.0006C107.358 73.8847 108.389 73.9078 109.426 73.9194V68.2815C108.546 68.3336 107.643 68.3046 106.935 68.0207Z" fill="url(#paint3_linear_1_83)"/>
<path d="M108.609 81.9332C107.729 82.1302 106.814 82.1244 106.275 81.6898V104.89C106.275 104.937 106.257 104.966 106.252 104.978H57.1916C57.18 104.966 57.1684 104.937 57.1684 104.89V19.4057C57.1684 19.3594 57.1858 19.3304 57.1916 19.3187H106.252C106.263 19.3304 106.275 19.3594 106.275 19.4057V58.3499C106.339 58.3499 106.408 58.3499 106.478 58.3615C107.295 58.4658 108.152 58.2804 108.98 58.234C109.131 58.2282 109.281 58.2166 109.432 58.2051V19.4057C109.432 17.6152 108.019 16.1608 106.281 16.1608H57.1569C55.4192 16.1608 54.0058 17.6152 54.0058 19.4057V104.89C54.0058 106.681 55.4192 108.135 57.1569 108.135H106.281C108.019 108.135 109.432 106.681 109.432 104.89V81.7594C109.16 81.8173 108.887 81.8694 108.609 81.9332Z" fill="url(#paint4_linear_1_83)"/>
<path d="M88.7769 13.8486H76.1092C75.2404 13.8486 74.5338 13.1417 74.5338 12.2725C74.5338 11.4034 75.2404 10.6964 76.1092 10.6964H88.7769C89.6457 10.6964 90.3524 11.4034 90.3524 12.2725C90.3582 13.1417 89.6516 13.8486 88.7769 13.8486Z" fill="url(#paint5_linear_1_83)"/>
<path d="M71.6201 13.8486C71.2088 13.8486 70.7976 13.6806 70.508 13.3851C70.4327 13.3098 70.369 13.2344 70.3111 13.1475C70.2531 13.0606 70.201 12.9678 70.1663 12.8752C70.1258 12.7824 70.091 12.6781 70.0736 12.5796C70.0504 12.4812 70.0447 12.3768 70.0447 12.2725C70.0447 12.1682 70.0562 12.0639 70.0736 11.9654C70.091 11.8669 70.1258 11.7684 70.1663 11.67C70.2068 11.5772 70.2531 11.4845 70.3111 11.3976C70.369 11.3106 70.4327 11.2296 70.508 11.16C70.8034 10.8645 71.2088 10.6964 71.6201 10.6964C72.0372 10.6964 72.4426 10.8645 72.738 11.16C72.8133 11.2353 72.877 11.3165 72.935 11.3976C72.9929 11.4845 73.0392 11.5772 73.0797 11.67C73.1203 11.7684 73.1492 11.8669 73.1725 11.9654C73.1898 12.0639 73.2014 12.1682 73.2014 12.2725C73.2014 12.371 73.1898 12.4753 73.1725 12.5796C73.1492 12.6781 73.1203 12.7824 73.0797 12.8752C73.0392 12.9678 72.9929 13.0606 72.935 13.1475C72.877 13.2344 72.8133 13.3155 72.738 13.3851C72.4426 13.6748 72.0372 13.8486 71.6201 13.8486Z" fill="url(#paint6_linear_1_83)"/>
<path d="M30.669 134.673C29.8001 134.673 29.0935 133.967 29.0935 133.098V59.6592C29.0935 57.4225 30.9122 55.6031 33.148 55.6031C43.4872 55.6031 51.8975 64.0166 51.8975 74.3597V101.559C51.8975 102.428 51.1909 103.135 50.3221 103.135C49.4532 103.135 48.7466 102.428 48.7466 101.559V74.3597C48.7466 65.7549 41.7495 58.761 33.1538 58.761C32.6615 58.761 32.256 59.1609 32.256 59.6592V133.092C32.2502 133.967 31.5436 134.673 30.669 134.673Z" fill="url(#paint7_linear_1_83)"/>
<path d="M47.1481 96.216C52.3206 100.748 55.5874 107.405 55.5874 114.822C55.5874 118.861 54.6201 122.673 52.8998 126.04H44.9644V96.2108H47.1481V96.216Z" fill="white"/>
<path d="M52.8999 127.628C52.6567 127.628 52.4134 127.57 52.1817 127.454C51.4055 127.06 51.0986 126.11 51.4924 125.333C53.1606 122.065 54.0062 118.531 54.0062 114.828C54.0062 108.159 51.1275 101.808 46.1056 97.41C45.4511 96.8366 45.3816 95.8398 45.9608 95.1849C46.5343 94.53 47.5305 94.4666 48.185 95.04C53.8904 100.041 57.1573 107.255 57.1573 114.834C57.1573 119.035 56.1957 123.051 54.3017 126.771C54.0294 127.309 53.4734 127.628 52.8999 127.628Z" fill="url(#paint8_linear_1_83)"/>
<path d="M41.2051 74.1859H30.669C29.8001 74.1859 29.0935 73.479 29.0935 72.6098V62.0755C29.0935 61.2064 29.8001 60.4995 30.669 60.4995C37.3474 60.4995 42.7805 65.9347 42.7805 72.6156C42.7805 73.479 42.0739 74.1859 41.2051 74.1859ZM32.2502 71.0279H39.4848C38.8302 67.3485 35.9225 64.4455 32.2502 63.7849V71.0279Z" fill="url(#paint9_linear_1_83)"/>
<path d="M99.4286 95.5732C99.0232 92.0734 101.537 88.9097 105.036 88.5043L113.579 87.5186C117.078 87.1132 120.24 89.628 120.645 93.1277C121.051 96.6274 118.538 99.7912 115.039 100.197L106.496 101.182C102.997 101.588 99.8289 99.0729 99.4286 95.5732Z" fill="white"/>
<path d="M105.748 102.805C103.964 102.805 102.238 102.207 100.819 101.078C99.1569 99.7569 98.1026 97.8677 97.8591 95.7532C97.3551 91.3955 100.495 87.438 104.85 86.934L113.394 85.9483C117.755 85.4446 121.706 88.5849 122.21 92.9426C122.714 97.3003 119.574 101.258 115.218 101.762L106.675 102.747C106.362 102.787 106.055 102.805 105.748 102.805ZM100.993 95.3932C101.138 96.6686 101.775 97.8095 102.777 98.604C103.779 99.4029 105.036 99.7569 106.31 99.612L114.854 98.6272C117.483 98.3255 119.377 95.9383 119.07 93.3077C118.769 90.6772 116.383 88.782 113.753 89.0889L105.209 90.0746C102.585 90.3755 100.691 92.7626 100.993 95.3932Z" fill="url(#paint10_linear_1_83)"/>
<path d="M105.818 98.3657C104.364 98.3657 103.107 97.2711 102.939 95.7934L102.794 94.5531C102.707 93.7825 102.921 93.0239 103.402 92.4154C103.883 91.8068 104.572 91.4245 105.343 91.3371L106.015 91.2625C106.785 91.1751 107.544 91.3894 108.152 91.8702C108.76 92.3511 109.143 93.0411 109.229 93.8117L109.374 95.0519C109.461 95.8225 109.246 96.5811 108.765 97.1897C108.285 97.7982 107.595 98.1805 106.826 98.2679L106.154 98.3425C106.043 98.3605 105.933 98.3657 105.818 98.3657ZM105.528 92.9074C105.175 92.9485 104.862 93.1225 104.642 93.4002C104.421 93.6779 104.323 94.0199 104.364 94.3739L104.509 95.6134C104.589 96.3377 105.25 96.8597 105.974 96.7782L106.646 96.7028C106.999 96.6625 107.312 96.4885 107.532 96.2108C107.752 95.9322 107.851 95.5902 107.81 95.2371L107.666 93.9968C107.625 93.6437 107.451 93.3308 107.173 93.1105C106.895 92.8902 106.547 92.7917 106.2 92.8328L105.528 92.9074Z" fill="url(#paint11_linear_1_83)"/>
<path d="M86.906 148.604C86.4657 148.604 86.0255 148.419 85.7127 148.059C85.1451 147.399 85.2146 146.402 85.8749 145.834C93.0111 139.652 98.2706 131.649 101.091 122.697C101.352 121.863 102.238 121.405 103.072 121.665C103.906 121.926 104.364 122.813 104.103 123.647C101.109 133.161 95.5251 141.662 87.9428 148.227C87.6357 148.476 87.2709 148.604 86.906 148.604Z" fill="url(#paint12_linear_1_83)"/>
<path d="M81.7161 110.001C79.4861 110.001 77.6732 111.815 77.6732 114.045C77.6732 116.277 79.4803 118.09 81.7161 118.09C83.9462 118.09 85.7591 116.283 85.7591 114.045C85.7591 111.809 83.9519 110.001 81.7161 110.001Z" fill="url(#paint13_linear_1_83)"/>
<path d="M74.7133 150C63.0535 150 51.4632 147.166 41.1992 141.807C31.2655 136.621 22.5308 129.065 15.9392 119.967C15.4296 119.26 15.5859 118.275 16.2926 117.765C16.9993 117.255 17.9839 117.412 18.4937 118.119C31.5205 136.111 52.5405 146.848 74.7133 146.848C84.0793 146.848 93.1671 145.011 101.717 141.395C102.522 141.053 103.443 141.43 103.785 142.235C104.127 143.041 103.749 143.962 102.945 144.304C94.0071 148.082 84.5079 150 74.7133 150Z" fill="#D2EDFF"/>
<path d="M70.4966 85.033C70.3576 85.2011 70.1606 85.3112 69.929 85.3344C69.4656 85.3807 69.0543 85.0389 69.0138 84.5811L68.5794 79.5748C68.533 79.1112 68.8748 78.6998 69.3324 78.6592C69.7958 78.6129 70.207 78.9547 70.2475 79.4125L70.682 84.4189C70.7052 84.6507 70.6357 84.8708 70.4966 85.033Z" fill="#D2EDFF"/>
<path d="M66.3087 78.6013L62.6711 82.7038C62.3584 83.0514 61.8313 83.0746 61.4837 82.7675C61.1362 82.4604 61.113 81.9274 61.42 81.5797L65.0576 77.4772C65.3703 77.1296 65.8974 77.1064 66.245 77.4135C66.5925 77.7264 66.6214 78.2595 66.3087 78.6013Z" fill="#D2EDFF"/>
<path d="M95.3683 43.7943C94.9688 43.9507 94.5231 43.7538 94.3663 43.3539L93.0806 39.0371C92.924 38.6372 93.1208 38.1911 93.5203 38.0346C93.9206 37.8782 94.3663 38.0752 94.5231 38.475L95.8088 42.7919C95.9648 43.1916 95.7677 43.6436 95.3683 43.7943Z" fill="#F6A0A2"/>
<path d="M99.8229 43.5508C99.6429 43.6377 99.4346 43.661 99.2323 43.5972C98.8269 43.4639 98.6066 43.0236 98.7394 42.618L100.153 38.2605C100.287 37.8549 100.726 37.6347 101.132 37.768C101.537 37.9013 101.757 38.3417 101.625 38.7473L100.211 43.1047C100.142 43.3075 99.9969 43.4639 99.8229 43.5508Z" fill="#F6A0A2"/>
<path d="M76.677 68.3277L69.257 65.894C68.4288 65.6217 67.5657 65.7144 66.8475 66.0853L76.0456 69.0984L76.677 68.3277Z" fill="#F05E53"/>
<path d="M78.3971 69.8747L79.0342 69.0983L76.6767 68.3276L76.0396 69.0983L78.3971 69.8747Z" fill="#F05E53"/>
<path d="M98.0674 49.5768L98.7274 48.7772C98.994 48.4527 99.3128 48.1978 99.6548 48.0124C98.7103 47.4966 97.5805 47.514 96.66 48.0124C96.834 48.105 97.002 48.2152 97.158 48.3426C97.5694 48.6845 97.8763 49.1133 98.0674 49.5768Z" fill="white"/>
<path d="M77.8933 76.3182L78.4783 76.5094C78.8026 76.6137 79.127 76.6659 79.4571 76.6659C79.9553 76.6659 80.4476 76.5442 80.8879 76.3182L78.791 75.6287C78.5304 75.9184 78.2292 76.1444 77.8933 76.3182Z" fill="#F05E53"/>
<path d="M66.8417 66.0853L66.2567 65.894C65.4284 65.6217 64.5653 65.7144 63.8471 66.0853L65.9497 66.7748C66.2045 66.4909 66.5115 66.2591 66.8417 66.0853Z" fill="#F05E53"/>
<path d="M78.791 75.6285L67.2992 71.8622C65.6541 71.3233 64.7564 69.5502 65.295 67.8988C65.434 67.4643 65.6657 67.0876 65.9495 66.7747L63.8469 66.0852C63.1345 66.4503 62.5669 67.0818 62.2946 67.8988C61.7559 69.5445 62.6537 71.3233 64.2987 71.8622L77.8874 76.3181C78.2291 76.1443 78.5303 75.9183 78.791 75.6285Z" fill="white"/>
<path d="M65.9493 66.7748L75.4023 69.8748L76.0395 69.1042L66.8414 66.0911C66.5112 66.2591 66.2043 66.4909 65.9493 66.7748Z" fill="#F05E53"/>
<path d="M97.9054 47.7632C96.1508 48.0414 95.0091 49.3161 94.158 50.7822C93.486 50.9617 92.8894 51.4427 92.6056 52.2828C92.0785 53.8648 91.424 56.2926 90.0975 57.4225C89.3793 58.0309 88.5568 58.2685 87.9254 59.0218C87.5895 59.4274 87.352 59.9604 87.074 60.4414C86.657 60.6964 86.2631 60.9861 85.875 61.3279C85.3479 61.7857 85.151 62.4695 85.2205 63.1358C84.7687 63.6052 84.311 64.0687 83.8592 64.5323C83.3843 64.8278 82.9904 65.245 82.7008 65.8186C82.5386 66.1489 82.4576 66.4792 82.446 66.7979C81.525 67.8988 80.5172 68.8722 79.2661 69.7182C79.0112 69.8921 78.7795 70.0833 78.5709 70.2919C78.5131 70.2745 78.4609 70.263 78.3972 70.2514C74.1572 69.5213 69.9985 68.3276 66.0597 66.5892C64.9244 66.091 63.5922 66.259 62.9145 67.4121C62.3411 68.3914 62.5959 70.0543 63.737 70.5585C67.4035 72.1809 71.18 73.4382 75.0898 74.2785C75.5937 74.9274 76.3873 75.3446 77.2909 75.1361C77.5862 75.2461 77.8759 75.4258 78.1713 75.5474C78.791 75.8082 79.3819 75.9414 80.0595 75.9473C81.6583 75.9647 82.4807 74.5334 82.2606 73.2413C82.446 73.1254 82.6313 73.0095 82.8051 72.8762C83.4944 72.3663 84.1489 71.81 84.7397 71.19C85.846 70.0312 86.7902 68.7158 87.7285 67.4179C87.8502 67.244 87.9428 67.0586 87.995 66.8674C89.0839 65.7375 90.167 64.6018 91.227 63.4371C91.7078 62.9099 91.8816 62.2667 91.8352 61.6524C92.1885 61.4381 92.6056 61.27 92.9068 61.0382C93.654 60.453 94.2677 59.6997 94.7888 58.8595C95.0323 58.8711 95.2988 58.848 95.5774 58.7668C97.1348 58.3322 98.2414 56.733 99.1046 55.4524C100.02 54.0966 100.958 52.3235 101.167 50.6836C101.415 48.7367 99.7706 47.4678 97.9054 47.7632Z" fill="#D2EDFF"/>
<path d="M79.4629 77.8189C79.0111 77.8189 78.5593 77.7494 78.1249 77.6045L63.9455 72.9574C61.6982 72.2215 60.4644 69.7937 61.2058 67.5396C61.9414 65.2914 64.3683 64.063 66.6215 64.7989L78.0091 68.5305L94.8411 48.0414C95.5714 47.1549 96.5965 46.6044 97.7374 46.4944C98.8783 46.3842 99.9968 46.7203 100.882 47.4504C102.707 48.9512 102.974 51.6629 101.474 53.494L82.7761 76.2486C81.9594 77.2453 80.7488 77.8189 79.4629 77.8189ZM65.2835 66.8907C64.4494 66.8907 63.6675 67.4237 63.3952 68.2582C63.0535 69.3011 63.6211 70.4253 64.6638 70.7671L78.8432 75.4143C79.0459 75.478 79.2544 75.5128 79.4629 75.5128C80.0595 75.5128 80.6214 75.2462 80.9979 74.7885L99.6951 52.0338C100.39 51.1878 100.269 49.9304 99.4234 49.2351C99.012 48.899 98.496 48.7426 97.9688 48.7947C97.4417 48.8469 96.9617 49.1018 96.6257 49.5132L79.295 70.6107C78.9937 70.9757 78.4957 71.1206 78.0439 70.9757L65.9033 66.995C65.6947 66.9196 65.492 66.8907 65.2835 66.8907Z" fill="url(#paint14_linear_1_83)"/>
<path d="M141.509 10.8935C135.399 12.0582 134.356 13.3967 133.447 21.2075C133.418 21.4394 133.157 21.4394 133.128 21.2075C132.219 13.3967 131.17 12.0639 125.066 10.8935C124.886 10.8587 124.886 10.5226 125.066 10.4879C131.176 9.32323 132.219 7.98471 133.128 0.173833C133.157 -0.0579442 133.418 -0.0579442 133.447 0.173833C134.356 7.98471 135.405 9.3174 141.509 10.4879C141.689 10.5226 141.689 10.8587 141.509 10.8935Z" fill="#D2EDFF"/>
<path d="M17.7581 89.2568C13.8889 89.9408 13.217 90.7748 12.574 95.7008C12.5567 95.8457 12.3887 95.8457 12.3713 95.7008C11.8616 90.7577 11.2187 89.9057 7.36682 89.118C7.25097 89.0948 7.25677 88.8806 7.37261 88.8634C11.2418 88.1794 11.9137 87.3446 12.5567 82.4197C12.574 82.2748 12.742 82.2748 12.7594 82.4197C13.2691 87.3626 13.9121 88.2137 17.7639 89.0023C17.8797 89.0194 17.874 89.2337 17.7581 89.2568Z" fill="#D2EDFF"/>
<path d="M37.7414 34.0828C31.3177 35.1548 30.223 36.3716 29.2846 43.4756C29.2556 43.6899 28.9777 43.6899 28.9487 43.4756C27.9756 36.3774 26.875 35.1664 20.4457 34.1234C20.2545 34.0944 20.2545 33.7873 20.4457 33.7526C26.8693 32.6805 27.964 31.4637 28.9023 24.3598C28.9313 24.1454 29.2093 24.1454 29.2383 24.3598C30.2113 31.458 31.3119 32.669 37.7414 33.712C37.9325 33.7467 37.9325 34.0538 37.7414 34.0828Z" fill="#D2EDFF"/>
<path d="M106.959 83.0918C104.133 82.9933 101.757 80.7857 101.52 77.8943C101.398 76.3877 101.867 74.9275 102.846 73.7744C103.826 72.6213 105.192 71.9202 106.698 71.7985L112.67 71.3176C114.176 71.1959 115.635 71.6652 116.788 72.6445C117.941 73.6238 118.642 74.9912 118.763 76.4978C118.885 78.0043 118.416 79.4646 117.437 80.6177C116.458 81.7707 115.091 82.4718 113.585 82.5936L107.613 83.0745C107.387 83.0976 107.173 83.1035 106.959 83.0918ZM113.238 73.7223C113.116 73.7165 112.989 73.7223 112.867 73.7339L106.895 74.2148C106.032 74.2843 105.25 74.6842 104.694 75.3447C104.133 76.0053 103.866 76.8396 103.935 77.703C104.08 79.482 105.644 80.8088 107.422 80.6698L113.394 80.1888C115.173 80.044 116.499 78.4795 116.36 76.7006C116.215 75.0434 114.86 73.7802 113.238 73.7223Z" fill="url(#paint15_linear_1_83)"/>
<path d="M107.069 80.044C106.582 80.0266 106.119 79.847 105.742 79.5283C105.303 79.1517 105.03 78.6302 104.984 78.0507L104.92 77.2743C104.874 76.6949 105.053 76.1328 105.429 75.6924C105.807 75.252 106.328 74.9797 106.907 74.9334L107.271 74.9044C107.851 74.858 108.413 75.0377 108.853 75.4143C109.293 75.7909 109.565 76.3124 109.611 76.8918L109.676 77.6683C109.774 78.862 108.882 79.9107 107.689 80.0093L107.324 80.0382C107.237 80.044 107.156 80.044 107.069 80.044ZM107.486 76.1038C107.451 76.1038 107.411 76.1038 107.376 76.1038L107.006 76.1328C106.75 76.156 106.519 76.2719 106.351 76.4688C106.183 76.6659 106.101 76.915 106.125 77.17L106.189 77.9465C106.212 78.2014 106.328 78.4332 106.525 78.6012C106.721 78.7692 106.971 78.8503 107.225 78.8272L107.59 78.7982C107.845 78.7751 108.077 78.6592 108.245 78.4621C108.413 78.2652 108.494 78.016 108.471 77.761L108.407 76.9846C108.384 76.7296 108.268 76.4978 108.071 76.3298C107.909 76.1907 107.706 76.1154 107.486 76.1038Z" fill="url(#paint16_linear_1_83)"/>
<path d="M107.567 70.4196C106.154 70.3732 104.804 69.8517 103.709 68.9188C102.429 67.8294 101.647 66.2997 101.508 64.6251C101.375 62.9448 101.896 61.3165 102.991 60.0301C104.08 58.7496 105.609 57.9673 107.283 57.8283L114.129 57.272C115.809 57.1387 117.437 57.6602 118.723 58.7554C120.003 59.8447 120.785 61.3745 120.924 63.0491C121.057 64.7294 120.536 66.3577 119.441 67.6441C118.352 68.9246 116.823 69.7069 115.149 69.8459L108.303 70.4022C108.053 70.4196 107.81 70.4253 107.567 70.4196ZM103.917 64.4281C103.999 65.4654 104.486 66.404 105.273 67.0762C106.061 67.7484 107.068 68.0728 108.105 67.9917L114.952 67.4354C115.989 67.3543 116.927 66.8676 117.599 66.0795C118.271 65.2857 118.595 64.2833 118.515 63.2461C118.433 62.2088 117.946 61.2702 117.159 60.598C116.371 59.9258 115.363 59.6014 114.327 59.6825L107.48 60.2388C106.443 60.3199 105.505 60.8066 104.833 61.5947C104.161 62.3885 103.837 63.3909 103.917 64.4281Z" fill="url(#paint17_linear_1_83)"/>
<path d="M108.047 67.3949C106.536 67.3427 105.261 66.1607 105.14 64.6136L105.093 64.0458C104.961 62.3827 106.2 60.9168 107.868 60.7835C108.673 60.7197 109.455 60.9689 110.075 61.4962C110.689 62.0177 111.065 62.7535 111.129 63.559L111.176 64.1268C111.309 65.7899 110.069 67.2558 108.401 67.3891C108.279 67.3949 108.164 67.4007 108.047 67.3949ZM107.961 61.9945C106.965 62.0756 106.217 62.9563 106.299 63.953L106.345 64.5209C106.425 65.5175 107.307 66.265 108.303 66.1838C109.299 66.1027 110.046 65.222 109.965 64.2253L109.918 63.6575C109.878 63.1708 109.652 62.7362 109.287 62.4175C108.916 62.1046 108.447 61.9539 107.961 61.9945Z" fill="url(#paint18_linear_1_83)"/>
</g>
<defs>
<linearGradient id="paint0_linear_1_83" x1="97.8036" y1="29.1494" x2="139.021" y2="59.6978" gradientUnits="userSpaceOnUse">
<stop stop-color="#16A7DD"/>
<stop offset="0.453013" stop-color="#3492B5"/>
<stop offset="1" stop-color="#8BBCCE"/>
</linearGradient>
<linearGradient id="paint1_linear_1_83" x1="111.54" y1="67.4529" x2="115.842" y2="68.3477" gradientUnits="userSpaceOnUse">
<stop stop-color="#16A7DD"/>
<stop offset="0.453013" stop-color="#3492B5"/>
<stop offset="1" stop-color="#8BBCCE"/>
</linearGradient>
<linearGradient id="paint2_linear_1_83" x1="48.7349" y1="2.69446" x2="137.772" y2="23.2552" gradientUnits="userSpaceOnUse">
<stop stop-color="#16A7DD"/>
<stop offset="0.453013" stop-color="#3492B5"/>
<stop offset="1" stop-color="#8BBCCE"/>
</linearGradient>
<linearGradient id="paint3_linear_1_83" x1="106.269" y1="67.6151" x2="110.571" y2="68.5106" gradientUnits="userSpaceOnUse">
<stop stop-color="#16A7DD"/>
<stop offset="0.453013" stop-color="#3492B5"/>
<stop offset="1" stop-color="#8BBCCE"/>
</linearGradient>
<linearGradient id="paint4_linear_1_83" x1="54.0058" y1="16.1608" x2="128.029" y2="34.9771" gradientUnits="userSpaceOnUse">
<stop stop-color="#16A7DD"/>
<stop offset="0.453013" stop-color="#3492B5"/>
<stop offset="1" stop-color="#8BBCCE"/>
</linearGradient>
<linearGradient id="paint5_linear_1_83" x1="74.5338" y1="10.6964" x2="78.6375" y2="19.383" gradientUnits="userSpaceOnUse">
<stop stop-color="#16A7DD"/>
<stop offset="0.453013" stop-color="#3492B5"/>
<stop offset="1" stop-color="#8BBCCE"/>
</linearGradient>
<linearGradient id="paint6_linear_1_83" x1="70.0447" y1="10.6964" x2="73.8534" y2="12.3053" gradientUnits="userSpaceOnUse">
<stop stop-color="#16A7DD"/>
<stop offset="0.453013" stop-color="#3492B5"/>
<stop offset="1" stop-color="#8BBCCE"/>
</linearGradient>
<linearGradient id="paint7_linear_1_83" x1="29.0935" y1="55.6031" x2="61.0437" y2="59.4899" gradientUnits="userSpaceOnUse">
<stop stop-color="#16A7DD"/>
<stop offset="0.453013" stop-color="#3492B5"/>
<stop offset="1" stop-color="#8BBCCE"/>
</linearGradient>
<linearGradient id="paint8_linear_1_83" x1="45.5671" y1="94.6486" x2="61.6918" y2="97.0389" gradientUnits="userSpaceOnUse">
<stop stop-color="#16A7DD"/>
<stop offset="0.453013" stop-color="#3492B5"/>
<stop offset="1" stop-color="#8BBCCE"/>
</linearGradient>
<linearGradient id="paint9_linear_1_83" x1="29.0935" y1="60.4995" x2="45.6141" y2="67.4685" gradientUnits="userSpaceOnUse">
<stop stop-color="#16A7DD"/>
<stop offset="0.453013" stop-color="#3492B5"/>
<stop offset="1" stop-color="#8BBCCE"/>
</linearGradient>
<linearGradient id="paint10_linear_1_83" x1="97.806" y1="85.8953" x2="123.147" y2="101.355" gradientUnits="userSpaceOnUse">
<stop stop-color="#16A7DD"/>
<stop offset="0.453013" stop-color="#3492B5"/>
<stop offset="1" stop-color="#8BBCCE"/>
</linearGradient>
<linearGradient id="paint11_linear_1_83" x1="102.775" y1="91.2434" x2="110.931" y2="94.4402" gradientUnits="userSpaceOnUse">
<stop stop-color="#16A7DD"/>
<stop offset="0.453013" stop-color="#3492B5"/>
<stop offset="1" stop-color="#8BBCCE"/>
</linearGradient>
<linearGradient id="paint12_linear_1_83" x1="85.3292" y1="121.592" x2="109.99" y2="128.851" gradientUnits="userSpaceOnUse">
<stop stop-color="#16A7DD"/>
<stop offset="0.453013" stop-color="#3492B5"/>
<stop offset="1" stop-color="#8BBCCE"/>
</linearGradient>
<linearGradient id="paint13_linear_1_83" x1="77.6732" y1="110.001" x2="87.4343" y2="114.117" gradientUnits="userSpaceOnUse">
<stop stop-color="#16A7DD"/>
<stop offset="0.453013" stop-color="#3492B5"/>
<stop offset="1" stop-color="#8BBCCE"/>
</linearGradient>
<linearGradient id="paint14_linear_1_83" x1="60.9902" y1="46.4739" x2="105.942" y2="71.551" gradientUnits="userSpaceOnUse">
<stop stop-color="#16A7DD"/>
<stop offset="0.453013" stop-color="#3492B5"/>
<stop offset="1" stop-color="#8BBCCE"/>
</linearGradient>
<linearGradient id="paint15_linear_1_83" x1="101.501" y1="71.2987" x2="119.284" y2="82.285" gradientUnits="userSpaceOnUse">
<stop stop-color="#16A7DD"/>
<stop offset="0.453013" stop-color="#3492B5"/>
<stop offset="1" stop-color="#8BBCCE"/>
</linearGradient>
<linearGradient id="paint16_linear_1_83" x1="104.913" y1="74.8972" x2="110.796" y2="77.1971" gradientUnits="userSpaceOnUse">
<stop stop-color="#16A7DD"/>
<stop offset="0.453013" stop-color="#3492B5"/>
<stop offset="1" stop-color="#8BBCCE"/>
</linearGradient>
<linearGradient id="paint17_linear_1_83" x1="101.488" y1="57.2516" x2="121.414" y2="69.6686" gradientUnits="userSpaceOnUse">
<stop stop-color="#16A7DD"/>
<stop offset="0.453013" stop-color="#3492B5"/>
<stop offset="1" stop-color="#8BBCCE"/>
</linearGradient>
<linearGradient id="paint18_linear_1_83" x1="105.084" y1="60.7737" x2="112.621" y2="63.7026" gradientUnits="userSpaceOnUse">
<stop stop-color="#16A7DD"/>
<stop offset="0.453013" stop-color="#3492B5"/>
<stop offset="1" stop-color="#8BBCCE"/>
</linearGradient>
<clipPath id="clip0_1_83">
<rect width="135.429" height="150" fill="white" transform="translate(7.28571)"/>
</clipPath>
</defs>
</svg>
