<svg width="151" height="150" viewBox="0 0 151 150" fill="none" xmlns="http://www.w3.org/2000/svg">
<g clip-path="url(#clip0_21_149)">
<path d="M58.3963 90.3105C76.0459 90.3105 90.3543 76.0025 90.3543 58.3526C90.3543 40.7028 76.0459 26.3948 58.3963 26.3948C40.7464 26.3948 26.4383 40.7028 26.4383 58.3526C26.4383 76.0025 40.7464 90.3105 58.3963 90.3105Z" fill="white"/>
<path d="M61.3401 92.138C78.5575 92.138 92.5149 78.1806 92.5149 60.9633C92.5149 43.746 78.5575 29.7886 61.3401 29.7886C44.1228 29.7886 30.1653 43.746 30.1653 60.9633C30.1653 78.1806 44.1228 92.138 61.3401 92.138Z" fill="#D2EDFF"/>
<path d="M22.2252 58.3526C22.2252 58.5147 22.2297 58.6767 22.2343 58.8343L22.2433 59.1403C22.2793 60.8372 22.4368 62.5296 22.7114 64.1726C25.5606 81.3398 40.2612 93.7989 57.6716 93.7989C77.2156 93.7989 93.1178 77.8964 93.1178 58.3526C93.1178 39.8395 78.6602 24.3152 60.2012 23.0054C59.2335 22.9379 58.4323 22.9064 57.6716 22.9064C56.9109 22.9064 56.1097 22.9379 55.1465 23.0054C36.6874 24.3152 22.2252 39.8395 22.2252 58.3526ZM55.9882 27.1644C56.5778 27.1329 57.1315 27.1194 57.6761 27.1194C58.7789 27.1194 59.9222 27.1824 61.0699 27.3085C76.9407 29.0324 88.9097 42.3781 88.9097 58.3571C88.9097 75.5784 74.8976 89.5903 57.6761 89.5903C42.9079 89.5903 30.0392 79.0982 27.0775 64.6361C26.7444 63.0113 26.5418 61.3143 26.4743 59.5949C26.4563 59.1853 26.4428 58.7712 26.4428 58.3571C26.4383 41.748 39.4195 28.0511 55.9882 27.1644Z" fill="url(#paint0_linear_21_149)"/>
<path d="M66.2914 64.7757C65.4272 64.7757 64.7295 65.4779 64.7295 66.342C64.7475 67.2783 64.4234 68.192 63.8203 68.9167C62.7265 70.186 61.0881 70.8792 59.4182 70.7667C56.776 70.6541 54.4489 68.9752 53.4992 66.4951L53.2741 65.9055H58.3019C59.1661 65.9055 59.8638 65.2033 59.8638 64.3391C59.8638 63.4749 59.1616 62.7772 58.3019 62.7772H52.2974L52.2344 62.4216C52.0003 61.0803 51.8788 59.712 51.8743 58.3526V57.9205H58.3019C59.1661 57.9205 59.8638 57.2183 59.8638 56.3586C59.8638 55.4989 59.1616 54.7922 58.3019 54.7922H52.1488L52.2344 54.2836C53.1346 49.0623 55.8263 45.9431 59.4272 45.9341C61.0926 45.835 62.7265 46.5192 63.8113 47.7795C64.4189 48.5087 64.743 49.4269 64.725 50.3676C64.725 51.2229 65.4272 51.925 66.2869 51.925C67.1511 51.925 67.8533 51.2229 67.8533 50.3631C67.8713 48.7473 67.3266 47.1673 66.3139 45.9115C64.6575 43.859 62.1009 42.6932 59.4587 42.8103C55.1646 42.8103 50.1774 45.862 49.0026 54.4186L48.9531 54.7922H46.3154C45.4512 54.7922 44.7535 55.4944 44.7535 56.3586C44.7535 57.2229 45.4557 57.9205 46.3154 57.9205H48.7461V58.3526C48.7415 59.6624 48.8315 60.9857 49.0026 62.2866L49.0701 62.7772H46.3154C45.4512 62.7772 44.7535 63.4793 44.7535 64.3391C44.7535 65.1988 45.4557 65.9055 46.3154 65.9055H49.8803L49.9613 66.2295C51.0731 70.5731 54.9756 73.7239 59.4542 73.8949C62.0873 74.0119 64.6575 72.8462 66.3139 70.7891C67.3222 69.5333 67.8668 67.9535 67.8488 66.342C67.8533 65.4779 67.1511 64.7757 66.2914 64.7757Z" fill="url(#paint1_linear_21_149)"/>
<path d="M117.888 44.7818C117.379 44.7368 116.988 44.3047 117.001 43.7915C117.325 33.4885 109.484 24.6529 99.1001 23.8472C96.3905 23.6356 93.6624 24.0002 91.1013 24.9094C90.1068 25.265 89.5888 26.3588 89.9449 27.3535C90.3003 28.3483 91.3939 28.8659 92.3885 28.5103C94.504 27.7496 96.7636 27.4615 99.0055 27.6731C107.153 28.3528 113.301 35.2259 113.197 43.2829C113.188 43.8546 112.693 44.2957 112.126 44.2417L107.612 43.8231C106.788 43.7465 106.248 44.6648 106.716 45.3489L113.328 54.9634C113.674 55.4674 114.39 55.5305 114.823 55.1029L123.087 46.8658C123.671 46.2806 123.311 45.2769 122.488 45.2004L117.888 44.7818Z" fill="url(#paint2_linear_21_149)"/>
<path d="M29.4722 105.592C29.9808 105.646 30.3634 106.082 30.3364 106.591C29.8368 116.89 37.5247 125.86 47.8953 126.837C50.6049 127.094 53.3327 126.779 55.9118 125.91C56.9111 125.572 57.4512 124.487 57.1091 123.488C56.7715 122.489 55.6868 121.948 54.6875 122.291C52.5585 123.015 50.2944 123.263 48.0573 123.015C39.9193 122.201 33.8878 115.22 34.1354 107.163C34.1533 106.595 34.653 106.159 35.2201 106.222L39.7347 106.717C40.554 106.807 41.1076 105.898 40.653 105.209L34.2029 95.4733C33.8653 94.9646 33.1541 94.8881 32.713 95.3112L24.3004 103.414C23.7062 103.985 24.0484 104.993 24.872 105.083L29.4722 105.592Z" fill="url(#paint3_linear_21_149)"/>
<path d="M91.4523 124.091C109.103 124.091 123.41 109.784 123.41 92.1336C123.41 74.4837 109.103 60.1757 91.4523 60.1757C73.8028 60.1757 59.4947 74.4837 59.4947 92.1336C59.4947 109.784 73.8028 124.091 91.4523 124.091Z" fill="white"/>
<path d="M93.1407 124.096C109.861 124.096 123.415 110.542 123.415 93.8214C123.415 77.1013 109.861 63.5469 93.1407 63.5469C76.4205 63.5469 62.866 77.1013 62.866 93.8214C62.866 110.542 76.4205 124.096 93.1407 124.096Z" fill="#D2EDFF"/>
<path d="M55.7676 91.6473C55.7676 91.8094 55.7721 91.9714 55.7766 92.1289L55.7856 92.435C55.8216 94.1319 55.9792 95.8243 56.2537 97.4675C59.103 114.635 73.8037 127.094 91.2136 127.094C110.758 127.094 126.66 111.191 126.66 91.6473C126.66 73.1343 112.203 57.6099 93.7437 56.3001C92.7757 56.2326 91.9747 56.201 91.2136 56.201C90.4533 56.201 89.6523 56.2326 88.6888 56.3001C70.2252 57.6099 55.7676 73.1343 55.7676 91.6473ZM89.526 60.4636C90.1156 60.4322 90.6691 60.4186 91.2136 60.4186C92.3169 60.4186 93.46 60.4817 94.6075 60.6077C110.479 62.3316 122.448 75.6774 122.448 91.6563C122.448 108.878 108.436 122.89 91.2136 122.89C76.4457 122.89 63.5771 112.397 60.6153 97.9352C60.2822 96.3105 60.0797 94.6135 60.0122 92.8941C59.9942 92.4845 59.9807 92.0704 59.9807 91.6563C59.9807 75.0473 72.9575 61.3458 89.526 60.4636Z" fill="url(#paint4_linear_21_149)"/>
<path d="M92.857 109.751C92.9109 109.751 92.9649 109.746 93.0188 109.737C93.7526 109.643 94.2971 109.013 94.2883 108.27L94.2476 105.889L94.572 105.844C100.329 105.03 104.429 101.172 103.907 97.067C103.322 92.4981 99.0099 91.0667 94.2609 89.9009L93.9824 89.8334L93.8287 80.6241L94.2255 80.6422C95.724 80.7142 97.0607 81.6594 97.6326 83.0458L97.6548 83.1403C97.7043 83.5274 97.9023 83.8695 98.209 84.1081C98.5149 84.3466 98.9021 84.4501 99.2841 84.4006C100.081 84.2971 100.644 83.5679 100.545 82.7712C99.8287 79.8455 97.1915 77.73 94.1398 77.6714L93.7843 77.6624L93.7437 75.2183C93.7297 74.4171 93.0683 73.7735 92.2673 73.787H92.2629C92.2629 73.787 92.2629 73.787 92.2585 73.787C91.4612 73.823 90.8361 74.4711 90.8361 75.2723L90.876 77.6489L90.5523 77.694C85.3082 78.4367 82.1353 81.6459 82.6481 85.6789C83.1166 89.3248 86.2585 90.8597 90.8405 92.048L91.1146 92.12L91.2905 102.972L90.9166 102.977C88.657 102.995 86.6095 101.586 85.8218 99.4706L85.8033 99.3894C85.7538 99.0022 85.5558 98.6601 85.2499 98.4214C84.975 98.2101 84.638 98.1022 84.2959 98.1199C84.2553 98.1199 84.2146 98.1243 84.174 98.1288C83.7868 98.1783 83.4447 98.3763 83.2067 98.683C82.9681 98.9889 82.8646 99.3716 82.9141 99.7581C83.8274 103.431 87.1407 105.979 90.9661 105.916L91.3356 105.911L91.3762 108.333C91.3939 109.121 92.0553 109.764 92.857 109.751ZM94.0363 92.8357L94.5085 92.9617C98.4018 93.9925 100.716 95.0502 101.022 97.4312C101.315 99.7315 98.4513 102.171 94.6348 102.878L94.2026 102.958L94.0363 92.8357ZM90.5841 88.9512C87.7296 88.132 85.7767 87.1958 85.538 85.3008C85.1191 82.0105 88.8646 80.9437 90.4939 80.6377L90.9255 80.5567L91.0651 89.0907L90.5841 88.9512Z" fill="url(#paint5_linear_21_149)"/>
<path d="M22.0452 91.3187C13.9837 92.8581 12.6018 94.618 11.4 104.921C11.364 105.227 11.0174 105.227 10.9814 104.921C9.7796 94.618 8.39775 92.8536 0.336253 91.3187C0.0976934 91.2737 0.0976934 90.8281 0.336253 90.7831C8.39775 89.2437 9.7796 87.4837 10.9814 77.1807C11.0174 76.8747 11.364 76.8747 11.4 77.1807C12.6018 87.4837 13.9837 89.2482 22.0452 90.7831C22.2883 90.8326 22.2883 91.2737 22.0452 91.3187Z" fill="#D2EDFF"/>
<path d="M144.755 68.6333C137.643 69.9926 136.428 71.5455 135.365 80.6332C135.334 80.9033 135.028 80.9033 134.997 80.6332C133.934 71.541 132.719 69.9881 125.607 68.6333C125.395 68.5927 125.395 68.2012 125.607 68.1606C132.719 66.8013 133.934 65.2484 134.997 56.1607C135.028 55.8906 135.334 55.8906 135.365 56.1607C136.428 65.2529 137.643 66.8058 144.755 68.1606C144.966 68.2012 144.966 68.5927 144.755 68.6333Z" fill="#D2EDFF"/>
<path d="M150.048 47.7345C145.254 48.6482 144.436 49.697 143.72 55.823C143.697 56.0075 143.49 56.0075 143.472 55.823C142.756 49.697 141.937 48.6482 137.143 47.7345C136.999 47.7075 136.999 47.4419 137.143 47.4149C141.937 46.5012 142.756 45.4524 143.472 39.3264C143.495 39.1419 143.702 39.1419 143.72 39.3264C144.436 45.4524 145.254 46.5012 150.048 47.4149C150.192 47.4419 150.192 47.7075 150.048 47.7345Z" fill="#D2EDFF"/>
</g>
<defs>
<linearGradient id="paint0_linear_21_149" x1="22.2252" y1="22.9064" x2="107.796" y2="59.0012" gradientUnits="userSpaceOnUse">
<stop stop-color="#16A7DD"/>
<stop offset="0.453013" stop-color="#3492B5"/>
<stop offset="1" stop-color="#8BBCCE"/>
</linearGradient>
<linearGradient id="paint1_linear_21_149" x1="44.7535" y1="42.8022" x2="74.6619" y2="52.1726" gradientUnits="userSpaceOnUse">
<stop stop-color="#16A7DD"/>
<stop offset="0.453013" stop-color="#3492B5"/>
<stop offset="1" stop-color="#8BBCCE"/>
</linearGradient>
<linearGradient id="paint2_linear_21_149" x1="89.8325" y1="23.7887" x2="129.558" y2="41.5764" gradientUnits="userSpaceOnUse">
<stop stop-color="#16A7DD"/>
<stop offset="0.453013" stop-color="#3492B5"/>
<stop offset="1" stop-color="#8BBCCE"/>
</linearGradient>
<linearGradient id="paint3_linear_21_149" x1="24.0011" y1="95.0371" x2="63.5812" y2="112.426" gradientUnits="userSpaceOnUse">
<stop stop-color="#16A7DD"/>
<stop offset="0.453013" stop-color="#3492B5"/>
<stop offset="1" stop-color="#8BBCCE"/>
</linearGradient>
<linearGradient id="paint4_linear_21_149" x1="55.7676" y1="56.201" x2="141.338" y2="92.2959" gradientUnits="userSpaceOnUse">
<stop stop-color="#16A7DD"/>
<stop offset="0.453013" stop-color="#3492B5"/>
<stop offset="1" stop-color="#8BBCCE"/>
</linearGradient>
<linearGradient id="paint5_linear_21_149" x1="82.5941" y1="73.7867" x2="111.168" y2="80.9442" gradientUnits="userSpaceOnUse">
<stop stop-color="#16A7DD"/>
<stop offset="0.453013" stop-color="#3492B5"/>
<stop offset="1" stop-color="#8BBCCE"/>
</linearGradient>
<clipPath id="clip0_21_149">
<rect width="150" height="104.187" fill="white" transform="translate(0.15625 22.9064)"/>
</clipPath>
</defs>
</svg>
