<svg width="204" height="61" viewBox="0 0 204 61" fill="none" xmlns="http://www.w3.org/2000/svg">
<g clip-path="url(#clip0_1_414)">
<path d="M196.08 60.9502H7.54154C3.31828 60.9502 0 57.6319 0 53.4087V8.15946C0 3.9362 3.31828 0.61792 7.54154 0.61792H196.08C200.303 0.61792 203.622 3.9362 203.622 8.15946V53.4087C203.622 57.6319 200.303 60.9502 196.08 60.9502Z" fill="black"/>
<path d="M196.08 1.82457C199.549 1.82457 202.415 4.69035 202.415 8.15946V53.4087C202.415 56.8778 199.549 59.7436 196.08 59.7436H7.54154C4.07243 59.7436 1.20665 56.8778 1.20665 53.4087V8.15946C1.20665 4.69035 4.07243 1.82457 7.54154 1.82457H196.08ZM196.08 0.61792H7.54154C3.31828 0.61792 0 4.08703 0 8.15946V53.4087C0 57.6319 3.31828 60.9502 7.54154 60.9502H196.08C200.303 60.9502 203.622 57.6319 203.622 53.4087V8.15946C203.622 4.08703 200.303 0.61792 196.08 0.61792Z" fill="#A6A6A6"/>
<path d="M71.4938 16.0028C71.4938 17.2095 71.1921 18.2653 70.438 19.0194C69.533 19.9244 68.4772 20.3769 67.1197 20.3769C65.7622 20.3769 64.7064 19.9244 63.8014 19.0194C62.8964 18.1144 62.4439 17.0586 62.4439 15.7011C62.4439 14.3437 62.8964 13.2879 63.8014 12.3829C64.7064 11.4779 65.7622 11.0254 67.1197 11.0254C67.723 11.0254 68.3263 11.1762 68.9297 11.4779C69.533 11.7795 69.9855 12.0812 70.2871 12.5337L69.533 13.2879C68.9297 12.5337 68.1755 12.232 67.1197 12.232C66.2147 12.232 65.3097 12.5337 64.7064 13.2879C63.9522 13.8912 63.6506 14.7962 63.6506 15.852C63.6506 16.9078 63.9522 17.8128 64.7064 18.4161C65.4606 19.0194 66.2147 19.4719 67.1197 19.4719C68.1755 19.4719 68.9297 19.1703 69.6838 18.4161C70.1363 17.9636 70.438 17.3603 70.438 16.6061H67.1197V15.3995H71.4938V16.0028ZM78.432 12.232H74.3596V15.0978H78.1303V16.1536H74.3596V19.0194H78.432V20.2261H73.1529V11.1762H78.432V12.232ZM83.4094 20.2261H82.2028V12.232H79.6386V11.1762H85.9735V12.232H83.4094V20.2261ZM90.3476 20.2261V11.1762H91.5543V20.2261H90.3476ZM96.6825 20.2261H95.4759V12.232H92.9117V11.1762H99.0958V12.232H96.5317V20.2261H96.6825ZM111.011 19.0194C110.106 19.9244 109.051 20.3769 107.693 20.3769C106.336 20.3769 105.28 19.9244 104.375 19.0194C103.47 18.1144 103.017 17.0586 103.017 15.7011C103.017 14.3437 103.47 13.2879 104.375 12.3829C105.28 11.4779 106.336 11.0254 107.693 11.0254C109.051 11.0254 110.106 11.4779 111.011 12.3829C111.916 13.2879 112.369 14.3437 112.369 15.7011C112.369 17.0586 111.916 18.1144 111.011 19.0194ZM105.28 18.2653C105.883 18.8686 106.788 19.3211 107.693 19.3211C108.598 19.3211 109.503 19.0194 110.106 18.2653C110.71 17.6619 111.162 16.757 111.162 15.7011C111.162 14.6453 110.861 13.7403 110.106 13.137C109.503 12.5337 108.598 12.0812 107.693 12.0812C106.788 12.0812 105.883 12.3829 105.28 13.137C104.677 13.7403 104.224 14.6453 104.224 15.7011C104.224 16.757 104.526 17.6619 105.28 18.2653ZM114.028 20.2261V11.1762H115.386L119.76 18.2653V11.1762H120.966V20.2261H119.76L115.084 12.8354V20.2261H114.028Z" fill="white" stroke="white" stroke-width="0.301662" stroke-miterlimit="10"/>
<path d="M102.716 33.4994C99.0958 33.4994 96.23 36.2144 96.23 39.9852C96.23 43.6051 99.0958 46.4709 102.716 46.4709C106.336 46.4709 109.201 43.7559 109.201 39.9852C109.201 36.0636 106.336 33.4994 102.716 33.4994ZM102.716 43.7559C100.755 43.7559 99.0958 42.0968 99.0958 39.8343C99.0958 37.5719 100.755 35.9127 102.716 35.9127C104.677 35.9127 106.336 37.421 106.336 39.8343C106.336 42.0968 104.677 43.7559 102.716 43.7559ZM88.6885 33.4994C85.0686 33.4994 82.2028 36.2144 82.2028 39.9852C82.2028 43.6051 85.0686 46.4709 88.6885 46.4709C92.3084 46.4709 95.1742 43.7559 95.1742 39.9852C95.1742 36.0636 92.3084 33.4994 88.6885 33.4994ZM88.6885 43.7559C86.7277 43.7559 85.0686 42.0968 85.0686 39.8343C85.0686 37.5719 86.7277 35.9127 88.6885 35.9127C90.6493 35.9127 92.3084 37.421 92.3084 39.8343C92.3084 42.0968 90.6493 43.7559 88.6885 43.7559ZM71.9463 35.4602V38.1752H78.432C78.2812 39.6835 77.6778 40.8902 76.9237 41.6443C76.0187 42.5493 74.5104 43.6051 71.9463 43.6051C67.8738 43.6051 64.8572 40.4377 64.8572 36.3652C64.8572 32.2928 68.0247 29.1254 71.9463 29.1254C74.0579 29.1254 75.717 30.0303 76.9237 31.0862L78.8845 29.1254C77.2254 27.617 75.1137 26.4104 72.0971 26.4104C66.6672 26.4104 61.9914 30.9353 61.9914 36.3652C61.9914 41.7951 66.6672 46.3201 72.0971 46.3201C75.1137 46.3201 77.2254 45.4151 79.0353 43.4543C80.8453 41.6443 81.4486 39.0802 81.4486 37.1194C81.4486 36.5161 81.4486 35.9127 81.2978 35.4602H71.9463ZM140.423 37.5719C139.82 36.0636 138.312 33.4994 134.994 33.4994C131.675 33.4994 128.96 36.0636 128.96 39.9852C128.96 43.6051 131.675 46.4709 135.295 46.4709C138.161 46.4709 139.971 44.6609 140.574 43.6051L138.463 42.0968C137.708 43.1526 136.803 43.9068 135.295 43.9068C133.787 43.9068 132.882 43.3034 132.128 41.946L140.725 38.326L140.423 37.5719ZM131.675 39.6835C131.675 37.2702 133.636 35.9127 134.994 35.9127C136.049 35.9127 137.105 36.5161 137.407 37.2702L131.675 39.6835ZM124.586 45.8676H127.452V27.0137H124.586V45.8676ZM120.061 34.8569C119.307 34.1028 118.1 33.3486 116.592 33.3486C113.425 33.3486 110.408 36.2144 110.408 39.8343C110.408 43.4543 113.274 46.1692 116.592 46.1692C118.1 46.1692 119.307 45.4151 119.91 44.6609H120.061V45.5659C120.061 47.9792 118.704 49.3367 116.592 49.3367C114.933 49.3367 113.726 48.13 113.425 47.0742L111.011 48.13C111.766 49.7892 113.576 51.9008 116.743 51.9008C120.061 51.9008 122.776 49.94 122.776 45.2642V33.8011H120.061V34.8569ZM116.743 43.7559C114.782 43.7559 113.123 42.0968 113.123 39.8343C113.123 37.5719 114.782 35.9127 116.743 35.9127C118.704 35.9127 120.212 37.5719 120.212 39.8343C120.212 42.0968 118.704 43.7559 116.743 43.7559ZM153.546 27.0137H146.758V45.8676H149.624V38.7785H153.546C156.713 38.7785 159.73 36.5161 159.73 32.8961C159.73 29.2762 156.713 27.0137 153.546 27.0137ZM153.697 36.0636H149.624V29.5778H153.697C155.808 29.5778 157.015 31.3878 157.015 32.7453C156.864 34.4044 155.657 36.0636 153.697 36.0636ZM171.042 33.3486C168.93 33.3486 166.819 34.2536 166.065 36.2144L168.629 37.2702C169.232 36.2144 170.137 35.9127 171.193 35.9127C172.701 35.9127 174.059 36.8177 174.21 38.326V38.4769C173.757 38.1752 172.55 37.7227 171.344 37.7227C168.629 37.7227 165.914 39.231 165.914 41.946C165.914 44.5101 168.176 46.1692 170.59 46.1692C172.55 46.1692 173.455 45.2642 174.21 44.3593H174.36V45.8676H177.075V38.6277C176.774 35.3094 174.21 33.3486 171.042 33.3486ZM170.74 43.7559C169.835 43.7559 168.478 43.3034 168.478 42.0968C168.478 40.5885 170.137 40.136 171.495 40.136C172.701 40.136 173.305 40.4377 174.059 40.7393C173.757 42.5493 172.249 43.7559 170.74 43.7559ZM186.578 33.8011L183.41 41.946H183.259L179.941 33.8011H176.924L181.902 45.2642L179.036 51.5991H181.902L189.594 33.8011H186.578ZM161.238 45.8676H164.104V27.0137H161.238V45.8676Z" fill="white"/>
<path d="M15.6864 11.9304C15.2339 12.3829 15.0831 13.1371 15.0831 14.042V47.3756C15.0831 48.2806 15.3847 49.0348 15.8372 49.4873L15.9881 49.6381L34.6911 30.9351V30.6334L15.6864 11.9304Z" fill="url(#paint0_linear_1_414)"/>
<path d="M40.7243 37.2703L34.5402 31.0863V30.6338L40.7243 24.4497L40.8751 24.6005L48.2658 28.8238C50.3775 30.0304 50.3775 31.9912 48.2658 33.1979L40.7243 37.2703Z" fill="url(#paint1_linear_1_414)"/>
<path d="M40.8751 37.1191L34.5402 30.7842L15.6864 49.638C16.4406 50.3922 17.4964 50.3922 18.8538 49.7889L40.8751 37.1191Z" fill="url(#paint2_linear_1_414)"/>
<path d="M40.8751 24.4496L18.8538 11.9306C17.4964 11.1765 16.4406 11.3273 15.6864 12.0815L34.5402 30.7845L40.8751 24.4496Z" fill="url(#paint3_linear_1_414)"/>
<path opacity="0.2" d="M40.7243 36.9683L18.8538 49.3364C17.6472 50.0905 16.5914 49.9397 15.8372 49.3364L15.6864 49.4872L15.8372 49.638C16.5914 50.2414 17.6472 50.3922 18.8538 49.638L40.7243 36.9683Z" fill="black"/>
<path opacity="0.12" d="M15.6864 49.3364C15.2339 48.8839 15.0831 48.1297 15.0831 47.2247V47.3756C15.0831 48.2805 15.3847 49.0347 15.8372 49.4872V49.3364H15.6864ZM48.2658 32.745L40.7243 36.9682L40.8751 37.1191L48.2658 32.8958C49.3217 32.2925 49.7742 31.5383 49.7742 30.7842C49.7742 31.5383 49.1708 32.1417 48.2658 32.745Z" fill="black"/>
<path opacity="0.25" d="M18.8538 12.0814L48.2658 28.8236C49.1708 29.427 49.7742 30.0303 49.7742 30.7844C49.7742 30.0303 49.3217 29.2761 48.2658 28.6728L18.8538 11.9306C16.7422 10.7239 15.0831 11.6289 15.0831 14.0422V14.193C15.0831 11.9306 16.7422 10.8748 18.8538 12.0814Z" fill="white"/>
</g>
<defs>
<linearGradient id="paint0_linear_1_414" x1="32.8811" y1="13.7555" x2="7.56718" y2="39.0679" gradientUnits="userSpaceOnUse">
<stop stop-color="#00A0FF"/>
<stop offset="0.007" stop-color="#00A1FF"/>
<stop offset="0.26" stop-color="#00BEFF"/>
<stop offset="0.512" stop-color="#00D2FF"/>
<stop offset="0.76" stop-color="#00DFFF"/>
<stop offset="1" stop-color="#00E3FF"/>
</linearGradient>
<linearGradient id="paint1_linear_1_414" x1="51.0321" y1="30.7861" x2="14.5356" y2="30.7861" gradientUnits="userSpaceOnUse">
<stop stop-color="#FFE000"/>
<stop offset="0.409" stop-color="#FFBD00"/>
<stop offset="0.775" stop-color="#FFA500"/>
<stop offset="1" stop-color="#FF9C00"/>
</linearGradient>
<linearGradient id="paint2_linear_1_414" x1="37.4468" y1="34.2473" x2="3.12069" y2="68.5733" gradientUnits="userSpaceOnUse">
<stop stop-color="#FF3A44"/>
<stop offset="1" stop-color="#C31162"/>
</linearGradient>
<linearGradient id="paint3_linear_1_414" x1="11.0061" y1="0.883789" x2="26.3351" y2="16.2127" gradientUnits="userSpaceOnUse">
<stop stop-color="#32A071"/>
<stop offset="0.069" stop-color="#2DA771"/>
<stop offset="0.476" stop-color="#15CF74"/>
<stop offset="0.801" stop-color="#06E775"/>
<stop offset="1" stop-color="#00F076"/>
</linearGradient>
<clipPath id="clip0_1_414">
<rect width="203.622" height="60.3534" fill="white" transform="translate(0 0.607666)"/>
</clipPath>
</defs>
</svg>
