<svg width="103" height="31" viewBox="0 0 103 31" fill="none" xmlns="http://www.w3.org/2000/svg">
<path d="M19.2271 0L39 31L19.2271 23.8685L0 31L19.2271 0Z" fill="#13A2D7"/>
<g clip-path="url(#clip0_400_611)">
<path d="M12.2574 22.2211C12.2574 22.6092 12.6212 22.8947 12.9982 22.8024L16.0395 22.0584C17.1964 21.7753 18.3127 22.6514 18.3127 23.8425V23.8425C18.3127 24.5182 17.9417 25.1393 17.3468 25.4596L16.0695 26.1474C15.9593 26.2068 15.8906 26.3218 15.8906 26.4469V26.4469C15.8906 26.6348 16.0429 26.7871 16.2308 26.7871H18.9182H20.7348H22.8167C23.0046 26.7871 23.1569 26.6348 23.1569 26.4469V26.4469C23.1569 26.3218 23.0881 26.2068 22.978 26.1474L21.7007 25.4596C21.1058 25.1393 20.7348 24.5182 20.7348 23.8425V23.8425C20.7348 22.6514 21.851 21.7753 23.008 22.0584L26.0492 22.8024C26.4263 22.8947 26.79 22.6092 26.79 22.2211V22.2211C26.79 22.0189 26.6879 21.8303 26.5186 21.7198L22.0559 18.8072C21.2317 18.2693 20.7348 17.3516 20.7348 16.3674V13.7467C20.7348 13.1463 20.1928 12.66 19.5237 12.66C18.8546 12.66 18.3127 13.1463 18.3127 13.7467V16.3674C18.3127 17.3516 17.8158 18.2693 16.9916 18.8072L12.5288 21.7198C12.3595 21.8303 12.2574 22.0189 12.2574 22.2211V22.2211Z" fill="white"/>
</g>
<path d="M46.265 17.425C46.64 17.425 46.955 17.38 47.21 17.29C47.465 17.2 47.6675 17.08 47.8175 16.93C47.9725 16.78 48.0825 16.605 48.1475 16.405C48.2175 16.205 48.2525 15.9925 48.2525 15.7675C48.2525 15.5325 48.215 15.3225 48.14 15.1375C48.065 14.9475 47.9475 14.7875 47.7875 14.6575C47.6275 14.5225 47.42 14.42 47.165 14.35C46.915 14.28 46.6125 14.245 46.2575 14.245H44.225V17.425H46.265ZM44.225 9.715V12.85H45.83C46.52 12.85 47.04 12.725 47.39 12.475C47.745 12.225 47.9225 11.8275 47.9225 11.2825C47.9225 10.7175 47.7625 10.315 47.4425 10.075C47.1225 9.835 46.6225 9.715 45.9425 9.715H44.225ZM45.9425 8.155C46.6525 8.155 47.26 8.2225 47.765 8.3575C48.27 8.4925 48.6825 8.685 49.0025 8.935C49.3275 9.185 49.565 9.4875 49.715 9.8425C49.865 10.1975 49.94 10.5975 49.94 11.0425C49.94 11.2975 49.9025 11.5425 49.8275 11.7775C49.7525 12.0075 49.635 12.225 49.475 12.43C49.32 12.63 49.12 12.8125 48.875 12.9775C48.635 13.1425 48.3475 13.2825 48.0125 13.3975C49.5025 13.7325 50.2475 14.5375 50.2475 15.8125C50.2475 16.2725 50.16 16.6975 49.985 17.0875C49.81 17.4775 49.555 17.815 49.22 18.1C48.885 18.38 48.4725 18.6 47.9825 18.76C47.4925 18.92 46.9325 19 46.3025 19H42.2075V8.155H45.9425ZM56.3962 11.305V19H54.5362V11.305H56.3962ZM56.6512 9.0625C56.6512 9.2225 56.6187 9.3725 56.5537 9.5125C56.4887 9.6525 56.4012 9.775 56.2912 9.88C56.1862 9.985 56.0612 10.07 55.9162 10.135C55.7712 10.195 55.6162 10.225 55.4512 10.225C55.2912 10.225 55.1387 10.195 54.9937 10.135C54.8537 10.07 54.7312 9.985 54.6262 9.88C54.5212 9.775 54.4362 9.6525 54.3712 9.5125C54.3112 9.3725 54.2812 9.2225 54.2812 9.0625C54.2812 8.8975 54.3112 8.7425 54.3712 8.5975C54.4362 8.4525 54.5212 8.3275 54.6262 8.2225C54.7312 8.1175 54.8537 8.035 54.9937 7.975C55.1387 7.91 55.2912 7.8775 55.4512 7.8775C55.6162 7.8775 55.7712 7.91 55.9162 7.975C56.0612 8.035 56.1862 8.1175 56.2912 8.2225C56.4012 8.3275 56.4887 8.4525 56.5537 8.5975C56.6187 8.7425 56.6512 8.8975 56.6512 9.0625ZM62.8373 12.25C62.9923 12.095 63.1548 11.9525 63.3248 11.8225C63.4998 11.6875 63.6823 11.575 63.8723 11.485C64.0673 11.39 64.2748 11.3175 64.4948 11.2675C64.7148 11.2125 64.9548 11.185 65.2148 11.185C65.6348 11.185 66.0073 11.2575 66.3323 11.4025C66.6573 11.5425 66.9273 11.7425 67.1423 12.0025C67.3623 12.2575 67.5273 12.565 67.6373 12.925C67.7523 13.28 67.8098 13.6725 67.8098 14.1025V19H65.9573V14.1025C65.9573 13.6325 65.8498 13.27 65.6348 13.015C65.4198 12.755 65.0923 12.625 64.6523 12.625C64.3323 12.625 64.0323 12.6975 63.7523 12.8425C63.4723 12.9875 63.2073 13.185 62.9573 13.435V19H61.1048V11.305H62.2373C62.4773 11.305 62.6348 11.4175 62.7098 11.6425L62.8373 12.25ZM78.4141 14.905L77.0941 11.2975C77.0291 11.1375 76.9616 10.9475 76.8916 10.7275C76.8216 10.5075 76.7516 10.27 76.6816 10.015C76.6166 10.27 76.5491 10.51 76.4791 10.735C76.4091 10.955 76.3416 11.1475 76.2766 11.3125L74.9641 14.905H78.4141ZM81.9766 19H80.4166C80.2416 19 80.0991 18.9575 79.9891 18.8725C79.8791 18.7825 79.7966 18.6725 79.7416 18.5425L78.9316 16.33H74.4391L73.6291 18.5425C73.5891 18.6575 73.5116 18.7625 73.3966 18.8575C73.2816 18.9525 73.1391 19 72.9691 19H71.3941L75.6616 8.155H77.7166L81.9766 19ZM87.532 11.305V19H85.672V11.305H87.532ZM87.787 9.0625C87.787 9.2225 87.7545 9.3725 87.6895 9.5125C87.6245 9.6525 87.537 9.775 87.427 9.88C87.322 9.985 87.197 10.07 87.052 10.135C86.907 10.195 86.752 10.225 86.587 10.225C86.427 10.225 86.2745 10.195 86.1295 10.135C85.9895 10.07 85.867 9.985 85.762 9.88C85.657 9.775 85.572 9.6525 85.507 9.5125C85.447 9.3725 85.417 9.2225 85.417 9.0625C85.417 8.8975 85.447 8.7425 85.507 8.5975C85.572 8.4525 85.657 8.3275 85.762 8.2225C85.867 8.1175 85.9895 8.035 86.1295 7.975C86.2745 7.91 86.427 7.8775 86.587 7.8775C86.752 7.8775 86.907 7.91 87.052 7.975C87.197 8.035 87.322 8.1175 87.427 8.2225C87.537 8.3275 87.6245 8.4525 87.6895 8.5975C87.7545 8.7425 87.787 8.8975 87.787 9.0625ZM93.9881 12.64C94.2281 12.18 94.5131 11.82 94.8431 11.56C95.1731 11.295 95.5631 11.1625 96.0131 11.1625C96.3681 11.1625 96.6531 11.24 96.8681 11.395L96.7481 12.7825C96.7231 12.8725 96.6856 12.9375 96.6356 12.9775C96.5906 13.0125 96.5281 13.03 96.4481 13.03C96.3731 13.03 96.2606 13.0175 96.1106 12.9925C95.9656 12.9675 95.8231 12.955 95.6831 12.955C95.4781 12.955 95.2956 12.985 95.1356 13.045C94.9756 13.105 94.8306 13.1925 94.7006 13.3075C94.5756 13.4175 94.4631 13.5525 94.3631 13.7125C94.2681 13.8725 94.1781 14.055 94.0931 14.26V19H92.2406V11.305H93.3281C93.5181 11.305 93.6506 11.34 93.7256 11.41C93.8006 11.475 93.8506 11.595 93.8756 11.77L93.9881 12.64Z" fill="#59595B"/>
<defs>
<clipPath id="clip0_400_611">
<rect width="16.3005" height="18.1657" fill="white" transform="translate(10.4409 27.8738) rotate(-90)"/>
</clipPath>
</defs>
</svg>
