<svg width="39" height="37" viewBox="0 0 39 37" fill="none" xmlns="http://www.w3.org/2000/svg">
<rect width="39" height="37" fill="#1E1E1E"/>
<rect width="288" height="254" transform="translate(-88 -78)" fill="white"/>
<path d="M19.2271 0L39 31L19.2271 23.8685L0 31L19.2271 0Z" fill="#13A2D7"/>
<g clip-path="url(#clip0_0_1)">
<path d="M12.2574 22.2211C12.2574 22.6092 12.6212 22.8947 12.9982 22.8024L16.0395 22.0584C17.1964 21.7753 18.3127 22.6514 18.3127 23.8425V23.8425C18.3127 24.5182 17.9417 25.1393 17.3468 25.4596L16.0695 26.1474C15.9593 26.2068 15.8906 26.3218 15.8906 26.4469V26.4469C15.8906 26.6348 16.0429 26.7871 16.2308 26.7871H18.9182H20.7348H22.8167C23.0046 26.7871 23.1569 26.6348 23.1569 26.4469V26.4469C23.1569 26.3218 23.0881 26.2068 22.978 26.1474L21.7007 25.4596C21.1058 25.1393 20.7348 24.5182 20.7348 23.8425V23.8425C20.7348 22.6514 21.851 21.7753 23.008 22.0584L26.0492 22.8024C26.4263 22.8947 26.79 22.6092 26.79 22.2211V22.2211C26.79 22.0189 26.6879 21.8303 26.5186 21.7198L22.0559 18.8072C21.2317 18.2693 20.7348 17.3516 20.7348 16.3674V13.7467C20.7348 13.1463 20.1928 12.66 19.5237 12.66C18.8546 12.66 18.3127 13.1463 18.3127 13.7467V16.3674C18.3127 17.3516 17.8158 18.2693 16.9916 18.8072L12.5288 21.7198C12.3595 21.8303 12.2574 22.0189 12.2574 22.2211V22.2211Z" fill="white"/>
</g>
<path d="M7.755 35.475C7.88 35.475 7.985 35.46 8.07 35.43C8.155 35.4 8.2225 35.36 8.2725 35.31C8.32417 35.26 8.36083 35.2017 8.3825 35.135C8.40583 35.0683 8.4175 34.9975 8.4175 34.9225C8.4175 34.8442 8.405 34.7742 8.38 34.7125C8.355 34.6492 8.31583 34.5958 8.2625 34.5525C8.20917 34.5075 8.14 34.4733 8.055 34.45C7.97167 34.4267 7.87083 34.415 7.7525 34.415H7.075V35.475H7.755ZM7.075 32.905V33.95H7.61C7.84 33.95 8.01333 33.9083 8.13 33.825C8.24833 33.7417 8.3075 33.6092 8.3075 33.4275C8.3075 33.2392 8.25417 33.105 8.1475 33.025C8.04083 32.945 7.87417 32.905 7.6475 32.905H7.075ZM7.6475 32.385C7.88417 32.385 8.08667 32.4075 8.255 32.4525C8.42333 32.4975 8.56083 32.5617 8.6675 32.645C8.77583 32.7283 8.855 32.8292 8.905 32.9475C8.955 33.0658 8.98 33.1992 8.98 33.3475C8.98 33.4325 8.9675 33.5142 8.9425 33.5925C8.9175 33.6692 8.87833 33.7417 8.825 33.81C8.77333 33.8767 8.70667 33.9375 8.625 33.9925C8.545 34.0475 8.44917 34.0942 8.3375 34.1325C8.83417 34.2442 9.0825 34.5125 9.0825 34.9375C9.0825 35.0908 9.05333 35.2325 8.995 35.3625C8.93667 35.4925 8.85167 35.605 8.74 35.7C8.62833 35.7933 8.49083 35.8667 8.3275 35.92C8.16417 35.9733 7.9775 36 7.7675 36H6.4025V32.385H7.6475ZM13.0121 33.435V36H12.3921V33.435H13.0121ZM13.0971 32.6875C13.0971 32.7408 13.0862 32.7908 13.0646 32.8375C13.0429 32.8842 13.0137 32.925 12.9771 32.96C12.9421 32.995 12.9004 33.0233 12.8521 33.045C12.8037 33.065 12.7521 33.075 12.6971 33.075C12.6437 33.075 12.5929 33.065 12.5446 33.045C12.4979 33.0233 12.4571 32.995 12.4221 32.96C12.3871 32.925 12.3587 32.8842 12.3371 32.8375C12.3171 32.7908 12.3071 32.7408 12.3071 32.6875C12.3071 32.6325 12.3171 32.5808 12.3371 32.5325C12.3587 32.4842 12.3871 32.4425 12.4221 32.4075C12.4571 32.3725 12.4979 32.345 12.5446 32.325C12.5929 32.3033 12.6437 32.2925 12.6971 32.2925C12.7521 32.2925 12.8037 32.3033 12.8521 32.325C12.9004 32.345 12.9421 32.3725 12.9771 32.4075C13.0137 32.4425 13.0429 32.4842 13.0646 32.5325C13.0862 32.5808 13.0971 32.6325 13.0971 32.6875ZM17.0391 33.75C17.0908 33.6983 17.1449 33.6508 17.2016 33.6075C17.2599 33.5625 17.3208 33.525 17.3841 33.495C17.4491 33.4633 17.5183 33.4392 17.5916 33.4225C17.6649 33.4042 17.7449 33.395 17.8316 33.395C17.9716 33.395 18.0958 33.4192 18.2041 33.4675C18.3124 33.5142 18.4024 33.5808 18.4741 33.6675C18.5474 33.7525 18.6024 33.855 18.6391 33.975C18.6774 34.0933 18.6966 34.2242 18.6966 34.3675V36H18.0791V34.3675C18.0791 34.2108 18.0433 34.09 17.9716 34.005C17.8999 33.9183 17.7908 33.875 17.6441 33.875C17.5374 33.875 17.4374 33.8992 17.3441 33.9475C17.2508 33.9958 17.1624 34.0617 17.0791 34.145V36H16.4616V33.435H16.8391C16.9191 33.435 16.9716 33.4725 16.9966 33.5475L17.0391 33.75ZM24.1114 34.635L23.6714 33.4325C23.6497 33.3792 23.6272 33.3158 23.6039 33.2425C23.5805 33.1692 23.5572 33.09 23.5339 33.005C23.5122 33.09 23.4897 33.17 23.4664 33.245C23.443 33.3183 23.4205 33.3825 23.3989 33.4375L22.9614 34.635H24.1114ZM25.2989 36H24.7789C24.7205 36 24.673 35.9858 24.6364 35.9575C24.5997 35.9275 24.5722 35.8908 24.5539 35.8475L24.2839 35.11H22.7864L22.5164 35.8475C22.503 35.8858 22.4772 35.9208 22.4389 35.9525C22.4005 35.9842 22.353 36 22.2964 36H21.7714L23.1939 32.385H23.8789L25.2989 36ZM29.0307 33.435V36H28.4107V33.435H29.0307ZM29.1157 32.6875C29.1157 32.7408 29.1048 32.7908 29.0832 32.8375C29.0615 32.8842 29.0323 32.925 28.9957 32.96C28.9607 32.995 28.919 33.0233 28.8707 33.045C28.8223 33.065 28.7707 33.075 28.7157 33.075C28.6623 33.075 28.6115 33.065 28.5632 33.045C28.5165 33.0233 28.4757 32.995 28.4407 32.96C28.4057 32.925 28.3773 32.8842 28.3557 32.8375C28.3357 32.7908 28.3257 32.7408 28.3257 32.6875C28.3257 32.6325 28.3357 32.5808 28.3557 32.5325C28.3773 32.4842 28.4057 32.4425 28.4407 32.4075C28.4757 32.3725 28.5165 32.345 28.5632 32.325C28.6115 32.3033 28.6623 32.2925 28.7157 32.2925C28.7707 32.2925 28.8223 32.3033 28.8707 32.325C28.919 32.345 28.9607 32.3725 28.9957 32.4075C29.0323 32.4425 29.0615 32.4842 29.0832 32.5325C29.1048 32.5808 29.1157 32.6325 29.1157 32.6875ZM33.0627 33.88C33.1427 33.7267 33.2377 33.6067 33.3477 33.52C33.4577 33.4317 33.5877 33.3875 33.7377 33.3875C33.856 33.3875 33.951 33.4133 34.0227 33.465L33.9827 33.9275C33.9744 33.9575 33.9619 33.9792 33.9452 33.9925C33.9302 34.0042 33.9094 34.01 33.8827 34.01C33.8577 34.01 33.8202 34.0058 33.7702 33.9975C33.7219 33.9892 33.6744 33.985 33.6277 33.985C33.5594 33.985 33.4985 33.995 33.4452 34.015C33.3919 34.035 33.3435 34.0642 33.3002 34.1025C33.2585 34.1392 33.221 34.1842 33.1877 34.2375C33.156 34.2908 33.126 34.3517 33.0977 34.42V36H32.4802V33.435H32.8427C32.906 33.435 32.9502 33.4467 32.9752 33.47C33.0002 33.4917 33.0169 33.5317 33.0252 33.59L33.0627 33.88Z" fill="#59595B"/>
<defs>
<clipPath id="clip0_0_1">
<rect width="16.3005" height="18.1657" fill="white" transform="translate(10.4409 27.8738) rotate(-90)"/>
</clipPath>
</defs>
</svg>
