<svg width="52" height="54" viewBox="0 0 52 54" fill="none" xmlns="http://www.w3.org/2000/svg">
<path d="M26 3.375C32.0337 3.375 37.8202 5.86406 42.0867 10.2946C46.3531 14.7251 48.75 20.7343 48.75 27C48.75 33.2657 46.3531 39.2748 42.0867 43.7054C37.8202 48.1359 32.0337 50.625 26 50.625C19.9663 50.625 14.1798 48.1359 9.91332 43.7054C5.64687 39.2748 3.25 33.2657 3.25 27C3.25 20.7343 5.64687 14.7251 9.91332 10.2946C14.1798 5.86406 19.9663 3.375 26 3.375ZM23.166 31.6609L18.1122 26.4094C17.9311 26.2212 17.716 26.072 17.4793 25.9702C17.2426 25.8683 16.9888 25.8159 16.7326 25.8159C16.4764 25.8159 16.2227 25.8683 15.986 25.9702C15.7493 26.072 15.5342 26.2212 15.353 26.4094C14.9871 26.7893 14.7815 27.3047 14.7815 27.8421C14.7815 28.3794 14.9871 28.8948 15.353 29.2747L21.788 35.9573C21.9687 36.1463 22.1836 36.2964 22.4204 36.3988C22.6572 36.5012 22.9111 36.554 23.1676 36.554C23.4241 36.554 23.6781 36.5012 23.9149 36.3988C24.1517 36.2964 24.3666 36.1463 24.5473 35.9573L37.8722 22.1164C38.0558 21.929 38.2019 21.7058 38.302 21.4595C38.4021 21.2132 38.4542 20.9488 38.4554 20.6815C38.4566 20.4142 38.4069 20.1493 38.309 19.902C38.2111 19.6548 38.067 19.4301 37.8851 19.241C37.7032 19.0519 37.487 18.902 37.2491 18.8001C37.0111 18.6982 36.7561 18.6461 36.4987 18.6471C36.2413 18.648 35.9866 18.7018 35.7493 18.8055C35.5121 18.9092 35.2969 19.0606 35.1163 19.251L23.166 31.6609Z" fill="#4ECB71"/>
</svg>
