<svg width="20" height="14" viewBox="0 0 20 14" fill="none" xmlns="http://www.w3.org/2000/svg">
<path d="M2.51621 9.6025C2.63499 9.72801 2.77811 9.82798 2.93683 9.89633C3.09555 9.96467 3.26653 9.99995 3.43933 10L7.40996 9.99469C7.76168 9.99372 8.10853 9.91238 8.42402 9.75688L17.2709 5.37219C18.1828 4.92031 18.9215 4.29156 19.4071 3.55406C19.9696 2.70188 20.1065 1.98281 19.8184 1.41656C19.4562 0.702188 18.5059 0.455313 17.5465 0.455313C16.734 0.455313 15.9075 0.661875 15.0853 1.06906L12.1881 2.50656L5.6659 0.114688C5.54033 0.0391908 5.39648 -0.000473097 5.24996 3.75095e-07C5.12586 0.000224416 5.00346 0.0288738 4.89215 0.0837504L2.89215 1.07438C2.77597 1.13154 2.67577 1.2166 2.60052 1.32196C2.52526 1.42732 2.47729 1.54969 2.4609 1.67813C2.44443 1.82103 2.46941 1.96565 2.53285 2.09475C2.59629 2.22384 2.69552 2.33198 2.81871 2.40625L7.08527 5.03438L4.46183 6.33469L2.37496 5.30719C2.26393 5.25254 2.14183 5.22412 2.01808 5.22412C1.89433 5.22412 1.77224 5.25254 1.66121 5.30719L0.440271 5.91281C0.332098 5.96573 0.237555 6.04283 0.163965 6.13816C0.0903744 6.23348 0.0397102 6.34446 0.0158956 6.4625C-0.00826746 6.58013 -0.00484333 6.70176 0.0258993 6.81784C0.0566419 6.93393 0.113867 7.04131 0.193083 7.13156L2.51621 9.6025ZM2.01871 6.24594L4.46308 7.44938L9.14871 5.12719L3.70433 1.78844L5.24433 1.02531L12.2471 3.59156L15.5284 1.96656C16.2112 1.62813 16.8903 1.45656 17.5468 1.45656C18.0562 1.45656 18.7756 1.56906 18.929 1.87156C19.0356 2.08125 18.9028 2.50469 18.574 3.00469C18.1856 3.59438 17.5821 4.10375 16.8287 4.47719L7.98152 8.86063C7.80342 8.94842 7.60758 8.99428 7.40902 8.99469L3.44027 9C3.40361 8.99999 3.36733 8.99263 3.33357 8.97836C3.2998 8.96408 3.26925 8.94317 3.24371 8.91687L1.14058 6.68156L2.01871 6.24594ZM19.75 13H0.284333C0.218029 13 0.15444 13.0263 0.107556 13.0732C0.0606723 13.1201 0.0343331 13.1837 0.0343331 13.25V13.75C0.0343331 13.8163 0.0606723 13.8799 0.107556 13.9268C0.15444 13.9737 0.218029 14 0.284333 14H19.75C19.8163 14 19.8799 13.9737 19.9267 13.9268C19.9736 13.8799 20 13.8163 20 13.75V13.25C20 13.1837 19.9736 13.1201 19.9267 13.0732C19.8799 13.0263 19.8163 13 19.75 13Z" fill="#13A2D7"/>
</svg>
