<svg width="13" height="13" viewBox="0 0 13 13" fill="none" xmlns="http://www.w3.org/2000/svg">
<path d="M3.07171 2.30589C5.19937 0.562266 8.34375 0.683599 10.33 2.66989C12.4452 4.7851 12.4452 8.21493 10.33 10.3301C8.21483 12.4454 4.785 12.4454 2.66979 10.3301C2.02067 9.68191 1.54696 8.87934 1.29312 7.99779C1.03929 7.11624 1.01367 6.18464 1.21867 5.29048L1.26037 5.12093L2.30796 5.39718C2.04825 6.38424 2.14529 7.43129 2.58198 8.35381C3.01866 9.27633 3.76696 10.0151 4.69499 10.4399C5.62303 10.8648 6.67124 10.9484 7.65489 10.676C8.63854 10.4037 9.49449 9.79291 10.0719 8.95129C10.6493 8.10966 10.9111 7.09124 10.8112 6.07549C10.7112 5.05974 10.256 4.11187 9.52559 3.39892C8.79523 2.68597 7.83665 2.25371 6.81878 2.17831C5.80092 2.10291 4.78911 2.38921 3.96167 2.98677L3.84196 3.07668L4.39283 3.62756L1.90333 4.20173L2.4775 1.71222L3.07117 2.30589H3.07171ZM7.04158 3.25002V4.33335H8.39575V5.41668H5.41658C5.3489 5.41656 5.28363 5.44178 5.23362 5.48738C5.1836 5.53297 5.15247 5.59564 5.14636 5.66305C5.14024 5.73045 5.15959 5.7977 5.20058 5.85155C5.24157 5.9054 5.30124 5.94196 5.36783 5.95402L5.41658 5.95835H7.58325C7.9424 5.95835 8.28683 6.10102 8.54079 6.35498C8.79475 6.60893 8.93742 6.95337 8.93742 7.31252C8.93742 7.67166 8.79475 8.0161 8.54079 8.27006C8.28683 8.52401 7.9424 8.66668 7.58325 8.66668H7.04158V9.75002H5.95825V8.66668H4.60408V7.58335H7.58325C7.65093 7.58348 7.7162 7.55826 7.76622 7.51266C7.81623 7.46706 7.84736 7.40439 7.85347 7.33699C7.85959 7.26959 7.84025 7.20234 7.79926 7.14848C7.75826 7.09463 7.6986 7.05807 7.632 7.04602L7.58325 7.04168H5.41658C5.05744 7.04168 4.713 6.89901 4.45904 6.64506C4.20509 6.3911 4.06242 6.04666 4.06242 5.68752C4.06242 5.32837 4.20509 4.98393 4.45904 4.72998C4.713 4.47602 5.05744 4.33335 5.41658 4.33335H5.95825V3.25002H7.04158Z" fill="#73B465"/>
</svg>
