<svg width="13" height="13" viewBox="0 0 13 13" fill="none" xmlns="http://www.w3.org/2000/svg">
<path d="M10.2917 1.62496H9.75V0.541626H8.66667V1.62496H4.33333V0.541626H3.25V1.62496H2.70833C2.10708 1.62496 1.625 2.10704 1.625 2.70829V10.2916C1.625 10.5789 1.73914 10.8545 1.9423 11.0577C2.14547 11.2608 2.42102 11.375 2.70833 11.375H10.2917C10.8875 11.375 11.375 10.8875 11.375 10.2916V2.70829C11.375 2.42097 11.2609 2.14542 11.0577 1.94226C10.8545 1.7391 10.579 1.62496 10.2917 1.62496ZM10.2917 10.2916H2.70833V4.33329H10.2917V10.2916ZM6.5 5.41663V6.49996H8.66667V8.12496H6.5V9.20829L4.33333 7.31246L6.5 5.41663Z" fill="#73B465"/>
</svg>
