<svg width="136" height="150" viewBox="0 0 136 150" fill="none" xmlns="http://www.w3.org/2000/svg">
<g clip-path="url(#clip0_21_355)">
<path d="M43.3161 101.565V74.3656C43.3161 64.8801 35.6298 57.1852 26.1421 57.1852C24.7751 57.1852 23.6688 58.2919 23.6688 59.6593V81.7824V127.894V133.092C23.6688 133.092 39.1225 142.797 41.7407 143.69C44.3587 144.582 74.8375 151.02 80.0216 147.555C85.2057 144.09 95.3309 125.409 95.7766 123.177C96.2223 120.941 55.5667 120.767 51.5933 121.602C47.6255 122.43 46.8784 123.027 47.6255 120.205C48.367 117.383 49.8324 113.182 48.1816 109.88C45.9922 105.482 43.3161 101.565 43.3161 101.565Z" fill="white"/>
<path d="M100.086 54.711C95.9797 54.711 92.2143 51.9586 91.1137 47.8098C89.8049 42.8614 92.7594 37.7681 97.706 36.4585L124.055 29.4647C126.453 28.8273 128.949 29.1634 131.093 30.4092C133.235 31.6549 134.765 33.6598 135.401 36.0587C136.039 38.4576 135.703 40.955 134.458 43.0989C133.212 45.2429 131.208 46.7726 128.81 47.41L102.461 54.4038C101.674 54.6066 100.874 54.711 100.086 54.711ZM126.435 32.3097C125.92 32.3097 125.393 32.3735 124.865 32.5125L98.5169 39.5064C95.2554 40.3698 93.3037 43.7305 94.1669 46.9986C95.03 50.2608 98.3891 52.2135 101.656 51.3502L128.005 44.3563C129.587 43.9392 130.907 42.9251 131.729 41.5112C132.551 40.0974 132.772 38.446 132.355 36.8641C131.625 34.1234 129.14 32.3097 126.435 32.3097Z" fill="url(#paint0_linear_21_355)"/>
<path d="M45.6968 113.321V12.5565C45.6968 7.98467 49.4038 4.27625 53.974 4.27625H51.5933C47.0232 4.27625 43.3162 7.98467 43.3162 12.5565V113.321C43.3162 117.893 47.0232 121.602 51.5933 121.602H53.974C49.4038 121.602 45.6968 117.893 45.6968 113.321Z" fill="white"/>
<path d="M102.67 81.7128C102.328 81.7823 101.98 81.8576 101.627 81.933C100.138 82.269 98.5452 82.0315 98.8752 80.0788C98.9044 79.9165 98.9858 79.7717 99.0895 79.6499C98.5804 79.3371 98.1981 78.8677 98.0069 78.1782C97.8098 77.4423 97.9778 76.608 98.4064 75.9648C98.0009 75.31 98.3249 74.1221 99.3621 74.0063C100.782 73.844 102.194 73.9482 103.62 73.9309C104.46 73.9194 105.282 73.7281 106.11 73.6238V67.87C105.519 67.9626 104.916 68.009 104.338 68.0785C103.046 68.235 101.204 68.5248 99.9647 68.0206C99.2867 67.7483 98.7998 67.1804 98.4638 66.4793C98.4295 66.4619 98.4004 66.4503 98.3661 66.4329C97.7464 66.12 97.6529 65.3262 97.9658 64.7815C97.8038 63.7212 97.8621 62.626 98.0764 61.8379C98.2384 61.2411 98.4989 60.7892 98.8349 60.4415C98.0584 59.7636 98.2727 58.1991 99.5009 58.3555C100.318 58.4598 101.169 58.2744 101.986 58.2281C102.704 58.1874 103.405 58.1179 104.112 57.9905C104.743 57.8746 105.426 57.7182 106.104 57.6949V12.5565C106.104 7.98467 102.42 4.27625 97.8732 4.27625H54.2578C49.7109 4.27625 46.027 7.98467 46.027 12.5565V113.321C46.027 117.893 49.7109 121.602 54.2578 121.602H97.8904C102.438 121.602 106.122 117.893 106.122 113.321V81.4578C105.01 81.7765 103.84 81.7708 102.67 81.7128Z" fill="#D2EDFF"/>
<path d="M104.54 73.8557C105.449 73.7398 106.348 73.5196 107.257 73.5659C107.419 73.5718 107.564 73.6123 107.697 73.6761V67.4529C106.712 67.8642 105.594 67.9396 104.54 68.0555V73.8557Z" fill="url(#paint1_linear_21_355)"/>
<path d="M106.944 81.1508C106.174 81.5043 105.363 81.6608 104.54 81.7187V113.321C104.54 117.018 101.534 120.026 97.8389 120.026H51.5934C47.8979 120.026 44.8918 117.018 44.8918 113.321V12.5565C44.8918 8.85976 47.8979 5.85242 51.5934 5.85242H97.8389C101.534 5.85242 104.54 8.85976 104.54 12.5565V57.9152C105.514 57.7299 106.579 57.5386 107.506 57.8978C107.57 57.921 107.633 57.95 107.697 57.9789V12.5565C107.697 7.1214 103.277 2.69446 97.8389 2.69446H51.5934C46.1603 2.69446 41.735 7.1156 41.735 12.5565V113.321C41.735 118.756 46.1545 123.183 51.5934 123.183H97.8389C103.271 123.183 107.697 118.762 107.697 113.321V80.693C107.471 80.8727 107.222 81.0234 106.944 81.1508Z" fill="url(#paint2_linear_21_355)"/>
<path d="M99.2806 106.559H50.1568C49.288 106.559 48.5872 105.812 48.5872 104.891V19.4057C48.5872 18.4845 49.288 17.7369 50.1568 17.7369H99.2806C100.15 17.7369 100.851 18.4845 100.851 19.4057V104.891C100.851 105.812 100.15 106.559 99.2806 106.559Z" fill="white"/>
<path d="M99.9355 68.0207C99.6921 67.9222 99.4667 67.7831 99.2695 67.6151V74.0121C99.2867 74.0063 99.3098 74.0063 99.3278 74.0006C100.358 73.8847 101.389 73.9078 102.426 73.9194V68.2815C101.546 68.3336 100.643 68.3046 99.9355 68.0207Z" fill="url(#paint3_linear_21_355)"/>
<path d="M101.609 81.9332C100.729 82.1302 99.8137 82.1244 99.2755 81.6898V104.89C99.2755 104.937 99.2575 104.966 99.2523 104.978H50.1916C50.18 104.966 50.1685 104.937 50.1685 104.89V19.4057C50.1685 19.3594 50.1859 19.3304 50.1916 19.3187H99.2523C99.2635 19.3304 99.2755 19.3594 99.2755 19.4057V58.3499C99.3389 58.3499 99.4083 58.3499 99.4777 58.3615C100.295 58.4658 101.152 58.2804 101.98 58.234C102.131 58.2282 102.281 58.2166 102.432 58.2051V19.4057C102.432 17.6152 101.019 16.1608 99.2806 16.1608H50.1569C48.4192 16.1608 47.0059 17.6152 47.0059 19.4057V104.89C47.0059 106.681 48.4192 108.135 50.1569 108.135H99.2806C101.019 108.135 102.432 106.681 102.432 104.89V81.7594C102.16 81.8173 101.887 81.8694 101.609 81.9332Z" fill="url(#paint4_linear_21_355)"/>
<path d="M81.777 13.8486H69.1092C68.2404 13.8486 67.5338 13.1417 67.5338 12.2725C67.5338 11.4034 68.2404 10.6964 69.1092 10.6964H81.777C82.6458 10.6964 83.3524 11.4034 83.3524 12.2725C83.3582 13.1417 82.6516 13.8486 81.777 13.8486Z" fill="url(#paint5_linear_21_355)"/>
<path d="M64.6201 13.8486C64.2088 13.8486 63.7976 13.6806 63.508 13.3851C63.4327 13.3098 63.369 13.2344 63.3111 13.1475C63.2531 13.0606 63.201 12.9678 63.1663 12.8752C63.1258 12.7824 63.091 12.6781 63.0736 12.5796C63.0504 12.4812 63.0447 12.3768 63.0447 12.2725C63.0447 12.1682 63.0562 12.0639 63.0736 11.9654C63.091 11.8669 63.1258 11.7684 63.1663 11.67C63.2068 11.5772 63.2531 11.4845 63.3111 11.3976C63.369 11.3106 63.4327 11.2296 63.508 11.16C63.8034 10.8645 64.2088 10.6964 64.6201 10.6964C65.0372 10.6964 65.4426 10.8645 65.738 11.16C65.8133 11.2353 65.877 11.3165 65.935 11.3976C65.9929 11.4845 66.0392 11.5772 66.0797 11.67C66.1203 11.7684 66.1492 11.8669 66.1725 11.9654C66.1898 12.0639 66.2014 12.1682 66.2014 12.2725C66.2014 12.371 66.1898 12.4753 66.1725 12.5796C66.1492 12.6781 66.1203 12.7824 66.0797 12.8752C66.0392 12.9678 65.9929 13.0606 65.935 13.1475C65.877 13.2344 65.8133 13.3155 65.738 13.3851C65.4426 13.6748 65.0372 13.8486 64.6201 13.8486Z" fill="url(#paint6_linear_21_355)"/>
<path d="M23.669 134.673C22.8001 134.673 22.0935 133.967 22.0935 133.098V59.6592C22.0935 57.4225 23.9123 55.6031 26.148 55.6031C36.4872 55.6031 44.8975 64.0166 44.8975 74.3597V101.559C44.8975 102.428 44.1909 103.135 43.3221 103.135C42.4532 103.135 41.7466 102.428 41.7466 101.559V74.3597C41.7466 65.7549 34.7496 58.761 26.1539 58.761C25.6615 58.761 25.256 59.1609 25.256 59.6592V133.092C25.2503 133.967 24.5436 134.673 23.669 134.673Z" fill="url(#paint7_linear_21_355)"/>
<path d="M40.1481 96.216C45.3206 100.748 48.5875 107.405 48.5875 114.822C48.5875 118.861 47.6202 122.673 45.8998 126.04H37.9645V96.2108H40.1481V96.216Z" fill="white"/>
<path d="M45.9 127.628C45.6567 127.628 45.4135 127.57 45.1818 127.454C44.4056 127.06 44.0986 126.11 44.4925 125.333C46.1606 122.065 47.0063 118.531 47.0063 114.828C47.0063 108.159 44.1276 101.808 39.1057 97.41C38.4512 96.8366 38.3816 95.8398 38.9609 95.1849C39.5343 94.53 40.5306 94.4666 41.1851 95.04C46.8905 100.041 50.1573 107.255 50.1573 114.834C50.1573 119.035 49.1958 123.051 47.3018 126.771C47.0294 127.309 46.4734 127.628 45.9 127.628Z" fill="url(#paint8_linear_21_355)"/>
<path d="M34.2051 74.1859H23.669C22.8001 74.1859 22.0935 73.479 22.0935 72.6098V62.0755C22.0935 61.2064 22.8001 60.4995 23.669 60.4995C30.3474 60.4995 35.7805 65.9347 35.7805 72.6156C35.7805 73.479 35.0739 74.1859 34.2051 74.1859ZM25.2503 71.0279H32.4848C31.8302 67.3485 28.9225 64.4455 25.2503 63.7849V71.0279Z" fill="url(#paint9_linear_21_355)"/>
<path d="M92.4286 95.5732C92.0232 92.0734 94.5372 88.9097 98.0361 88.5043L106.579 87.5186C110.078 87.1132 113.24 89.628 113.646 93.1277C114.051 96.6274 111.538 99.7912 108.039 100.197L99.4958 101.182C95.9969 101.588 92.8289 99.0729 92.4286 95.5732Z" fill="white"/>
<path d="M98.7483 102.805C96.9637 102.805 95.2383 102.207 93.8189 101.078C92.1569 99.7569 91.1026 97.8677 90.8591 95.7532C90.3551 91.3955 93.4949 87.438 97.85 86.934L106.394 85.9483C110.755 85.4446 114.706 88.5849 115.21 92.9426C115.714 97.3003 112.574 101.258 108.218 101.762L99.6749 102.747C99.362 102.787 99.0552 102.805 98.7483 102.805ZM93.9929 95.3932C94.1377 96.6686 94.7746 97.8095 95.7766 98.604C96.7786 99.4029 98.036 99.7569 99.3097 99.612L107.854 98.6272C110.483 98.3255 112.377 95.9383 112.07 93.3077C111.769 90.6772 109.383 88.782 106.753 89.0889L98.2092 90.0746C95.5854 90.3755 93.6911 92.7626 93.9929 95.3932Z" fill="url(#paint10_linear_21_355)"/>
<path d="M98.8178 98.3657C97.3641 98.3657 96.1067 97.2711 95.9387 95.7934L95.7938 94.5531C95.7072 93.7825 95.9215 93.0239 96.4024 92.4154C96.8832 91.8068 97.5724 91.4245 98.343 91.3371L99.0149 91.2625C99.7847 91.1751 100.544 91.3894 101.152 91.8702C101.76 92.3511 102.143 93.0411 102.229 93.8117L102.374 95.0519C102.461 95.8225 102.246 96.5811 101.766 97.1897C101.286 97.7982 100.596 98.1805 99.8258 98.2679L99.1538 98.3425C99.0432 98.3605 98.9335 98.3657 98.8178 98.3657ZM98.5281 92.9074C98.1749 92.9485 97.8621 93.1225 97.6418 93.4002C97.4215 93.6779 97.323 94.0199 97.3641 94.3739L97.509 95.6134C97.5895 96.3377 98.2504 96.8597 98.9738 96.7782L99.6458 96.7028C99.999 96.6625 100.312 96.4885 100.532 96.2108C100.752 95.9322 100.851 95.5902 100.81 95.2371L100.666 93.9968C100.625 93.6437 100.451 93.3308 100.173 93.1105C99.8952 92.8902 99.5472 92.7917 99.2001 92.8328L98.5281 92.9074Z" fill="url(#paint11_linear_21_355)"/>
<path d="M79.906 148.604C79.4657 148.604 79.0255 148.419 78.7127 148.059C78.1451 147.399 78.2146 146.402 78.8749 145.834C86.0111 139.652 91.2706 131.649 94.0914 122.697C94.352 121.863 95.2383 121.405 96.0723 121.665C96.9063 121.926 97.364 122.813 97.1034 123.647C94.1086 133.161 88.5251 141.662 80.9428 148.227C80.6357 148.476 80.2709 148.604 79.906 148.604Z" fill="url(#paint12_linear_21_355)"/>
<path d="M74.7162 110.001C72.4862 110.001 70.6732 111.815 70.6732 114.045C70.6732 116.277 72.4803 118.09 74.7162 118.09C76.9462 118.09 78.7592 116.283 78.7592 114.045C78.7592 111.809 76.952 110.001 74.7162 110.001Z" fill="url(#paint13_linear_21_355)"/>
<path d="M67.7134 150C56.0536 150 44.4633 147.166 34.1993 141.807C24.2657 136.621 15.531 129.065 8.93935 119.967C8.42968 119.26 8.58606 118.275 9.29275 117.765C9.99938 117.255 10.9841 117.412 11.4938 118.119C24.5206 136.111 45.5406 146.848 67.7134 146.848C77.0794 146.848 86.1672 145.011 94.7172 141.395C95.5221 141.053 96.4427 141.43 96.7847 142.235C97.1267 143.041 96.7495 143.962 95.9447 144.304C87.0072 148.082 77.508 150 67.7134 150Z" fill="#D2EDFF"/>
<path d="M63.4967 85.033C63.3576 85.2011 63.1607 85.3112 62.929 85.3344C62.4656 85.3807 62.0544 85.0389 62.0138 84.5811L61.5794 79.5748C61.533 79.1112 61.8748 78.6998 62.3324 78.6592C62.7958 78.6129 63.207 78.9547 63.2476 79.4125L63.682 84.4189C63.7052 84.6507 63.6357 84.8708 63.4967 85.033Z" fill="#D2EDFF"/>
<path d="M59.3088 78.6013L55.6712 82.7038C55.3584 83.0514 54.8314 83.0746 54.4838 82.7675C54.1363 82.4604 54.1131 81.9274 54.4201 81.5797L58.0577 77.4772C58.3704 77.1296 58.8975 77.1064 59.2451 77.4135C59.5926 77.7264 59.6215 78.2595 59.3088 78.6013Z" fill="#D2EDFF"/>
<path d="M88.3683 43.7943C87.9689 43.9507 87.5232 43.7538 87.3663 43.3539L86.0806 39.0371C85.9241 38.6372 86.1209 38.1911 86.5203 38.0346C86.9206 37.8782 87.3663 38.0752 87.5232 38.475L88.8089 42.7919C88.9649 43.1916 88.7678 43.6436 88.3683 43.7943Z" fill="#D2EDFF"/>
<path d="M92.8229 43.5508C92.6429 43.6377 92.4346 43.661 92.2324 43.5972C91.8269 43.4639 91.6066 43.0236 91.7395 42.618L93.1529 38.2605C93.2866 37.8549 93.7264 37.6347 94.1318 37.768C94.5372 37.9013 94.7575 38.3417 94.6246 38.7473L93.2112 43.1047C93.1418 43.3075 92.9969 43.4639 92.8229 43.5508Z" fill="#D2EDFF"/>
<path d="M69.6771 68.3277L62.2572 65.894C61.4289 65.6217 60.5659 65.7144 59.8477 66.0853L69.0457 69.0984L69.6771 68.3277Z" fill="#D2EDFF"/>
<path d="M71.3972 69.8747L72.0343 69.0983L69.6768 68.3276L69.0397 69.0983L71.3972 69.8747Z" fill="#D2EDFF"/>
<path d="M91.0675 49.5768L91.7275 48.7772C91.994 48.4527 92.3129 48.1978 92.6549 48.0124C91.7103 47.4966 90.5806 47.514 89.66 48.0124C89.834 48.105 90.002 48.2152 90.158 48.3426C90.5695 48.6845 90.8763 49.1133 91.0675 49.5768Z" fill="white"/>
<path d="M70.8933 76.3182L71.4783 76.5094C71.8026 76.6137 72.1271 76.6659 72.4572 76.6659C72.9553 76.6659 73.4477 76.5442 73.8879 76.3182L71.7911 75.6287C71.5304 75.9184 71.2292 76.1444 70.8933 76.3182Z" fill="#D2EDFF"/>
<path d="M59.8418 66.0853L59.2568 65.894C58.4284 65.6217 57.5654 65.7144 56.8472 66.0853L58.9497 66.7748C59.2046 66.4909 59.5116 66.2591 59.8418 66.0853Z" fill="#D2EDFF"/>
<path d="M71.791 75.6285L60.2992 71.8622C58.6542 71.3233 57.7564 69.5502 58.295 67.8988C58.4341 67.4643 58.6658 67.0876 58.9496 66.7747L56.847 66.0852C56.1345 66.4503 55.5669 67.0818 55.2947 67.8988C54.756 69.5445 55.6538 71.3233 57.2988 71.8622L70.8874 76.3181C71.2292 76.1443 71.5304 75.9183 71.791 75.6285Z" fill="white"/>
<path d="M58.9493 66.7748L68.4023 69.8748L69.0395 69.1042L59.8414 66.0911C59.5112 66.2591 59.2043 66.4909 58.9493 66.7748Z" fill="#D2EDFF"/>
<path d="M90.9055 47.7632C89.151 48.0414 88.0092 49.3161 87.1581 50.7822C86.4861 50.9617 85.8895 51.4427 85.6057 52.2828C85.0786 53.8648 84.4241 56.2926 83.0977 57.4225C82.3794 58.0309 81.5569 58.2685 80.9256 59.0218C80.5896 59.4274 80.3521 59.9604 80.0741 60.4414C79.6571 60.6964 79.2632 60.9861 78.8751 61.3279C78.348 61.7857 78.1511 62.4695 78.2206 63.1358C77.7688 63.6052 77.3112 64.0687 76.8594 64.5323C76.3844 64.8278 75.9906 65.245 75.7009 65.8186C75.5388 66.1489 75.4577 66.4792 75.4461 66.7979C74.5251 67.8988 73.5173 68.8722 72.2662 69.7182C72.0113 69.8921 71.7796 70.0833 71.571 70.2919C71.5132 70.2745 71.461 70.263 71.3973 70.2514C67.1574 69.5213 62.9986 68.3276 59.0599 66.5892C57.9246 66.091 56.5923 66.259 55.9146 67.4121C55.3412 68.3914 55.5961 70.0543 56.7372 70.5585C60.4036 72.1809 64.1802 73.4382 68.0899 74.2785C68.5938 74.9274 69.3874 75.3446 70.291 75.1361C70.5864 75.2461 70.876 75.4258 71.1714 75.5474C71.7912 75.8082 72.382 75.9414 73.0597 75.9473C74.6584 75.9647 75.4808 74.5334 75.2607 73.2413C75.4461 73.1254 75.6314 73.0095 75.8053 72.8762C76.4945 72.3663 77.149 71.81 77.7398 71.19C78.8461 70.0312 79.7903 68.7158 80.7286 67.4179C80.8503 67.244 80.943 67.0586 80.9951 66.8674C82.084 65.7375 83.1672 64.6018 84.2271 63.4371C84.7079 62.9099 84.8817 62.2667 84.8353 61.6524C85.1886 61.4381 85.6057 61.27 85.9069 61.0382C86.6541 60.453 87.2678 59.6997 87.789 58.8595C88.0324 58.8711 88.299 58.848 88.5775 58.7668C90.135 58.3322 91.2415 56.733 92.1047 55.4524C93.0201 54.0966 93.9578 52.3235 94.167 50.6836C94.4155 48.7367 92.7707 47.4678 90.9055 47.7632Z" fill="#D2EDFF"/>
<path d="M72.4631 77.8189C72.0113 77.8189 71.5595 77.7494 71.1251 77.6045L56.9456 72.9574C54.6983 72.2215 53.4645 69.7937 54.2059 67.5396C54.9415 65.2914 57.3684 64.063 59.6216 64.7989L71.0092 68.5305L87.8412 48.0414C88.5715 47.1549 89.5967 46.6044 90.7375 46.4944C91.8784 46.3842 92.997 46.7203 93.8824 47.4504C95.7072 48.9512 95.9738 51.6629 94.4738 53.494L75.7763 76.2486C74.9595 77.2453 73.749 77.8189 72.4631 77.8189ZM58.2836 66.8907C57.4495 66.8907 56.6676 67.4237 56.3953 68.2582C56.0536 69.3011 56.6213 70.4253 57.6639 70.7671L71.8433 75.4143C72.046 75.478 72.2545 75.5128 72.4631 75.5128C73.0596 75.5128 73.6215 75.2462 73.998 74.7885L92.6952 52.0338C93.3904 51.1878 93.2687 49.9304 92.4235 49.2351C92.0121 48.899 91.4961 48.7426 90.969 48.7947C90.4418 48.8469 89.9618 49.1018 89.6258 49.5132L72.2951 70.6107C71.9939 70.9757 71.4958 71.1206 71.044 70.9757L58.9034 66.995C58.6949 66.9196 58.4922 66.8907 58.2836 66.8907Z" fill="url(#paint14_linear_21_355)"/>
<path d="M134.509 10.8935C128.399 12.0582 127.356 13.3967 126.447 21.2075C126.418 21.4394 126.157 21.4394 126.128 21.2075C125.219 13.3967 124.17 12.0639 118.066 10.8935C117.886 10.8587 117.886 10.5226 118.066 10.4879C124.176 9.32323 125.219 7.98471 126.128 0.173833C126.157 -0.0579442 126.418 -0.0579442 126.447 0.173833C127.356 7.98471 128.405 9.3174 134.509 10.4879C134.689 10.5226 134.689 10.8587 134.509 10.8935Z" fill="#D2EDFF"/>
<path d="M10.7582 89.2568C6.88896 89.9408 6.21705 90.7748 5.57411 95.7008C5.55673 95.8457 5.38876 95.8457 5.37138 95.7008C4.86167 90.7577 4.21872 89.9057 0.366879 89.118C0.251034 89.0948 0.256826 88.8806 0.372671 88.8634C4.24189 88.1794 4.9138 87.3446 5.55673 82.4197C5.57411 82.2748 5.74209 82.2748 5.75946 82.4197C6.26918 87.3626 6.91212 88.2137 10.764 89.0023C10.8798 89.0194 10.8741 89.2337 10.7582 89.2568Z" fill="#D2EDFF"/>
<path d="M30.7414 34.0828C24.3177 35.1548 23.2231 36.3716 22.2847 43.4756C22.2557 43.6899 21.9777 43.6899 21.9488 43.4756C20.9756 36.3774 19.8751 35.1664 13.4457 34.1234C13.2546 34.0944 13.2546 33.7873 13.4457 33.7526C19.8693 32.6805 20.9641 31.4637 21.9024 24.3598C21.9314 24.1454 22.2094 24.1454 22.2384 24.3598C23.2114 31.458 24.312 32.669 30.7414 33.712C30.9326 33.7467 30.9326 34.0538 30.7414 34.0828Z" fill="#D2EDFF"/>
<path d="M99.9586 83.0918C97.1326 82.9933 94.7574 80.7857 94.52 77.8943C94.3983 76.3877 94.8671 74.9275 95.846 73.7744C96.8257 72.6213 98.192 71.9202 99.698 71.7985L105.67 71.3176C107.176 71.1959 108.635 71.6652 109.788 72.6445C110.941 73.6238 111.642 74.9912 111.763 76.4978C111.885 78.0043 111.416 79.4646 110.437 80.6177C109.458 81.7707 108.091 82.4718 106.585 82.5936L100.613 83.0745C100.387 83.0976 100.173 83.1035 99.9586 83.0918ZM106.238 73.7223C106.116 73.7165 105.989 73.7223 105.867 73.7339L99.8951 74.2148C99.032 74.2843 98.2503 74.6842 97.694 75.3447C97.1326 76.0053 96.866 76.8396 96.9354 77.703C97.0803 79.482 98.6437 80.8088 100.422 80.6698L106.394 80.1888C108.173 80.044 109.499 78.4795 109.36 76.7006C109.215 75.0434 107.86 73.7802 106.238 73.7223Z" fill="url(#paint15_linear_21_355)"/>
<path d="M100.069 80.044C99.5824 80.0266 99.1195 79.847 98.7424 79.5283C98.3027 79.1517 98.0301 78.6302 97.9838 78.0507L97.9204 77.2743C97.8741 76.6949 98.0532 76.1328 98.4295 75.6924C98.8067 75.252 99.3278 74.9797 99.9072 74.9334L100.272 74.9044C100.851 74.858 101.413 75.0377 101.853 75.4143C102.294 75.7909 102.565 76.3124 102.612 76.8918L102.676 77.6683C102.774 78.862 101.882 79.9107 100.689 80.0093L100.324 80.0382C100.237 80.044 100.156 80.044 100.069 80.044ZM100.486 76.1038C100.452 76.1038 100.411 76.1038 100.376 76.1038L100.006 76.1328C99.7504 76.156 99.5189 76.2719 99.3509 76.4688C99.1829 76.6659 99.1015 76.915 99.1247 77.17L99.1889 77.9465C99.2121 78.2014 99.3278 78.4332 99.5249 78.6012C99.7212 78.7692 99.9707 78.8503 100.225 78.8272L100.59 78.7982C100.845 78.7751 101.077 78.6592 101.245 78.4621C101.413 78.2652 101.494 78.016 101.471 77.761L101.407 76.9846C101.384 76.7296 101.268 76.4978 101.071 76.3298C100.909 76.1907 100.706 76.1154 100.486 76.1038Z" fill="url(#paint16_linear_21_355)"/>
<path d="M100.567 70.4196C99.1538 70.3732 97.8038 69.8517 96.7093 68.9188C95.4295 67.8294 94.647 66.2997 94.5081 64.6251C94.3753 62.9448 94.8964 61.3165 95.991 60.0301C97.0804 58.7496 98.6095 57.9673 100.284 57.8283L107.13 57.272C108.81 57.1387 110.437 57.6602 111.723 58.7554C113.003 59.8447 113.785 61.3745 113.924 63.0491C114.057 64.7294 113.536 66.3577 112.441 67.6441C111.352 68.9246 109.823 69.7069 108.149 69.8459L101.303 70.4022C101.053 70.4196 100.81 70.4253 100.567 70.4196ZM96.9175 64.4281C96.999 65.4654 97.4858 66.404 98.2735 67.0762C99.0613 67.7484 100.068 68.0728 101.106 67.9917L107.952 67.4354C108.989 67.3543 109.927 66.8676 110.599 66.0795C111.271 65.2857 111.595 64.2833 111.515 63.2461C111.433 62.2088 110.946 61.2702 110.159 60.598C109.371 59.9258 108.363 59.6014 107.327 59.6825L100.48 60.2388C99.4435 60.3199 98.505 60.8066 97.833 61.5947C97.161 62.3885 96.837 63.3909 96.9175 64.4281Z" fill="url(#paint17_linear_21_355)"/>
<path d="M101.047 67.3949C99.5361 67.3427 98.2615 66.1607 98.1398 64.6136L98.0935 64.0458C97.9606 62.3827 99.2001 60.9168 100.868 60.7835C101.673 60.7197 102.455 60.9689 103.075 61.4962C103.689 62.0177 104.065 62.7535 104.129 63.559L104.176 64.1268C104.309 65.7899 103.069 67.2558 101.401 67.3891C101.279 67.3949 101.164 67.4007 101.047 67.3949ZM100.961 61.9945C99.9646 62.0756 99.2172 62.9563 99.2986 63.953L99.3449 64.5209C99.4255 65.5175 100.307 66.265 101.303 66.1838C102.299 66.1027 103.046 65.222 102.965 64.2253L102.918 63.6575C102.878 63.1708 102.652 62.7362 102.287 62.4175C101.916 62.1046 101.447 61.9539 100.961 61.9945Z" fill="url(#paint18_linear_21_355)"/>
</g>
<defs>
<linearGradient id="paint0_linear_21_355" x1="90.8036" y1="29.1494" x2="132.021" y2="59.6978" gradientUnits="userSpaceOnUse">
<stop stop-color="#16A7DD"/>
<stop offset="0.453013" stop-color="#3492B5"/>
<stop offset="1" stop-color="#8BBCCE"/>
</linearGradient>
<linearGradient id="paint1_linear_21_355" x1="104.54" y1="67.4529" x2="108.842" y2="68.3477" gradientUnits="userSpaceOnUse">
<stop stop-color="#16A7DD"/>
<stop offset="0.453013" stop-color="#3492B5"/>
<stop offset="1" stop-color="#8BBCCE"/>
</linearGradient>
<linearGradient id="paint2_linear_21_355" x1="41.735" y1="2.69446" x2="130.773" y2="23.2552" gradientUnits="userSpaceOnUse">
<stop stop-color="#16A7DD"/>
<stop offset="0.453013" stop-color="#3492B5"/>
<stop offset="1" stop-color="#8BBCCE"/>
</linearGradient>
<linearGradient id="paint3_linear_21_355" x1="99.2695" y1="67.6151" x2="103.572" y2="68.5106" gradientUnits="userSpaceOnUse">
<stop stop-color="#16A7DD"/>
<stop offset="0.453013" stop-color="#3492B5"/>
<stop offset="1" stop-color="#8BBCCE"/>
</linearGradient>
<linearGradient id="paint4_linear_21_355" x1="47.0059" y1="16.1608" x2="121.029" y2="34.9771" gradientUnits="userSpaceOnUse">
<stop stop-color="#16A7DD"/>
<stop offset="0.453013" stop-color="#3492B5"/>
<stop offset="1" stop-color="#8BBCCE"/>
</linearGradient>
<linearGradient id="paint5_linear_21_355" x1="67.5338" y1="10.6964" x2="71.6375" y2="19.383" gradientUnits="userSpaceOnUse">
<stop stop-color="#16A7DD"/>
<stop offset="0.453013" stop-color="#3492B5"/>
<stop offset="1" stop-color="#8BBCCE"/>
</linearGradient>
<linearGradient id="paint6_linear_21_355" x1="63.0447" y1="10.6964" x2="66.8534" y2="12.3053" gradientUnits="userSpaceOnUse">
<stop stop-color="#16A7DD"/>
<stop offset="0.453013" stop-color="#3492B5"/>
<stop offset="1" stop-color="#8BBCCE"/>
</linearGradient>
<linearGradient id="paint7_linear_21_355" x1="22.0935" y1="55.6031" x2="54.0437" y2="59.4899" gradientUnits="userSpaceOnUse">
<stop stop-color="#16A7DD"/>
<stop offset="0.453013" stop-color="#3492B5"/>
<stop offset="1" stop-color="#8BBCCE"/>
</linearGradient>
<linearGradient id="paint8_linear_21_355" x1="38.5671" y1="94.6486" x2="54.6919" y2="97.0389" gradientUnits="userSpaceOnUse">
<stop stop-color="#16A7DD"/>
<stop offset="0.453013" stop-color="#3492B5"/>
<stop offset="1" stop-color="#8BBCCE"/>
</linearGradient>
<linearGradient id="paint9_linear_21_355" x1="22.0935" y1="60.4995" x2="38.6142" y2="67.4685" gradientUnits="userSpaceOnUse">
<stop stop-color="#16A7DD"/>
<stop offset="0.453013" stop-color="#3492B5"/>
<stop offset="1" stop-color="#8BBCCE"/>
</linearGradient>
<linearGradient id="paint10_linear_21_355" x1="90.806" y1="85.8953" x2="116.147" y2="101.355" gradientUnits="userSpaceOnUse">
<stop stop-color="#16A7DD"/>
<stop offset="0.453013" stop-color="#3492B5"/>
<stop offset="1" stop-color="#8BBCCE"/>
</linearGradient>
<linearGradient id="paint11_linear_21_355" x1="95.775" y1="91.2434" x2="103.931" y2="94.4402" gradientUnits="userSpaceOnUse">
<stop stop-color="#16A7DD"/>
<stop offset="0.453013" stop-color="#3492B5"/>
<stop offset="1" stop-color="#8BBCCE"/>
</linearGradient>
<linearGradient id="paint12_linear_21_355" x1="78.3292" y1="121.592" x2="102.99" y2="128.851" gradientUnits="userSpaceOnUse">
<stop stop-color="#16A7DD"/>
<stop offset="0.453013" stop-color="#3492B5"/>
<stop offset="1" stop-color="#8BBCCE"/>
</linearGradient>
<linearGradient id="paint13_linear_21_355" x1="70.6732" y1="110.001" x2="80.4344" y2="114.117" gradientUnits="userSpaceOnUse">
<stop stop-color="#16A7DD"/>
<stop offset="0.453013" stop-color="#3492B5"/>
<stop offset="1" stop-color="#8BBCCE"/>
</linearGradient>
<linearGradient id="paint14_linear_21_355" x1="53.9904" y1="46.4739" x2="98.9423" y2="71.551" gradientUnits="userSpaceOnUse">
<stop stop-color="#16A7DD"/>
<stop offset="0.453013" stop-color="#3492B5"/>
<stop offset="1" stop-color="#8BBCCE"/>
</linearGradient>
<linearGradient id="paint15_linear_21_355" x1="94.5011" y1="71.2987" x2="112.284" y2="82.285" gradientUnits="userSpaceOnUse">
<stop stop-color="#16A7DD"/>
<stop offset="0.453013" stop-color="#3492B5"/>
<stop offset="1" stop-color="#8BBCCE"/>
</linearGradient>
<linearGradient id="paint16_linear_21_355" x1="97.9132" y1="74.8972" x2="103.796" y2="77.1971" gradientUnits="userSpaceOnUse">
<stop stop-color="#16A7DD"/>
<stop offset="0.453013" stop-color="#3492B5"/>
<stop offset="1" stop-color="#8BBCCE"/>
</linearGradient>
<linearGradient id="paint17_linear_21_355" x1="94.4878" y1="57.2516" x2="114.414" y2="69.6686" gradientUnits="userSpaceOnUse">
<stop stop-color="#16A7DD"/>
<stop offset="0.453013" stop-color="#3492B5"/>
<stop offset="1" stop-color="#8BBCCE"/>
</linearGradient>
<linearGradient id="paint18_linear_21_355" x1="98.0837" y1="60.7737" x2="105.621" y2="63.7026" gradientUnits="userSpaceOnUse">
<stop stop-color="#16A7DD"/>
<stop offset="0.453013" stop-color="#3492B5"/>
<stop offset="1" stop-color="#8BBCCE"/>
</linearGradient>
<clipPath id="clip0_21_355">
<rect width="135.429" height="150" fill="white" transform="translate(0.285767)"/>
</clipPath>
</defs>
</svg>
