<svg width="20" height="16" viewBox="0 0 20 16" fill="none" xmlns="http://www.w3.org/2000/svg">
<path d="M10 -2.98433C13.2147 -2.98433 15.8301 -0.368996 15.8301 2.84574V11.6408L18.3152 9.15572C18.4859 8.98498 18.7628 8.98498 18.9336 9.15572L19.1396 9.36182C19.3104 9.53256 19.3104 9.80942 19.1396 9.9802L15.5562 13.5636C15.3855 13.7344 15.1086 13.7344 14.9378 13.5636L11.3544 9.9802C11.1837 9.80946 11.1837 9.5326 11.3544 9.36182L11.5605 9.15572C11.7313 8.98498 12.0081 8.98498 12.1789 9.15572L14.6641 11.6408V2.84574C14.6641 0.273987 12.5718 -1.81831 10 -1.81831C8.95952 -1.81831 7.99767 -1.47569 7.22096 -0.897491C7.04635 -0.767517 6.80331 -0.783876 6.64939 -0.937792L6.44152 -1.14567C6.2535 -1.33369 6.27583 -1.64407 6.48783 -1.80457C7.46531 -2.5447 8.68223 -2.98433 10 -2.98433ZM12.779 13.585C12.0023 14.1632 11.0405 14.5059 10 14.5059C7.42825 14.5059 5.33595 12.4136 5.33595 9.84181L5.33595 1.04673L7.82105 3.53183C7.9918 3.70257 8.26866 3.70257 8.43944 3.53183L8.64553 3.32573C8.81628 3.15499 8.81628 2.87813 8.64553 2.70735L5.06212 -0.876064C4.89138 -1.04681 4.61452 -1.04681 4.44374 -0.876064L0.860361 2.70731C0.689613 2.87806 0.689613 3.15491 0.860361 3.3257L1.06645 3.53179C1.2372 3.70254 1.51406 3.70254 1.68484 3.53179L4.16994 1.04673L4.16994 9.84181C4.16994 13.0565 6.78527 15.6719 10 15.6719C11.3178 15.6719 12.5347 15.2323 13.5121 14.4922C13.7241 14.3317 13.7465 14.0213 13.5585 13.8333L13.3506 13.6254C13.1967 13.4714 12.9537 13.4551 12.779 13.585Z" fill="#F37C20"/>
</svg>
