<svg width="17" height="16" viewBox="0 0 17 16" fill="none" xmlns="http://www.w3.org/2000/svg">
<path d="M16.4375 8.00002C16.4375 10.7571 14.1945 13 11.4375 13H3.89462L6.02591 15.1313C6.17234 15.2777 6.17234 15.5152 6.02591 15.6616L5.84916 15.8384C5.70272 15.9848 5.46528 15.9848 5.31881 15.8384L2.24559 12.7652C2.09916 12.6187 2.09916 12.3813 2.24559 12.2348L5.31881 9.16162C5.46525 9.01518 5.70269 9.01518 5.84916 9.16162L6.02591 9.33837C6.17234 9.4848 6.17234 9.72224 6.02591 9.86871L3.89462 12H11.4375C13.6431 12 15.4375 10.2056 15.4375 8.00002C15.4375 7.10768 15.1437 6.28277 14.6478 5.61665C14.5363 5.4669 14.5503 5.25846 14.6823 5.12646L14.8606 4.94818C15.0219 4.78693 15.2881 4.80608 15.4257 4.9879C16.0605 5.82621 16.4375 6.86987 16.4375 8.00002ZM2.22722 10.3834C1.73134 9.71727 1.4375 8.89237 1.4375 8.00002C1.4375 5.79443 3.23191 4.00002 5.4375 4.00002H12.9804L10.8491 6.1313C10.7027 6.27774 10.7027 6.51518 10.8491 6.66165L11.0258 6.8384C11.1723 6.98483 11.4097 6.98483 11.5562 6.8384L14.6294 3.76518C14.7758 3.61874 14.7758 3.3813 14.6294 3.23483L11.5562 0.161647C11.4098 0.0152095 11.1723 0.0152095 11.0259 0.161647L10.8491 0.338397C10.7027 0.484834 10.7027 0.722272 10.8491 0.868741L12.9804 3.00002H5.4375C2.68047 3.00002 0.4375 5.24299 0.4375 8.00002C0.4375 9.13018 0.814531 10.1738 1.44925 11.0121C1.58691 11.1939 1.85309 11.2131 2.01434 11.0518L2.19263 10.8736C2.32466 10.7416 2.33869 10.5331 2.22722 10.3834Z" fill="#59595B"/>
</svg>
