<svg width="334" height="226" viewBox="0 0 334 226" fill="none" xmlns="http://www.w3.org/2000/svg">
<path d="M239.627 97.5713H108.642C100.545 97.5713 93.9717 104.143 93.9717 112.238V182.476C93.9717 190.571 100.545 197.143 108.642 197.143H239.627C247.725 197.143 254.298 190.571 254.298 182.476V112.238C254.298 104.143 247.725 97.5713 239.627 97.5713ZM243.533 178.333C243.533 183.047 240.532 186.333 235.817 186.333L107.88 186.905C103.164 186.905 99.354 183.095 99.354 178.381V111.571C99.354 106.857 103.164 103.047 107.88 103.047H235.817C240.532 103.047 244.343 106.857 244.343 111.571L243.533 178.333Z" fill="#F6A0A2"/>
<path d="M250.915 22.9524C250.439 22.4286 249.963 21.9524 249.439 21.4286C248.486 20.5239 247.009 20.5715 246.104 21.5239C245.199 22.4762 245.247 23.9524 246.2 24.8572C246.628 25.2382 247.057 25.6667 247.438 26.0953C251.391 30.4286 253.582 36.0953 253.582 41.9524C253.582 54.9524 243.008 65.4762 230.053 65.4762C217.05 65.4762 206.523 54.9048 206.523 41.9524C206.523 29.0001 217.097 18.4286 230.053 18.4286C230.577 18.4286 231.101 18.4286 231.625 18.4762C232.911 18.5715 234.054 17.5715 234.101 16.2858C234.197 15.0001 233.196 13.8572 231.91 13.8096C231.291 13.762 230.672 13.762 230.053 13.762C214.477 13.762 201.808 26.4286 201.808 42.0001C201.808 57.5715 214.477 70.2382 230.053 70.2382C245.628 70.2382 258.298 57.5715 258.298 42.0001C258.298 34.9524 255.678 28.1905 250.915 22.9524Z" fill="#D3060A"/>
<path d="M230.053 70.7618C214.192 70.7618 201.284 57.8571 201.284 41.9999C201.284 26.1428 214.192 13.238 230.053 13.238C230.673 13.238 231.339 13.238 231.959 13.2857C232.721 13.3333 233.435 13.6666 233.959 14.2857C234.483 14.8571 234.721 15.619 234.674 16.3809C234.626 17.1428 234.245 17.9047 233.673 18.3809C233.102 18.9047 232.34 19.1428 231.578 19.0476C231.101 18.9999 230.577 18.9999 230.053 18.9999C217.383 18.9999 207.048 29.3333 207.048 41.9999C207.048 54.6666 217.383 64.9999 230.053 64.9999C242.723 64.9999 253.059 54.6666 253.059 41.9999C253.059 36.238 250.916 30.7142 247.058 26.4761C246.677 26.0476 246.248 25.619 245.867 25.238C245.295 24.7142 244.962 23.9999 244.962 23.238C244.962 22.4761 245.2 21.7142 245.772 21.1904C246.296 20.619 247.01 20.2857 247.772 20.2857C248.534 20.238 249.296 20.5238 249.82 21.0952C250.344 21.5714 250.868 22.0952 251.344 22.619L250.963 22.9999L251.344 22.619C256.203 27.9523 258.87 34.8095 258.87 42.0476C258.822 57.8571 245.914 70.7618 230.053 70.7618ZM230.053 14.3333C214.764 14.3333 202.332 26.7618 202.332 42.0476C202.332 57.3333 214.764 69.7618 230.053 69.7618C245.343 69.7618 257.775 57.3333 257.775 42.0476C257.775 35.1428 255.203 28.4761 250.535 23.3809L250.392 23.238V23.1904C249.963 22.7142 249.534 22.2857 249.106 21.8571C248.772 21.5238 248.296 21.3333 247.82 21.3809C247.343 21.3809 246.867 21.619 246.581 21.9523C246.248 22.2857 246.057 22.7618 246.105 23.238C246.105 23.7142 246.343 24.1904 246.677 24.5238C247.105 24.9047 247.534 25.3333 247.963 25.8095C252.011 30.238 254.25 36.0476 254.25 42.0476C254.25 55.3333 243.438 66.1428 230.149 66.1428C216.86 66.1428 206.047 55.3333 206.047 42.0476C206.047 28.7618 216.86 17.9523 230.149 17.9523C230.72 17.9523 231.244 17.9523 231.768 17.9999C232.244 18.0476 232.673 17.9047 233.054 17.5714C233.435 17.238 233.673 16.8095 233.673 16.2857C233.721 15.8095 233.53 15.3333 233.245 14.9523C232.959 14.5714 232.483 14.3809 232.006 14.3333C231.292 14.3333 230.673 14.3333 230.053 14.3333Z" fill="white"/>
<path d="M237.912 19.8096C238.96 20.1905 240.008 20.6667 241.008 21.1905C241.341 21.381 241.723 21.4763 242.104 21.4763C242.961 21.4763 243.771 21.0001 244.199 20.2382C244.819 19.0953 244.39 17.6667 243.247 17.0477C242.056 16.4286 240.77 15.8572 239.484 15.381C238.245 14.9524 236.912 15.5715 236.483 16.8096C236.054 18.0477 236.674 19.381 237.912 19.8096Z" fill="#D3060A"/>
<path d="M242.151 22.0001C241.675 22.0001 241.198 21.9049 240.817 21.6668C239.817 21.143 238.817 20.7144 237.769 20.3335C236.245 19.8097 235.483 18.143 236.007 16.6668C236.245 15.9525 236.769 15.3335 237.483 15.0001C238.198 14.6668 238.96 14.6192 239.674 14.9049C241.008 15.3811 242.246 15.9525 243.485 16.5716C244.152 16.9525 244.675 17.5239 244.914 18.2858C245.152 19.0001 245.056 19.8097 244.723 20.4763C244.199 21.4287 243.199 22.0001 242.151 22.0001ZM238.102 19.2858C239.198 19.6668 240.246 20.143 241.294 20.6668C241.532 20.8097 241.865 20.8573 242.151 20.8573C242.818 20.8573 243.437 20.4763 243.77 19.9049C244.009 19.4763 244.056 19.0001 243.913 18.5239C243.77 18.0477 243.437 17.6668 243.008 17.4763C241.818 16.8573 240.579 16.2858 239.341 15.8573C238.864 15.7144 238.388 15.7144 237.959 15.9525C237.531 16.143 237.197 16.5239 237.055 17.0001C236.673 17.9525 237.15 18.9525 238.102 19.2858Z" fill="white"/>
<path d="M217.907 44.9526C216.717 45.4764 216.193 46.905 216.764 48.0479C217.145 48.905 218.003 49.4288 218.908 49.4288C219.241 49.4288 219.574 49.3812 219.86 49.2383L231.006 44.1431C231.482 43.905 231.863 43.5241 232.149 43.0479L238.674 30.2383C239.246 29.0955 238.817 27.6669 237.626 27.0955C236.483 26.5241 235.054 26.9526 234.483 28.1431L228.338 40.2383L217.907 44.9526Z" fill="#D3060A"/>
<path d="M218.907 50.0002C217.764 50.0002 216.763 49.3335 216.287 48.3335C215.62 46.905 216.287 45.1907 217.716 44.524L227.957 39.8574L234.006 27.9526C234.72 26.524 236.483 25.9526 237.912 26.6669C239.341 27.3812 239.912 29.1431 239.198 30.5716L232.625 43.3335C232.339 43.905 231.862 44.3812 231.243 44.6669L220.098 49.7145C219.717 49.905 219.288 50.0002 218.907 50.0002ZM218.145 45.4288C217.24 45.8574 216.859 46.905 217.24 47.8097C217.526 48.4764 218.192 48.8574 218.907 48.8574C219.145 48.8574 219.431 48.8097 219.669 48.7145L230.815 43.6193C231.196 43.4288 231.481 43.1431 231.672 42.8097L238.197 30.0002C238.626 29.0955 238.293 28.0002 237.388 27.5716C236.483 27.1431 235.387 27.4764 234.959 28.3812L228.719 40.6193L218.145 45.4288Z" fill="white"/>
<path d="M114.308 43.476C113.165 41.7617 111.117 40.7617 108.878 40.7617H101.686V35.0475C101.686 34.0951 102.496 33.2856 103.448 33.2856C104.401 33.2856 105.211 34.0951 105.211 35.0475C105.211 36.3332 106.259 37.3808 107.545 37.3808C108.831 37.3808 109.879 36.3332 109.879 35.0475C109.879 31.476 106.973 28.5713 103.401 28.5713C102.782 28.5713 102.21 28.6665 101.639 28.8094V25.4284C101.639 24.476 102.448 23.6665 103.401 23.6665C104.353 23.6665 105.163 24.476 105.163 25.4284C105.163 26.7141 106.211 27.7617 107.497 27.7617C108.783 27.7617 109.831 26.7141 109.831 25.4284C109.831 21.857 106.926 18.9522 103.353 18.9522C102.734 18.9522 102.162 19.0475 101.591 19.1903V17.1427C101.591 16.1903 102.401 15.3808 103.353 15.3808C104.306 15.3808 105.116 16.1903 105.116 17.1427C105.116 18.4284 106.163 19.476 107.449 19.476C108.736 19.476 109.783 18.4284 109.783 17.1427C109.783 13.5713 106.878 10.6665 103.306 10.6665C99.9714 10.6665 97.2565 13.1903 96.8754 16.4284C96.3038 16.2379 95.6846 16.1903 95.0654 16.1903C91.4931 16.1903 88.5876 19.0951 88.5876 22.6665C88.5876 23.9522 89.6355 24.9998 90.9215 24.9998C92.2076 24.9998 93.2554 23.9522 93.2554 22.6665C93.2554 21.7141 94.0652 20.9046 95.0178 20.9046C95.9704 20.9046 96.7801 21.7141 96.7801 22.6665V25.5713C96.2086 25.4284 95.637 25.3332 95.0178 25.3332C91.4455 25.3332 88.54 28.2379 88.54 31.8094C88.54 33.0951 89.5879 34.1427 90.8739 34.1427C92.1599 34.1427 93.2078 33.0951 93.2078 31.8094C93.2078 30.857 94.0175 30.0475 94.9702 30.0475C95.9228 30.0475 96.7325 30.857 96.7325 31.8094V40.857H89.5402C87.3016 40.857 85.2534 41.857 84.1103 43.5713C83.1577 44.9998 82.9672 46.7141 83.5864 48.1427L84.4913 50.7141C84.92 51.9522 86.2537 52.5713 87.4921 52.1427C88.7305 51.7141 89.3497 50.3808 88.921 49.1427L87.9684 46.476C87.9208 46.4284 87.9208 46.3332 88.016 46.1903C88.2066 45.857 88.7781 45.5713 89.5402 45.5713H108.593C109.355 45.5713 109.926 45.9046 110.117 46.1903C110.212 46.3332 110.212 46.4284 110.117 46.5713L104.02 63.6189H94.351L92.0647 57.2856C91.636 56.0475 90.3023 55.4284 89.0639 55.857C87.8255 56.2856 87.2063 57.6189 87.635 58.857L90.4452 66.7617C90.7786 67.7141 91.6836 68.3332 92.6362 68.3332H105.878C106.878 68.3332 107.735 67.7141 108.069 66.7617L114.689 48.2379C115.451 46.6189 115.261 44.9046 114.308 43.476Z" fill="#D3060A"/>
<path d="M105.974 68.8095H92.7321C91.4937 68.8095 90.3982 68.0476 90.0171 66.9047L87.2069 59C86.9687 58.2857 86.9687 57.4762 87.3022 56.8095C87.6356 56.0952 88.2071 55.5714 88.9216 55.3333C89.6361 55.0952 90.4458 55.0952 91.1126 55.4285C91.8271 55.7619 92.351 56.3333 92.5892 57.0476L94.7326 63H103.925L109.879 46.3333C109.736 46.1905 109.355 46 108.831 46H89.779C89.255 46 88.874 46.1905 88.7311 46.3333L89.6361 48.8571C90.16 50.3809 89.3979 52 87.8737 52.5714C87.1593 52.8095 86.3495 52.8095 85.6827 52.4762C84.9682 52.1428 84.4443 51.5714 84.2061 50.8571L83.3012 48.2857C82.6343 46.6666 82.8725 44.7619 83.9204 43.1904C85.1588 41.3333 87.3498 40.2381 89.8266 40.2381H96.4473V31.7143C96.4473 31.0476 95.8757 30.4762 95.2089 30.4762C94.5421 30.4762 93.9705 31.0476 93.9705 31.7143C93.9705 33.2857 92.6845 34.619 91.065 34.619C89.4456 34.619 88.1595 33.3333 88.1595 31.7143C88.1595 27.8571 91.3032 24.7143 95.1613 24.7143C95.5899 24.7143 95.971 24.7619 96.3997 24.8095V22.5714C96.3997 21.9047 95.8281 21.3333 95.1613 21.3333C94.4944 21.3333 93.9229 21.9047 93.9229 22.5714C93.9229 24.1428 92.6368 25.4762 91.0174 25.4762C89.3979 25.4762 88.1119 24.1905 88.1119 22.5714C88.1119 18.7143 91.2555 15.5714 95.1136 15.5714C95.59 15.5714 96.0186 15.619 96.4949 15.7143C97.1618 12.4762 99.972 10.0952 103.354 10.0952C107.212 10.0952 110.356 13.2381 110.356 17.0952C110.356 18.619 109.165 19.8571 107.688 19.9524C109.308 21.2381 110.356 23.2381 110.356 25.4285C110.356 27 109.07 28.3333 107.45 28.3333C105.831 28.3333 104.545 27.0476 104.545 25.4285C104.545 24.7619 103.973 24.1905 103.306 24.1905C102.639 24.1905 102.068 24.7619 102.068 25.4285V28.0952C102.449 28 102.877 28 103.306 28C107.164 28 110.308 31.1428 110.308 35C110.308 36.5714 109.022 37.9047 107.402 37.9047C105.783 37.9047 104.497 36.619 104.497 35C104.497 34.3333 103.925 33.7619 103.259 33.7619C102.592 33.7619 102.02 34.3333 102.02 35V40.1428H108.641C111.07 40.1428 113.261 41.2381 114.499 43.0952C115.547 44.6666 115.785 46.5714 115.071 48.2857L108.45 66.8095C108.307 68 107.212 68.8095 105.974 68.8095ZM89.8742 56.1904C89.6837 56.1904 89.4456 56.2381 89.255 56.2857C88.7787 56.4285 88.4453 56.7619 88.2071 57.2381C88.0166 57.6666 87.969 58.1428 88.1595 58.619L90.9697 66.5238C91.2079 67.2381 91.9224 67.7143 92.6845 67.7143H105.926C106.688 67.7143 107.355 67.2381 107.641 66.5238L114.261 48C114.833 46.5714 114.642 45.0476 113.785 43.8095C112.737 42.2857 110.879 41.3333 108.784 41.3333H101.068V35.0952C101.068 33.8095 102.115 32.8095 103.354 32.8095C104.592 32.8095 105.64 33.8571 105.64 35.0952C105.64 36.0952 106.45 36.9047 107.45 36.9047C108.45 36.9047 109.26 36.0952 109.26 35.0952C109.26 31.8095 106.593 29.1905 103.354 29.1905C102.83 29.1905 102.258 29.2857 101.734 29.4285L101.068 29.619V25.5238C101.068 24.2381 102.115 23.2381 103.354 23.2381C104.592 23.2381 105.64 24.2857 105.64 25.5238C105.64 26.5238 106.45 27.3333 107.45 27.3333C108.45 27.3333 109.26 26.5238 109.26 25.5238C109.26 22.2381 106.593 19.619 103.354 19.619C102.83 19.619 102.258 19.7143 101.734 19.8571L101.068 20.0476V17.1905C101.068 15.9047 102.115 14.9047 103.354 14.9047C104.592 14.9047 105.64 15.9524 105.64 17.1905C105.64 18.1905 106.45 19 107.45 19C108.45 19 109.26 18.1905 109.26 17.1905C109.26 13.9047 106.593 11.2857 103.354 11.2857C100.353 11.2857 97.781 13.5714 97.4476 16.5714L97.3999 17.1905L96.7807 17C96.2568 16.8571 95.6852 16.7619 95.1136 16.7619C91.8271 16.7619 89.2074 19.4285 89.2074 22.6666C89.2074 23.6666 90.0171 24.4762 91.0174 24.4762C92.0176 24.4762 92.8274 23.6666 92.8274 22.6666C92.8274 21.3809 93.8752 20.3809 95.1136 20.3809C96.352 20.3809 97.3999 21.4285 97.3999 22.6666V26.2857L96.7331 26.0952C96.2092 25.9524 95.6852 25.8571 95.1136 25.8571C91.8271 25.8571 89.2074 28.5238 89.2074 31.7619C89.2074 32.7619 90.0171 33.5714 91.0174 33.5714C92.0176 33.5714 92.8274 32.7619 92.8274 31.7619C92.8274 30.4762 93.8752 29.4762 95.1136 29.4762C96.352 29.4762 97.3999 30.5238 97.3999 31.7619V41.3333H89.6837C87.5879 41.3333 85.7303 42.2381 84.6825 43.8095C83.8251 45.0476 83.6346 46.5714 84.2061 47.9047L85.1111 50.4762C85.254 50.9524 85.5874 51.2857 86.0638 51.5238C86.4924 51.7143 86.9687 51.7619 87.445 51.5714C88.3977 51.2381 88.874 50.1904 88.5406 49.2381L87.5879 46.5714C87.5403 46.4285 87.445 46.1428 87.6832 45.8095C88.0643 45.2857 88.8263 44.9524 89.6837 44.9524H108.736C109.593 44.9524 110.356 45.2857 110.737 45.8095C111.022 46.1904 110.88 46.5238 110.832 46.6666L104.592 64.0476H93.8752L91.4937 57.3809C91.3508 56.9047 91.0174 56.5714 90.5411 56.3333C90.3982 56.2381 90.16 56.1904 89.8742 56.1904ZM103.449 18.4762C104.021 18.4762 104.592 18.5714 105.164 18.6666C104.878 18.1905 104.687 17.6666 104.687 17.0952C104.687 16.4285 104.116 15.8571 103.449 15.8571C102.782 15.8571 102.211 16.4285 102.211 17.0952V18.5714C102.639 18.5238 103.068 18.4762 103.449 18.4762Z" fill="white"/>
<path d="M152.795 49.7617C152.367 49.2379 151.7 48.9522 150.985 48.9522H148.556V44.9046H151.319C152.271 44.9046 153.081 44.0951 153.081 43.1427C153.081 42.1903 152.271 41.3808 151.319 41.3808H148.556V39.1903H151.319C152.271 39.1903 153.081 38.3808 153.081 37.4284C153.081 36.476 152.271 35.6665 151.319 35.6665H148.223C148.128 35.2379 147.985 34.857 147.842 34.476L150.509 32.9522C151.366 32.476 151.652 31.3808 151.176 30.5236C150.7 29.6665 149.604 29.3808 148.747 29.857L145.889 31.5236C145.603 31.2379 145.317 30.9998 145.032 30.7141L146.651 27.9046C147.127 27.0474 146.842 25.9998 145.984 25.476C145.127 24.9998 144.079 25.2855 143.555 26.1427L141.983 29.0474C141.602 28.9522 141.269 28.857 140.888 28.7617V25.476C140.888 24.5236 140.078 23.7141 139.125 23.7141C138.173 23.7141 137.363 24.5236 137.363 25.476V28.7617C136.982 28.857 136.601 28.9522 136.22 29.0474L134.648 26.2855C134.172 25.4284 133.076 25.1427 132.219 25.6189C131.361 26.0951 131.076 27.1903 131.552 28.0474L133.124 30.7141C132.79 30.9998 132.505 31.2855 132.171 31.5713L129.599 30.0951C128.742 29.6189 127.694 29.9046 127.17 30.7617C126.694 31.6189 126.979 32.6665 127.837 33.1903L130.314 34.6189C130.123 35.0474 129.98 35.5236 129.885 35.9522H127.218C126.265 35.9522 125.455 36.7617 125.455 37.7141C125.455 38.6665 126.265 39.476 127.218 39.476H129.694V41.3332H127.218C126.265 41.3332 125.455 42.1427 125.455 43.0951C125.455 44.0474 126.265 44.857 127.218 44.857H129.694V48.9046H127.265C126.598 48.9046 125.932 49.1903 125.455 49.7141C125.027 50.2379 124.836 50.9522 124.931 51.6189L127.265 66.2379C127.456 67.3808 128.408 68.1903 129.599 68.1903H148.699C149.842 68.1903 150.843 67.3332 151.033 66.2379L153.367 51.6189C153.462 50.9522 153.272 50.2855 152.795 49.7617ZM134.362 43.6189C134.41 43.476 134.457 43.2855 134.457 43.1427C134.457 42.9998 134.41 42.8093 134.362 42.6665V38.2855C134.41 38.1427 134.457 37.9522 134.457 37.8094C134.457 37.7141 134.457 37.6189 134.41 37.5236C134.743 35.1903 136.696 33.3808 139.125 33.3808C141.745 33.3808 143.888 35.5236 143.888 38.1427V48.9998H134.362V43.6189ZM146.699 63.5713H131.6L130.028 53.6189H132.028H146.27H148.27L146.699 63.5713Z" fill="#D3060A"/>
<path d="M148.699 68.8094H129.598C128.17 68.8094 126.979 67.8094 126.741 66.3809L124.407 51.7618C124.264 50.9047 124.502 50.0952 125.074 49.4285C125.645 48.7618 126.407 48.4285 127.265 48.4285H129.17V45.4761H127.265C125.979 45.4761 124.978 44.4285 124.978 43.1904C124.978 41.9047 126.026 40.9047 127.265 40.9047H129.17V40.1428H127.265C125.979 40.1428 124.978 39.0952 124.978 37.8571C124.978 36.5713 126.026 35.5713 127.265 35.5713H129.551C129.598 35.3809 129.646 35.1904 129.741 34.9999L127.693 33.8094C127.169 33.5237 126.788 32.9999 126.598 32.4285C126.455 31.8571 126.502 31.238 126.836 30.6666C127.122 30.1428 127.646 29.7618 128.217 29.5713C128.836 29.4285 129.456 29.4761 129.98 29.8094L132.218 31.0952C132.313 30.9999 132.456 30.8571 132.552 30.7618L131.218 28.4761C130.932 27.9523 130.837 27.3333 130.98 26.7142C131.123 26.1428 131.504 25.619 132.075 25.3333C132.599 25.0475 133.218 24.9523 133.838 25.0952C134.409 25.238 134.933 25.619 135.219 26.1904L136.6 28.5713C136.696 28.5237 136.838 28.5237 136.934 28.4761V25.619C136.934 24.3333 137.982 23.3333 139.22 23.3333C140.506 23.3333 141.506 24.3809 141.506 25.619V28.4761C141.602 28.5237 141.697 28.5237 141.792 28.5713L143.269 26.0475C143.554 25.5237 144.078 25.1428 144.65 24.9523C145.221 24.8094 145.841 24.8571 146.412 25.1904C147.508 25.8094 147.889 27.238 147.27 28.3333L145.888 30.7618C145.984 30.8571 146.079 30.9047 146.126 30.9999L148.603 29.5713C149.127 29.2856 149.746 29.1904 150.366 29.3333C150.937 29.4761 151.461 29.8571 151.747 30.4285C152.033 30.9523 152.128 31.5713 151.985 32.1904C151.842 32.7618 151.461 33.2856 150.89 33.5713L148.603 34.9047C148.651 35.0475 148.699 35.1904 148.746 35.3332H151.413C152.7 35.3332 153.7 36.3809 153.7 37.619C153.7 38.9047 152.652 39.9047 151.413 39.9047H149.127V40.9999H151.366C152.652 40.9999 153.652 42.0475 153.652 43.2856C153.652 44.5713 152.604 45.5713 151.366 45.5713H149.127V48.5237H151.032C151.89 48.5237 152.7 48.9047 153.223 49.5237C153.795 50.1904 154.033 50.9999 153.89 51.8571L151.556 66.4761C151.318 67.7618 150.127 68.8094 148.699 68.8094ZM127.265 49.4761C126.741 49.4761 126.217 49.7142 125.883 50.0952C125.55 50.4761 125.407 51.0475 125.455 51.5713L127.789 66.1904C127.931 67.0951 128.694 67.7142 129.598 67.7142H148.699C149.604 67.7142 150.366 67.0951 150.508 66.1904L152.842 51.5713C152.938 51.0475 152.795 50.5237 152.414 50.0952C152.08 49.7142 151.556 49.4761 151.032 49.4761H148.079V44.3332H151.413C152.08 44.3332 152.652 43.7618 152.652 43.0952C152.652 42.4285 152.08 41.8571 151.413 41.8571H148.079V38.619H151.413C152.08 38.619 152.652 38.0475 152.652 37.3809C152.652 36.7142 152.08 36.1428 151.413 36.1428H147.889L147.794 35.7618C147.698 35.3809 147.555 34.9999 147.412 34.619L147.222 34.1904L150.318 32.4285C150.604 32.2856 150.794 31.9999 150.89 31.6666C150.985 31.3333 150.937 30.9999 150.747 30.7618C150.604 30.4761 150.318 30.2856 149.985 30.1904C149.651 30.0952 149.318 30.1428 149.08 30.3333L145.841 32.1904L145.555 31.9047C145.317 31.619 145.031 31.3809 144.745 31.1428L144.412 30.8571L146.269 27.619C146.603 27.0475 146.412 26.2856 145.841 25.9523C145.555 25.8094 145.221 25.7618 144.936 25.8094C144.602 25.9047 144.364 26.0952 144.174 26.3809L142.268 29.6666L141.84 29.5237C141.506 29.4285 141.173 29.3333 140.792 29.2856L140.363 29.1904V25.4761C140.363 24.8094 139.792 24.238 139.125 24.238C138.458 24.238 137.886 24.8094 137.886 25.4761V29.1904L137.458 29.2856C137.077 29.3333 136.743 29.4285 136.362 29.5713L135.933 29.7142L134.123 26.5713C133.981 26.2856 133.695 26.0952 133.361 25.9999C133.028 25.9047 132.695 25.9523 132.456 26.1428C132.171 26.2856 131.98 26.5713 131.885 26.9047C131.79 27.238 131.837 27.5713 132.028 27.8094L133.79 30.9047L133.457 31.1904C133.171 31.4285 132.837 31.7142 132.599 31.9999L132.313 32.3333L129.36 30.619C129.075 30.4761 128.741 30.4285 128.455 30.4761C128.122 30.5713 127.884 30.7618 127.693 31.0475C127.55 31.3332 127.503 31.6666 127.55 31.9523C127.646 32.2856 127.836 32.5237 128.122 32.7142L130.98 34.3809L130.789 34.8094C130.646 35.238 130.503 35.6666 130.408 36.0952L130.313 36.5237H127.217C126.55 36.5237 125.979 37.0952 125.979 37.7618C125.979 38.4285 126.55 38.9999 127.217 38.9999H130.218V41.9047H127.217C126.55 41.9047 125.979 42.4761 125.979 43.1428C125.979 43.8094 126.55 44.3809 127.217 44.3809H130.218V49.4761H127.265ZM147.127 64.0952H131.123L129.36 53.0952H148.889L147.127 64.0952ZM132.075 62.9999H146.222L147.651 54.1428H130.646L132.075 62.9999ZM144.459 49.4761H133.838V43.4761C133.885 43.3809 133.885 43.238 133.885 43.1428C133.885 43.0475 133.885 42.9047 133.838 42.8094V42.6666V38.1428C133.885 38.0475 133.885 37.9047 133.885 37.8094C133.885 37.7618 133.885 37.6666 133.885 37.619V37.5237V37.4285C134.219 34.8094 136.505 32.8094 139.125 32.8094C142.03 32.8094 144.459 35.1904 144.459 38.1428V49.4761ZM134.886 48.3809H143.364V38.0952C143.364 35.7618 141.459 33.8571 139.125 33.8571C137.029 33.8571 135.267 35.3809 134.933 37.4761C134.933 37.5713 134.933 37.6666 134.933 37.7618C134.933 37.9523 134.886 38.1428 134.838 38.3333V42.5713C134.886 42.7618 134.933 42.9523 134.933 43.1428C134.933 43.3332 134.886 43.5237 134.838 43.7142V48.3809H134.886Z" fill="white"/>
<path d="M161.892 69.0477H76.0138C75.0611 69.0477 74.3467 68.2858 74.3467 67.381C74.3467 66.4763 75.1088 65.7144 76.0138 65.7144H161.845C162.797 65.7144 163.512 66.4763 163.512 67.381C163.512 68.2858 162.797 69.0477 161.892 69.0477Z" fill="#D3060A"/>
<path d="M300.689 187.857H279.398V221.19H300.689V187.857Z" fill="#F05E53"/>
<path d="M304.738 187.476H283.447V220.81H304.738V187.476Z" fill="#F6A0A2"/>
<path d="M330.411 220.238H327.649C326.077 220.238 324.791 221.524 324.791 223.095C324.791 224.667 326.077 225.952 327.649 225.952H330.411C331.983 225.952 333.269 224.667 333.269 223.095C333.269 221.524 331.983 220.238 330.411 220.238Z" fill="#D3060A"/>
<path d="M317.788 220.238H24.1909C22.619 220.238 21.333 221.524 21.333 223.095C21.333 224.667 22.619 225.952 24.1909 225.952H317.788C319.36 225.952 320.646 224.667 320.646 223.095C320.646 221.524 319.36 220.238 317.788 220.238Z" fill="#D3060A"/>
<path d="M13.0457 220.238H10.4736C8.90176 220.238 7.61572 221.524 7.61572 223.095C7.61572 224.667 8.90176 225.953 10.4736 225.953H13.0457C14.6175 225.953 15.9035 224.667 15.9035 223.095C15.9035 221.524 14.6651 220.238 13.0457 220.238Z" fill="#D3060A"/>
<path d="M209.953 88.0476H205.238C203.666 88.0476 202.38 89.3333 202.38 90.9048C202.38 92.4762 203.666 93.7619 205.238 93.7619H209.953C211.525 93.7619 212.811 92.4762 212.811 90.9048C212.811 89.3333 211.525 88.0476 209.953 88.0476Z" fill="#D3060A"/>
<path d="M196.14 90.9541C196.14 89.3826 194.854 88.0969 193.282 88.0969H103.259C92.7328 88.0969 84.1592 96.6684 84.1592 107.192V181.573C84.1592 192.097 92.7328 200.668 103.259 200.668H123.407C124.979 200.668 126.265 199.383 126.265 197.811C126.265 196.24 124.979 194.954 123.407 194.954H103.259C95.924 194.954 89.9225 188.954 89.9225 181.621V107.145C89.9225 99.8112 95.924 93.8112 103.259 93.8112H193.234C194.854 93.8112 196.14 92.5255 196.14 90.9541Z" fill="#D3060A"/>
<path d="M258.013 107.143C258.013 96.619 249.439 88.0476 238.913 88.0476H221.48C219.908 88.0476 218.622 89.3333 218.622 90.9048C218.622 92.4762 219.908 93.7619 221.48 93.7619H238.913C246.248 93.7619 252.25 99.7619 252.25 107.095V181.476C252.25 188.81 246.248 194.81 238.913 194.81H135.887C134.315 194.81 133.029 196.095 133.029 197.667C133.029 199.238 134.315 200.524 135.887 200.524H158.178L158.083 201.143C156.368 211.952 146.842 220.143 135.887 220.143C134.315 220.143 133.029 221.429 133.029 223C133.029 224.571 134.315 225.857 135.887 225.857C150.176 225.857 162.227 215.143 163.942 200.952L163.989 200.476H178.183L178.231 200.952C179.898 215.143 191.996 225.857 206.286 225.857C207.858 225.857 209.144 224.571 209.144 223C209.144 221.429 207.858 220.143 206.286 220.143C195.331 220.143 185.757 212 184.09 201.143L183.994 200.524H238.913C249.439 200.524 258.013 191.952 258.013 181.429V107.143Z" fill="#D3060A"/>
<path d="M234.578 101.762H107.594C102.211 101.762 97.877 106.143 97.877 111.476V177.238C97.877 182.619 102.259 186.952 107.594 186.952H234.626C240.008 186.952 244.342 182.571 244.342 177.238V111.476C244.342 106.095 239.96 101.762 234.578 101.762ZM241.961 177.238C241.961 181.286 238.627 184.619 234.578 184.619H107.594C103.545 184.619 100.211 181.286 100.211 177.238V111.476C100.211 107.429 103.545 104.095 107.594 104.095H234.626C238.674 104.095 242.008 107.429 242.008 111.476V177.238H241.961Z" fill="#D3060A"/>
<path d="M91.0176 157C92.1131 158.381 93.7326 159.095 95.4949 159C97.2573 158.905 98.7815 157.952 99.7341 156.476L110.451 139.143C111.356 137.667 111.499 135.857 110.832 134.238C110.165 132.619 108.784 131.476 107.069 131.095L90.065 127.381L89.9697 127.524L89.3982 127.238C86.1592 125.524 82.2059 125.905 79.348 128.19L79.0146 128.429L57.1996 118.19C53.0557 116.238 48.245 116.762 44.625 119.571C41.0051 122.381 39.2903 126.905 40.1477 131.429L54.5799 207.286L54.0083 207.476C46.054 209.857 40.4335 217.143 40.1001 225.429H58.9143L59.0572 225.524C59.6288 225.857 60.2956 225.952 60.9148 225.809C61.2006 225.762 61.4864 225.667 61.7245 225.524L61.8674 225.429H78.967C78.6335 215.429 70.6792 207.238 60.629 206.714L60.1051 206.667L60.0098 206.143L45.6253 130.428C45.149 127.905 46.054 125.524 48.1021 123.952C50.1026 122.381 52.6747 122.095 55.0086 123.19L76.2996 133.19L76.2044 133.714C75.5375 137.238 76.9665 140.857 79.872 142.952L80.3959 143.333L80.3006 143.476L91.0176 157Z" fill="#D3060A"/>
<path d="M271.635 223.143C271.635 224.714 272.921 226 274.493 226H305.691C307.263 226 308.549 224.714 308.549 223.143V214.286L308.93 214.19C313.598 212.762 316.837 208.381 316.837 203.524C316.837 198.667 313.598 194.286 308.93 192.857L308.549 192.762V185.762C308.549 184.19 307.263 182.905 305.691 182.905H300.833C299.261 182.905 297.975 184.19 297.975 185.762C297.975 187.333 299.261 188.619 300.833 188.619H302.785V220.19H277.35V188.619H290.116C291.687 188.619 292.973 187.333 292.973 185.762C292.973 184.19 291.687 182.905 290.116 182.905H274.493C272.921 182.905 271.635 184.19 271.635 185.762V223.143ZM308.596 197L309.406 197.524C311.55 198.81 312.788 201.095 312.788 203.571C312.788 206.048 311.502 208.286 309.406 209.619L308.596 210.143V197Z" fill="#D3060A"/>
<path d="M284.496 176.476C283.781 176.476 283.21 175.905 283.21 175.191C283.21 174.667 282.972 174.476 282.257 173.857C281.447 173.191 280.399 172.334 280.399 170.572C280.399 168.81 281.495 167.905 282.257 167.286C282.972 166.715 283.21 166.476 283.21 165.953C283.21 165.429 282.972 165.238 282.257 164.619C281.447 163.953 280.399 163.095 280.399 161.334C280.399 160.619 280.971 160.048 281.685 160.048C282.4 160.048 282.972 160.619 282.972 161.334C282.972 161.857 283.21 162.048 283.924 162.667C284.734 163.334 285.782 164.191 285.782 165.953C285.782 167.715 284.686 168.619 283.924 169.238C283.21 169.81 282.972 170.048 282.972 170.572C282.972 171.095 283.21 171.286 283.924 171.905C284.734 172.572 285.782 173.429 285.782 175.191C285.782 175.905 285.21 176.476 284.496 176.476Z" fill="#F6A0A2"/>
<path d="M291.545 176.476C290.831 176.476 290.259 175.905 290.259 175.191C290.259 174.238 289.878 173.857 289.212 173.143C288.449 172.381 287.449 171.286 287.449 169.334C287.449 167.334 288.449 166.286 289.212 165.524C289.878 164.857 290.259 164.429 290.259 163.476C290.259 162.524 289.878 162.143 289.212 161.429C288.449 160.667 287.449 159.572 287.449 157.619C287.449 156.905 288.021 156.333 288.735 156.333C289.45 156.333 290.021 156.905 290.021 157.619C290.021 158.572 290.402 158.953 291.069 159.667C291.831 160.429 292.832 161.524 292.832 163.476C292.832 165.476 291.831 166.524 291.069 167.286C290.402 167.953 290.021 168.381 290.021 169.334C290.021 170.286 290.402 170.667 291.069 171.381C291.831 172.143 292.832 173.238 292.832 175.191C292.832 175.905 292.26 176.476 291.545 176.476Z" fill="#F6A0A2"/>
<path d="M298.546 176.476C297.832 176.476 297.26 175.905 297.26 175.191C297.26 174.667 297.022 174.476 296.308 173.857C295.498 173.191 294.45 172.334 294.45 170.572C294.45 168.81 295.546 167.905 296.308 167.286C297.022 166.715 297.26 166.476 297.26 165.953C297.26 165.429 297.022 165.238 296.308 164.619C295.498 163.953 294.45 163.095 294.45 161.334C294.45 160.619 295.022 160.048 295.736 160.048C296.451 160.048 297.022 160.619 297.022 161.334C297.022 161.857 297.26 162.048 297.975 162.667C298.785 163.334 299.833 164.191 299.833 165.953C299.833 167.715 298.737 168.619 297.975 169.238C297.26 169.81 297.022 170.048 297.022 170.572C297.022 171.095 297.26 171.286 297.975 171.905C298.785 172.572 299.833 173.429 299.833 175.191C299.833 175.905 299.261 176.476 298.546 176.476Z" fill="#F6A0A2"/>
<path d="M307.31 40.762C307.119 40.762 306.929 40.7144 306.786 40.5715L305.595 39.381C305.309 39.0953 305.309 38.6667 305.595 38.381C305.881 38.0953 306.31 38.0953 306.595 38.381L307.786 39.5715C308.072 39.8572 308.072 40.2858 307.786 40.5715C307.691 40.6667 307.5 40.762 307.31 40.762Z" fill="#F6A0A2"/>
<path d="M308.596 37.7142H306.929C306.548 37.7142 306.215 37.3809 306.215 36.9999C306.215 36.619 306.548 36.2856 306.929 36.2856H308.596C308.977 36.2856 309.311 36.619 309.311 36.9999C309.311 37.4285 308.977 37.7142 308.596 37.7142Z" fill="#F6A0A2"/>
<path d="M306.167 35.8572C305.976 35.8572 305.786 35.8096 305.643 35.6667C305.357 35.381 305.357 34.9524 305.643 34.6667L306.834 33.4762C307.12 33.1905 307.548 33.1905 307.834 33.4762C308.12 33.762 308.12 34.1905 307.834 34.4763L306.643 35.6667C306.548 35.8096 306.358 35.8572 306.167 35.8572Z" fill="#F6A0A2"/>
<path d="M304.31 35.0952C303.929 35.0952 303.596 34.7619 303.596 34.381V32.7143C303.596 32.3333 303.929 32 304.31 32C304.691 32 305.025 32.3333 305.025 32.7143V34.381C305.025 34.7619 304.691 35.0952 304.31 35.0952Z" fill="#F6A0A2"/>
<path d="M302.453 35.8572C302.262 35.8572 302.071 35.8096 301.929 35.6667L300.738 34.4763C300.452 34.1905 300.452 33.762 300.738 33.4762C301.024 33.1905 301.452 33.1905 301.738 33.4762L302.929 34.6667C303.215 34.9524 303.215 35.381 302.929 35.6667C302.786 35.762 302.643 35.8572 302.453 35.8572Z" fill="#F6A0A2"/>
<path d="M301.69 37.7142H300.023C299.642 37.7142 299.309 37.3809 299.309 36.9999C299.309 36.619 299.642 36.2856 300.023 36.2856H301.69C302.071 36.2856 302.405 36.619 302.405 36.9999C302.357 37.3809 302.071 37.7142 301.69 37.7142Z" fill="#F6A0A2"/>
<path d="M301.262 40.762C301.071 40.762 300.881 40.7144 300.738 40.5715C300.452 40.2858 300.452 39.8572 300.738 39.5715L301.929 38.381C302.214 38.0953 302.643 38.0953 302.929 38.381C303.215 38.6667 303.215 39.0953 302.929 39.381L301.738 40.5715C301.643 40.6667 301.452 40.762 301.262 40.762Z" fill="#F6A0A2"/>
<path d="M304.31 42C303.929 42 303.596 41.6667 303.596 41.2857V39.6191C303.596 39.2381 303.929 38.9048 304.31 38.9048C304.691 38.9048 305.025 39.2381 305.025 39.6191V41.2857C305.025 41.6667 304.691 42 304.31 42Z" fill="#F6A0A2"/>
<path d="M307.31 40.762C307.119 40.762 306.929 40.7144 306.786 40.5715L305.595 39.381C305.309 39.0953 305.309 38.6667 305.595 38.381C305.881 38.0953 306.31 38.0953 306.595 38.381L307.786 39.5715C308.072 39.8572 308.072 40.2858 307.786 40.5715C307.691 40.6667 307.5 40.762 307.31 40.762Z" fill="#F6A0A2"/>
<path d="M308.596 37.7142H306.929C306.548 37.7142 306.215 37.3809 306.215 36.9999C306.215 36.619 306.548 36.2856 306.929 36.2856H308.596C308.977 36.2856 309.311 36.619 309.311 36.9999C309.311 37.4285 308.977 37.7142 308.596 37.7142Z" fill="#F6A0A2"/>
<path d="M306.167 35.8572C305.976 35.8572 305.786 35.8096 305.643 35.6667C305.357 35.381 305.357 34.9524 305.643 34.6667L306.834 33.4762C307.12 33.1905 307.548 33.1905 307.834 33.4762C308.12 33.762 308.12 34.1905 307.834 34.4763L306.643 35.6667C306.548 35.8096 306.358 35.8572 306.167 35.8572Z" fill="#F6A0A2"/>
<path d="M304.31 35.0952C303.929 35.0952 303.596 34.7619 303.596 34.381V32.7143C303.596 32.3333 303.929 32 304.31 32C304.691 32 305.025 32.3333 305.025 32.7143V34.381C305.025 34.7619 304.691 35.0952 304.31 35.0952Z" fill="#F6A0A2"/>
<path d="M5.04374 139.333C2.85272 139.381 1.09037 137.667 0.995109 135.476C0.947478 133.286 2.66219 131.524 4.85322 131.429C5.56769 131.429 6.28215 131.572 6.90135 131.953C7.23477 132.143 7.37766 132.572 7.18714 132.905C6.99661 133.238 6.56794 133.381 6.23452 133.191C5.85347 132.953 5.37716 132.857 4.94848 132.857C3.56718 132.905 2.42404 134.048 2.47167 135.429C2.5193 136.81 3.66245 137.953 5.04374 137.905C6.42504 137.857 7.56819 136.714 7.52056 135.333C7.52056 134.953 7.80634 134.619 8.18739 134.619C8.56844 134.619 8.90185 134.905 8.90185 135.286C8.90185 137.476 7.18714 139.286 5.04374 139.333Z" fill="#F6A0A2"/>
<path d="M39.5284 81.8572C39.8618 81.5238 40.4334 81.5238 40.7668 81.8572L46.4825 87.5715C46.8159 87.9048 46.8159 88.4762 46.4825 88.8096C46.1491 89.1429 45.5775 89.1429 45.2441 88.8096L39.5284 83.0953C39.195 82.7619 39.195 82.1905 39.5284 81.8572Z" fill="#F6A0A2"/>
<path d="M39.5284 87.5715L45.2441 81.8572C45.5775 81.5238 46.1491 81.5238 46.4825 81.8572C46.8159 82.1905 46.8159 82.7619 46.4825 83.0953L40.7668 88.8096C40.4334 89.1429 39.8618 89.1429 39.5284 88.8096C39.195 88.4762 39.195 87.9048 39.5284 87.5715Z" fill="#F6A0A2"/>
<path d="M283.971 98.2866C284.304 97.9533 284.876 97.9533 285.209 98.2866L290.925 104.001C291.258 104.334 291.258 104.906 290.925 105.239C290.591 105.572 290.02 105.572 289.686 105.239L283.971 99.5247C283.637 99.1438 283.637 98.62 283.971 98.2866Z" fill="#F6A0A2"/>
<path d="M283.971 103.953L289.686 98.2383C290.02 97.9049 290.591 97.9049 290.925 98.2383C291.258 98.5716 291.258 99.143 290.925 99.4764L285.209 105.191C284.876 105.524 284.304 105.524 283.971 105.191C283.637 104.857 283.637 104.334 283.971 103.953Z" fill="#F6A0A2"/>
<path d="M173.324 46.5239C173.658 46.1906 174.229 46.1906 174.563 46.5239L180.278 52.2382C180.612 52.5715 180.612 53.143 180.278 53.4763C179.945 53.8096 179.373 53.8096 179.04 53.4763L173.324 47.762C172.991 47.4287 172.991 46.8573 173.324 46.5239Z" fill="#F6A0A2"/>
<path d="M173.324 52.2382L179.04 46.5239C179.373 46.1906 179.945 46.1906 180.278 46.5239C180.612 46.8573 180.612 47.4287 180.278 47.762L174.563 53.4763C174.229 53.8096 173.658 53.8096 173.324 53.4763C172.991 53.0954 172.991 52.5715 173.324 52.2382Z" fill="#F6A0A2"/>
<path d="M184.947 2.85714C185.736 2.85714 186.375 2.21755 186.375 1.42857C186.375 0.639593 185.736 0 184.947 0C184.157 0 183.518 0.639593 183.518 1.42857C183.518 2.21755 184.157 2.85714 184.947 2.85714Z" fill="#F6A0A2"/>
<path d="M65.4875 157.762C66.2767 157.762 66.9165 157.122 66.9165 156.333C66.9165 155.544 66.2767 154.905 65.4875 154.905C64.6983 154.905 64.0586 155.544 64.0586 156.333C64.0586 157.122 64.6983 157.762 65.4875 157.762Z" fill="#F6A0A2"/>
<path d="M317.408 136.81C318.198 136.81 318.837 136.17 318.837 135.381C318.837 134.592 318.198 133.952 317.408 133.952C316.619 133.952 315.979 134.592 315.979 135.381C315.979 136.17 316.619 136.81 317.408 136.81Z" fill="#F6A0A2"/>
<path d="M193.424 123.286C187.804 117.667 180.326 114.572 172.324 114.572C164.369 114.572 156.891 117.667 151.223 123.286C145.603 128.905 142.507 136.381 142.507 144.381C142.507 152.333 145.603 159.81 151.223 165.476C156.844 171.095 164.322 174.191 172.324 174.191C180.278 174.191 187.756 171.095 193.424 165.476C199.045 159.857 202.141 152.381 202.141 144.381C202.141 136.381 199.045 128.905 193.424 123.286ZM192.519 164.572C187.137 169.952 179.945 172.952 172.324 172.952C164.703 172.952 157.511 170 152.128 164.572C146.746 159.191 143.745 152 143.745 144.381C143.745 136.762 146.698 129.572 152.128 124.191C157.511 118.81 164.703 115.81 172.324 115.81C179.945 115.81 187.137 118.762 192.519 124.191C197.902 129.572 200.902 136.762 200.902 144.381C200.902 152 197.949 159.143 192.519 164.572Z" fill="#D3060A" stroke="#D3060A" stroke-width="4.252" stroke-miterlimit="10"/>
<path d="M181.564 158.524C180.23 158.524 178.991 158 178.086 157.095L172.323 151.333L166.56 157.095C165.607 158.048 164.369 158.524 163.083 158.524C161.749 158.524 160.511 158 159.606 157.095C158.653 156.143 158.177 154.905 158.177 153.619C158.177 152.286 158.701 151.048 159.606 150.143L165.369 144.381L159.606 138.571C158.653 137.619 158.177 136.381 158.177 135.095C158.177 133.762 158.701 132.524 159.606 131.619C160.558 130.667 161.797 130.19 163.083 130.19C164.416 130.19 165.655 130.714 166.56 131.619L172.323 137.381L178.086 131.619C179.039 130.667 180.278 130.19 181.564 130.19C182.897 130.19 184.136 130.714 185.041 131.619C185.993 132.571 186.47 133.809 186.47 135.095C186.47 136.429 185.946 137.667 185.041 138.571L179.277 144.333L185.041 150.095C185.993 151.048 186.47 152.286 186.47 153.571C186.47 154.857 185.946 156.143 185.041 157.048C184.136 158 182.897 158.524 181.564 158.524ZM172.323 148.476L179.515 155.667C180.087 156.238 180.801 156.524 181.564 156.524C182.326 156.524 183.088 156.238 183.612 155.667C184.183 155.095 184.469 154.381 184.469 153.619C184.469 152.857 184.183 152.095 183.612 151.571L176.419 144.381L183.612 137.19C184.183 136.619 184.469 135.905 184.469 135.143C184.469 134.381 184.183 133.619 183.612 133.095C183.04 132.524 182.326 132.238 181.564 132.238C180.801 132.238 180.039 132.524 179.515 133.095L172.323 140.286L165.131 133.095C164.559 132.524 163.845 132.238 163.083 132.238C162.321 132.238 161.559 132.524 161.035 133.095C160.463 133.667 160.177 134.381 160.177 135.143C160.177 135.905 160.463 136.667 161.035 137.19L168.227 144.381L161.035 151.524C160.463 152.095 160.177 152.809 160.177 153.571C160.177 154.333 160.463 155.095 161.035 155.619C161.606 156.19 162.321 156.476 163.083 156.476C163.845 156.476 164.607 156.19 165.131 155.619L172.323 148.476Z" fill="#D3060A"/>
<path d="M174.562 139.762L173.705 138.905L172.371 140.238L165.179 133.048C164.845 132.714 164.464 132.476 164.083 132.333C163.512 132.524 163.035 132.857 162.607 133.238C161.845 134 161.464 134.952 161.464 136C161.464 136.714 161.654 137.429 162.035 138.048L168.275 144.286L168.18 144.381L169.037 145.238L162.559 151.714C161.797 152.476 161.416 153.429 161.416 154.476C161.416 155.048 161.559 155.619 161.797 156.095C162.226 156.286 162.654 156.429 163.131 156.429C163.893 156.429 164.655 156.143 165.179 155.571L172.371 148.381L179.563 155.571C180.135 156.143 180.849 156.429 181.612 156.429C182.374 156.429 183.136 156.143 183.66 155.571C184.231 155 184.517 154.286 184.517 153.524C184.517 152.762 184.231 152 183.66 151.476L176.467 144.286L183.66 137.095C184.231 136.524 184.517 135.809 184.517 135.048C184.517 134.286 184.231 133.524 183.66 133C183.326 132.667 182.945 132.429 182.564 132.286C181.993 132.476 181.516 132.809 181.088 133.19L174.562 139.762Z" fill="#F6A0A2"/>
<path d="M181.993 137.952L176.039 143.952L176.42 144.333L183.47 138.19C184.232 137.429 184.613 136.476 184.613 135.429C184.613 134.381 184.184 133.381 183.47 132.667C183.279 132.476 183.041 132.286 182.803 132.143C183.184 132.857 183.422 133.667 183.422 134.476C183.47 135.809 182.946 137.048 181.993 137.952Z" fill="#F05E53"/>
<path d="M164.703 155.19C164.084 155.809 163.321 156.238 162.512 156.476C162.798 156.571 163.131 156.571 163.417 156.571C164.465 156.571 165.465 156.143 166.179 155.429L172.895 149L172.038 148.143L164.703 155.19Z" fill="#F05E53"/>
<path d="M182.66 149.476C183.184 150.286 183.47 151.19 183.47 152.143C183.47 153.476 182.946 154.714 182.041 155.619C181.421 156.238 180.659 156.667 179.85 156.905C180.135 157 180.469 157 180.755 157C181.802 157 182.803 156.571 183.517 155.857C184.279 155.095 184.66 154.143 184.66 153.095C184.66 152.048 184.232 151.048 183.517 150.333L182.66 149.476Z" fill="#F05E53"/>
<path d="M185.708 150.905C185.518 150.619 185.327 150.333 185.042 150.095L180.183 145.238L180.088 145.333L185.708 150.905Z" fill="#D3060A"/>
<path d="M174.562 150.857L173.229 152.191L178.135 157.095C179.087 158.048 180.326 158.524 181.612 158.524C182.04 158.524 182.469 158.476 182.898 158.333C182.183 158.143 181.564 157.81 181.04 157.286L174.562 150.857Z" fill="#D3060A"/>
<path d="M161.75 156.19C161.464 156.048 161.226 155.857 161.035 155.667C160.464 155.095 160.178 154.381 160.178 153.619C160.178 152.857 160.464 152.095 161.035 151.571L168.132 144.476L162.512 138.857C162.274 138.619 162.083 138.381 161.94 138.143L160.988 137.19C160.416 136.619 160.13 135.905 160.13 135.143C160.13 134.381 160.416 133.619 160.988 133.095C161.559 132.524 162.274 132.238 163.036 132.238C163.369 132.238 163.655 132.286 163.989 132.381C164.417 132.238 164.846 132.143 165.275 132.143C166.322 132.143 167.323 132.571 168.037 133.286L173.658 138.905L179.469 133.095C180.04 132.524 180.755 132.238 181.517 132.238C181.85 132.238 182.136 132.286 182.469 132.381C182.898 132.238 183.327 132.143 183.755 132.143C184.517 132.143 185.232 132.381 185.851 132.762C185.613 132.333 185.327 131.952 184.994 131.619C184.041 130.667 182.803 130.19 181.517 130.19C180.183 130.19 178.945 130.714 178.04 131.619L172.276 137.381L166.513 131.619C165.56 130.667 164.322 130.19 163.036 130.19C161.702 130.19 160.464 130.714 159.559 131.619C158.606 132.571 158.13 133.809 158.13 135.095C158.13 136.429 158.654 137.667 159.559 138.571L165.322 144.333L159.606 150.095C158.654 151.048 158.178 152.286 158.178 153.571C158.178 154.905 158.701 156.143 159.606 157.048C160.559 158 161.797 158.476 163.084 158.476C163.512 158.476 163.941 158.429 164.37 158.286C163.655 158.095 163.036 157.762 162.512 157.238C162.179 156.952 161.94 156.571 161.75 156.19Z" fill="#D3060A"/>
<path d="M172.324 140.238L173.657 138.905L168.037 133.286C167.275 132.524 166.322 132.143 165.274 132.143C164.846 132.143 164.417 132.238 163.988 132.381C164.417 132.524 164.798 132.762 165.084 133.095L172.324 140.238Z" fill="#D3060A"/>
<path d="M186.518 153.571C186.518 152.619 186.232 151.667 185.708 150.905L180.088 145.286L180.183 145.19L179.326 144.333L185.089 138.571C186.042 137.619 186.518 136.381 186.518 135.095C186.518 134.238 186.328 133.476 185.899 132.762C185.28 132.381 184.565 132.143 183.803 132.143C183.374 132.143 182.946 132.238 182.517 132.381C182.946 132.524 183.327 132.762 183.613 133.095C184.184 133.667 184.47 134.381 184.47 135.143C184.47 135.905 184.184 136.667 183.613 137.19L176.42 144.381L183.613 151.571C184.184 152.143 184.47 152.857 184.47 153.619C184.47 154.381 184.184 155.143 183.613 155.667C183.041 156.238 182.327 156.524 181.564 156.524C180.802 156.524 180.04 156.238 179.516 155.667L172.324 148.476L165.132 155.667C164.56 156.238 163.846 156.524 163.084 156.524C162.607 156.524 162.179 156.429 161.75 156.19C161.941 156.619 162.226 157 162.56 157.333C163.084 157.857 163.703 158.19 164.417 158.381C165.227 158.143 165.989 157.714 166.608 157.095L172.372 151.333L173.229 152.19L174.563 150.857L181.041 157.333C181.564 157.857 182.184 158.19 182.898 158.381C183.708 158.143 184.47 157.714 185.089 157.095C185.994 156.143 186.518 154.905 186.518 153.571Z" fill="#D3060A"/>
<path d="M161.987 138.095C162.13 138.333 162.321 138.619 162.559 138.809L168.179 144.429L168.275 144.333L161.987 138.095Z" fill="#D3060A"/>
</svg>
