<svg width="350" height="237" viewBox="0 0 350 237" fill="none" xmlns="http://www.w3.org/2000/svg">
<g clip-path="url(#clip0_403_791)">
<path d="M251.102 102.239H113.85C105.366 102.239 98.4778 109.125 98.4778 117.608V191.206C98.4778 199.688 105.366 206.575 113.85 206.575H251.102C259.587 206.575 266.475 199.688 266.475 191.206V117.608C266.475 109.125 259.587 102.239 251.102 102.239ZM255.195 186.865C255.195 191.804 252.05 195.248 247.109 195.248L113.051 195.847C108.11 195.847 104.118 191.855 104.118 186.915V116.909C104.118 111.969 108.11 107.977 113.051 107.977H247.109C252.05 107.977 256.043 111.969 256.043 116.909L255.195 186.865Z" fill="#D2EDFF"/>
<path d="M262.93 24.0505C262.431 23.5016 261.932 23.0027 261.383 22.4538C260.385 21.5058 258.837 21.5557 257.889 22.5537C256.94 23.5515 256.991 25.0983 257.989 26.0464C258.438 26.4457 258.887 26.8947 259.286 27.3438C263.429 31.8844 265.724 37.8222 265.724 43.9595C265.724 57.5815 254.645 68.6088 241.07 68.6088C227.445 68.6088 216.414 57.5316 216.414 43.9595C216.414 30.3875 227.494 19.3103 241.07 19.3103C241.619 19.3103 242.168 19.3103 242.717 19.3602C244.064 19.46 245.262 18.4122 245.311 17.065C245.412 15.7177 244.363 14.5202 243.016 14.4703C242.367 14.4204 241.718 14.4204 241.07 14.4204C224.749 14.4204 211.473 27.693 211.473 44.0095C211.473 60.3259 224.749 73.5986 241.07 73.5986C257.39 73.5986 270.666 60.3259 270.666 44.0095C270.666 36.6246 267.921 29.5392 262.93 24.0505Z" fill="#1CA3D6"/>
<path d="M241.07 74.1472C224.45 74.1472 210.924 60.6251 210.924 44.0093C210.924 27.3935 224.45 13.8713 241.07 13.8713C241.719 13.8713 242.417 13.8713 243.067 13.9213C243.865 13.9712 244.614 14.3204 245.163 14.9692C245.712 15.5679 245.961 16.3663 245.912 17.1646C245.861 17.963 245.462 18.7613 244.863 19.2603C244.265 19.8091 243.466 20.0586 242.668 19.9589C242.168 19.9089 241.619 19.9089 241.07 19.9089C227.794 19.9089 216.964 30.7367 216.964 44.0093C216.964 57.282 227.794 68.1097 241.07 68.1097C254.346 68.1097 265.176 57.282 265.176 44.0093C265.176 37.9717 262.931 32.1837 258.888 27.7428C258.489 27.2938 258.04 26.8447 257.64 26.4455C257.041 25.8966 256.692 25.1481 256.692 24.3498C256.692 23.5514 256.941 22.7531 257.541 22.2042C258.09 21.6055 258.838 21.2562 259.636 21.2562C260.435 21.2062 261.233 21.5057 261.782 22.1044C262.331 22.6034 262.881 23.1523 263.379 23.7012L262.98 24.1003L263.379 23.7012C268.471 29.2896 271.265 36.4749 271.265 44.0593C271.215 60.6251 257.69 74.1472 241.07 74.1472ZM241.07 15.019C225.049 15.019 212.022 28.0422 212.022 44.0593C212.022 60.0763 225.049 73.0994 241.07 73.0994C257.091 73.0994 270.118 60.0763 270.118 44.0593C270.118 36.8241 267.423 29.8385 262.532 24.4995L262.382 24.3498V24.2999C261.932 23.8009 261.483 23.3519 261.034 22.9028C260.684 22.5536 260.186 22.3539 259.687 22.4038C259.187 22.4038 258.688 22.6533 258.388 23.0026C258.04 23.3519 257.839 23.8508 257.89 24.3498C257.89 24.8488 258.139 25.3477 258.489 25.6971C258.938 26.0962 259.387 26.5453 259.837 27.0443C264.078 31.6847 266.424 37.7722 266.424 44.0593C266.424 57.9806 255.095 69.3073 241.17 69.3073C227.246 69.3073 215.915 57.9806 215.915 44.0593C215.915 30.1378 227.246 18.8112 241.17 18.8112C241.769 18.8112 242.318 18.8112 242.867 18.8611C243.366 18.911 243.815 18.7613 244.214 18.4121C244.614 18.0627 244.863 17.6137 244.863 17.0648C244.913 16.5659 244.713 16.0669 244.414 15.6677C244.115 15.2685 243.616 15.0689 243.116 15.019C242.368 15.019 241.719 15.019 241.07 15.019Z" fill="#63A9C2"/>
<path d="M249.305 20.7574C250.403 21.1565 251.501 21.6555 252.549 22.2043C252.898 22.4039 253.298 22.5038 253.697 22.5038C254.595 22.5038 255.444 22.0048 255.892 21.2065C256.542 20.0089 256.093 18.5119 254.895 17.8633C253.647 17.2146 252.299 16.6159 250.952 16.1169C249.654 15.6678 248.257 16.3165 247.807 17.6138C247.358 18.9112 248.007 20.3082 249.305 20.7574Z" fill="#1CA3D6"/>
<path d="M253.746 23.0526C253.248 23.0526 252.748 22.9529 252.349 22.7034C251.301 22.1545 250.253 21.7054 249.155 21.3063C247.558 20.7574 246.759 19.011 247.308 17.4642C247.558 16.7157 248.107 16.0671 248.855 15.7177C249.604 15.3685 250.403 15.3186 251.151 15.618C252.549 16.1169 253.846 16.7157 255.144 17.3644C255.843 17.7635 256.391 18.3623 256.642 19.1606C256.891 19.9091 256.79 20.7574 256.441 21.4559C255.892 22.4539 254.845 23.0526 253.746 23.0526ZM249.504 20.2085C250.652 20.6077 251.75 21.1067 252.848 21.6555C253.098 21.8053 253.447 21.8551 253.746 21.8551C254.445 21.8551 255.094 21.4559 255.443 20.8572C255.693 20.4081 255.743 19.9091 255.593 19.4101C255.443 18.9111 255.094 18.512 254.644 18.3124C253.398 17.6638 252.099 17.0649 250.802 16.6159C250.302 16.4662 249.803 16.4662 249.354 16.7157C248.905 16.9153 248.555 17.3144 248.407 17.8134C248.006 18.8114 248.506 19.8592 249.504 20.2085Z" fill="#63A9C2"/>
<path d="M228.343 47.1033C227.096 47.6521 226.547 49.1491 227.145 50.3467C227.544 51.2448 228.443 51.7936 229.392 51.7936C229.74 51.7936 230.089 51.7437 230.389 51.594L242.068 46.255C242.567 46.0056 242.966 45.6064 243.266 45.1074L250.103 31.685C250.703 30.4875 250.253 28.9906 249.005 28.3918C247.807 27.7931 246.31 28.2421 245.712 29.4896L239.273 42.1634L228.343 47.1033Z" fill="#1CA3D6"/>
<path d="M229.39 52.3924C228.193 52.3924 227.144 51.6938 226.645 50.6459C225.946 49.1491 226.645 47.3528 228.142 46.6542L238.873 41.7643L245.212 29.2899C245.96 27.793 247.807 27.1942 249.305 27.9427C250.802 28.6912 251.4 30.5374 250.652 32.0342L243.765 45.4067C243.465 46.0055 242.965 46.5045 242.317 46.8039L230.638 52.093C230.239 52.2926 229.79 52.3924 229.39 52.3924ZM228.592 47.6022C227.644 48.0513 227.244 49.1491 227.644 50.0971C227.943 50.7957 228.641 51.1949 229.39 51.1949C229.64 51.1949 229.94 51.1449 230.189 51.0451L241.868 45.7062C242.267 45.5066 242.566 45.2072 242.766 44.8578L249.603 31.4355C250.053 30.4875 249.704 29.3398 248.756 28.8907C247.807 28.4417 246.659 28.7909 246.21 29.739L239.672 42.5626L228.592 47.6022Z" fill="#63A9C2"/>
<path d="M119.787 45.556C118.589 43.7597 116.443 42.7119 114.097 42.7119H106.561V36.7243C106.561 35.7263 107.41 34.8781 108.408 34.8781C109.406 34.8781 110.255 35.7263 110.255 36.7243C110.255 38.0715 111.353 39.1692 112.701 39.1692C114.048 39.1692 115.146 38.0715 115.146 36.7243C115.146 32.9819 112.101 29.9382 108.358 29.9382C107.71 29.9382 107.11 30.038 106.512 30.1877V26.645C106.512 25.647 107.36 24.7988 108.358 24.7988C109.356 24.7988 110.205 25.647 110.205 26.645C110.205 27.9922 111.303 29.0899 112.65 29.0899C113.998 29.0899 115.096 27.9922 115.096 26.645C115.096 22.9027 112.052 19.8589 108.308 19.8589C107.659 19.8589 107.06 19.9588 106.462 20.1084V17.9629C106.462 16.9649 107.31 16.1167 108.308 16.1167C109.307 16.1167 110.155 16.9649 110.155 17.9629C110.155 19.3101 111.252 20.4078 112.6 20.4078C113.948 20.4078 115.046 19.3101 115.046 17.9629C115.046 14.2206 112.002 11.1768 108.259 11.1768C104.765 11.1768 101.92 13.8214 101.52 17.2144C100.922 17.0148 100.273 16.9649 99.6239 16.9649C95.8806 16.9649 92.8361 20.0087 92.8361 23.7509C92.8361 25.0981 93.9342 26.1959 95.2817 26.1959C96.6293 26.1959 97.7273 25.0981 97.7273 23.7509C97.7273 22.753 98.5758 21.9047 99.574 21.9047C100.572 21.9047 101.421 22.753 101.421 23.7509V26.7947C100.822 26.645 100.223 26.5452 99.574 26.5452C95.8308 26.5452 92.7863 29.5889 92.7863 33.3313C92.7863 34.6785 93.8843 35.7762 95.2318 35.7762C96.5794 35.7762 97.6774 34.6785 97.6774 33.3313C97.6774 32.3333 98.5258 31.4851 99.5241 31.4851C100.522 31.4851 101.371 32.3333 101.371 33.3313V42.8117H93.8343C91.4886 42.8117 89.3424 43.8596 88.1446 45.6559C87.1465 47.1527 86.9468 48.949 87.5957 50.446L88.5439 53.1404C88.9931 54.4377 90.3906 55.0865 91.6882 54.6374C92.9859 54.1883 93.6347 52.7912 93.1855 51.4938L92.1873 48.6995C92.1374 48.6497 92.1374 48.5499 92.2372 48.4002C92.4369 48.0509 93.0358 47.7516 93.8343 47.7516H113.799C114.597 47.7516 115.195 48.1008 115.396 48.4002C115.495 48.5499 115.495 48.6497 115.396 48.7994L109.007 66.6626H98.8753L96.4796 60.0263C96.0304 58.729 94.6329 58.0803 93.3352 58.5294C92.0376 58.9785 91.3888 60.3756 91.838 61.6729L94.7826 69.9558C95.132 70.9537 96.0803 71.6025 97.0784 71.6025H110.954C112.002 71.6025 112.9 70.9537 113.25 69.9558L120.186 50.5457C120.985 48.8493 120.786 47.053 119.787 45.556Z" fill="#1CA3D6"/>
<path d="M111.054 72.1015H97.1789C95.8813 72.1015 94.7334 71.3032 94.334 70.1056L91.3894 61.8227C91.1398 61.0743 91.1398 60.226 91.4893 59.5274C91.8386 58.779 92.4375 58.2301 93.1861 57.9806C93.9348 57.7311 94.7833 57.7311 95.482 58.0804C96.2306 58.4297 96.7796 59.0284 97.0292 59.7769L99.2751 66.0141H108.907L115.146 48.55C114.996 48.4004 114.597 48.2008 114.048 48.2008H94.0846C93.5355 48.2008 93.1363 48.4004 92.9865 48.55L93.9348 51.1946C94.4838 52.7913 93.6852 54.4878 92.0881 55.0866C91.3395 55.3361 90.491 55.3361 89.7923 54.9868C89.0436 54.6375 88.4946 54.0387 88.245 53.2903L87.2968 50.5958C86.598 48.8993 86.8476 46.9034 87.9457 45.2568C89.2433 43.3108 91.5391 42.1632 94.1344 42.1632H101.072V33.2316C101.072 32.533 100.473 31.9343 99.7742 31.9343C99.0755 31.9343 98.4766 32.533 98.4766 33.2316C98.4766 34.8782 97.1291 36.2753 95.4321 36.2753C93.7352 36.2753 92.3876 34.9281 92.3876 33.2316C92.3876 29.1899 95.6817 25.8967 99.7244 25.8967C100.173 25.8967 100.573 25.9466 101.022 25.9965V23.6513C101.022 22.9527 100.423 22.3539 99.7244 22.3539C99.0256 22.3539 98.4267 22.9527 98.4267 23.6513C98.4267 25.2979 97.0791 26.6951 95.3822 26.6951C93.6852 26.6951 92.3377 25.3478 92.3377 23.6513C92.3377 19.6096 95.6317 16.3164 99.6744 16.3164C100.174 16.3164 100.623 16.3663 101.122 16.4661C101.821 13.0731 104.765 10.5782 108.309 10.5782C112.352 10.5782 115.646 13.8715 115.646 17.9131C115.646 19.5098 114.398 20.8071 112.85 20.907C114.548 22.2542 115.646 24.3499 115.646 26.6451C115.646 28.2918 114.298 29.6888 112.601 29.6888C110.905 29.6888 109.557 28.3416 109.557 26.6451C109.557 25.9466 108.958 25.3478 108.259 25.3478C107.56 25.3478 106.961 25.9466 106.961 26.6451V29.4394C107.361 29.3396 107.809 29.3396 108.259 29.3396C112.301 29.3396 115.596 32.6328 115.596 36.6745C115.596 38.3211 114.248 39.7182 112.551 39.7182C110.854 39.7182 109.507 38.371 109.507 36.6745C109.507 35.9759 108.907 35.3772 108.209 35.3772C107.511 35.3772 106.911 35.9759 106.911 36.6745V42.0633H113.849C116.394 42.0633 118.69 43.2111 119.987 45.157C121.085 46.8036 121.335 48.7995 120.587 50.5958L113.649 70.0059C113.499 71.2533 112.352 72.1015 111.054 72.1015ZM94.1843 58.8787C93.9847 58.8787 93.7352 58.9287 93.5355 58.9786C93.0364 59.1282 92.687 59.4776 92.4375 59.9765C92.2378 60.4255 92.188 60.9245 92.3876 61.4235L95.3322 69.7065C95.5818 70.455 96.3305 70.954 97.1291 70.954H111.004C111.803 70.954 112.501 70.455 112.801 69.7065L119.738 50.2965C120.337 48.7995 120.137 47.2028 119.239 45.9055C118.141 44.3088 116.194 43.3108 113.999 43.3108H105.914V36.7743C105.914 35.427 107.011 34.3792 108.309 34.3792C109.606 34.3792 110.704 35.4769 110.704 36.7743C110.704 37.8221 111.553 38.6703 112.601 38.6703C113.649 38.6703 114.498 37.8221 114.498 36.7743C114.498 33.3314 111.703 30.5871 108.309 30.5871C107.76 30.5871 107.161 30.6868 106.612 30.8364L105.914 31.0361V26.7449C105.914 25.3977 107.011 24.3499 108.309 24.3499C109.606 24.3499 110.704 25.4476 110.704 26.7449C110.704 27.7928 111.553 28.641 112.601 28.641C113.649 28.641 114.498 27.7928 114.498 26.7449C114.498 23.302 111.703 20.5576 108.309 20.5576C107.76 20.5576 107.161 20.6575 106.612 20.8071L105.914 21.0067V18.0129C105.914 16.6656 107.011 15.6178 108.309 15.6178C109.606 15.6178 110.704 16.7156 110.704 18.0129C110.704 19.0608 111.553 19.909 112.601 19.909C113.649 19.909 114.498 19.0608 114.498 18.0129C114.498 14.5699 111.703 11.8256 108.309 11.8256C105.164 11.8256 102.469 14.2207 102.12 17.3642L102.07 18.0129L101.421 17.8133C100.872 17.6636 100.273 17.5638 99.6744 17.5638C96.2306 17.5638 93.4856 20.358 93.4856 23.751C93.4856 24.7989 94.3341 25.6472 95.3822 25.6472C96.4303 25.6472 97.2788 24.7989 97.2788 23.751C97.2788 22.4038 98.3767 21.356 99.6744 21.356C100.972 21.356 102.07 22.4537 102.07 23.751V27.5433L101.371 27.3437C100.822 27.194 100.273 27.0942 99.6744 27.0942C96.2306 27.0942 93.4856 29.8885 93.4856 33.2815C93.4856 34.3293 94.3341 35.1776 95.3822 35.1776C96.4303 35.1776 97.2788 34.3293 97.2788 33.2815C97.2788 31.9343 98.3767 30.8864 99.6744 30.8864C100.972 30.8864 102.07 31.9841 102.07 33.2815V43.3108H93.9847C91.7886 43.3108 89.8422 44.2589 88.7442 45.9055C87.8458 47.2028 87.6462 48.7995 88.245 50.1966L89.1933 52.8911C89.3431 53.3901 89.6924 53.7394 90.1916 53.9888C90.6407 54.1885 91.1398 54.2383 91.6389 54.0387C92.6372 53.6895 93.1363 52.5917 92.7869 51.5938L91.7886 48.7995C91.7387 48.6498 91.6389 48.3504 91.8885 48.0012C92.2878 47.4523 93.0863 47.1031 93.9847 47.1031H113.949C114.847 47.1031 115.646 47.4523 116.045 48.0012C116.344 48.4003 116.195 48.7496 116.145 48.8993L109.606 67.1118H98.3767L95.8813 60.1262C95.7316 59.6272 95.3822 59.2779 94.8831 59.0285C94.7334 58.9287 94.4838 58.8787 94.1843 58.8787ZM108.409 19.3602C109.008 19.3602 109.606 19.4599 110.206 19.5597C109.906 19.0608 109.706 18.5118 109.706 17.9131C109.706 17.2145 109.107 16.6158 108.409 16.6158C107.71 16.6158 107.111 17.2145 107.111 17.9131V19.4599C107.56 19.41 108.009 19.3602 108.409 19.3602Z" fill="#63A9C2"/>
<path d="M160.115 52.1424C159.667 51.5936 158.968 51.2942 158.219 51.2942H155.674V47.0529H158.569C159.566 47.0529 160.415 46.2047 160.415 45.2068C160.415 44.2088 159.566 43.3606 158.569 43.3606H155.674V41.0653H158.569C159.566 41.0653 160.415 40.217 160.415 39.2191C160.415 38.2211 159.566 37.3729 158.569 37.3729H155.325C155.225 36.9238 155.075 36.5246 154.925 36.1254L157.72 34.5287C158.618 34.0297 158.918 32.8821 158.419 31.9839C157.92 31.0858 156.772 30.7864 155.874 31.2854L152.879 33.0318C152.579 32.7324 152.28 32.4829 151.981 32.1835L153.677 29.2396C154.176 28.3414 153.878 27.2437 152.979 26.6948C152.081 26.1958 150.982 26.4952 150.433 27.3934L148.786 30.4371C148.387 30.3373 148.038 30.2376 147.639 30.1377V26.6948C147.639 25.6969 146.79 24.8486 145.791 24.8486C144.794 24.8486 143.945 25.6969 143.945 26.6948V30.1377C143.546 30.2376 143.147 30.3373 142.747 30.4371L141.1 27.5431C140.601 26.6449 139.453 26.3456 138.555 26.8446C137.656 27.3435 137.357 28.4911 137.856 29.3893L139.503 32.1835C139.153 32.4829 138.855 32.7823 138.505 33.0817L135.81 31.5349C134.912 31.0359 133.814 31.3353 133.264 32.2334C132.766 33.1316 133.064 34.2293 133.963 34.7782L136.559 36.2752C136.359 36.7242 136.209 37.2231 136.109 37.6722H133.315C132.316 37.6722 131.467 38.5205 131.467 39.5184C131.467 40.5164 132.316 41.3646 133.315 41.3646H135.909V43.3107H133.315C132.316 43.3107 131.467 44.1589 131.467 45.1569C131.467 46.1547 132.316 47.0031 133.315 47.0031H135.909V51.2443H133.364C132.665 51.2443 131.967 51.5437 131.467 52.0926C131.019 52.6414 130.819 53.3899 130.918 54.0885L133.364 69.4069C133.564 70.6045 134.562 71.4527 135.81 71.4527H155.823C157.021 71.4527 158.07 70.5546 158.269 69.4069L160.715 54.0885C160.814 53.3899 160.615 52.6913 160.115 52.1424ZM140.801 45.7057C140.851 45.556 140.9 45.3564 140.9 45.2068C140.9 45.057 140.851 44.8574 140.801 44.7078V40.1172C140.851 39.9675 140.9 39.7679 140.9 39.6183C140.9 39.5184 140.9 39.4187 140.851 39.3188C141.2 36.8739 143.246 34.9778 145.791 34.9778C148.537 34.9778 150.782 37.2231 150.782 39.9675V51.3441H140.801V45.7057ZM153.728 66.6127H137.906L136.259 56.1842H138.355H153.278H155.374L153.728 66.6127Z" fill="#1CA3D6"/>
<path d="M155.823 72.1015H135.809C134.312 72.1015 133.064 71.0536 132.815 69.5568L130.369 54.2382C130.219 53.3401 130.469 52.4919 131.068 51.7933C131.666 51.0947 132.465 50.7455 133.364 50.7455H135.36V47.6518H133.364C132.016 47.6518 130.967 46.5541 130.967 45.2568C130.967 43.9096 132.066 42.8617 133.364 42.8617H135.36V42.0634H133.364C132.016 42.0634 130.967 40.9656 130.967 39.6683C130.967 38.321 132.066 37.2731 133.364 37.2731H135.759C135.809 37.0736 135.859 36.874 135.958 36.6744L133.812 35.427C133.263 35.1276 132.864 34.5787 132.665 33.98C132.515 33.3813 132.564 32.7325 132.914 32.1338C133.214 31.5849 133.763 31.1857 134.361 30.9861C135.01 30.8365 135.66 30.8863 136.209 31.2356L138.554 32.5829C138.653 32.483 138.803 32.3334 138.904 32.2335L137.506 29.8385C137.206 29.2896 137.107 28.641 137.257 27.9923C137.406 27.3936 137.806 26.8447 138.404 26.5453C138.953 26.2459 139.602 26.1461 140.251 26.2958C140.85 26.4455 141.399 26.8447 141.698 27.4434L143.146 29.9382C143.246 29.8884 143.395 29.8884 143.496 29.8385V26.8447C143.496 25.4975 144.594 24.4496 145.891 24.4496C147.238 24.4496 148.286 25.5474 148.286 26.8447V29.8385C148.387 29.8884 148.486 29.8884 148.586 29.9382L150.134 27.2937C150.432 26.7448 150.981 26.3457 151.581 26.1461C152.179 25.9964 152.829 26.0463 153.427 26.3956C154.575 27.0442 154.975 28.5412 154.326 29.6889L152.878 32.2335C152.978 32.3334 153.078 32.3833 153.127 32.483L155.723 30.9861C156.272 30.6867 156.92 30.587 157.57 30.7367C158.168 30.8863 158.718 31.2856 159.017 31.8843C159.317 32.4332 159.416 33.0818 159.267 33.7305C159.117 34.3292 158.718 34.8781 158.119 35.1775L155.723 36.5747C155.773 36.7243 155.823 36.874 155.873 37.0237H158.667C160.016 37.0237 161.064 38.1215 161.064 39.4188C161.064 40.766 159.965 41.8139 158.667 41.8139H156.272V42.9615H158.618C159.965 42.9615 161.013 44.0592 161.013 45.3565C161.013 46.7037 159.915 47.7516 158.618 47.7516H156.272V50.8452H158.268C159.167 50.8452 160.016 51.2445 160.564 51.8931C161.163 52.5917 161.413 53.4399 161.263 54.3381L158.817 69.6565C158.568 71.0037 157.32 72.1015 155.823 72.1015ZM133.364 51.8432C132.815 51.8432 132.266 52.0927 131.916 52.4919C131.567 52.891 131.417 53.4898 131.467 54.0386L133.913 69.3572C134.062 70.3051 134.861 70.9539 135.809 70.9539H155.823C156.772 70.9539 157.57 70.3051 157.719 69.3572L160.165 54.0386C160.265 53.4898 160.115 52.9409 159.716 52.4919C159.366 52.0927 158.817 51.8432 158.268 51.8432H155.174V46.4542H158.667C159.366 46.4542 159.965 45.8555 159.965 45.157C159.965 44.4584 159.366 43.8597 158.667 43.8597H155.174V40.4667H158.667C159.366 40.4667 159.965 39.8678 159.965 39.1693C159.965 38.4707 159.366 37.872 158.667 37.872H154.975L154.875 37.4728C154.774 37.0736 154.625 36.6744 154.475 36.2753L154.276 35.8262L157.52 33.98C157.82 33.8303 158.019 33.5309 158.119 33.1816C158.219 32.8324 158.168 32.483 157.969 32.2335C157.82 31.9342 157.52 31.7346 157.171 31.6348C156.821 31.5351 156.472 31.5849 156.223 31.7845L152.829 33.7305L152.529 33.4311C152.28 33.1318 151.98 32.8823 151.68 32.6328L151.331 32.3334L153.277 28.9404C153.627 28.3415 153.427 27.5432 152.829 27.1939C152.529 27.0442 152.179 26.9943 151.88 27.0442C151.53 27.1441 151.281 27.3437 151.082 27.6431L149.085 31.0859L148.636 30.9362C148.286 30.8365 147.937 30.7367 147.538 30.6867L147.089 30.587V26.695C147.089 25.9964 146.49 25.3976 145.791 25.3976C145.092 25.3976 144.493 25.9964 144.493 26.695V30.587L144.045 30.6867C143.645 30.7367 143.295 30.8365 142.896 30.9861L142.447 31.1358L140.55 27.8426C140.401 27.5432 140.102 27.3437 139.752 27.2438C139.403 27.1441 139.054 27.1939 138.803 27.3936C138.505 27.5432 138.304 27.8426 138.205 28.1919C138.105 28.5412 138.155 28.8904 138.355 29.1399L140.201 32.3833L139.852 32.6827C139.552 32.9321 139.202 33.2315 138.953 33.5309L138.653 33.8802L135.559 32.0839C135.261 31.9342 134.911 31.8843 134.611 31.9342C134.262 32.0339 134.013 32.2335 133.812 32.5329C133.663 32.8323 133.613 33.1816 133.663 33.481C133.763 33.8302 133.962 34.0797 134.262 34.2794L137.257 36.0258L137.057 36.4748C136.907 36.9239 136.757 37.373 136.657 37.8221L136.558 38.2711H133.314C132.615 38.2711 132.016 38.87 132.016 39.5684C132.016 40.267 132.615 40.8658 133.314 40.8658H136.458V43.9096H133.314C132.615 43.9096 132.016 44.5083 132.016 45.2069C132.016 45.9054 132.615 46.5042 133.314 46.5042H136.458V51.8432H133.364ZM154.176 67.1617H137.406L135.559 55.6354H156.022L154.176 67.1617ZM138.404 66.014H153.228L154.725 56.7332H136.907L138.404 66.014ZM151.381 51.8432H140.251V45.5561C140.301 45.4564 140.301 45.3066 140.301 45.2069C140.301 45.107 140.301 44.9574 140.251 44.8575V44.7079V39.9677C140.301 39.8678 140.301 39.7182 140.301 39.6183C140.301 39.5684 140.301 39.4687 140.301 39.4188V39.319V39.2192C140.651 36.4748 143.046 34.3791 145.791 34.3791C148.835 34.3791 151.381 36.874 151.381 39.9677V51.8432ZM141.35 50.6956H150.233V39.9178C150.233 37.4728 148.237 35.4769 145.791 35.4769C143.595 35.4769 141.749 37.0736 141.399 39.2691C141.399 39.3688 141.399 39.4687 141.399 39.5684C141.399 39.7681 141.35 39.9677 141.299 40.1673V44.608C141.35 44.8077 141.399 45.0073 141.399 45.2069C141.399 45.4064 141.35 45.606 141.299 45.8056V50.6956H141.35Z" fill="#63A9C2"/>
<path d="M169.648 72.3512H79.6607C78.6624 72.3512 77.9138 71.5528 77.9138 70.6047C77.9138 69.6567 78.7124 68.8584 79.6607 68.8584H169.598C170.596 68.8584 171.345 69.6567 171.345 70.6047C171.345 71.5528 170.596 72.3512 169.648 72.3512Z" fill="#1CA3D6"/>
<path d="M315.085 196.845H292.775V231.772H315.085V196.845Z" fill="#1CA3D6"/>
<path d="M319.328 196.445H297.018V231.374H319.328V196.445Z" fill="#D2EDFF"/>
<path d="M346.229 230.775H343.335C341.688 230.775 340.34 232.122 340.34 233.769C340.34 235.416 341.688 236.762 343.335 236.762H346.229C347.876 236.762 349.224 235.416 349.224 233.769C349.224 232.122 347.876 230.775 346.229 230.775Z" fill="#1CA3D6"/>
<path d="M333.002 230.775H25.3584C23.7113 230.775 22.3638 232.122 22.3638 233.769C22.3638 235.416 23.7113 236.762 25.3584 236.762H333.002C334.649 236.762 335.997 235.416 335.997 233.769C335.997 232.122 334.649 230.775 333.002 230.775Z" fill="#1CA3D6"/>
<path d="M13.68 230.775H10.9848C9.3378 230.775 7.99023 232.122 7.99023 233.769C7.99023 235.416 9.3378 236.763 10.9848 236.763H13.68C15.327 236.763 16.6745 235.416 16.6745 233.769C16.6745 232.122 15.3769 230.775 13.68 230.775Z" fill="#1CA3D6"/>
<path d="M220.008 92.2601H215.067C213.42 92.2601 212.073 93.6073 212.073 95.254C212.073 96.9005 213.42 98.2478 215.067 98.2478H220.008C221.655 98.2478 223.003 96.9005 223.003 95.254C223.003 93.6073 221.655 92.2601 220.008 92.2601Z" fill="#1CA3D6"/>
<path d="M205.534 95.3056C205.534 93.6589 204.187 92.3117 202.539 92.3117H108.209C97.1796 92.3117 88.1958 101.293 88.1958 112.32V190.26C88.1958 201.287 97.1796 210.269 108.209 210.269H129.321C130.969 210.269 132.316 208.922 132.316 207.275C132.316 205.629 130.969 204.281 129.321 204.281H108.209C100.523 204.281 94.2348 197.994 94.2348 190.31V112.271C94.2348 104.586 100.523 98.2994 108.209 98.2994H202.489C204.187 98.2994 205.534 96.9522 205.534 95.3056Z" fill="#1CA3D6"/>
<path d="M270.367 112.269C270.367 101.242 261.383 92.2601 250.354 92.2601H232.087C230.439 92.2601 229.092 93.6073 229.092 95.254C229.092 96.9005 230.439 98.2478 232.087 98.2478H250.354C258.04 98.2478 264.329 104.535 264.329 112.219V190.158C264.329 197.843 258.04 204.13 250.354 204.13H142.399C140.751 204.13 139.404 205.477 139.404 207.124C139.404 208.77 140.751 210.118 142.399 210.118H165.756L165.656 210.766C163.859 222.092 153.878 230.675 142.399 230.675C140.751 230.675 139.404 232.023 139.404 233.669C139.404 235.315 140.751 236.663 142.399 236.663C157.371 236.663 169.999 225.436 171.796 210.566L171.845 210.067H186.718L186.768 210.566C188.515 225.436 201.192 236.663 216.166 236.663C217.813 236.663 219.16 235.315 219.16 233.669C219.16 232.023 217.813 230.675 216.166 230.675C204.687 230.675 194.654 222.143 192.908 210.766L192.807 210.118H250.354C261.383 210.118 270.367 201.136 270.367 190.109V112.269Z" fill="#1CA3D6"/>
<path d="M245.811 106.631H112.752C107.111 106.631 102.57 111.221 102.57 116.809V185.718C102.57 191.356 107.162 195.896 112.752 195.896H245.862C251.501 195.896 256.042 191.306 256.042 185.718V116.809C256.042 111.171 251.451 106.631 245.811 106.631ZM253.547 185.718C253.547 189.959 250.054 193.452 245.811 193.452H112.752C108.509 193.452 105.016 189.959 105.016 185.718V116.809C105.016 112.569 108.509 109.075 112.752 109.075H245.862C250.103 109.075 253.597 112.569 253.597 116.809V185.718H253.547Z" fill="#1CA3D6"/>
<path d="M95.3824 164.511C96.5304 165.958 98.2273 166.707 100.074 166.607C101.921 166.507 103.518 165.509 104.516 163.962L115.746 145.8C116.694 144.253 116.844 142.357 116.145 140.66C115.446 138.964 113.999 137.766 112.202 137.367L94.3843 133.475L94.2844 133.625L93.6856 133.325C90.2916 131.529 86.1492 131.929 83.1545 134.323L82.8052 134.573L59.9465 123.845C55.6043 121.799 50.5635 122.348 46.7703 125.292C42.9772 128.236 41.1804 132.977 42.0788 137.717L57.2015 217.203L56.6025 217.402C48.2677 219.897 42.3783 227.532 42.0289 236.214H61.7432L61.893 236.314C62.4919 236.663 63.1906 236.762 63.8394 236.612C64.1389 236.563 64.4384 236.464 64.6879 236.314L64.8376 236.214H82.7553C82.4059 225.736 74.071 217.153 63.54 216.604L62.991 216.555L62.8911 216.005L47.8184 136.668C47.3194 134.024 48.2677 131.529 50.4137 129.882C52.51 128.236 55.2051 127.936 57.6507 129.084L79.9603 139.562L79.8605 140.111C79.1617 143.804 80.6591 147.596 83.7036 149.791L84.2526 150.19L84.1527 150.34L95.3824 164.511Z" fill="#1CA3D6"/>
<path d="M284.641 233.819C284.641 235.465 285.989 236.812 287.636 236.812H320.326C321.974 236.812 323.321 235.465 323.321 233.819V224.538L323.72 224.437C328.612 222.941 332.006 218.351 332.006 213.261C332.006 208.172 328.612 203.581 323.72 202.084L323.321 201.984V194.649C323.321 193.002 321.974 191.656 320.326 191.656H315.236C313.589 191.656 312.241 193.002 312.241 194.649C312.241 196.296 313.589 197.643 315.236 197.643H317.281V230.725H290.63V197.643H304.006C305.652 197.643 307 196.296 307 194.649C307 193.002 305.652 191.656 304.006 191.656H287.636C285.989 191.656 284.641 193.002 284.641 194.649V233.819ZM323.37 206.425L324.219 206.974C326.466 208.322 327.763 210.716 327.763 213.31C327.763 215.906 326.415 218.251 324.219 219.648L323.37 220.197V206.425Z" fill="#1CA3D6"/>
<path d="M298.117 184.919C297.368 184.919 296.77 184.321 296.77 183.573C296.77 183.024 296.52 182.823 295.771 182.175C294.922 181.477 293.824 180.579 293.824 178.733C293.824 176.886 294.973 175.938 295.771 175.289C296.52 174.691 296.77 174.441 296.77 173.893C296.77 173.344 296.52 173.144 295.771 172.495C294.922 171.797 293.824 170.898 293.824 169.053C293.824 168.304 294.424 167.705 295.172 167.705C295.921 167.705 296.52 168.304 296.52 169.053C296.52 169.601 296.77 169.801 297.518 170.45C298.367 171.148 299.465 172.046 299.465 173.893C299.465 175.739 298.316 176.686 297.518 177.335C296.77 177.934 296.52 178.184 296.52 178.733C296.52 179.281 296.77 179.481 297.518 180.129C298.367 180.828 299.465 181.726 299.465 183.573C299.465 184.321 298.865 184.919 298.117 184.919Z" fill="#D2EDFF"/>
<path d="M305.504 184.919C304.755 184.919 304.156 184.321 304.156 183.573C304.156 182.574 303.757 182.175 303.059 181.427C302.26 180.628 301.212 179.481 301.212 177.435C301.212 175.34 302.26 174.242 303.059 173.443C303.757 172.744 304.156 172.296 304.156 171.297C304.156 170.3 303.757 169.9 303.059 169.152C302.26 168.354 301.212 167.206 301.212 165.16C301.212 164.412 301.811 163.812 302.559 163.812C303.308 163.812 303.907 164.412 303.907 165.16C303.907 166.159 304.306 166.558 305.005 167.306C305.803 168.104 306.852 169.252 306.852 171.297C306.852 173.393 305.803 174.491 305.005 175.289C304.306 175.988 303.907 176.437 303.907 177.435C303.907 178.433 304.306 178.832 305.005 179.58C305.803 180.379 306.852 181.526 306.852 183.573C306.852 184.321 306.253 184.919 305.504 184.919Z" fill="#D2EDFF"/>
<path d="M312.84 184.919C312.091 184.919 311.492 184.321 311.492 183.573C311.492 183.024 311.243 182.823 310.495 182.175C309.646 181.477 308.548 180.579 308.548 178.733C308.548 176.886 309.696 175.938 310.495 175.289C311.243 174.691 311.492 174.441 311.492 173.893C311.492 173.344 311.243 173.144 310.495 172.495C309.646 171.797 308.548 170.898 308.548 169.053C308.548 168.304 309.147 167.705 309.895 167.705C310.644 167.705 311.243 168.304 311.243 169.053C311.243 169.601 311.492 169.801 312.241 170.45C313.09 171.148 314.188 172.046 314.188 173.893C314.188 175.739 313.04 176.686 312.241 177.335C311.492 177.934 311.243 178.184 311.243 178.733C311.243 179.281 311.492 179.481 312.241 180.129C313.09 180.828 314.188 181.726 314.188 183.573C314.188 184.321 313.589 184.919 312.84 184.919Z" fill="#D2EDFF"/>
<path d="M322.023 42.7122C321.823 42.7122 321.624 42.6623 321.474 42.5126L320.226 41.2651C319.926 40.9657 319.926 40.5166 320.226 40.2173C320.525 39.9179 320.975 39.9179 321.274 40.2173L322.522 41.4647C322.821 41.7641 322.821 42.2132 322.522 42.5126C322.422 42.6123 322.222 42.7122 322.023 42.7122Z" fill="#D2EDFF"/>
<path d="M323.37 39.5186H321.624C321.224 39.5186 320.875 39.1693 320.875 38.7701C320.875 38.371 321.224 38.0216 321.624 38.0216H323.37C323.77 38.0216 324.12 38.371 324.12 38.7701C324.12 39.2192 323.77 39.5186 323.37 39.5186Z" fill="#D2EDFF"/>
<path d="M320.825 37.5727C320.625 37.5727 320.426 37.5228 320.276 37.3731C319.976 37.0737 319.976 36.6246 320.276 36.3253L321.524 35.0778C321.824 34.7784 322.272 34.7784 322.572 35.0778C322.872 35.3773 322.872 35.8263 322.572 36.1257L321.324 37.3731C321.224 37.5228 321.025 37.5727 320.825 37.5727Z" fill="#D2EDFF"/>
<path d="M318.879 36.7743C318.48 36.7743 318.131 36.425 318.131 36.0259V34.2795C318.131 33.8803 318.48 33.531 318.879 33.531C319.278 33.531 319.628 33.8803 319.628 34.2795V36.0259C319.628 36.425 319.278 36.7743 318.879 36.7743Z" fill="#D2EDFF"/>
<path d="M316.933 37.5727C316.733 37.5727 316.533 37.5228 316.384 37.3731L315.136 36.1257C314.837 35.8263 314.837 35.3773 315.136 35.0778C315.436 34.7784 315.885 34.7784 316.184 35.0778L317.432 36.3253C317.732 36.6246 317.732 37.0737 317.432 37.3731C317.282 37.473 317.133 37.5727 316.933 37.5727Z" fill="#D2EDFF"/>
<path d="M316.134 39.5186H314.387C313.988 39.5186 313.639 39.1693 313.639 38.7701C313.639 38.371 313.988 38.0216 314.387 38.0216H316.134C316.533 38.0216 316.883 38.371 316.883 38.7701C316.833 39.1693 316.533 39.5186 316.134 39.5186Z" fill="#D2EDFF"/>
<path d="M315.685 42.7122C315.485 42.7122 315.286 42.6623 315.136 42.5126C314.837 42.2132 314.837 41.7641 315.136 41.4647L316.384 40.2173C316.683 39.9179 317.133 39.9179 317.432 40.2173C317.732 40.5166 317.732 40.9657 317.432 41.2651L316.184 42.5126C316.085 42.6123 315.885 42.7122 315.685 42.7122Z" fill="#D2EDFF"/>
<path d="M318.879 44.0094C318.48 44.0094 318.131 43.6602 318.131 43.2609V41.5146C318.131 41.1154 318.48 40.7661 318.879 40.7661C319.278 40.7661 319.628 41.1154 319.628 41.5146V43.2609C319.628 43.6602 319.278 44.0094 318.879 44.0094Z" fill="#D2EDFF"/>
<path d="M322.023 42.7122C321.823 42.7122 321.624 42.6623 321.474 42.5126L320.226 41.2651C319.926 40.9657 319.926 40.5166 320.226 40.2173C320.525 39.9179 320.975 39.9179 321.274 40.2173L322.522 41.4647C322.821 41.7641 322.821 42.2132 322.522 42.5126C322.422 42.6123 322.222 42.7122 322.023 42.7122Z" fill="#D2EDFF"/>
<path d="M323.37 39.5186H321.624C321.224 39.5186 320.875 39.1693 320.875 38.7701C320.875 38.371 321.224 38.0216 321.624 38.0216H323.37C323.77 38.0216 324.12 38.371 324.12 38.7701C324.12 39.2192 323.77 39.5186 323.37 39.5186Z" fill="#D2EDFF"/>
<path d="M320.825 37.5727C320.625 37.5727 320.426 37.5228 320.276 37.3731C319.976 37.0737 319.976 36.6246 320.276 36.3253L321.524 35.0778C321.824 34.7784 322.272 34.7784 322.572 35.0778C322.872 35.3773 322.872 35.8263 322.572 36.1257L321.324 37.3731C321.224 37.5228 321.025 37.5727 320.825 37.5727Z" fill="#D2EDFF"/>
<path d="M318.879 36.7743C318.48 36.7743 318.131 36.425 318.131 36.0259V34.2795C318.131 33.8803 318.48 33.531 318.879 33.531C319.278 33.531 319.628 33.8803 319.628 34.2795V36.0259C319.628 36.425 319.278 36.7743 318.879 36.7743Z" fill="#D2EDFF"/>
<path d="M5.29535 145.999C2.9995 146.049 1.15284 144.253 1.05302 141.958C1.00311 139.663 2.79986 137.816 5.09571 137.717C5.84436 137.717 6.59301 137.867 7.24183 138.266C7.5912 138.465 7.74093 138.915 7.54129 139.264C7.34165 139.612 6.89247 139.762 6.5431 139.563C6.14382 139.314 5.64472 139.213 5.19553 139.213C3.74814 139.264 2.55031 140.461 2.60022 141.908C2.65013 143.355 3.84797 144.553 5.29535 144.503C6.74273 144.452 7.94057 143.255 7.89066 141.808C7.89066 141.41 8.19012 141.06 8.5894 141.06C8.98868 141.06 9.33804 141.359 9.33804 141.758C9.33804 144.053 7.54129 145.95 5.29535 145.999Z" fill="#D2EDFF"/>
<path d="M41.4297 85.7735C41.7791 85.4241 42.378 85.4241 42.7274 85.7735L48.7165 91.7612C49.0659 92.1104 49.0659 92.7092 48.7165 93.0585C48.3672 93.4078 47.7682 93.4078 47.4189 93.0585L41.4297 87.0708C41.0804 86.7215 41.0804 86.1227 41.4297 85.7735Z" fill="#D2EDFF"/>
<path d="M41.4297 91.7612L47.4189 85.7735C47.7682 85.4241 48.3672 85.4241 48.7165 85.7735C49.0659 86.1227 49.0659 86.7215 48.7165 87.0708L42.7274 93.0585C42.378 93.4078 41.7791 93.4078 41.4297 93.0585C41.0804 92.7092 41.0804 92.1104 41.4297 91.7612Z" fill="#D2EDFF"/>
<path d="M297.567 102.989C297.916 102.64 298.515 102.64 298.864 102.989L304.854 108.977C305.203 109.326 305.203 109.925 304.854 110.274C304.504 110.623 303.906 110.623 303.556 110.274L297.567 104.286C297.217 103.887 297.217 103.338 297.567 102.989Z" fill="#D2EDFF"/>
<path d="M297.567 108.926L303.556 102.938C303.906 102.589 304.504 102.589 304.854 102.938C305.203 103.288 305.203 103.886 304.854 104.236L298.864 110.224C298.515 110.573 297.916 110.573 297.567 110.224C297.217 109.874 297.217 109.326 297.567 108.926Z" fill="#D2EDFF"/>
<path d="M181.627 48.7497C181.977 48.4005 182.575 48.4005 182.925 48.7497L188.913 54.7374C189.263 55.0867 189.263 55.6855 188.913 56.0348C188.564 56.384 187.965 56.384 187.616 56.0348L181.627 50.0471C181.278 49.6978 181.278 49.0991 181.627 48.7497Z" fill="#D2EDFF"/>
<path d="M181.627 54.7374L187.616 48.7497C187.965 48.4005 188.564 48.4005 188.913 48.7497C189.263 49.0991 189.263 49.6978 188.913 50.0471L182.925 56.0348C182.575 56.384 181.977 56.384 181.627 56.0348C181.278 55.6356 181.278 55.0867 181.627 54.7374Z" fill="#D2EDFF"/>
<path d="M193.806 2.99383C194.632 2.99383 195.302 2.32364 195.302 1.49692C195.302 0.670193 194.632 0 193.806 0C192.978 0 192.308 0.670193 192.308 1.49692C192.308 2.32364 192.978 2.99383 193.806 2.99383Z" fill="#D2EDFF"/>
<path d="M68.6308 165.31C69.4578 165.31 70.1282 164.639 70.1282 163.812C70.1282 162.986 69.4578 162.316 68.6308 162.316C67.8039 162.316 67.1335 162.986 67.1335 163.812C67.1335 164.639 67.8039 165.31 68.6308 165.31Z" fill="#D2EDFF"/>
<path d="M332.604 143.355C333.432 143.355 334.101 142.685 334.101 141.858C334.101 141.031 333.432 140.361 332.604 140.361C331.777 140.361 331.107 141.031 331.107 141.858C331.107 142.685 331.777 143.355 332.604 143.355Z" fill="#D2EDFF"/>
<path d="M202.688 129.184C196.799 123.297 188.964 120.053 180.579 120.053C172.243 120.053 164.407 123.297 158.468 129.184C152.579 135.072 149.335 142.906 149.335 151.289C149.335 159.621 152.579 167.456 158.468 173.393C164.358 179.281 172.194 182.525 180.579 182.525C188.913 182.525 196.749 179.281 202.688 173.393C208.578 167.505 211.822 159.671 211.822 151.289C211.822 142.906 208.578 135.072 202.688 129.184ZM201.74 172.446C196.1 178.083 188.564 181.227 180.579 181.227C172.593 181.227 165.057 178.133 159.417 172.446C153.777 166.807 150.632 159.272 150.632 151.289C150.632 143.305 153.727 135.771 159.417 130.133C165.057 124.494 172.593 121.351 180.579 121.351C188.564 121.351 196.1 124.444 201.74 130.133C207.38 135.771 210.524 143.305 210.524 151.289C210.524 159.272 207.43 166.757 201.74 172.446Z" fill="#1CA3D6" stroke="#1CA3D6" stroke-width="4.45543" stroke-miterlimit="10"/>
<path d="M190.261 166.108C188.863 166.108 187.565 165.559 186.616 164.611L180.578 158.573L174.539 164.611C173.54 165.61 172.243 166.108 170.896 166.108C169.498 166.108 168.201 165.559 167.252 164.611C166.254 163.613 165.755 162.316 165.755 160.969C165.755 159.572 166.304 158.275 167.252 157.326L173.291 151.289L167.252 145.201C166.254 144.203 165.755 142.906 165.755 141.558C165.755 140.162 166.304 138.864 167.252 137.916C168.25 136.919 169.548 136.419 170.896 136.419C172.292 136.419 173.591 136.968 174.539 137.916L180.578 143.954L186.616 137.916C187.615 136.919 188.913 136.419 190.261 136.419C191.658 136.419 192.956 136.968 193.904 137.916C194.902 138.914 195.402 140.211 195.402 141.558C195.402 142.956 194.852 144.253 193.904 145.201L187.864 151.238L193.904 157.276C194.902 158.275 195.402 159.572 195.402 160.918C195.402 162.266 194.852 163.613 193.904 164.562C192.956 165.559 191.658 166.108 190.261 166.108ZM180.578 155.58L188.114 163.115C188.713 163.713 189.461 164.013 190.261 164.013C191.059 164.013 191.858 163.713 192.407 163.115C193.005 162.515 193.305 161.767 193.305 160.969C193.305 160.17 193.005 159.372 192.407 158.823L184.87 151.289L192.407 143.754C193.005 143.155 193.305 142.407 193.305 141.609C193.305 140.81 193.005 140.012 192.407 139.463C191.807 138.864 191.059 138.565 190.261 138.565C189.461 138.565 188.663 138.864 188.114 139.463L180.578 146.998L173.042 139.463C172.442 138.864 171.694 138.565 170.896 138.565C170.097 138.565 169.299 138.864 168.75 139.463C168.15 140.062 167.851 140.81 167.851 141.609C167.851 142.407 168.15 143.206 168.75 143.754L176.286 151.289L168.75 158.773C168.15 159.372 167.851 160.12 167.851 160.918C167.851 161.717 168.15 162.515 168.75 163.064C169.348 163.663 170.097 163.962 170.896 163.962C171.694 163.962 172.493 163.663 173.042 163.064L180.578 155.58Z" fill="#1CA3D6"/>
<path d="M182.924 146.449L182.026 145.551L180.628 146.947L173.092 139.413C172.742 139.063 172.343 138.814 171.944 138.664C171.345 138.864 170.845 139.213 170.397 139.612C169.598 140.411 169.199 141.408 169.199 142.507C169.199 143.255 169.398 144.004 169.798 144.653L176.336 151.189L176.237 151.289L177.135 152.187L170.347 158.972C169.548 159.771 169.149 160.769 169.149 161.867C169.149 162.466 169.299 163.064 169.548 163.563C169.998 163.763 170.446 163.913 170.946 163.913C171.744 163.913 172.543 163.613 173.092 163.014L180.628 155.48L188.164 163.014C188.763 163.613 189.512 163.913 190.311 163.913C191.11 163.913 191.908 163.613 192.457 163.014C193.055 162.416 193.355 161.667 193.355 160.869C193.355 160.071 193.055 159.272 192.457 158.723L184.92 151.189L192.457 143.654C193.055 143.056 193.355 142.306 193.355 141.509C193.355 140.711 193.055 139.912 192.457 139.363C192.107 139.014 191.708 138.765 191.309 138.615C190.71 138.814 190.211 139.163 189.762 139.562L182.924 146.449Z" fill="#D2EDFF"/>
<path d="M190.71 144.552L184.471 150.839L184.871 151.238L192.258 144.801C193.056 144.004 193.456 143.005 193.456 141.908C193.456 140.81 193.006 139.762 192.258 139.014C192.058 138.814 191.808 138.615 191.559 138.465C191.958 139.213 192.208 140.062 192.208 140.91C192.258 142.306 191.709 143.605 190.71 144.552Z" fill="#1CA3D6"/>
<path d="M172.593 162.615C171.945 163.263 171.145 163.713 170.297 163.962C170.597 164.062 170.946 164.062 171.246 164.062C172.344 164.062 173.392 163.613 174.14 162.865L181.177 156.129L180.279 155.231L172.593 162.615Z" fill="#1CA3D6"/>
<path d="M191.409 156.627C191.958 157.476 192.258 158.423 192.258 159.422C192.258 160.819 191.709 162.116 190.761 163.064C190.111 163.713 189.313 164.162 188.465 164.412C188.763 164.511 189.113 164.511 189.413 164.511C190.51 164.511 191.559 164.062 192.307 163.314C193.106 162.515 193.505 161.518 193.505 160.42C193.505 159.322 193.056 158.275 192.307 157.525L191.409 156.627Z" fill="#1CA3D6"/>
<path d="M194.603 158.125C194.404 157.825 194.204 157.525 193.905 157.276L188.814 152.187L188.714 152.286L194.603 158.125Z" fill="#1CA3D6"/>
<path d="M182.924 158.074L181.527 159.472L186.668 164.611C187.665 165.61 188.964 166.108 190.311 166.108C190.76 166.108 191.209 166.058 191.659 165.908C190.909 165.709 190.261 165.36 189.712 164.811L182.924 158.074Z" fill="#1CA3D6"/>
<path d="M169.499 163.663C169.199 163.514 168.95 163.314 168.75 163.115C168.151 162.515 167.852 161.767 167.852 160.969C167.852 160.17 168.151 159.372 168.75 158.823L176.186 151.388L170.297 145.5C170.048 145.251 169.848 145.002 169.698 144.752L168.7 143.754C168.101 143.155 167.801 142.407 167.801 141.609C167.801 140.81 168.101 140.012 168.7 139.463C169.299 138.864 170.048 138.565 170.846 138.565C171.195 138.565 171.495 138.615 171.845 138.715C172.293 138.565 172.743 138.465 173.192 138.465C174.289 138.465 175.338 138.914 176.087 139.663L181.976 145.551L188.065 139.463C188.664 138.864 189.413 138.565 190.211 138.565C190.56 138.565 190.86 138.615 191.209 138.715C191.659 138.565 192.108 138.465 192.557 138.465C193.355 138.465 194.104 138.715 194.753 139.114C194.503 138.664 194.204 138.265 193.855 137.916C192.856 136.919 191.559 136.419 190.211 136.419C188.814 136.419 187.516 136.968 186.568 137.916L180.528 143.954L174.49 137.916C173.491 136.919 172.194 136.419 170.846 136.419C169.448 136.419 168.151 136.968 167.203 137.916C166.204 138.914 165.706 140.211 165.706 141.558C165.706 142.956 166.255 144.253 167.203 145.201L173.242 151.238L167.252 157.276C166.255 158.275 165.756 159.572 165.756 160.918C165.756 162.316 166.304 163.613 167.252 164.562C168.251 165.559 169.548 166.058 170.897 166.058C171.345 166.058 171.795 166.009 172.244 165.859C171.495 165.659 170.846 165.31 170.297 164.761C169.948 164.461 169.698 164.062 169.499 163.663Z" fill="#1CA3D6"/>
<path d="M180.579 146.947L181.976 145.551L176.087 139.663C175.288 138.864 174.29 138.465 173.192 138.465C172.743 138.465 172.294 138.565 171.844 138.714C172.294 138.864 172.693 139.114 172.992 139.463L180.579 146.947Z" fill="#1CA3D6"/>
<path d="M195.452 160.918C195.452 159.921 195.152 158.923 194.603 158.125L188.714 152.237L188.814 152.136L187.916 151.238L193.954 145.201C194.953 144.203 195.452 142.906 195.452 141.558C195.452 140.66 195.253 139.862 194.803 139.114C194.155 138.714 193.405 138.465 192.607 138.465C192.157 138.465 191.709 138.565 191.259 138.714C191.709 138.864 192.108 139.114 192.408 139.463C193.006 140.062 193.306 140.81 193.306 141.609C193.306 142.407 193.006 143.206 192.408 143.754L184.871 151.289L192.408 158.823C193.006 159.422 193.306 160.17 193.306 160.969C193.306 161.767 193.006 162.565 192.408 163.115C191.808 163.713 191.06 164.013 190.261 164.013C189.462 164.013 188.664 163.713 188.115 163.115L180.579 155.579L173.043 163.115C172.443 163.713 171.695 164.013 170.897 164.013C170.397 164.013 169.948 163.913 169.499 163.663C169.699 164.112 169.998 164.511 170.348 164.86C170.897 165.409 171.545 165.758 172.293 165.958C173.142 165.709 173.941 165.259 174.589 164.611L180.629 158.573L181.527 159.471L182.925 158.074L189.713 164.86C190.261 165.409 190.91 165.758 191.659 165.958C192.507 165.709 193.306 165.259 193.954 164.611C194.903 163.613 195.452 162.316 195.452 160.918Z" fill="#1CA3D6"/>
<path d="M169.747 144.702C169.897 144.951 170.097 145.251 170.346 145.45L176.235 151.339L176.336 151.238L169.747 144.702Z" fill="#1CA3D6"/>
</g>
<defs>
<clipPath id="clip0_403_791">
<rect width="349.98" height="236.812" fill="white" transform="translate(0.0102539)"/>
</clipPath>
</defs>
</svg>
