<svg width="13" height="13" viewBox="0 0 13 13" fill="none" xmlns="http://www.w3.org/2000/svg">
<path d="M6.49992 10.8334C8.88325 10.8334 10.8333 8.88337 10.8333 6.50004C10.8333 4.11671 8.88325 2.16671 6.49992 2.16671C4.11659 2.16671 2.16659 4.11671 2.16659 6.50004C2.16659 8.88337 4.11659 10.8334 6.49992 10.8334ZM6.49992 1.08337C9.47909 1.08337 11.9166 3.52087 11.9166 6.50004C11.9166 9.47921 9.47909 11.9167 6.49992 11.9167C3.52075 11.9167 1.08325 9.47921 1.08325 6.50004C1.08325 3.52087 3.52075 1.08337 6.49992 1.08337ZM9.20825 7.52921L8.82909 8.23337L5.95825 6.66254V3.79171H6.77075V6.17504L9.20825 7.52921Z" fill="#CCCCCC"/>
</svg>
