<svg width="15" height="18" viewBox="0 0 15 18" fill="none" xmlns="http://www.w3.org/2000/svg">
<path d="M7.16741 17.1913H6.20491C6.0869 17.1908 5.97033 17.1653 5.86291 17.1164C5.75548 17.0675 5.65963 16.9965 5.58168 16.9078C5.50372 16.8192 5.44544 16.7151 5.41066 16.6023C5.37588 16.4896 5.3654 16.3707 5.37991 16.2536L6.01516 11.1679H2.95074L2.48049 11.9929C2.38614 12.157 2.25484 12.2969 2.09699 12.4015C1.93914 12.506 1.75911 12.5723 1.57116 12.5952L0.934077 12.6667C0.797849 12.6841 0.659429 12.6672 0.53137 12.6176C0.403312 12.568 0.289667 12.4871 0.200744 12.3825C0.111469 12.2781 0.049293 12.1533 0.0197149 12.0192C-0.00986307 11.885 -0.00593204 11.7457 0.0311604 11.6134L0.740661 9.07515C0.755316 9.02331 0.755316 8.96842 0.740661 8.91657L0.0302438 6.3829C-0.00631774 6.25093 -0.00978638 6.11197 0.0201446 5.97834C0.0500756 5.8447 0.112484 5.7205 0.201847 5.61672C0.29121 5.51295 0.404773 5.4328 0.532489 5.38337C0.660205 5.33394 0.798136 5.31675 0.934077 5.33332L1.57116 5.4094C1.75898 5.43227 1.93891 5.4985 2.09673 5.60286C2.25454 5.70722 2.38593 5.84686 2.48049 6.01074L2.95074 6.83574H6.01241L5.37624 1.74732C5.36159 1.63013 5.37197 1.51116 5.40668 1.39828C5.4414 1.28539 5.49966 1.18115 5.57763 1.09244C5.6556 1.00373 5.7515 0.932564 5.85899 0.883646C5.96649 0.834728 6.08314 0.809169 6.20124 0.808655H7.16741C7.41357 0.809579 7.65366 0.885167 7.85595 1.02543C8.05825 1.16569 8.21323 1.36403 8.30041 1.59424L10.2657 6.83207H11.2246C11.7661 6.83214 12.3062 6.88866 12.8361 7.00074C13.0985 7.04352 13.3497 7.13859 13.5748 7.28031C13.7998 7.42203 13.994 7.60751 14.146 7.82574C14.3043 8.04934 14.4155 8.30274 14.4731 8.5706C14.5306 8.83846 14.5331 9.1152 14.4806 9.38407C14.3891 9.80466 14.1705 10.1869 13.8543 10.479C13.5381 10.771 13.1398 10.9588 12.7132 11.0167L12.5666 11.0387C12.0449 11.1221 11.5173 11.1641 10.989 11.1642H10.2676L8.30224 16.4021C8.21554 16.6333 8.06053 16.8326 7.85783 16.9736C7.65512 17.1145 7.41432 17.1905 7.16741 17.1913V17.1913ZM6.29566 16.2747H7.16741C7.22724 16.2742 7.28554 16.2557 7.33463 16.2215C7.38372 16.1873 7.4213 16.139 7.44241 16.0831L9.47191 10.6702C9.51877 10.5473 9.60174 10.4415 9.7099 10.3667C9.81806 10.2919 9.94633 10.2517 10.0778 10.2512H10.9862C11.4673 10.251 11.9476 10.2127 12.4227 10.1367L12.5693 10.1137C12.8084 10.0837 13.0328 9.98178 13.2128 9.82156C13.3928 9.66135 13.52 9.45032 13.5777 9.21632C13.6063 9.06818 13.6048 8.91579 13.5733 8.76823C13.5418 8.62067 13.4809 8.48096 13.3943 8.3574C13.3101 8.23614 13.2024 8.13306 13.0775 8.05432C12.9526 7.97557 12.8131 7.92278 12.6674 7.89907C12.1922 7.79808 11.7077 7.74678 11.2218 7.74599H10.076C9.94464 7.74549 9.8165 7.70531 9.70837 7.63072C9.60025 7.55613 9.51719 7.45061 9.47008 7.32799L7.44241 1.9169C7.4213 1.86093 7.38372 1.81266 7.33463 1.77846C7.28554 1.74426 7.22724 1.72573 7.16741 1.72532H6.29566L6.95749 7.02182C6.96971 7.11295 6.96221 7.20565 6.93548 7.29362C6.90875 7.3816 6.86343 7.4628 6.80258 7.53174C6.74173 7.60067 6.66678 7.65572 6.5828 7.69316C6.49882 7.7306 6.40777 7.74955 6.31583 7.74874H2.79216C2.6775 7.74918 2.56482 7.71888 2.46583 7.66101C2.36685 7.60313 2.28518 7.51979 2.22933 7.41965L1.67933 6.46174C1.65661 6.42166 1.62477 6.3875 1.58639 6.36202C1.54801 6.33654 1.50416 6.32045 1.45841 6.31507L0.945994 6.24999L1.62249 8.66999C1.68118 8.88327 1.68118 9.10845 1.62249 9.32174L0.945994 11.75L1.46116 11.6886C1.50691 11.6832 1.55076 11.6671 1.58914 11.6416C1.62752 11.6161 1.65936 11.582 1.68208 11.5419L2.23208 10.5803C2.28826 10.4811 2.36984 10.3987 2.46844 10.3415C2.56704 10.2843 2.67909 10.2544 2.79308 10.2549H6.31858C6.41061 10.2541 6.50174 10.273 6.5858 10.3105C6.66985 10.348 6.74485 10.4032 6.80572 10.4722C6.86658 10.5412 6.91188 10.6226 6.93854 10.7107C6.96521 10.7987 6.97261 10.8915 6.96024 10.9827L6.29566 16.2747ZM3.02958 11.0277V11.0322V11.0277Z" fill="white"/>
</svg>
