<svg width="104" height="150" viewBox="0 0 104 150" fill="none" xmlns="http://www.w3.org/2000/svg">
<g clip-path="url(#clip0_21_402)">
<path d="M71.0177 32.4058L59.6938 33.4898L60.1662 38.5403L71.49 37.4561L71.0177 32.4058Z" fill="#D2EDFF"/>
<path d="M68.5167 38.62L60.2468 39.4117L61.6528 54.4448L69.9227 53.6531L68.5167 38.62Z" fill="#D2EDFF"/>
<path d="M27.376 36.5836L17.7146 37.5086L18.1869 42.559L27.8484 41.6341L27.376 36.5836Z" fill="#D2EDFF"/>
<path d="M27.4645 42.5507L20.8336 43.1854L22.2397 58.2186L28.8706 57.5838L27.4645 42.5507Z" fill="#D2EDFF"/>
<path d="M55.0706 1.69983L27.7767 4.31285L32.7724 57.7272L60.0663 55.1142L55.0706 1.69983Z" fill="#D2EDFF"/>
<path d="M70.7724 30.8475L59.9274 31.8868L57.0568 1.19584C56.991 0.47448 56.3531 -0.057048 55.6402 0.00939298L24.6767 2.97076C23.9637 3.03721 23.4383 3.68263 23.504 4.40399L26.3747 35.095L15.5298 36.1343C14.8168 36.2008 14.2914 36.8462 14.3571 37.5675L14.8215 42.5268C14.8871 43.2482 15.5251 43.7798 16.2381 43.7133L17.1715 43.6232L18.6491 59.4409C18.7148 60.1622 19.3527 60.6937 20.0657 60.6273L70.8568 55.7629C71.5699 55.6964 72.0952 55.051 72.0295 54.3296L70.5519 38.5119L71.4854 38.4218C72.1984 38.3553 72.7238 37.7099 72.6581 36.9885L72.1936 32.0292C72.1234 31.3079 71.4854 30.7763 70.7724 30.8475ZM28.4386 57.1818L20.8397 57.908L19.5497 44.0978L27.1487 43.3716L28.4386 57.1818ZM26.9236 40.9655L16.4539 41.9669L16.088 38.0421L26.5577 37.0408L26.9236 40.9655ZM26.2153 5.46704L54.5894 2.74771L54.838 5.38636L26.4638 8.10568L26.2153 5.46704ZM48.013 55.3073L42.4217 55.8435L41.5117 46.1004C41.4085 45.0137 41.4554 43.9364 41.976 43.0916C42.3935 42.413 42.8673 41.834 43.904 41.7343C45.0156 41.6299 45.7099 42.0808 46.24 42.7309C46.8216 43.4428 46.9999 44.5059 47.0936 45.4977L48.013 55.3073ZM59.4068 54.2158L50.4475 55.0747L49.3968 43.8509C49.1247 40.9323 46.5542 38.7824 43.6741 39.0625C40.7893 39.3377 38.6644 41.9384 38.9412 44.8523L39.9919 56.0761L31.0326 56.9351L26.7078 10.7253L55.0819 8.00602L59.4068 54.2158ZM69.0556 53.295L61.9961 53.9689L60.7061 40.1587L67.7657 39.4848L69.0556 53.295ZM70.946 36.7513L60.4763 37.7526L60.1104 33.8279L70.5801 32.8265L70.946 36.7513Z" fill="url(#paint0_linear_21_402)"/>
<path d="M34.6866 14.1105L31.1237 14.4515L31.7418 21.061L35.3047 20.7199L34.6866 14.1105Z" fill="url(#paint1_linear_21_402)"/>
<path d="M43.0591 13.3086L39.4962 13.6497L40.1144 20.2592L43.6773 19.918L43.0591 13.3086Z" fill="url(#paint2_linear_21_402)"/>
<path d="M51.4268 12.5073L47.8639 12.8485L48.482 19.4579L52.045 19.1168L51.4268 12.5073Z" fill="url(#paint3_linear_21_402)"/>
<path d="M35.8255 26.3259L32.2626 26.6671L32.8807 33.2765L36.4436 32.9354L35.8255 26.3259Z" fill="url(#paint4_linear_21_402)"/>
<path d="M44.1981 25.5242L40.6351 25.8653L41.2533 32.4747L44.8162 32.1337L44.1981 25.5242Z" fill="url(#paint5_linear_21_402)"/>
<path d="M52.5706 24.7223L49.0077 25.0634L49.6259 31.6729L53.1888 31.3318L52.5706 24.7223Z" fill="url(#paint6_linear_21_402)"/>
<path d="M73.3335 13.3688C69.1259 14.261 68.427 15.1389 67.9579 20.1837C67.9439 20.3356 67.7609 20.3403 67.7375 20.1932C66.94 15.1911 66.1895 14.3606 61.935 13.7485C61.8084 13.7295 61.799 13.5159 61.9256 13.4874C66.1332 12.5952 66.8321 11.7173 67.3012 6.67247C67.3153 6.52061 67.4982 6.51586 67.5217 6.66298C68.3191 11.665 69.0696 12.4955 73.3241 13.1078C73.4507 13.1267 73.4601 13.3403 73.3335 13.3688Z" fill="#D2EDFF"/>
<path d="M89.1268 26.1683C81.8939 27.8768 80.7119 29.5378 80.0035 39.0104C79.98 39.2952 79.6706 39.3046 79.6234 39.0246C78.1552 29.6422 76.8418 28.0856 69.4962 26.9799C69.2757 26.9466 69.2617 26.5432 69.4775 26.491C76.7105 24.7825 77.8926 23.1215 78.6009 13.6489C78.6243 13.3642 78.9339 13.3547 78.981 13.6347C80.4488 23.0171 81.7627 24.5737 89.108 25.6795C89.324 25.708 89.3428 26.1161 89.1268 26.1683Z" fill="#D2EDFF"/>
<path d="M16.5567 29.8224C11.4861 31.3173 10.7121 32.5417 10.5714 39.2902C10.5667 39.4896 10.3463 39.5133 10.304 39.314C8.90618 32.7126 7.91644 31.659 2.65814 31.1607C2.50334 31.1465 2.4752 30.857 2.6253 30.8143C7.69597 29.3194 8.46992 28.095 8.61066 21.3417C8.61537 21.1424 8.83581 21.1186 8.87806 21.318C10.2759 27.9194 11.2656 28.9729 16.5239 29.4712C16.6834 29.4902 16.7115 29.775 16.5567 29.8224Z" fill="#D2EDFF"/>
<path d="M43.4207 125.137C41.6054 125.09 39.9214 125.64 38.547 126.613C37.8903 127.078 36.9944 126.954 36.4784 126.333L36.4597 126.309C35.939 125.687 35.9577 124.772 36.5019 124.173C38.3641 122.105 39.4429 119.304 39.2647 116.248C38.9504 110.895 34.7194 106.538 29.433 106.135C23.1662 105.66 17.936 110.662 17.936 116.903C17.936 117.378 17.9688 117.847 18.0251 118.308C18.2175 119.798 17.481 121.26 16.1394 121.91C13.888 123.002 11.9084 124.582 10.337 126.513C16.829 136.128 26.5341 143.342 37.8903 146.564C38.5424 145.515 39.0865 144.39 39.5039 143.204C39.898 142.079 41.019 141.41 42.1871 141.558C42.52 141.6 42.8578 141.619 43.2002 141.619C47.8956 141.619 51.6576 137.604 51.3293 132.782C51.0384 128.587 47.5813 125.246 43.4207 125.137Z" fill="#D2EDFF"/>
<path d="M92.0397 69.559C92.9829 70.9258 93.8554 72.34 94.6619 73.797C94.6714 73.8112 94.6761 73.8254 94.6855 73.8397C95.6609 75.6052 96.5287 77.4418 97.2889 79.3304C98.0538 81.2286 98.7057 83.1841 99.2358 85.1914C97.6125 86.9192 95.5674 88.2338 93.264 88.9689C95.6939 91.6508 97.1766 95.2241 97.1766 99.1493C97.1766 102.59 96.0316 105.765 94.113 108.298C96.1023 109.404 97.7067 111.127 98.6821 113.211C96.9418 118.844 94.2496 124.045 90.7926 128.63C90.1824 128.739 89.5588 128.796 88.9156 128.796C82.9541 128.796 78.1179 123.908 78.1179 117.871C78.1179 117.548 78.132 117.225 78.1601 116.912C78.3102 115.162 77.4002 113.495 75.8382 112.736C70.8332 110.307 67.3808 105.134 67.3808 99.1446C67.3808 93.7296 70.2046 88.9885 74.4404 86.3309C76.1947 85.2299 76.8983 83.0035 76.0634 81.0959C75.294 79.3304 74.8625 77.38 74.8625 75.3251V75.3014C74.8625 73.9441 73.929 72.7766 72.6156 72.4966C72.2123 72.4112 71.8136 72.3068 71.4242 72.1834C71.4195 72.1834 71.4195 72.1834 71.4149 72.1834C70.9739 72.0458 70.6502 71.6708 70.6034 71.2058C70.0123 65.2593 65.0542 60.6227 59.0219 60.6227C53.9278 60.6227 49.5983 63.9352 48.0175 68.5434C47.4312 70.2614 46.6994 71.9224 45.7566 73.4695L45.6722 73.6072C43.491 77.2044 40.1183 79.9807 36.1125 81.3762C35.4792 81.5946 35.0477 82.1875 35.0477 82.8613V82.8707C35.0477 86.027 33.7765 88.8841 31.7313 90.948C30.7228 91.9642 30.1599 93.359 30.2209 94.7922C30.2256 94.8919 30.2256 94.9917 30.2256 95.0914C30.2256 99.059 26.9139 102.244 22.9363 101.973C19.5964 101.745 16.8852 99.0401 16.6131 95.6655C16.5803 95.243 16.585 94.8252 16.6225 94.4223C16.7633 92.9459 16.2519 91.4938 15.2856 90.3786C13.5501 88.3713 12.4947 85.7466 12.4947 82.866C12.4947 80.854 13.0107 78.9652 13.916 77.3231C14.7837 75.7475 14.8307 73.8586 14.0333 72.2451C13.2499 70.66 12.6823 68.9468 12.3774 67.1386C12.6448 66.7922 12.9215 66.4552 13.1983 66.1135C13.2499 66.0519 13.3015 65.9902 13.3531 65.9285C13.5829 65.6532 13.8174 65.378 14.052 65.1074C14.1224 65.0268 14.188 64.9508 14.2584 64.8749C14.4836 64.6186 14.7134 64.3624 14.9432 64.1108C15.0136 64.0302 15.0887 63.9542 15.159 63.8783C15.3983 63.622 15.6422 63.3658 15.8861 63.1142C15.947 63.0525 16.0081 62.9861 16.069 62.9244C16.3551 62.6302 16.6506 62.3407 16.9414 62.0511C16.9602 62.0322 16.979 62.0132 16.9978 61.999C17.6451 61.3725 18.3112 60.7603 18.9913 60.1671C19.0382 60.1244 19.0851 60.0864 19.1367 60.0437C19.4182 59.8017 19.7044 59.5596 19.9905 59.3223C20.0749 59.2559 20.1547 59.1847 20.2391 59.1183C20.4971 58.9094 20.7551 58.7006 21.0178 58.4966C21.1115 58.4207 21.21 58.3494 21.3039 58.2735C21.5618 58.0742 21.8245 57.8796 22.0825 57.685C22.1764 57.6139 22.2701 57.5474 22.364 57.4762C22.6454 57.2722 22.9268 57.0729 23.213 56.8735C23.288 56.8213 23.3631 56.7691 23.4381 56.7169C24.1746 56.2091 24.9204 55.7251 25.685 55.2552C25.7179 55.2362 25.7507 55.2173 25.7835 55.1935C26.1212 54.9894 26.4636 54.7854 26.8061 54.5861C26.9046 54.5291 27.0078 54.4721 27.1063 54.4152C27.3877 54.2586 27.6692 54.0972 27.9506 53.9454C28.0725 53.879 28.1945 53.8172 28.3165 53.7508C28.5839 53.6084 28.8559 53.4708 29.1233 53.3331C29.2499 53.2667 29.3812 53.2051 29.5079 53.1386C29.7847 53.0009 30.0614 52.8681 30.3382 52.7399C30.4601 52.683 30.5821 52.626 30.7041 52.5691C31.0136 52.4267 31.3232 52.2891 31.6375 52.1514C31.7267 52.1135 31.8158 52.0708 31.9096 52.0328C32.7258 51.6816 33.5513 51.3542 34.3863 51.0457C34.4988 51.003 34.6114 50.965 34.724 50.9223C35.0242 50.8131 35.3291 50.7088 35.6293 50.6043C35.7747 50.5569 35.9201 50.5094 36.0656 50.4619C36.3423 50.3718 36.6191 50.2816 36.8958 50.1962C37.0506 50.1487 37.2101 50.1013 37.3649 50.0538C37.637 49.9731 37.9137 49.8972 38.1858 49.8165C38.3453 49.7738 38.5001 49.7311 38.6595 49.6884C38.9457 49.6124 39.2365 49.5413 39.5227 49.47C39.668 49.4321 39.8135 49.3989 39.9588 49.361C40.306 49.2802 40.6531 49.2043 41.0002 49.1284C41.0893 49.1094 41.1785 49.0904 41.2676 49.0714C41.7085 48.9813 42.1495 48.8958 42.5951 48.8152C42.6983 48.7962 42.8014 48.7819 42.9094 48.7629C43.2471 48.706 43.5847 48.6491 43.9272 48.5968C44.0867 48.5731 44.2462 48.5494 44.4057 48.5304C44.6965 48.4877 44.9827 48.4497 45.2735 48.4165C45.447 48.3928 45.6252 48.3738 45.7988 48.3548C46.0755 48.3216 46.357 48.2931 46.6385 48.2694C46.8167 48.2504 46.9996 48.2362 47.1779 48.2219C47.464 48.1982 47.7455 48.1793 48.0316 48.1603C48.2051 48.1508 48.3787 48.1365 48.5523 48.127C48.8618 48.108 49.1714 48.0985 49.4857 48.0843C49.6358 48.0796 49.7812 48.0701 49.9313 48.0653C50.3911 48.0511 50.8554 48.0464 51.3198 48.0464C51.7185 48.0464 52.1125 48.0511 52.5065 48.0606C52.6332 48.0653 52.7598 48.0701 52.8865 48.0748C53.1539 48.0843 53.4259 48.0938 53.6933 48.108C53.8387 48.1128 53.9888 48.1223 54.1342 48.1318C54.3875 48.146 54.6361 48.1603 54.8847 48.1793C55.0301 48.1887 55.1802 48.1982 55.3257 48.2125C55.5836 48.2314 55.8463 48.2551 56.1043 48.2836C56.2356 48.2979 56.367 48.3074 56.4983 48.3216C56.836 48.3548 57.1738 48.3975 57.5069 48.4402C57.5538 48.445 57.6054 48.4497 57.6522 48.4592C58.0322 48.5067 58.4121 48.5636 58.7921 48.6206C58.914 48.6396 59.036 48.6586 59.158 48.6776C59.416 48.7203 59.6786 48.7629 59.9366 48.8057C60.0821 48.8294 60.2274 48.8579 60.3682 48.8864C60.6027 48.929 60.842 48.9765 61.0765 49.024C61.2266 49.0525 61.372 49.0857 61.5174 49.1141C61.7567 49.1664 61.9912 49.2186 62.2304 49.2707C62.3664 49.304 62.5071 49.3325 62.6432 49.3657C62.9246 49.4321 63.2061 49.5033 63.4875 49.5745C63.5766 49.5982 63.661 49.6172 63.7502 49.6409C64.1113 49.7359 64.4679 49.8355 64.8244 49.9352C64.951 49.9731 65.073 50.0111 65.1996 50.0443C65.4389 50.1155 65.6734 50.1867 65.9079 50.2579C66.058 50.3053 66.2034 50.3528 66.3536 50.4003C66.5646 50.4667 66.7757 50.5379 66.9868 50.6091C67.1416 50.6613 67.2917 50.7135 67.4464 50.7657C67.6528 50.8369 67.8593 50.9128 68.0657 50.9887C68.2158 51.041 68.3658 51.0979 68.5113 51.1501C68.7364 51.2355 68.9616 51.3209 69.1821 51.4064C69.3087 51.4538 69.4353 51.5013 69.562 51.5535C69.834 51.6626 70.1015 51.7718 70.3688 51.8857C70.3688 51.8857 79.1782 65.079 79.1782 66.3651C79.1782 67.6511 81.974 73.0471 82.8182 73.8207C83.6672 74.5896 87.0536 77.138 88.3203 75.4817C89.6051 73.8207 92.0397 69.559 92.0397 69.559Z" fill="#D2EDFF"/>
<path d="M101.074 84.7312C101.088 84.461 101.018 84.209 100.877 83.9953C94.7931 62.1887 74.9517 46.167 51.484 46.167C23.1896 46.167 0.16748 69.4545 0.16748 98.0812C0.16748 126.708 23.1896 150 51.484 150C79.7782 150 102.8 126.712 102.8 98.0812C102.8 93.4681 102.195 88.9932 101.074 84.7312ZM90.4588 68.1495C90.323 68.3108 90.2107 68.5007 90.1306 68.7095C89.4646 70.5081 88.2732 72.7007 86.613 73.7495C86.3405 73.9251 85.9887 74.1386 85.651 74.077C85.2434 74.0057 84.8963 73.5692 84.6143 73.2939C83.8502 72.5488 83.1277 71.7515 82.4759 70.902C81.1714 69.1983 80.0971 67.2762 79.3424 65.264C78.9246 64.1488 78.5448 63.0145 78.0428 61.9373C77.5315 60.8409 76.8608 59.8396 76.1759 58.8477C75.1018 57.2958 73.8868 55.668 73.4131 53.8219C80.1253 57.2342 85.9557 62.1555 90.4588 68.1495ZM38.6173 141.814C37.7448 142.867 37.3649 144.134 37.1397 145.444C26.5247 142.146 17.4387 135.293 11.2423 126.262C11.3408 126.171 11.4299 126.067 11.5143 125.934C12.0209 125.109 13.0716 124.657 14.0661 124.211C15.1684 123.723 16.2614 123.248 17.1854 122.441C19.6434 120.296 18.5082 116.856 19.8357 114.174C20.4314 112.969 21.2945 111.863 22.4015 111.099C23.7337 110.178 25.3145 109.647 26.8436 109.167C28.5229 108.64 29.9864 108.764 31.6376 109.367C32.8947 109.822 34.1565 110.482 35.1696 111.374C36.1453 112.233 36.9099 113.267 37.2148 114.558C37.6088 116.224 37.1116 117.966 36.5628 119.532C36.0327 121.046 35.1556 122.55 34.9023 124.145C34.6068 126.039 35.6528 127.751 37.6135 127.937C38.2655 127.999 38.9316 127.88 39.5414 127.633C40.306 127.325 40.958 126.789 41.7179 126.494C43.0923 125.962 44.7528 127.116 45.8927 127.776C47.253 128.559 48.0597 129.493 48.5523 131.003C49.0964 132.654 49.5936 134.429 49.4482 136.185C49.3403 137.476 48.7352 138.938 47.525 139.535C46.221 140.181 44.5886 139.882 43.1861 139.939C41.4974 140.01 39.7572 140.437 38.6173 141.814ZM51.484 147.613C47.525 147.613 43.6786 147.134 39.987 146.232C40.1371 145.14 40.4092 143.902 41.3708 143.347C42.459 142.711 43.96 142.952 45.1609 142.938C46.7745 142.924 48.3975 142.687 49.7155 141.676C50.9914 140.698 51.8592 139.227 52.2158 137.656C52.6473 135.734 52.3846 133.746 51.8967 131.867C51.4511 130.153 50.9117 128.378 49.7437 127.016C48.6414 125.739 46.9855 124.875 45.4798 124.183C43.6129 123.324 41.7835 123.082 39.912 124.059C39.3397 124.359 38.7581 124.866 38.1014 124.956C37.8105 124.995 37.7871 125.07 37.8011 124.729C37.8246 123.96 38.3499 123.101 38.6314 122.398C38.9926 121.502 39.3538 120.6 39.6446 119.679C40.2216 117.852 40.5124 115.925 40.1371 114.022C39.8276 112.451 38.9879 111.013 37.9043 109.865C36.8067 108.697 35.423 107.782 33.9782 107.117C32.3459 106.363 30.5681 105.745 28.7481 105.789C26.8999 105.831 25.0611 106.553 23.3678 107.25C21.8011 107.896 20.3564 108.735 19.1743 109.979C17.9218 111.298 16.979 112.935 16.4865 114.696C16.2426 115.574 16.1394 116.486 16.0831 117.397C16.0315 118.227 16.0549 119.162 15.5484 119.869C15.3044 120.211 14.8682 120.505 14.385 120.775C13.7471 121.132 13.0716 121.402 12.4056 121.701C11.3314 122.185 10.3323 122.768 9.55827 123.632C5.10212 116.168 2.53161 107.425 2.53161 98.0906C2.53161 87.7069 5.70722 78.0634 11.125 70.0905C12.6964 71.7041 12.8231 74.4661 12.5276 76.559C12.293 78.22 11.8286 79.8433 11.4627 81.476C11.0781 83.2029 10.6794 85.0681 11.2704 86.7959C11.777 88.2809 12.7761 89.5579 13.4985 90.9338C14.2303 92.3341 14.8354 93.7909 15.3138 95.3003C16.0878 97.7584 16.6647 100.587 18.7099 102.338C21.21 104.479 24.5592 103.994 27.2564 102.523C29.9395 101.062 32.3224 98.7079 32.4865 95.4754C32.5428 94.3226 32.1395 92.7613 32.8712 91.76C33.2511 91.2425 33.7906 90.8482 34.2128 90.3645C34.7521 89.7425 35.1368 89.0781 35.437 88.3092C36.3282 86.027 35.8498 83.0608 38.167 81.6134C39.5273 80.7637 41.0143 80.199 42.3042 79.2213C43.6974 78.1631 44.8794 76.9197 45.9395 75.5196C48.1442 72.601 49.5748 69.2173 51.1837 65.9474C52.0468 64.6993 53.6652 64.3196 55.0536 63.9969C56.7657 63.5935 58.5482 62.9053 60.326 62.9671C61.9068 63.024 63.3421 63.9542 64.618 64.8227C65.9126 65.7054 67.0994 66.5027 67.7185 68.0119C68.3331 69.502 68.5957 71.4335 69.8622 72.5393C70.4439 73.0471 71.1522 73.2275 71.8135 73.5929C72.414 73.9251 72.9628 74.3712 73.3662 74.9312C73.6804 75.3725 73.9197 75.8803 73.9666 76.4309C74.0416 77.3041 73.5867 78.1393 73.6007 79.0171C73.6148 79.8809 73.9103 80.6686 74.2809 81.4375C74.5482 81.988 74.9517 82.5527 75.0314 83.1794C75.2472 84.8592 73.4975 86.1833 72.3436 87.0472C70.9833 88.0626 69.5949 89.0875 68.6895 90.5498C68.4784 90.7202 68.3049 90.9621 68.2064 91.2943C67.1979 94.7639 66.2645 98.3993 66.5506 102.049C66.8226 105.565 68.1313 108.716 70.6456 111.189C71.9261 112.451 73.3287 113.59 74.7218 114.72C75.9414 115.712 76.5794 116.689 76.8889 118.241C77.1891 119.741 77.2173 121.283 77.5081 122.788C77.8036 124.297 78.4181 125.744 79.3235 126.983C81.2978 129.674 84.3473 131.288 87.6026 131.482C78.6479 141.386 65.7719 147.613 51.484 147.613ZM90.1117 128.478C87.3026 128.596 83.4984 127.586 81.8232 125.369C80.0876 123.072 80.2895 120.244 79.7735 117.548C79.4923 116.077 78.9104 114.691 77.9068 113.576C76.7951 112.342 75.3269 111.388 74.0839 110.292C72.9769 109.31 71.8464 108.298 71.0631 107.022C70.2891 105.759 69.8341 104.341 69.6089 102.874C69.0835 99.4336 69.9513 95.9647 70.8988 92.671C70.9129 92.6427 70.9317 92.6231 70.9458 92.5948C71.7526 90.9621 73.3568 90.0323 74.7312 88.9453C76.2041 87.783 77.5597 86.3019 77.9021 84.3755C78.0616 83.4645 78.0147 82.548 77.677 81.6794C77.3674 80.8775 76.7576 80.1087 76.5887 79.259C76.4386 78.4763 76.903 77.5461 76.9311 76.7441C76.9592 75.7807 76.6872 74.8125 76.2509 73.963C75.4254 72.359 73.9807 71.2627 72.3717 70.5603C71.7244 70.2755 71.5509 69.9196 71.3023 69.2552C70.9458 68.306 70.6643 67.3332 70.2468 66.4077C69.4213 64.5711 67.9296 63.4749 66.3254 62.3691C64.6602 61.2206 62.8778 60.2335 60.8466 60.0057C58.5951 59.7542 56.3013 60.6179 54.1389 61.1305C52.2486 61.5813 50.4051 62.2884 49.1292 63.7548C48.9651 63.8782 48.8149 64.0491 48.7024 64.2817C48.6789 64.3244 48.6601 64.3671 48.6414 64.4097C48.6085 64.462 48.5664 64.5094 48.5335 64.5616C48.4397 64.7135 48.3881 64.8606 48.3505 65.0078C47.0653 67.6607 45.8692 70.3705 44.2274 72.824C42.656 75.1732 40.7 76.9482 38.1952 78.2057C36.9662 78.8231 35.7278 79.4922 34.8507 80.5885C33.9735 81.6888 33.5654 83.0231 33.3121 84.3943C33.0963 85.5668 32.9931 86.8909 32.3505 87.9252C32.0409 88.4231 31.5672 88.8032 31.1638 89.221C30.6055 89.7951 30.1552 90.4265 29.8691 91.1804C29.3437 92.5618 29.5924 94.0422 29.5267 95.4802C29.4704 96.7571 28.7012 97.7207 27.7865 98.5367C26.14 100.003 23.1473 101.735 20.9989 100.345C19.1039 99.1202 18.738 96.2349 18.0908 94.2511C17.5935 92.7181 16.9697 91.2189 16.2426 89.7857C15.6 88.5134 14.6337 87.3323 14.1271 86.0035C13.5314 84.4414 14.2725 82.4529 14.6383 80.9152C15.0699 79.1121 15.4968 77.2946 15.5953 75.439C15.75 72.5488 14.9151 69.6824 12.8512 67.6986C21.8152 56.062 35.7982 48.5636 51.4793 48.5636C58.1261 48.5636 64.4679 49.9209 70.2516 52.3603C70.2609 55.108 71.6494 57.5189 73.1645 59.7114C73.9244 60.8125 74.7077 61.904 75.3128 63.0999C75.9085 64.2817 76.2744 65.5677 76.7716 66.7921C77.7849 69.2742 79.1405 71.5475 80.8478 73.6071C81.678 74.6085 82.5929 75.6478 83.6531 76.4072C84.8444 77.2567 86.2942 77.2471 87.5837 76.6397C88.9392 76.0037 89.9523 74.8078 90.8295 73.6213C91.4539 72.7813 91.9604 71.8797 92.3963 70.94C94.962 74.8837 96.9889 79.2118 98.3633 83.8249C98.3303 83.8626 98.2973 83.9011 98.2643 83.9435C96.9041 85.9744 93.6489 85.3768 91.9981 87.0519C91.4908 87.5647 91.3086 88.343 91.5049 89.0357C91.7115 89.7668 92.2981 90.1885 92.8235 90.6731C93.6442 91.4278 94.2261 92.4197 94.5874 93.4775C95.0232 94.7498 95.2109 96.0786 95.3279 97.4121C95.4457 98.7645 95.6374 100.198 95.4638 101.555C95.1591 103.952 92.4481 106.196 93.2876 108.707C93.5641 109.533 94.2403 110.036 95.0185 110.321C95.4968 110.501 95.774 110.505 95.9986 110.995C96.2523 111.54 96.2994 112.191 96.4164 112.774C96.5617 113.5 96.7918 114.212 97.19 114.834C97.2701 114.957 97.3549 115.052 97.4484 115.142C95.6892 119.978 93.1989 124.473 90.1117 128.478ZM98.9209 110.344C98.9075 110.302 98.8981 110.259 98.884 110.221C98.4238 108.916 97.6125 108.038 96.3136 107.582C96.2664 107.568 96.2193 107.554 96.1722 107.54C96.2099 107.44 96.2335 107.345 96.1863 107.445C96.4588 106.904 96.6976 106.344 96.9842 105.803C97.5701 104.683 98.1379 103.539 98.3397 102.276C98.551 100.924 98.4615 99.5804 98.3586 98.2234C98.2549 96.8184 98.1285 95.4048 97.8238 94.0281C97.5512 92.7943 97.1107 91.5699 96.4636 90.483C96.1581 89.9757 95.8015 89.4864 95.4081 89.0404C95.3185 88.9406 95.2156 88.8503 95.1214 88.7553C95.2816 88.7035 95.441 88.6516 95.6052 88.599C96.2711 88.3901 96.9418 88.2001 97.5842 87.9346C98.1709 87.6927 98.7151 87.4076 99.2122 87.066C100.009 90.611 100.437 94.299 100.437 98.0859C100.441 102.314 99.9112 106.419 98.9209 110.344Z" fill="url(#paint7_linear_21_402)"/>
<path d="M64.5428 87.3605C64.4958 87.3794 60.0068 92.4432 60.0068 92.4432L64.8852 94.0139L68.3704 89.2775C68.3751 89.2775 65.9547 86.7817 64.5428 87.3605Z" fill="white"/>
<path d="M88.8033 111.792C88.7891 111.844 84.3983 116.988 84.3983 116.988L82.241 112.29L86.4394 108.189C86.4347 108.195 89.1881 110.306 88.8033 111.792Z" fill="white"/>
<path d="M92.1426 125.089C92.1285 125.142 87.7384 130.286 87.7384 130.286L85.5803 125.588L89.7788 121.487C89.774 121.487 92.5274 123.599 92.1426 125.089Z" fill="white"/>
<path d="M43.6314 89.8422L41.0046 89.572C41.0046 89.572 33.2462 93.4351 33.3634 94.2558C33.4807 95.082 61.3061 107.397 61.3061 107.397C61.3061 107.397 47.2996 123.442 45.9392 123.504C44.5789 123.566 35.9809 123.333 34.9723 124.396C33.9638 125.46 30.0002 126.466 30.943 127.581C31.8812 128.691 41.8583 132.16 41.8583 132.16C41.8583 132.16 43.364 134.144 43.486 134.41C43.6079 134.676 46.9618 140.855 46.9618 140.855L49.1899 145.904C49.1899 145.904 50.5596 147.214 51.2351 145.003C51.9106 142.791 54.1949 140.997 54.1386 139.574C54.0823 138.15 53.5711 135.763 53.6836 134.657C53.7962 133.551 53.2052 131.463 53.4116 130.926C53.618 130.39 68.375 115.337 68.8675 115.389C69.3647 115.441 82.1279 145.315 84.0088 144.547C85.8905 143.779 88.4091 136.736 88.4091 136.736L80.9978 104.018C80.9978 104.018 90.9701 95.1102 92.2463 90.9338C93.5217 86.7574 96.4439 81.6228 91.5756 82.1827C86.7065 82.7427 79.3321 87.3126 78.9434 87.6786C78.5539 88.0437 72.1745 95.1432 72.1745 95.1432L57.3424 92.6427L43.6314 89.8422Z" fill="white"/>
<path d="M43.4064 135.354L47.7687 145.985C48.0409 146.697 48.7022 147.176 49.4528 147.224H49.6263C50.3252 147.224 50.9678 146.853 51.3244 146.246L53.3835 142.834C54.2795 141.353 54.7298 139.645 54.6876 137.907L54.3311 131.62C54.3264 131.325 54.4437 131.045 54.6501 130.842L69.1866 116.661L81.4337 143.849C81.9128 144.903 82.9447 145.586 84.0889 145.601H84.1502C85.2991 145.61 86.3452 144.946 86.8423 143.897L88.7091 140.058C89.2156 139.013 89.3476 137.823 89.0892 136.688L87.879 131.193L92.335 126.58C93.4753 125.398 93.4565 123.509 92.2934 122.351L91.5002 121.558C90.3324 120.405 88.4609 120.424 87.3159 121.606L86.0358 122.982L84.8633 117.81L89.2156 113.386C90.3465 112.205 90.3277 110.321 89.174 109.158L88.3478 108.356C87.1753 107.212 85.3086 107.231 84.1643 108.403L83.0853 109.552L81.9033 104.288L89.0421 97.2699C90.8672 95.1432 92.3303 92.7181 93.3622 90.1037C94.4507 87.4217 95.3892 83.8531 93.63 82.0924C90.323 78.8277 80.8196 84.8309 78.7274 86.9953L71.9729 94.427L66.7474 93.3165L67.8592 92.1722C68.4173 91.6076 68.7269 90.8435 68.7175 90.0463C68.7081 89.2492 68.3845 88.4898 67.8169 87.9393L67.0101 87.1469C65.8515 85.9987 63.994 86.0223 62.8588 87.1893L58.5527 91.6838L53.4117 90.611L54.6923 89.2822C55.8321 88.101 55.8134 86.2115 54.6501 85.0539L53.848 84.2615C52.68 83.1079 50.813 83.1275 49.6685 84.3039L45.2123 88.9359L39.7477 87.8018C38.6219 87.5647 37.4492 87.7209 36.4266 88.2573L32.674 90.2364C31.628 90.7586 30.9807 91.8495 31.0135 93.0314C31.0511 94.2039 31.7687 95.2429 32.8429 95.6796L59.9881 107.497L46.2772 122.503C46.0942 122.735 45.8081 122.863 45.5173 122.84L39.2974 122.64C37.543 122.598 35.8168 123.086 34.3346 124.036L30.9995 126.214C30.0801 126.826 29.8221 128.079 30.4272 129.009C30.6476 129.351 30.9666 129.612 31.3371 129.769L42.0039 133.959L43.4064 135.354ZM64.1816 88.6366C64.3646 88.4662 64.5991 88.3712 64.8477 88.3618C65.1104 88.3571 65.3637 88.4474 65.5607 88.6225L66.3347 89.4251C66.5316 89.5908 66.6442 89.8374 66.6302 90.099C66.649 90.3597 66.541 90.6157 66.3487 90.7869L64.3411 92.8563L60.8136 92.1534L64.1816 88.6366ZM51.0101 85.6995C51.193 85.5236 51.4322 85.4238 51.6856 85.4238C51.9388 85.4144 52.1828 85.5094 52.3657 85.6853L53.1725 86.4872C53.5478 86.8524 53.5618 87.4555 53.2006 87.8348C53.1959 87.8395 53.1913 87.8442 53.1866 87.849L50.996 90.1131L47.4686 89.3772L51.0101 85.6995ZM33.5747 93.8953C33.2275 93.739 32.993 93.3974 32.9743 93.0126C32.932 92.6042 33.1572 92.2202 33.5278 92.0537L37.2428 90.0369C37.8761 89.7377 38.5844 89.6482 39.2739 89.7856L70.317 96.1877L64.7867 102.2L44.9684 93.7194C44.4524 93.5058 43.8661 93.7531 43.6456 94.2699C43.4299 94.7686 43.6597 95.3521 44.1523 95.5704C44.1569 95.5704 44.1569 95.5704 44.1616 95.5751L63.3607 103.805L61.4141 105.945L33.5747 93.8953ZM53.2991 129.346C52.6565 129.953 52.3141 130.813 52.3563 131.695L52.6847 137.922C52.7315 139.312 52.3798 140.689 51.6621 141.875L49.5794 145.287L44.9215 133.769L48.8008 129.759C49.1901 129.379 49.1995 128.753 48.8242 128.364C48.8101 128.35 48.8008 128.34 48.7866 128.326C48.3973 127.946 47.7782 127.955 47.3982 128.34L43.5284 132.341L32.0454 127.856L35.3806 125.702C36.4642 124.99 37.7213 124.605 39.0112 124.586L39.2551 124.582L45.475 124.791C46.3521 124.828 47.1965 124.468 47.7875 123.813L80.097 88.423C82.4664 85.9791 90.4588 81.8411 92.185 83.5257C92.7528 84.0809 92.8604 85.9037 91.4813 89.3058C90.5531 91.6791 89.2533 93.8859 87.6355 95.8461L53.2991 129.346ZM88.7751 123.091C88.9533 122.911 89.1976 122.802 89.4504 122.793C89.7041 122.797 89.9429 122.902 90.1211 123.077L90.9285 123.879C91.3078 124.249 91.3172 124.857 90.9512 125.237C90.9465 125.241 90.9418 125.246 90.9418 125.246L87.3819 128.914L86.58 125.365L88.7751 123.091ZM85.5717 109.813C85.9235 109.429 86.5093 109.409 86.8895 109.761C86.9036 109.77 86.913 109.784 86.9271 109.798L87.729 110.591C88.1091 110.951 88.1326 111.55 87.7761 111.938C87.7667 111.948 87.7525 111.963 87.7431 111.972L84.3662 115.46L83.5635 111.91L85.5717 109.813ZM87.1565 137.205C87.3025 137.893 87.213 138.605 86.9036 139.237L85.0368 143.076C84.8633 143.437 84.4973 143.665 84.1031 143.645C83.7135 143.645 83.3617 143.398 83.2164 143.033L70.697 115.128L72.7703 113.139L81.312 132.355C81.4714 132.706 81.8138 132.938 82.1986 132.944C82.3345 132.944 82.4664 132.91 82.5834 132.849C83.0806 132.621 83.3059 132.037 83.0994 131.525L74.3042 111.635L80.1913 105.912L87.1565 137.205Z" fill="url(#paint8_linear_21_402)"/>
<path d="M82.3204 89.1164C81.7762 89.1211 81.3403 89.5719 81.345 90.1224C81.3497 90.673 81.795 91.1143 82.3393 91.1096C83.7796 91.0955 84.9662 92.2484 85.0039 93.7052C85.018 94.2557 85.4728 94.6876 86.017 94.6735C86.5707 94.6641 87.0112 94.2086 87.0065 93.6486C86.9178 91.1002 84.8398 89.0921 82.3204 89.1164Z" fill="url(#paint9_linear_21_402)"/>
</g>
<defs>
<linearGradient id="paint0_linear_21_402" x1="14.3516" y1="0.00378418" x2="85.5432" y2="28.8857" gradientUnits="userSpaceOnUse">
<stop stop-color="#16A7DD"/>
<stop offset="0.453013" stop-color="#3492B5"/>
<stop offset="1" stop-color="#8BBCCE"/>
</linearGradient>
<linearGradient id="paint1_linear_21_402" x1="31.1237" y1="14.1105" x2="36.7088" y2="15.5276" gradientUnits="userSpaceOnUse">
<stop stop-color="#16A7DD"/>
<stop offset="0.453013" stop-color="#3492B5"/>
<stop offset="1" stop-color="#8BBCCE"/>
</linearGradient>
<linearGradient id="paint2_linear_21_402" x1="39.4962" y1="13.3086" x2="45.0813" y2="14.7258" gradientUnits="userSpaceOnUse">
<stop stop-color="#16A7DD"/>
<stop offset="0.453013" stop-color="#3492B5"/>
<stop offset="1" stop-color="#8BBCCE"/>
</linearGradient>
<linearGradient id="paint3_linear_21_402" x1="47.8639" y1="12.5073" x2="53.449" y2="13.9245" gradientUnits="userSpaceOnUse">
<stop stop-color="#16A7DD"/>
<stop offset="0.453013" stop-color="#3492B5"/>
<stop offset="1" stop-color="#8BBCCE"/>
</linearGradient>
<linearGradient id="paint4_linear_21_402" x1="32.2626" y1="26.3259" x2="37.8477" y2="27.7431" gradientUnits="userSpaceOnUse">
<stop stop-color="#16A7DD"/>
<stop offset="0.453013" stop-color="#3492B5"/>
<stop offset="1" stop-color="#8BBCCE"/>
</linearGradient>
<linearGradient id="paint5_linear_21_402" x1="40.6351" y1="25.5242" x2="46.2202" y2="26.9413" gradientUnits="userSpaceOnUse">
<stop stop-color="#16A7DD"/>
<stop offset="0.453013" stop-color="#3492B5"/>
<stop offset="1" stop-color="#8BBCCE"/>
</linearGradient>
<linearGradient id="paint6_linear_21_402" x1="49.0077" y1="24.7223" x2="54.5928" y2="26.1394" gradientUnits="userSpaceOnUse">
<stop stop-color="#16A7DD"/>
<stop offset="0.453013" stop-color="#3492B5"/>
<stop offset="1" stop-color="#8BBCCE"/>
</linearGradient>
<linearGradient id="paint7_linear_21_402" x1="0.16748" y1="46.167" x2="124.482" y2="97.9983" gradientUnits="userSpaceOnUse">
<stop stop-color="#16A7DD"/>
<stop offset="0.453013" stop-color="#3492B5"/>
<stop offset="1" stop-color="#8BBCCE"/>
</linearGradient>
<linearGradient id="paint8_linear_21_402" x1="30.0997" y1="81.1401" x2="108.523" y2="113.432" gradientUnits="userSpaceOnUse">
<stop stop-color="#16A7DD"/>
<stop offset="0.453013" stop-color="#3492B5"/>
<stop offset="1" stop-color="#8BBCCE"/>
</linearGradient>
<linearGradient id="paint9_linear_21_402" x1="81.345" y1="89.1162" x2="88.14" y2="92.0361" gradientUnits="userSpaceOnUse">
<stop stop-color="#16A7DD"/>
<stop offset="0.453013" stop-color="#3492B5"/>
<stop offset="1" stop-color="#8BBCCE"/>
</linearGradient>
<clipPath id="clip0_21_402">
<rect width="103.665" height="150" fill="white" transform="translate(0.16748)"/>
</clipPath>
</defs>
</svg>
