<svg width="14" height="14" viewBox="0 0 14 14" fill="none" xmlns="http://www.w3.org/2000/svg">
<path d="M6.7645 0.139545L6.54353 0.360483C6.39709 0.50692 6.39709 0.744358 6.54353 0.890826L12.1215 6.46876H0.375C0.167906 6.46876 0 6.63667 0 6.84376V7.15626C0 7.36336 0.167906 7.53126 0.375 7.53126H12.1215L6.54353 13.1092C6.39709 13.2556 6.39709 13.4931 6.54353 13.6395L6.7645 13.8605C6.91094 14.0069 7.14838 14.0069 7.29481 13.8605L13.8902 7.26517C14.0366 7.11873 14.0366 6.8813 13.8902 6.73483L7.29481 0.139545C7.14838 -0.00692359 6.91094 -0.00692359 6.7645 0.139545Z" fill="#9A9A9D"/>
</svg>
